<svg xmlns="http://www.w3.org/2000/svg" xmlns:xlink="http://www.w3.org/1999/xlink" width="600" height="400" viewBox="0 0 2400 1600">
<defs>
  <clipPath id="clip630">
    <rect x="0" y="0" width="2400" height="1600"></rect>
  </clipPath>
</defs>
<path clip-path="url(#clip630)" d="M0 1600 L2400 1600 L2400 0 L0 0  Z" fill="#ffffff" fill-rule="evenodd" fill-opacity="1"></path>
<defs>
  <clipPath id="clip631">
    <rect x="480" y="0" width="1681" height="1600"></rect>
  </clipPath>
</defs>
<path clip-path="url(#clip630)" d="M214.839 1486.45 L1151.96 1486.45 L1151.96 203.472 L214.839 203.472  Z" fill="#ffffff" fill-rule="evenodd" fill-opacity="1"></path>
<defs>
  <clipPath id="clip632">
    <rect x="214" y="203" width="938" height="1284"></rect>
  </clipPath>
</defs>
<polyline clip-path="url(#clip632)" style="stroke:#000000; stroke-linecap:round; stroke-linejoin:round; stroke-width:2; stroke-opacity:0.1; fill:none" points="232.431,1486.45 232.431,203.472 "></polyline>
<polyline clip-path="url(#clip632)" style="stroke:#000000; stroke-linecap:round; stroke-linejoin:round; stroke-width:2; stroke-opacity:0.1; fill:none" points="455.682,1486.45 455.682,203.472 "></polyline>
<polyline clip-path="url(#clip632)" style="stroke:#000000; stroke-linecap:round; stroke-linejoin:round; stroke-width:2; stroke-opacity:0.1; fill:none" points="678.933,1486.45 678.933,203.472 "></polyline>
<polyline clip-path="url(#clip632)" style="stroke:#000000; stroke-linecap:round; stroke-linejoin:round; stroke-width:2; stroke-opacity:0.1; fill:none" points="902.184,1486.45 902.184,203.472 "></polyline>
<polyline clip-path="url(#clip632)" style="stroke:#000000; stroke-linecap:round; stroke-linejoin:round; stroke-width:2; stroke-opacity:0.1; fill:none" points="1125.44,1486.45 1125.44,203.472 "></polyline>
<polyline clip-path="url(#clip630)" style="stroke:#000000; stroke-linecap:round; stroke-linejoin:round; stroke-width:4; stroke-opacity:1; fill:none" points="214.839,1486.45 1151.96,1486.45 "></polyline>
<polyline clip-path="url(#clip630)" style="stroke:#000000; stroke-linecap:round; stroke-linejoin:round; stroke-width:4; stroke-opacity:1; fill:none" points="232.431,1486.45 232.431,1467.55 "></polyline>
<polyline clip-path="url(#clip630)" style="stroke:#000000; stroke-linecap:round; stroke-linejoin:round; stroke-width:4; stroke-opacity:1; fill:none" points="455.682,1486.45 455.682,1467.55 "></polyline>
<polyline clip-path="url(#clip630)" style="stroke:#000000; stroke-linecap:round; stroke-linejoin:round; stroke-width:4; stroke-opacity:1; fill:none" points="678.933,1486.45 678.933,1467.55 "></polyline>
<polyline clip-path="url(#clip630)" style="stroke:#000000; stroke-linecap:round; stroke-linejoin:round; stroke-width:4; stroke-opacity:1; fill:none" points="902.184,1486.45 902.184,1467.55 "></polyline>
<polyline clip-path="url(#clip630)" style="stroke:#000000; stroke-linecap:round; stroke-linejoin:round; stroke-width:4; stroke-opacity:1; fill:none" points="1125.44,1486.45 1125.44,1467.55 "></polyline>
<path clip-path="url(#clip630)" d="M232.431 1517.37 Q228.82 1517.37 226.991 1520.93 Q225.186 1524.47 225.186 1531.6 Q225.186 1538.71 226.991 1542.27 Q228.82 1545.82 232.431 1545.82 Q236.065 1545.82 237.871 1542.27 Q239.699 1538.71 239.699 1531.6 Q239.699 1524.47 237.871 1520.93 Q236.065 1517.37 232.431 1517.37 M232.431 1513.66 Q238.241 1513.66 241.297 1518.27 Q244.375 1522.85 244.375 1531.6 Q244.375 1540.33 241.297 1544.94 Q238.241 1549.52 232.431 1549.52 Q226.621 1549.52 223.542 1544.94 Q220.486 1540.33 220.486 1531.6 Q220.486 1522.85 223.542 1518.27 Q226.621 1513.66 232.431 1513.66 Z" fill="#000000" fill-rule="nonzero" fill-opacity="1"></path><path clip-path="url(#clip630)" d="M434.953 1544.91 L451.272 1544.91 L451.272 1548.85 L429.328 1548.85 L429.328 1544.91 Q431.99 1542.16 436.573 1537.53 Q441.18 1532.88 442.36 1531.53 Q444.606 1529.01 445.485 1527.27 Q446.388 1525.51 446.388 1523.82 Q446.388 1521.07 444.444 1519.33 Q442.522 1517.6 439.42 1517.6 Q437.221 1517.6 434.768 1518.36 Q432.337 1519.13 429.559 1520.68 L429.559 1515.95 Q432.383 1514.82 434.837 1514.24 Q437.291 1513.66 439.328 1513.66 Q444.698 1513.66 447.893 1516.35 Q451.087 1519.03 451.087 1523.52 Q451.087 1525.65 450.277 1527.57 Q449.49 1529.47 447.383 1532.07 Q446.805 1532.74 443.703 1535.95 Q440.601 1539.15 434.953 1544.91 Z" fill="#000000" fill-rule="nonzero" fill-opacity="1"></path><path clip-path="url(#clip630)" d="M461.133 1514.29 L479.49 1514.29 L479.49 1518.22 L465.416 1518.22 L465.416 1526.7 Q466.434 1526.35 467.453 1526.19 Q468.471 1526 469.49 1526 Q475.277 1526 478.656 1529.17 Q482.036 1532.34 482.036 1537.76 Q482.036 1543.34 478.564 1546.44 Q475.092 1549.52 468.772 1549.52 Q466.596 1549.52 464.328 1549.15 Q462.082 1548.78 459.675 1548.04 L459.675 1543.34 Q461.758 1544.47 463.98 1545.03 Q466.203 1545.58 468.68 1545.58 Q472.684 1545.58 475.022 1543.48 Q477.36 1541.37 477.36 1537.76 Q477.36 1534.15 475.022 1532.04 Q472.684 1529.94 468.68 1529.94 Q466.805 1529.94 464.93 1530.35 Q463.078 1530.77 461.133 1531.65 L461.133 1514.29 Z" fill="#000000" fill-rule="nonzero" fill-opacity="1"></path><path clip-path="url(#clip630)" d="M653.632 1514.29 L671.989 1514.29 L671.989 1518.22 L657.915 1518.22 L657.915 1526.7 Q658.933 1526.35 659.952 1526.19 Q660.97 1526 661.989 1526 Q667.776 1526 671.155 1529.17 Q674.535 1532.34 674.535 1537.76 Q674.535 1543.34 671.063 1546.44 Q667.59 1549.52 661.271 1549.52 Q659.095 1549.52 656.827 1549.15 Q654.581 1548.78 652.174 1548.04 L652.174 1543.34 Q654.257 1544.47 656.479 1545.03 Q658.702 1545.58 661.178 1545.58 Q665.183 1545.58 667.521 1543.48 Q669.859 1541.37 669.859 1537.76 Q669.859 1534.15 667.521 1532.04 Q665.183 1529.94 661.178 1529.94 Q659.303 1529.94 657.428 1530.35 Q655.577 1530.77 653.632 1531.65 L653.632 1514.29 Z" fill="#000000" fill-rule="nonzero" fill-opacity="1"></path><path clip-path="url(#clip630)" d="M693.748 1517.37 Q690.137 1517.37 688.308 1520.93 Q686.502 1524.47 686.502 1531.6 Q686.502 1538.71 688.308 1542.27 Q690.137 1545.82 693.748 1545.82 Q697.382 1545.82 699.187 1542.27 Q701.016 1538.71 701.016 1531.6 Q701.016 1524.47 699.187 1520.93 Q697.382 1517.37 693.748 1517.37 M693.748 1513.66 Q699.558 1513.66 702.613 1518.27 Q705.692 1522.85 705.692 1531.6 Q705.692 1540.33 702.613 1544.94 Q699.558 1549.52 693.748 1549.52 Q687.938 1549.52 684.859 1544.94 Q681.803 1540.33 681.803 1531.6 Q681.803 1522.85 684.859 1518.27 Q687.938 1513.66 693.748 1513.66 Z" fill="#000000" fill-rule="nonzero" fill-opacity="1"></path><path clip-path="url(#clip630)" d="M876.038 1514.29 L898.26 1514.29 L898.26 1516.28 L885.714 1548.85 L880.83 1548.85 L892.635 1518.22 L876.038 1518.22 L876.038 1514.29 Z" fill="#000000" fill-rule="nonzero" fill-opacity="1"></path><path clip-path="url(#clip630)" d="M907.427 1514.29 L925.783 1514.29 L925.783 1518.22 L911.709 1518.22 L911.709 1526.7 Q912.728 1526.35 913.746 1526.19 Q914.765 1526 915.783 1526 Q921.57 1526 924.95 1529.17 Q928.33 1532.34 928.33 1537.76 Q928.33 1543.34 924.858 1546.44 Q921.385 1549.52 915.066 1549.52 Q912.89 1549.52 910.621 1549.15 Q908.376 1548.78 905.969 1548.04 L905.969 1543.34 Q908.052 1544.47 910.274 1545.03 Q912.496 1545.58 914.973 1545.58 Q918.978 1545.58 921.316 1543.48 Q923.654 1541.37 923.654 1537.76 Q923.654 1534.15 921.316 1532.04 Q918.978 1529.94 914.973 1529.94 Q913.098 1529.94 911.223 1530.35 Q909.371 1530.77 907.427 1531.65 L907.427 1514.29 Z" fill="#000000" fill-rule="nonzero" fill-opacity="1"></path><path clip-path="url(#clip630)" d="M1085.04 1544.91 L1092.68 1544.91 L1092.68 1518.55 L1084.37 1520.21 L1084.37 1515.95 L1092.63 1514.29 L1097.31 1514.29 L1097.31 1544.91 L1104.95 1544.91 L1104.95 1548.85 L1085.04 1548.85 L1085.04 1544.91 Z" fill="#000000" fill-rule="nonzero" fill-opacity="1"></path><path clip-path="url(#clip630)" d="M1124.39 1517.37 Q1120.78 1517.37 1118.95 1520.93 Q1117.15 1524.47 1117.15 1531.6 Q1117.15 1538.71 1118.95 1542.27 Q1120.78 1545.82 1124.39 1545.82 Q1128.03 1545.82 1129.83 1542.27 Q1131.66 1538.71 1131.66 1531.6 Q1131.66 1524.47 1129.83 1520.93 Q1128.03 1517.37 1124.39 1517.37 M1124.39 1513.66 Q1130.2 1513.66 1133.26 1518.27 Q1136.34 1522.85 1136.34 1531.6 Q1136.34 1540.33 1133.26 1544.94 Q1130.2 1549.52 1124.39 1549.52 Q1118.58 1549.52 1115.5 1544.94 Q1112.45 1540.33 1112.45 1531.6 Q1112.45 1522.85 1115.5 1518.27 Q1118.58 1513.66 1124.39 1513.66 Z" fill="#000000" fill-rule="nonzero" fill-opacity="1"></path><path clip-path="url(#clip630)" d="M1154.56 1517.37 Q1150.94 1517.37 1149.12 1520.93 Q1147.31 1524.47 1147.31 1531.6 Q1147.31 1538.71 1149.12 1542.27 Q1150.94 1545.82 1154.56 1545.82 Q1158.19 1545.82 1160 1542.27 Q1161.82 1538.71 1161.82 1531.6 Q1161.82 1524.47 1160 1520.93 Q1158.19 1517.37 1154.56 1517.37 M1154.56 1513.66 Q1160.37 1513.66 1163.42 1518.27 Q1166.5 1522.85 1166.5 1531.6 Q1166.5 1540.33 1163.42 1544.94 Q1160.37 1549.52 1154.56 1549.52 Q1148.75 1549.52 1145.67 1544.94 Q1142.61 1540.33 1142.61 1531.6 Q1142.61 1522.85 1145.67 1518.27 Q1148.75 1513.66 1154.56 1513.66 Z" fill="#000000" fill-rule="nonzero" fill-opacity="1"></path><polyline clip-path="url(#clip632)" style="stroke:#000000; stroke-linecap:round; stroke-linejoin:round; stroke-width:2; stroke-opacity:0.1; fill:none" points="214.839,1429.89 1151.96,1429.89 "></polyline>
<polyline clip-path="url(#clip632)" style="stroke:#000000; stroke-linecap:round; stroke-linejoin:round; stroke-width:2; stroke-opacity:0.1; fill:none" points="214.839,1273.82 1151.96,1273.82 "></polyline>
<polyline clip-path="url(#clip632)" style="stroke:#000000; stroke-linecap:round; stroke-linejoin:round; stroke-width:2; stroke-opacity:0.1; fill:none" points="214.839,1117.75 1151.96,1117.75 "></polyline>
<polyline clip-path="url(#clip632)" style="stroke:#000000; stroke-linecap:round; stroke-linejoin:round; stroke-width:2; stroke-opacity:0.1; fill:none" points="214.839,961.687 1151.96,961.687 "></polyline>
<polyline clip-path="url(#clip632)" style="stroke:#000000; stroke-linecap:round; stroke-linejoin:round; stroke-width:2; stroke-opacity:0.1; fill:none" points="214.839,805.621 1151.96,805.621 "></polyline>
<polyline clip-path="url(#clip632)" style="stroke:#000000; stroke-linecap:round; stroke-linejoin:round; stroke-width:2; stroke-opacity:0.1; fill:none" points="214.839,649.554 1151.96,649.554 "></polyline>
<polyline clip-path="url(#clip632)" style="stroke:#000000; stroke-linecap:round; stroke-linejoin:round; stroke-width:2; stroke-opacity:0.1; fill:none" points="214.839,493.488 1151.96,493.488 "></polyline>
<polyline clip-path="url(#clip632)" style="stroke:#000000; stroke-linecap:round; stroke-linejoin:round; stroke-width:2; stroke-opacity:0.1; fill:none" points="214.839,337.422 1151.96,337.422 "></polyline>
<polyline clip-path="url(#clip630)" style="stroke:#000000; stroke-linecap:round; stroke-linejoin:round; stroke-width:4; stroke-opacity:1; fill:none" points="214.839,1486.45 214.839,203.472 "></polyline>
<polyline clip-path="url(#clip630)" style="stroke:#000000; stroke-linecap:round; stroke-linejoin:round; stroke-width:4; stroke-opacity:1; fill:none" points="214.839,1429.89 233.736,1429.89 "></polyline>
<polyline clip-path="url(#clip630)" style="stroke:#000000; stroke-linecap:round; stroke-linejoin:round; stroke-width:4; stroke-opacity:1; fill:none" points="214.839,1273.82 233.736,1273.82 "></polyline>
<polyline clip-path="url(#clip630)" style="stroke:#000000; stroke-linecap:round; stroke-linejoin:round; stroke-width:4; stroke-opacity:1; fill:none" points="214.839,1117.75 233.736,1117.75 "></polyline>
<polyline clip-path="url(#clip630)" style="stroke:#000000; stroke-linecap:round; stroke-linejoin:round; stroke-width:4; stroke-opacity:1; fill:none" points="214.839,961.687 233.736,961.687 "></polyline>
<polyline clip-path="url(#clip630)" style="stroke:#000000; stroke-linecap:round; stroke-linejoin:round; stroke-width:4; stroke-opacity:1; fill:none" points="214.839,805.621 233.736,805.621 "></polyline>
<polyline clip-path="url(#clip630)" style="stroke:#000000; stroke-linecap:round; stroke-linejoin:round; stroke-width:4; stroke-opacity:1; fill:none" points="214.839,649.554 233.736,649.554 "></polyline>
<polyline clip-path="url(#clip630)" style="stroke:#000000; stroke-linecap:round; stroke-linejoin:round; stroke-width:4; stroke-opacity:1; fill:none" points="214.839,493.488 233.736,493.488 "></polyline>
<polyline clip-path="url(#clip630)" style="stroke:#000000; stroke-linecap:round; stroke-linejoin:round; stroke-width:4; stroke-opacity:1; fill:none" points="214.839,337.422 233.736,337.422 "></polyline>
<path clip-path="url(#clip630)" d="M53.7467 1443.23 L61.3856 1443.23 L61.3856 1416.87 L53.0754 1418.53 L53.0754 1414.27 L61.3393 1412.61 L66.0152 1412.61 L66.0152 1443.23 L73.654 1443.23 L73.654 1447.17 L53.7467 1447.17 L53.7467 1443.23 Z" fill="#000000" fill-rule="nonzero" fill-opacity="1"></path><path clip-path="url(#clip630)" d="M83.0984 1441.29 L87.9827 1441.29 L87.9827 1447.17 L83.0984 1447.17 L83.0984 1441.29 Z" fill="#000000" fill-rule="nonzero" fill-opacity="1"></path><path clip-path="url(#clip630)" d="M108.168 1415.69 Q104.557 1415.69 102.728 1419.25 Q100.922 1422.79 100.922 1429.92 Q100.922 1437.03 102.728 1440.59 Q104.557 1444.13 108.168 1444.13 Q111.802 1444.13 113.608 1440.59 Q115.436 1437.03 115.436 1429.92 Q115.436 1422.79 113.608 1419.25 Q111.802 1415.69 108.168 1415.69 M108.168 1411.98 Q113.978 1411.98 117.033 1416.59 Q120.112 1421.17 120.112 1429.92 Q120.112 1438.65 117.033 1443.25 Q113.978 1447.84 108.168 1447.84 Q102.358 1447.84 99.2789 1443.25 Q96.2234 1438.65 96.2234 1429.92 Q96.2234 1421.17 99.2789 1416.59 Q102.358 1411.98 108.168 1411.98 Z" fill="#000000" fill-rule="nonzero" fill-opacity="1"></path><path clip-path="url(#clip630)" d="M138.33 1415.69 Q134.719 1415.69 132.89 1419.25 Q131.084 1422.79 131.084 1429.92 Q131.084 1437.03 132.89 1440.59 Q134.719 1444.13 138.33 1444.13 Q141.964 1444.13 143.769 1440.59 Q145.598 1437.03 145.598 1429.92 Q145.598 1422.79 143.769 1419.25 Q141.964 1415.69 138.33 1415.69 M138.33 1411.98 Q144.14 1411.98 147.195 1416.59 Q150.274 1421.17 150.274 1429.92 Q150.274 1438.65 147.195 1443.25 Q144.14 1447.84 138.33 1447.84 Q132.519 1447.84 129.441 1443.25 Q126.385 1438.65 126.385 1429.92 Q126.385 1421.17 129.441 1416.59 Q132.519 1411.98 138.33 1411.98 Z" fill="#000000" fill-rule="nonzero" fill-opacity="1"></path><path clip-path="url(#clip630)" d="M162.519 1443.23 L178.839 1443.23 L178.839 1447.17 L156.894 1447.17 L156.894 1443.23 Q159.556 1440.48 164.14 1435.85 Q168.746 1431.19 169.927 1429.85 Q172.172 1427.33 173.052 1425.59 Q173.954 1423.83 173.954 1422.14 Q173.954 1419.39 172.01 1417.65 Q170.089 1415.92 166.987 1415.92 Q164.788 1415.92 162.334 1416.68 Q159.904 1417.44 157.126 1419 L157.126 1414.27 Q159.95 1413.14 162.404 1412.56 Q164.857 1411.98 166.894 1411.98 Q172.265 1411.98 175.459 1414.67 Q178.653 1417.35 178.653 1421.84 Q178.653 1423.97 177.843 1425.89 Q177.056 1427.79 174.95 1430.38 Q174.371 1431.06 171.269 1434.27 Q168.167 1437.47 162.519 1443.23 Z" fill="#000000" fill-rule="nonzero" fill-opacity="1"></path><path clip-path="url(#clip630)" d="M51.6634 1287.17 L59.3023 1287.17 L59.3023 1260.8 L50.9921 1262.47 L50.9921 1258.21 L59.256 1256.54 L63.9319 1256.54 L63.9319 1287.17 L71.5707 1287.17 L71.5707 1291.1 L51.6634 1291.1 L51.6634 1287.17 Z" fill="#000000" fill-rule="nonzero" fill-opacity="1"></path><path clip-path="url(#clip630)" d="M81.0151 1285.22 L85.8993 1285.22 L85.8993 1291.1 L81.0151 1291.1 L81.0151 1285.22 Z" fill="#000000" fill-rule="nonzero" fill-opacity="1"></path><path clip-path="url(#clip630)" d="M106.084 1259.62 Q102.473 1259.62 100.645 1263.18 Q98.8391 1266.73 98.8391 1273.86 Q98.8391 1280.96 100.645 1284.53 Q102.473 1288.07 106.084 1288.07 Q109.719 1288.07 111.524 1284.53 Q113.353 1280.96 113.353 1273.86 Q113.353 1266.73 111.524 1263.18 Q109.719 1259.62 106.084 1259.62 M106.084 1255.92 Q111.895 1255.92 114.95 1260.52 Q118.029 1265.11 118.029 1273.86 Q118.029 1282.58 114.95 1287.19 Q111.895 1291.77 106.084 1291.77 Q100.274 1291.77 97.1956 1287.19 Q94.14 1282.58 94.14 1273.86 Q94.14 1265.11 97.1956 1260.52 Q100.274 1255.92 106.084 1255.92 Z" fill="#000000" fill-rule="nonzero" fill-opacity="1"></path><path clip-path="url(#clip630)" d="M136.246 1259.62 Q132.635 1259.62 130.807 1263.18 Q129.001 1266.73 129.001 1273.86 Q129.001 1280.96 130.807 1284.53 Q132.635 1288.07 136.246 1288.07 Q139.881 1288.07 141.686 1284.53 Q143.515 1280.96 143.515 1273.86 Q143.515 1266.73 141.686 1263.18 Q139.881 1259.62 136.246 1259.62 M136.246 1255.92 Q142.056 1255.92 145.112 1260.52 Q148.191 1265.11 148.191 1273.86 Q148.191 1282.58 145.112 1287.19 Q142.056 1291.77 136.246 1291.77 Q130.436 1291.77 127.357 1287.19 Q124.302 1282.58 124.302 1273.86 Q124.302 1265.11 127.357 1260.52 Q130.436 1255.92 136.246 1255.92 Z" fill="#000000" fill-rule="nonzero" fill-opacity="1"></path><path clip-path="url(#clip630)" d="M169.255 1260.61 L157.45 1279.06 L169.255 1279.06 L169.255 1260.61 M168.029 1256.54 L173.908 1256.54 L173.908 1279.06 L178.839 1279.06 L178.839 1282.95 L173.908 1282.95 L173.908 1291.1 L169.255 1291.1 L169.255 1282.95 L153.654 1282.95 L153.654 1278.44 L168.029 1256.54 Z" fill="#000000" fill-rule="nonzero" fill-opacity="1"></path><path clip-path="url(#clip630)" d="M51.9875 1131.1 L59.6263 1131.1 L59.6263 1104.73 L51.3162 1106.4 L51.3162 1102.14 L59.58 1100.47 L64.2559 1100.47 L64.2559 1131.1 L71.8948 1131.1 L71.8948 1135.03 L51.9875 1135.03 L51.9875 1131.1 Z" fill="#000000" fill-rule="nonzero" fill-opacity="1"></path><path clip-path="url(#clip630)" d="M81.3392 1129.15 L86.2234 1129.15 L86.2234 1135.03 L81.3392 1135.03 L81.3392 1129.15 Z" fill="#000000" fill-rule="nonzero" fill-opacity="1"></path><path clip-path="url(#clip630)" d="M106.408 1103.55 Q102.797 1103.55 100.969 1107.12 Q99.1632 1110.66 99.1632 1117.79 Q99.1632 1124.9 100.969 1128.46 Q102.797 1132 106.408 1132 Q110.043 1132 111.848 1128.46 Q113.677 1124.9 113.677 1117.79 Q113.677 1110.66 111.848 1107.12 Q110.043 1103.55 106.408 1103.55 M106.408 1099.85 Q112.219 1099.85 115.274 1104.46 Q118.353 1109.04 118.353 1117.79 Q118.353 1126.52 115.274 1131.12 Q112.219 1135.71 106.408 1135.71 Q100.598 1135.71 97.5197 1131.12 Q94.4641 1126.52 94.4641 1117.79 Q94.4641 1109.04 97.5197 1104.46 Q100.598 1099.85 106.408 1099.85 Z" fill="#000000" fill-rule="nonzero" fill-opacity="1"></path><path clip-path="url(#clip630)" d="M136.57 1103.55 Q132.959 1103.55 131.131 1107.12 Q129.325 1110.66 129.325 1117.79 Q129.325 1124.9 131.131 1128.46 Q132.959 1132 136.57 1132 Q140.205 1132 142.01 1128.46 Q143.839 1124.9 143.839 1117.79 Q143.839 1110.66 142.01 1107.12 Q140.205 1103.55 136.57 1103.55 M136.57 1099.85 Q142.381 1099.85 145.436 1104.46 Q148.515 1109.04 148.515 1117.79 Q148.515 1126.52 145.436 1131.12 Q142.381 1135.71 136.57 1135.71 Q130.76 1135.71 127.682 1131.12 Q124.626 1126.52 124.626 1117.79 Q124.626 1109.04 127.682 1104.46 Q130.76 1099.85 136.57 1099.85 Z" fill="#000000" fill-rule="nonzero" fill-opacity="1"></path><path clip-path="url(#clip630)" d="M167.311 1115.89 Q164.163 1115.89 162.311 1118.04 Q160.482 1120.2 160.482 1123.95 Q160.482 1127.67 162.311 1129.85 Q164.163 1132 167.311 1132 Q170.459 1132 172.288 1129.85 Q174.14 1127.67 174.14 1123.95 Q174.14 1120.2 172.288 1118.04 Q170.459 1115.89 167.311 1115.89 M176.593 1101.24 L176.593 1105.5 Q174.834 1104.66 173.029 1104.22 Q171.246 1103.78 169.487 1103.78 Q164.857 1103.78 162.404 1106.91 Q159.973 1110.03 159.626 1116.35 Q160.992 1114.34 163.052 1113.27 Q165.112 1112.19 167.589 1112.19 Q172.797 1112.19 175.806 1115.36 Q178.839 1118.51 178.839 1123.95 Q178.839 1129.27 175.691 1132.49 Q172.542 1135.71 167.311 1135.71 Q161.316 1135.71 158.144 1131.12 Q154.973 1126.52 154.973 1117.79 Q154.973 1109.59 158.862 1104.73 Q162.751 1099.85 169.302 1099.85 Q171.061 1099.85 172.843 1100.2 Q174.649 1100.54 176.593 1101.24 Z" fill="#000000" fill-rule="nonzero" fill-opacity="1"></path><path clip-path="url(#clip630)" d="M52.2421 975.032 L59.881 975.032 L59.881 948.667 L51.5708 950.333 L51.5708 946.074 L59.8347 944.407 L64.5106 944.407 L64.5106 975.032 L72.1494 975.032 L72.1494 978.967 L52.2421 978.967 L52.2421 975.032 Z" fill="#000000" fill-rule="nonzero" fill-opacity="1"></path><path clip-path="url(#clip630)" d="M81.5938 973.088 L86.478 973.088 L86.478 978.967 L81.5938 978.967 L81.5938 973.088 Z" fill="#000000" fill-rule="nonzero" fill-opacity="1"></path><path clip-path="url(#clip630)" d="M106.663 947.486 Q103.052 947.486 101.223 951.051 Q99.4178 954.593 99.4178 961.722 Q99.4178 968.829 101.223 972.393 Q103.052 975.935 106.663 975.935 Q110.297 975.935 112.103 972.393 Q113.932 968.829 113.932 961.722 Q113.932 954.593 112.103 951.051 Q110.297 947.486 106.663 947.486 M106.663 943.782 Q112.473 943.782 115.529 948.389 Q118.608 952.972 118.608 961.722 Q118.608 970.449 115.529 975.055 Q112.473 979.639 106.663 979.639 Q100.853 979.639 97.7743 975.055 Q94.7187 970.449 94.7187 961.722 Q94.7187 952.972 97.7743 948.389 Q100.853 943.782 106.663 943.782 Z" fill="#000000" fill-rule="nonzero" fill-opacity="1"></path><path clip-path="url(#clip630)" d="M136.825 947.486 Q133.214 947.486 131.385 951.051 Q129.58 954.593 129.58 961.722 Q129.58 968.829 131.385 972.393 Q133.214 975.935 136.825 975.935 Q140.459 975.935 142.265 972.393 Q144.093 968.829 144.093 961.722 Q144.093 954.593 142.265 951.051 Q140.459 947.486 136.825 947.486 M136.825 943.782 Q142.635 943.782 145.691 948.389 Q148.769 952.972 148.769 961.722 Q148.769 970.449 145.691 975.055 Q142.635 979.639 136.825 979.639 Q131.015 979.639 127.936 975.055 Q124.881 970.449 124.881 961.722 Q124.881 952.972 127.936 948.389 Q131.015 943.782 136.825 943.782 Z" fill="#000000" fill-rule="nonzero" fill-opacity="1"></path><path clip-path="url(#clip630)" d="M166.987 962.555 Q163.654 962.555 161.732 964.338 Q159.834 966.12 159.834 969.245 Q159.834 972.37 161.732 974.153 Q163.654 975.935 166.987 975.935 Q170.32 975.935 172.241 974.153 Q174.163 972.347 174.163 969.245 Q174.163 966.12 172.241 964.338 Q170.343 962.555 166.987 962.555 M162.311 960.565 Q159.302 959.824 157.612 957.764 Q155.945 955.704 155.945 952.741 Q155.945 948.597 158.885 946.19 Q161.848 943.782 166.987 943.782 Q172.149 943.782 175.089 946.19 Q178.028 948.597 178.028 952.741 Q178.028 955.704 176.339 957.764 Q174.672 959.824 171.686 960.565 Q175.066 961.352 176.941 963.643 Q178.839 965.935 178.839 969.245 Q178.839 974.268 175.76 976.954 Q172.704 979.639 166.987 979.639 Q161.269 979.639 158.191 976.954 Q155.135 974.268 155.135 969.245 Q155.135 965.935 157.033 963.643 Q158.931 961.352 162.311 960.565 M160.598 953.18 Q160.598 955.866 162.265 957.37 Q163.954 958.875 166.987 958.875 Q169.996 958.875 171.686 957.37 Q173.399 955.866 173.399 953.18 Q173.399 950.495 171.686 948.991 Q169.996 947.486 166.987 947.486 Q163.954 947.486 162.265 948.991 Q160.598 950.495 160.598 953.18 Z" fill="#000000" fill-rule="nonzero" fill-opacity="1"></path><path clip-path="url(#clip630)" d="M52.1495 818.966 L59.7884 818.966 L59.7884 792.6 L51.4782 794.267 L51.4782 790.008 L59.7421 788.341 L64.418 788.341 L64.418 818.966 L72.0568 818.966 L72.0568 822.901 L52.1495 822.901 L52.1495 818.966 Z" fill="#000000" fill-rule="nonzero" fill-opacity="1"></path><path clip-path="url(#clip630)" d="M81.5012 817.021 L86.3855 817.021 L86.3855 822.901 L81.5012 822.901 L81.5012 817.021 Z" fill="#000000" fill-rule="nonzero" fill-opacity="1"></path><path clip-path="url(#clip630)" d="M106.571 791.42 Q102.959 791.42 101.131 794.984 Q99.3252 798.526 99.3252 805.656 Q99.3252 812.762 101.131 816.327 Q102.959 819.869 106.571 819.869 Q110.205 819.869 112.01 816.327 Q113.839 812.762 113.839 805.656 Q113.839 798.526 112.01 794.984 Q110.205 791.42 106.571 791.42 M106.571 787.716 Q112.381 787.716 115.436 792.322 Q118.515 796.906 118.515 805.656 Q118.515 814.382 115.436 818.989 Q112.381 823.572 106.571 823.572 Q100.76 823.572 97.6817 818.989 Q94.6262 814.382 94.6262 805.656 Q94.6262 796.906 97.6817 792.322 Q100.76 787.716 106.571 787.716 Z" fill="#000000" fill-rule="nonzero" fill-opacity="1"></path><path clip-path="url(#clip630)" d="M127.543 818.966 L135.181 818.966 L135.181 792.6 L126.871 794.267 L126.871 790.008 L135.135 788.341 L139.811 788.341 L139.811 818.966 L147.45 818.966 L147.45 822.901 L127.543 822.901 L127.543 818.966 Z" fill="#000000" fill-rule="nonzero" fill-opacity="1"></path><path clip-path="url(#clip630)" d="M166.894 791.42 Q163.283 791.42 161.454 794.984 Q159.649 798.526 159.649 805.656 Q159.649 812.762 161.454 816.327 Q163.283 819.869 166.894 819.869 Q170.529 819.869 172.334 816.327 Q174.163 812.762 174.163 805.656 Q174.163 798.526 172.334 794.984 Q170.529 791.42 166.894 791.42 M166.894 787.716 Q172.704 787.716 175.76 792.322 Q178.839 796.906 178.839 805.656 Q178.839 814.382 175.76 818.989 Q172.704 823.572 166.894 823.572 Q161.084 823.572 158.005 818.989 Q154.95 814.382 154.95 805.656 Q154.95 796.906 158.005 792.322 Q161.084 787.716 166.894 787.716 Z" fill="#000000" fill-rule="nonzero" fill-opacity="1"></path><path clip-path="url(#clip630)" d="M53.7467 662.899 L61.3856 662.899 L61.3856 636.534 L53.0754 638.2 L53.0754 633.941 L61.3393 632.274 L66.0152 632.274 L66.0152 662.899 L73.654 662.899 L73.654 666.834 L53.7467 666.834 L53.7467 662.899 Z" fill="#000000" fill-rule="nonzero" fill-opacity="1"></path><path clip-path="url(#clip630)" d="M83.0984 660.955 L87.9827 660.955 L87.9827 666.834 L83.0984 666.834 L83.0984 660.955 Z" fill="#000000" fill-rule="nonzero" fill-opacity="1"></path><path clip-path="url(#clip630)" d="M108.168 635.353 Q104.557 635.353 102.728 638.918 Q100.922 642.46 100.922 649.589 Q100.922 656.696 102.728 660.26 Q104.557 663.802 108.168 663.802 Q111.802 663.802 113.608 660.26 Q115.436 656.696 115.436 649.589 Q115.436 642.46 113.608 638.918 Q111.802 635.353 108.168 635.353 M108.168 631.649 Q113.978 631.649 117.033 636.256 Q120.112 640.839 120.112 649.589 Q120.112 658.316 117.033 662.922 Q113.978 667.506 108.168 667.506 Q102.358 667.506 99.2789 662.922 Q96.2234 658.316 96.2234 649.589 Q96.2234 640.839 99.2789 636.256 Q102.358 631.649 108.168 631.649 Z" fill="#000000" fill-rule="nonzero" fill-opacity="1"></path><path clip-path="url(#clip630)" d="M129.14 662.899 L136.779 662.899 L136.779 636.534 L128.469 638.2 L128.469 633.941 L136.732 632.274 L141.408 632.274 L141.408 662.899 L149.047 662.899 L149.047 666.834 L129.14 666.834 L129.14 662.899 Z" fill="#000000" fill-rule="nonzero" fill-opacity="1"></path><path clip-path="url(#clip630)" d="M162.519 662.899 L178.839 662.899 L178.839 666.834 L156.894 666.834 L156.894 662.899 Q159.556 660.145 164.14 655.515 Q168.746 650.862 169.927 649.52 Q172.172 646.997 173.052 645.26 Q173.954 643.501 173.954 641.811 Q173.954 639.057 172.01 637.321 Q170.089 635.585 166.987 635.585 Q164.788 635.585 162.334 636.349 Q159.904 637.112 157.126 638.663 L157.126 633.941 Q159.95 632.807 162.404 632.228 Q164.857 631.649 166.894 631.649 Q172.265 631.649 175.459 634.335 Q178.653 637.02 178.653 641.511 Q178.653 643.64 177.843 645.561 Q177.056 647.46 174.95 650.052 Q174.371 650.723 171.269 653.941 Q168.167 657.135 162.519 662.899 Z" fill="#000000" fill-rule="nonzero" fill-opacity="1"></path><path clip-path="url(#clip630)" d="M51.6634 506.833 L59.3023 506.833 L59.3023 480.467 L50.9921 482.134 L50.9921 477.875 L59.256 476.208 L63.9319 476.208 L63.9319 506.833 L71.5707 506.833 L71.5707 510.768 L51.6634 510.768 L51.6634 506.833 Z" fill="#000000" fill-rule="nonzero" fill-opacity="1"></path><path clip-path="url(#clip630)" d="M81.0151 504.888 L85.8993 504.888 L85.8993 510.768 L81.0151 510.768 L81.0151 504.888 Z" fill="#000000" fill-rule="nonzero" fill-opacity="1"></path><path clip-path="url(#clip630)" d="M106.084 479.287 Q102.473 479.287 100.645 482.851 Q98.8391 486.393 98.8391 493.523 Q98.8391 500.629 100.645 504.194 Q102.473 507.736 106.084 507.736 Q109.719 507.736 111.524 504.194 Q113.353 500.629 113.353 493.523 Q113.353 486.393 111.524 482.851 Q109.719 479.287 106.084 479.287 M106.084 475.583 Q111.895 475.583 114.95 480.189 Q118.029 484.773 118.029 493.523 Q118.029 502.25 114.95 506.856 Q111.895 511.439 106.084 511.439 Q100.274 511.439 97.1956 506.856 Q94.14 502.25 94.14 493.523 Q94.14 484.773 97.1956 480.189 Q100.274 475.583 106.084 475.583 Z" fill="#000000" fill-rule="nonzero" fill-opacity="1"></path><path clip-path="url(#clip630)" d="M127.057 506.833 L134.695 506.833 L134.695 480.467 L126.385 482.134 L126.385 477.875 L134.649 476.208 L139.325 476.208 L139.325 506.833 L146.964 506.833 L146.964 510.768 L127.057 510.768 L127.057 506.833 Z" fill="#000000" fill-rule="nonzero" fill-opacity="1"></path><path clip-path="url(#clip630)" d="M169.255 480.282 L157.45 498.731 L169.255 498.731 L169.255 480.282 M168.029 476.208 L173.908 476.208 L173.908 498.731 L178.839 498.731 L178.839 502.62 L173.908 502.62 L173.908 510.768 L169.255 510.768 L169.255 502.62 L153.654 502.62 L153.654 498.106 L168.029 476.208 Z" fill="#000000" fill-rule="nonzero" fill-opacity="1"></path><path clip-path="url(#clip630)" d="M51.9875 350.766 L59.6263 350.766 L59.6263 324.401 L51.3162 326.067 L51.3162 321.808 L59.58 320.142 L64.2559 320.142 L64.2559 350.766 L71.8948 350.766 L71.8948 354.702 L51.9875 354.702 L51.9875 350.766 Z" fill="#000000" fill-rule="nonzero" fill-opacity="1"></path><path clip-path="url(#clip630)" d="M81.3392 348.822 L86.2234 348.822 L86.2234 354.702 L81.3392 354.702 L81.3392 348.822 Z" fill="#000000" fill-rule="nonzero" fill-opacity="1"></path><path clip-path="url(#clip630)" d="M106.408 323.22 Q102.797 323.22 100.969 326.785 Q99.1632 330.327 99.1632 337.456 Q99.1632 344.563 100.969 348.127 Q102.797 351.669 106.408 351.669 Q110.043 351.669 111.848 348.127 Q113.677 344.563 113.677 337.456 Q113.677 330.327 111.848 326.785 Q110.043 323.22 106.408 323.22 M106.408 319.517 Q112.219 319.517 115.274 324.123 Q118.353 328.706 118.353 337.456 Q118.353 346.183 115.274 350.79 Q112.219 355.373 106.408 355.373 Q100.598 355.373 97.5197 350.79 Q94.4641 346.183 94.4641 337.456 Q94.4641 328.706 97.5197 324.123 Q100.598 319.517 106.408 319.517 Z" fill="#000000" fill-rule="nonzero" fill-opacity="1"></path><path clip-path="url(#clip630)" d="M127.381 350.766 L135.019 350.766 L135.019 324.401 L126.709 326.067 L126.709 321.808 L134.973 320.142 L139.649 320.142 L139.649 350.766 L147.288 350.766 L147.288 354.702 L127.381 354.702 L127.381 350.766 Z" fill="#000000" fill-rule="nonzero" fill-opacity="1"></path><path clip-path="url(#clip630)" d="M167.311 335.558 Q164.163 335.558 162.311 337.711 Q160.482 339.864 160.482 343.614 Q160.482 347.34 162.311 349.516 Q164.163 351.669 167.311 351.669 Q170.459 351.669 172.288 349.516 Q174.14 347.34 174.14 343.614 Q174.14 339.864 172.288 337.711 Q170.459 335.558 167.311 335.558 M176.593 320.905 L176.593 325.165 Q174.834 324.331 173.029 323.891 Q171.246 323.452 169.487 323.452 Q164.857 323.452 162.404 326.577 Q159.973 329.702 159.626 336.021 Q160.992 334.007 163.052 332.942 Q165.112 331.854 167.589 331.854 Q172.797 331.854 175.806 335.026 Q178.839 338.174 178.839 343.614 Q178.839 348.938 175.691 352.155 Q172.542 355.373 167.311 355.373 Q161.316 355.373 158.144 350.79 Q154.973 346.183 154.973 337.456 Q154.973 329.262 158.862 324.401 Q162.751 319.517 169.302 319.517 Q171.061 319.517 172.843 319.864 Q174.649 320.211 176.593 320.905 Z" fill="#000000" fill-rule="nonzero" fill-opacity="1"></path><path clip-path="url(#clip630)" d="M525.858 124.22 Q528.491 125.111 530.962 128.028 Q533.474 130.944 535.986 136.048 L544.29 152.576 L535.499 152.576 L527.762 137.061 Q524.765 130.985 521.929 129 Q519.134 127.015 514.273 127.015 L505.361 127.015 L505.361 152.576 L497.178 152.576 L497.178 92.096 L515.65 92.096 Q526.02 92.096 531.124 96.4305 Q536.229 100.765 536.229 109.515 Q536.229 115.227 533.555 118.994 Q530.922 122.761 525.858 124.22 M505.361 98.8205 L505.361 120.29 L515.65 120.29 Q521.564 120.29 524.562 117.576 Q527.6 114.822 527.6 109.515 Q527.6 104.208 524.562 101.535 Q521.564 98.8205 515.65 98.8205 L505.361 98.8205 Z" fill="#000000" fill-rule="nonzero" fill-opacity="1"></path><path clip-path="url(#clip630)" d="M589.579 128.028 L589.579 131.673 L555.308 131.673 Q555.794 139.37 559.926 143.421 Q564.099 147.431 571.512 147.431 Q575.806 147.431 579.816 146.378 Q583.867 145.325 587.837 143.218 L587.837 150.267 Q583.827 151.968 579.614 152.86 Q575.401 153.751 571.066 153.751 Q560.21 153.751 553.85 147.431 Q547.531 141.112 547.531 130.337 Q547.531 119.197 553.526 112.675 Q559.562 106.112 569.77 106.112 Q578.925 106.112 584.232 112.026 Q589.579 117.9 589.579 128.028 M582.125 125.84 Q582.044 119.723 578.682 116.077 Q575.36 112.432 569.851 112.432 Q563.613 112.432 559.845 115.956 Q556.119 119.48 555.551 125.881 L582.125 125.84 Z" fill="#000000" fill-rule="nonzero" fill-opacity="1"></path><path clip-path="url(#clip630)" d="M622.432 129.769 Q613.398 129.769 609.915 131.835 Q606.431 133.901 606.431 138.884 Q606.431 142.854 609.023 145.203 Q611.656 147.512 616.153 147.512 Q622.351 147.512 626.078 143.137 Q629.845 138.722 629.845 131.43 L629.845 129.769 L622.432 129.769 M637.299 126.691 L637.299 152.576 L629.845 152.576 L629.845 145.689 Q627.293 149.821 623.485 151.806 Q619.677 153.751 614.168 153.751 Q607.2 153.751 603.069 149.862 Q598.977 145.933 598.977 139.37 Q598.977 131.714 604.081 127.825 Q609.226 123.936 619.394 123.936 L629.845 123.936 L629.845 123.207 Q629.845 118.062 626.442 115.267 Q623.08 112.432 616.963 112.432 Q613.074 112.432 609.388 113.363 Q605.702 114.295 602.299 116.158 L602.299 109.272 Q606.39 107.692 610.239 106.922 Q614.087 106.112 617.733 106.112 Q627.577 106.112 632.438 111.216 Q637.299 116.32 637.299 126.691 Z" fill="#000000" fill-rule="nonzero" fill-opacity="1"></path><path clip-path="url(#clip630)" d="M652.652 89.5439 L660.105 89.5439 L660.105 152.576 L652.652 152.576 L652.652 89.5439 Z" fill="#000000" fill-rule="nonzero" fill-opacity="1"></path><path clip-path="url(#clip630)" d="M743.635 143.948 L743.635 127.703 L730.267 127.703 L730.267 120.979 L751.737 120.979 L751.737 146.945 Q746.997 150.307 741.285 152.049 Q735.574 153.751 729.092 153.751 Q714.914 153.751 706.893 145.487 Q698.913 137.183 698.913 122.397 Q698.913 107.57 706.893 99.3066 Q714.914 91.0023 729.092 91.0023 Q735.007 91.0023 740.313 92.4606 Q745.66 93.9189 750.157 96.7545 L750.157 105.464 Q745.62 101.616 740.516 99.6712 Q735.412 97.7268 729.781 97.7268 Q718.681 97.7268 713.091 103.925 Q707.541 110.123 707.541 122.397 Q707.541 134.63 713.091 140.828 Q718.681 147.026 729.781 147.026 Q734.115 147.026 737.518 146.297 Q740.921 145.527 743.635 143.948 Z" fill="#000000" fill-rule="nonzero" fill-opacity="1"></path><path clip-path="url(#clip630)" d="M774.867 98.8205 L774.867 145.851 L784.752 145.851 Q797.269 145.851 803.062 140.18 Q808.895 134.509 808.895 122.275 Q808.895 110.123 803.062 104.492 Q797.269 98.8205 784.752 98.8205 L774.867 98.8205 M766.685 92.096 L783.496 92.096 Q801.077 92.096 809.3 99.4281 Q817.523 106.72 817.523 122.275 Q817.523 137.912 809.26 145.244 Q800.996 152.576 783.496 152.576 L766.685 152.576 L766.685 92.096 Z" fill="#000000" fill-rule="nonzero" fill-opacity="1"></path><path clip-path="url(#clip630)" d="M838.75 98.8205 L838.75 121.546 L849.039 121.546 Q854.751 121.546 857.87 118.589 Q860.99 115.632 860.99 110.163 Q860.99 104.735 857.87 101.778 Q854.751 98.8205 849.039 98.8205 L838.75 98.8205 M830.567 92.096 L849.039 92.096 Q859.207 92.096 864.392 96.714 Q869.618 101.292 869.618 110.163 Q869.618 119.116 864.392 123.693 Q859.207 128.271 849.039 128.271 L838.75 128.271 L838.75 152.576 L830.567 152.576 L830.567 92.096 Z" fill="#000000" fill-rule="nonzero" fill-opacity="1"></path><polyline clip-path="url(#clip632)" style="stroke:#009af9; stroke-linecap:round; stroke-linejoin:round; stroke-width:4; stroke-opacity:1; fill:none" points="241.361,239.783 250.291,249.354 259.221,258.964 268.151,268.614 277.081,278.304 286.011,288.034 294.941,297.805 303.871,307.616 312.801,317.469 321.731,327.363 330.661,337.299 339.591,347.277 348.521,357.298 357.451,367.361 366.381,377.468 375.312,387.618 384.242,397.812 393.172,408.051 402.102,418.334 411.032,428.662 419.962,439.035 428.892,449.455 437.822,459.92 446.752,470.432 455.682,480.992 464.612,491.598 473.542,502.253 482.472,512.955 491.402,523.707 500.332,534.507 509.262,545.357 518.192,556.257 527.122,567.207 536.052,578.209 544.982,589.262 553.912,600.366 562.842,611.523 571.772,622.733 580.702,633.996 589.633,645.313 598.563,656.685 607.493,668.111 616.423,679.593 625.353,691.131 634.283,702.725 643.213,714.377 652.143,726.086 661.073,737.853 670.003,749.68 678.933,761.565 687.863,773.511 696.793,785.518 705.723,797.586 714.653,809.716 723.583,821.909 732.513,834.165 741.443,846.485 750.373,858.87 759.303,871.32 768.233,883.837 777.163,896.421 786.093,909.073 795.024,921.793 803.954,934.582 812.884,947.442 821.814,960.373 830.744,973.376 839.674,986.452 848.604,999.601 857.534,1012.82 866.464,1026.12 875.394,1039.5 884.324,1052.95 893.254,1066.49 902.184,1080.1 911.114,1093.79 920.044,1107.57 928.974,1121.42 937.904,1135.37 946.834,1149.39 955.764,1163.51 964.694,1177.71 973.624,1192 982.554,1206.38 991.484,1220.86 1000.41,1235.43 1009.34,1250.09 1018.27,1264.85 1027.2,1279.7 1036.13,1294.66 1045.06,1309.72 1053.99,1324.88 1062.92,1340.15 1071.85,1355.52 1080.78,1371.01 1089.71,1386.6 1098.64,1402.31 1107.57,1418.13 1116.51,1434.08 1125.44,1450.14 "></polyline>
<path clip-path="url(#clip630)" d="M1415.64 1486.45 L2352.76 1486.45 L2352.76 203.472 L1415.64 203.472  Z" fill="#ffffff" fill-rule="evenodd" fill-opacity="1"></path>
<defs>
  <clipPath id="clip633">
    <rect x="1415" y="203" width="938" height="1284"></rect>
  </clipPath>
</defs>
<polyline clip-path="url(#clip633)" style="stroke:#000000; stroke-linecap:round; stroke-linejoin:round; stroke-width:2; stroke-opacity:0.1; fill:none" points="1433.23,1486.45 1433.23,203.472 "></polyline>
<polyline clip-path="url(#clip633)" style="stroke:#000000; stroke-linecap:round; stroke-linejoin:round; stroke-width:2; stroke-opacity:0.1; fill:none" points="1656.48,1486.45 1656.48,203.472 "></polyline>
<polyline clip-path="url(#clip633)" style="stroke:#000000; stroke-linecap:round; stroke-linejoin:round; stroke-width:2; stroke-opacity:0.1; fill:none" points="1879.73,1486.45 1879.73,203.472 "></polyline>
<polyline clip-path="url(#clip633)" style="stroke:#000000; stroke-linecap:round; stroke-linejoin:round; stroke-width:2; stroke-opacity:0.1; fill:none" points="2102.98,1486.45 2102.98,203.472 "></polyline>
<polyline clip-path="url(#clip633)" style="stroke:#000000; stroke-linecap:round; stroke-linejoin:round; stroke-width:2; stroke-opacity:0.1; fill:none" points="2326.23,1486.45 2326.23,203.472 "></polyline>
<polyline clip-path="url(#clip630)" style="stroke:#000000; stroke-linecap:round; stroke-linejoin:round; stroke-width:4; stroke-opacity:1; fill:none" points="1415.64,1486.45 2352.76,1486.45 "></polyline>
<polyline clip-path="url(#clip630)" style="stroke:#000000; stroke-linecap:round; stroke-linejoin:round; stroke-width:4; stroke-opacity:1; fill:none" points="1433.23,1486.45 1433.23,1467.55 "></polyline>
<polyline clip-path="url(#clip630)" style="stroke:#000000; stroke-linecap:round; stroke-linejoin:round; stroke-width:4; stroke-opacity:1; fill:none" points="1656.48,1486.45 1656.48,1467.55 "></polyline>
<polyline clip-path="url(#clip630)" style="stroke:#000000; stroke-linecap:round; stroke-linejoin:round; stroke-width:4; stroke-opacity:1; fill:none" points="1879.73,1486.45 1879.73,1467.55 "></polyline>
<polyline clip-path="url(#clip630)" style="stroke:#000000; stroke-linecap:round; stroke-linejoin:round; stroke-width:4; stroke-opacity:1; fill:none" points="2102.98,1486.45 2102.98,1467.55 "></polyline>
<polyline clip-path="url(#clip630)" style="stroke:#000000; stroke-linecap:round; stroke-linejoin:round; stroke-width:4; stroke-opacity:1; fill:none" points="2326.23,1486.45 2326.23,1467.55 "></polyline>
<path clip-path="url(#clip630)" d="M1433.23 1517.37 Q1429.62 1517.37 1427.79 1520.93 Q1425.98 1524.47 1425.98 1531.6 Q1425.98 1538.71 1427.79 1542.27 Q1429.62 1545.82 1433.23 1545.82 Q1436.86 1545.82 1438.67 1542.27 Q1440.5 1538.71 1440.5 1531.6 Q1440.5 1524.47 1438.67 1520.93 Q1436.86 1517.37 1433.23 1517.37 M1433.23 1513.66 Q1439.04 1513.66 1442.1 1518.27 Q1445.17 1522.85 1445.17 1531.6 Q1445.17 1540.33 1442.1 1544.94 Q1439.04 1549.52 1433.23 1549.52 Q1427.42 1549.52 1424.34 1544.94 Q1421.29 1540.33 1421.29 1531.6 Q1421.29 1522.85 1424.34 1518.27 Q1427.42 1513.66 1433.23 1513.66 Z" fill="#000000" fill-rule="nonzero" fill-opacity="1"></path><path clip-path="url(#clip630)" d="M1635.75 1544.91 L1652.07 1544.91 L1652.07 1548.85 L1630.13 1548.85 L1630.13 1544.91 Q1632.79 1542.16 1637.37 1537.53 Q1641.98 1532.88 1643.16 1531.53 Q1645.4 1529.01 1646.28 1527.27 Q1647.19 1525.51 1647.19 1523.82 Q1647.19 1521.07 1645.24 1519.33 Q1643.32 1517.6 1640.22 1517.6 Q1638.02 1517.6 1635.57 1518.36 Q1633.14 1519.13 1630.36 1520.68 L1630.36 1515.95 Q1633.18 1514.82 1635.64 1514.24 Q1638.09 1513.66 1640.13 1513.66 Q1645.5 1513.66 1648.69 1516.35 Q1651.89 1519.03 1651.89 1523.52 Q1651.89 1525.65 1651.08 1527.57 Q1650.29 1529.47 1648.18 1532.07 Q1647.6 1532.74 1644.5 1535.95 Q1641.4 1539.15 1635.75 1544.91 Z" fill="#000000" fill-rule="nonzero" fill-opacity="1"></path><path clip-path="url(#clip630)" d="M1661.93 1514.29 L1680.29 1514.29 L1680.29 1518.22 L1666.21 1518.22 L1666.21 1526.7 Q1667.23 1526.35 1668.25 1526.19 Q1669.27 1526 1670.29 1526 Q1676.08 1526 1679.45 1529.17 Q1682.83 1532.34 1682.83 1537.76 Q1682.83 1543.34 1679.36 1546.44 Q1675.89 1549.52 1669.57 1549.52 Q1667.39 1549.52 1665.13 1549.15 Q1662.88 1548.78 1660.47 1548.04 L1660.47 1543.34 Q1662.56 1544.47 1664.78 1545.03 Q1667 1545.58 1669.48 1545.58 Q1673.48 1545.58 1675.82 1543.48 Q1678.16 1541.37 1678.16 1537.76 Q1678.16 1534.15 1675.82 1532.04 Q1673.48 1529.94 1669.48 1529.94 Q1667.6 1529.94 1665.73 1530.35 Q1663.88 1530.77 1661.93 1531.65 L1661.93 1514.29 Z" fill="#000000" fill-rule="nonzero" fill-opacity="1"></path><path clip-path="url(#clip630)" d="M1854.43 1514.29 L1872.79 1514.29 L1872.79 1518.22 L1858.71 1518.22 L1858.71 1526.7 Q1859.73 1526.35 1860.75 1526.19 Q1861.77 1526 1862.79 1526 Q1868.57 1526 1871.95 1529.17 Q1875.33 1532.34 1875.33 1537.76 Q1875.33 1543.34 1871.86 1546.44 Q1868.39 1549.52 1862.07 1549.52 Q1859.89 1549.52 1857.63 1549.15 Q1855.38 1548.78 1852.97 1548.04 L1852.97 1543.34 Q1855.06 1544.47 1857.28 1545.03 Q1859.5 1545.58 1861.98 1545.58 Q1865.98 1545.58 1868.32 1543.48 Q1870.66 1541.37 1870.66 1537.76 Q1870.66 1534.15 1868.32 1532.04 Q1865.98 1529.94 1861.98 1529.94 Q1860.1 1529.94 1858.23 1530.35 Q1856.38 1530.77 1854.43 1531.65 L1854.43 1514.29 Z" fill="#000000" fill-rule="nonzero" fill-opacity="1"></path><path clip-path="url(#clip630)" d="M1894.55 1517.37 Q1890.94 1517.37 1889.11 1520.93 Q1887.3 1524.47 1887.3 1531.6 Q1887.3 1538.71 1889.11 1542.27 Q1890.94 1545.82 1894.55 1545.82 Q1898.18 1545.82 1899.99 1542.27 Q1901.81 1538.71 1901.81 1531.6 Q1901.81 1524.47 1899.99 1520.93 Q1898.18 1517.37 1894.55 1517.37 M1894.55 1513.66 Q1900.36 1513.66 1903.41 1518.27 Q1906.49 1522.85 1906.49 1531.6 Q1906.49 1540.33 1903.41 1544.94 Q1900.36 1549.52 1894.55 1549.52 Q1888.74 1549.52 1885.66 1544.94 Q1882.6 1540.33 1882.6 1531.6 Q1882.6 1522.85 1885.66 1518.27 Q1888.74 1513.66 1894.55 1513.66 Z" fill="#000000" fill-rule="nonzero" fill-opacity="1"></path><path clip-path="url(#clip630)" d="M2076.84 1514.29 L2099.06 1514.29 L2099.06 1516.28 L2086.51 1548.85 L2081.63 1548.85 L2093.43 1518.22 L2076.84 1518.22 L2076.84 1514.29 Z" fill="#000000" fill-rule="nonzero" fill-opacity="1"></path><path clip-path="url(#clip630)" d="M2108.23 1514.29 L2126.58 1514.29 L2126.58 1518.22 L2112.51 1518.22 L2112.51 1526.7 Q2113.53 1526.35 2114.55 1526.19 Q2115.56 1526 2116.58 1526 Q2122.37 1526 2125.75 1529.17 Q2129.13 1532.34 2129.13 1537.76 Q2129.13 1543.34 2125.66 1546.44 Q2122.18 1549.52 2115.86 1549.52 Q2113.69 1549.52 2111.42 1549.15 Q2109.17 1548.78 2106.77 1548.04 L2106.77 1543.34 Q2108.85 1544.47 2111.07 1545.03 Q2113.3 1545.58 2115.77 1545.58 Q2119.78 1545.58 2122.11 1543.48 Q2124.45 1541.37 2124.45 1537.76 Q2124.45 1534.15 2122.11 1532.04 Q2119.78 1529.94 2115.77 1529.94 Q2113.9 1529.94 2112.02 1530.35 Q2110.17 1530.77 2108.23 1531.65 L2108.23 1514.29 Z" fill="#000000" fill-rule="nonzero" fill-opacity="1"></path><path clip-path="url(#clip630)" d="M2285.84 1544.91 L2293.48 1544.91 L2293.48 1518.55 L2285.17 1520.21 L2285.17 1515.95 L2293.43 1514.29 L2298.11 1514.29 L2298.11 1544.91 L2305.75 1544.91 L2305.75 1548.85 L2285.84 1548.85 L2285.84 1544.91 Z" fill="#000000" fill-rule="nonzero" fill-opacity="1"></path><path clip-path="url(#clip630)" d="M2325.19 1517.37 Q2321.58 1517.37 2319.75 1520.93 Q2317.95 1524.47 2317.95 1531.6 Q2317.95 1538.71 2319.75 1542.27 Q2321.58 1545.82 2325.19 1545.82 Q2328.83 1545.82 2330.63 1542.27 Q2332.46 1538.71 2332.46 1531.6 Q2332.46 1524.47 2330.63 1520.93 Q2328.83 1517.37 2325.19 1517.37 M2325.19 1513.66 Q2331 1513.66 2334.06 1518.27 Q2337.14 1522.85 2337.14 1531.6 Q2337.14 1540.33 2334.06 1544.94 Q2331 1549.52 2325.19 1549.52 Q2319.38 1549.52 2316.3 1544.94 Q2313.25 1540.33 2313.25 1531.6 Q2313.25 1522.85 2316.3 1518.27 Q2319.38 1513.66 2325.19 1513.66 Z" fill="#000000" fill-rule="nonzero" fill-opacity="1"></path><path clip-path="url(#clip630)" d="M2355.35 1517.37 Q2351.74 1517.37 2349.91 1520.93 Q2348.11 1524.47 2348.11 1531.6 Q2348.11 1538.71 2349.91 1542.27 Q2351.74 1545.82 2355.35 1545.82 Q2358.99 1545.82 2360.79 1542.27 Q2362.62 1538.71 2362.62 1531.6 Q2362.62 1524.47 2360.79 1520.93 Q2358.99 1517.37 2355.35 1517.37 M2355.35 1513.66 Q2361.16 1513.66 2364.22 1518.27 Q2367.3 1522.85 2367.3 1531.6 Q2367.3 1540.33 2364.22 1544.94 Q2361.16 1549.52 2355.35 1549.52 Q2349.54 1549.52 2346.47 1544.94 Q2343.41 1540.33 2343.41 1531.6 Q2343.41 1522.85 2346.47 1518.27 Q2349.54 1513.66 2355.35 1513.66 Z" fill="#000000" fill-rule="nonzero" fill-opacity="1"></path><polyline clip-path="url(#clip633)" style="stroke:#000000; stroke-linecap:round; stroke-linejoin:round; stroke-width:2; stroke-opacity:0.1; fill:none" points="1415.64,1268.11 2352.76,1268.11 "></polyline>
<polyline clip-path="url(#clip633)" style="stroke:#000000; stroke-linecap:round; stroke-linejoin:round; stroke-width:2; stroke-opacity:0.1; fill:none" points="1415.64,1030.66 2352.76,1030.66 "></polyline>
<polyline clip-path="url(#clip633)" style="stroke:#000000; stroke-linecap:round; stroke-linejoin:round; stroke-width:2; stroke-opacity:0.1; fill:none" points="1415.64,793.218 2352.76,793.218 "></polyline>
<polyline clip-path="url(#clip633)" style="stroke:#000000; stroke-linecap:round; stroke-linejoin:round; stroke-width:2; stroke-opacity:0.1; fill:none" points="1415.64,555.772 2352.76,555.772 "></polyline>
<polyline clip-path="url(#clip633)" style="stroke:#000000; stroke-linecap:round; stroke-linejoin:round; stroke-width:2; stroke-opacity:0.1; fill:none" points="1415.64,318.326 2352.76,318.326 "></polyline>
<polyline clip-path="url(#clip630)" style="stroke:#000000; stroke-linecap:round; stroke-linejoin:round; stroke-width:4; stroke-opacity:1; fill:none" points="1415.64,1486.45 1415.64,203.472 "></polyline>
<polyline clip-path="url(#clip630)" style="stroke:#000000; stroke-linecap:round; stroke-linejoin:round; stroke-width:4; stroke-opacity:1; fill:none" points="1415.64,1268.11 1434.53,1268.11 "></polyline>
<polyline clip-path="url(#clip630)" style="stroke:#000000; stroke-linecap:round; stroke-linejoin:round; stroke-width:4; stroke-opacity:1; fill:none" points="1415.64,1030.66 1434.53,1030.66 "></polyline>
<polyline clip-path="url(#clip630)" style="stroke:#000000; stroke-linecap:round; stroke-linejoin:round; stroke-width:4; stroke-opacity:1; fill:none" points="1415.64,793.218 1434.53,793.218 "></polyline>
<polyline clip-path="url(#clip630)" style="stroke:#000000; stroke-linecap:round; stroke-linejoin:round; stroke-width:4; stroke-opacity:1; fill:none" points="1415.64,555.772 1434.53,555.772 "></polyline>
<polyline clip-path="url(#clip630)" style="stroke:#000000; stroke-linecap:round; stroke-linejoin:round; stroke-width:4; stroke-opacity:1; fill:none" points="1415.64,318.326 1434.53,318.326 "></polyline>
<path clip-path="url(#clip630)" d="M1263.13 1253.91 Q1259.52 1253.91 1257.69 1257.47 Q1255.89 1261.01 1255.89 1268.14 Q1255.89 1275.25 1257.69 1278.82 Q1259.52 1282.36 1263.13 1282.36 Q1266.77 1282.36 1268.57 1278.82 Q1270.4 1275.25 1270.4 1268.14 Q1270.4 1261.01 1268.57 1257.47 Q1266.77 1253.91 1263.13 1253.91 M1263.13 1250.2 Q1268.94 1250.2 1272 1254.81 Q1275.08 1259.39 1275.08 1268.14 Q1275.08 1276.87 1272 1281.48 Q1268.94 1286.06 1263.13 1286.06 Q1257.32 1286.06 1254.24 1281.48 Q1251.19 1276.87 1251.19 1268.14 Q1251.19 1259.39 1254.24 1254.81 Q1257.32 1250.2 1263.13 1250.2 Z" fill="#000000" fill-rule="nonzero" fill-opacity="1"></path><path clip-path="url(#clip630)" d="M1283.3 1279.51 L1288.18 1279.51 L1288.18 1285.39 L1283.3 1285.39 L1283.3 1279.51 Z" fill="#000000" fill-rule="nonzero" fill-opacity="1"></path><path clip-path="url(#clip630)" d="M1308.36 1268.98 Q1305.03 1268.98 1303.11 1270.76 Q1301.21 1272.54 1301.21 1275.67 Q1301.21 1278.79 1303.11 1280.57 Q1305.03 1282.36 1308.36 1282.36 Q1311.7 1282.36 1313.62 1280.57 Q1315.54 1278.77 1315.54 1275.67 Q1315.54 1272.54 1313.62 1270.76 Q1311.72 1268.98 1308.36 1268.98 M1303.69 1266.99 Q1300.68 1266.25 1298.99 1264.19 Q1297.32 1262.13 1297.32 1259.16 Q1297.32 1255.02 1300.26 1252.61 Q1303.23 1250.2 1308.36 1250.2 Q1313.53 1250.2 1316.47 1252.61 Q1319.41 1255.02 1319.41 1259.16 Q1319.41 1262.13 1317.72 1264.19 Q1316.05 1266.25 1313.06 1266.99 Q1316.44 1267.77 1318.32 1270.07 Q1320.22 1272.36 1320.22 1275.67 Q1320.22 1280.69 1317.14 1283.38 Q1314.08 1286.06 1308.36 1286.06 Q1302.65 1286.06 1299.57 1283.38 Q1296.51 1280.69 1296.51 1275.67 Q1296.51 1272.36 1298.41 1270.07 Q1300.31 1267.77 1303.69 1266.99 M1301.98 1259.6 Q1301.98 1262.29 1303.64 1263.79 Q1305.33 1265.3 1308.36 1265.3 Q1311.37 1265.3 1313.06 1263.79 Q1314.78 1262.29 1314.78 1259.6 Q1314.78 1256.92 1313.06 1255.41 Q1311.37 1253.91 1308.36 1253.91 Q1305.33 1253.91 1303.64 1255.41 Q1301.98 1256.92 1301.98 1259.6 Z" fill="#000000" fill-rule="nonzero" fill-opacity="1"></path><path clip-path="url(#clip630)" d="M1339.11 1266.25 Q1335.96 1266.25 1334.11 1268.4 Q1332.28 1270.55 1332.28 1274.3 Q1332.28 1278.03 1334.11 1280.2 Q1335.96 1282.36 1339.11 1282.36 Q1342.25 1282.36 1344.08 1280.2 Q1345.93 1278.03 1345.93 1274.3 Q1345.93 1270.55 1344.08 1268.4 Q1342.25 1266.25 1339.11 1266.25 M1348.39 1251.59 L1348.39 1255.85 Q1346.63 1255.02 1344.82 1254.58 Q1343.04 1254.14 1341.28 1254.14 Q1336.65 1254.14 1334.2 1257.26 Q1331.77 1260.39 1331.42 1266.71 Q1332.79 1264.7 1334.85 1263.63 Q1336.91 1262.54 1339.38 1262.54 Q1344.59 1262.54 1347.6 1265.71 Q1350.63 1268.86 1350.63 1274.3 Q1350.63 1279.63 1347.48 1282.84 Q1344.34 1286.06 1339.11 1286.06 Q1333.11 1286.06 1329.94 1281.48 Q1326.77 1276.87 1326.77 1268.14 Q1326.77 1259.95 1330.66 1255.09 Q1334.54 1250.2 1341.1 1250.2 Q1342.86 1250.2 1344.64 1250.55 Q1346.44 1250.9 1348.39 1251.59 Z" fill="#000000" fill-rule="nonzero" fill-opacity="1"></path><path clip-path="url(#clip630)" d="M1358.73 1250.83 L1377.09 1250.83 L1377.09 1254.76 L1363.02 1254.76 L1363.02 1263.24 Q1364.04 1262.89 1365.05 1262.73 Q1366.07 1262.54 1367.09 1262.54 Q1372.88 1262.54 1376.26 1265.71 Q1379.64 1268.89 1379.64 1274.3 Q1379.64 1279.88 1376.17 1282.98 Q1372.69 1286.06 1366.37 1286.06 Q1364.2 1286.06 1361.93 1285.69 Q1359.68 1285.32 1357.28 1284.58 L1357.28 1279.88 Q1359.36 1281.01 1361.58 1281.57 Q1363.8 1282.13 1366.28 1282.13 Q1370.29 1282.13 1372.62 1280.02 Q1374.96 1277.91 1374.96 1274.3 Q1374.96 1270.69 1372.62 1268.58 Q1370.29 1266.48 1366.28 1266.48 Q1364.41 1266.48 1362.53 1266.89 Q1360.68 1267.31 1358.73 1268.19 L1358.73 1250.83 Z" fill="#000000" fill-rule="nonzero" fill-opacity="1"></path><path clip-path="url(#clip630)" d="M1262.14 1016.46 Q1258.53 1016.46 1256.7 1020.03 Q1254.89 1023.57 1254.89 1030.7 Q1254.89 1037.81 1256.7 1041.37 Q1258.53 1044.91 1262.14 1044.91 Q1265.77 1044.91 1267.58 1041.37 Q1269.41 1037.81 1269.41 1030.7 Q1269.41 1023.57 1267.58 1020.03 Q1265.77 1016.46 1262.14 1016.46 M1262.14 1012.76 Q1267.95 1012.76 1271 1017.37 Q1274.08 1021.95 1274.08 1030.7 Q1274.08 1039.43 1271 1044.03 Q1267.95 1048.62 1262.14 1048.62 Q1256.33 1048.62 1253.25 1044.03 Q1250.19 1039.43 1250.19 1030.7 Q1250.19 1021.95 1253.25 1017.37 Q1256.33 1012.76 1262.14 1012.76 Z" fill="#000000" fill-rule="nonzero" fill-opacity="1"></path><path clip-path="url(#clip630)" d="M1282.3 1042.06 L1287.18 1042.06 L1287.18 1047.94 L1282.3 1047.94 L1282.3 1042.06 Z" fill="#000000" fill-rule="nonzero" fill-opacity="1"></path><path clip-path="url(#clip630)" d="M1307.37 1031.53 Q1304.04 1031.53 1302.11 1033.31 Q1300.22 1035.1 1300.22 1038.22 Q1300.22 1041.35 1302.11 1043.13 Q1304.04 1044.91 1307.37 1044.91 Q1310.7 1044.91 1312.62 1043.13 Q1314.55 1041.32 1314.55 1038.22 Q1314.55 1035.1 1312.62 1033.31 Q1310.73 1031.53 1307.37 1031.53 M1302.69 1029.54 Q1299.68 1028.8 1297.99 1026.74 Q1296.33 1024.68 1296.33 1021.72 Q1296.33 1017.57 1299.27 1015.17 Q1302.23 1012.76 1307.37 1012.76 Q1312.53 1012.76 1315.47 1015.17 Q1318.41 1017.57 1318.41 1021.72 Q1318.41 1024.68 1316.72 1026.74 Q1315.05 1028.8 1312.07 1029.54 Q1315.45 1030.33 1317.32 1032.62 Q1319.22 1034.91 1319.22 1038.22 Q1319.22 1043.24 1316.14 1045.93 Q1313.09 1048.62 1307.37 1048.62 Q1301.65 1048.62 1298.57 1045.93 Q1295.52 1043.24 1295.52 1038.22 Q1295.52 1034.91 1297.42 1032.62 Q1299.31 1030.33 1302.69 1029.54 M1300.98 1022.16 Q1300.98 1024.84 1302.65 1026.35 Q1304.34 1027.85 1307.37 1027.85 Q1310.38 1027.85 1312.07 1026.35 Q1313.78 1024.84 1313.78 1022.16 Q1313.78 1019.47 1312.07 1017.97 Q1310.38 1016.46 1307.37 1016.46 Q1304.34 1016.46 1302.65 1017.97 Q1300.98 1019.47 1300.98 1022.16 Z" fill="#000000" fill-rule="nonzero" fill-opacity="1"></path><path clip-path="url(#clip630)" d="M1326.35 1013.38 L1348.57 1013.38 L1348.57 1015.37 L1336.03 1047.94 L1331.14 1047.94 L1342.95 1017.32 L1326.35 1017.32 L1326.35 1013.38 Z" fill="#000000" fill-rule="nonzero" fill-opacity="1"></path><path clip-path="url(#clip630)" d="M1367.69 1016.46 Q1364.08 1016.46 1362.25 1020.03 Q1360.45 1023.57 1360.45 1030.7 Q1360.45 1037.81 1362.25 1041.37 Q1364.08 1044.91 1367.69 1044.91 Q1371.33 1044.91 1373.13 1041.37 Q1374.96 1037.81 1374.96 1030.7 Q1374.96 1023.57 1373.13 1020.03 Q1371.33 1016.46 1367.69 1016.46 M1367.69 1012.76 Q1373.5 1012.76 1376.56 1017.37 Q1379.64 1021.95 1379.64 1030.7 Q1379.64 1039.43 1376.56 1044.03 Q1373.5 1048.62 1367.69 1048.62 Q1361.88 1048.62 1358.8 1044.03 Q1355.75 1039.43 1355.75 1030.7 Q1355.75 1021.95 1358.8 1017.37 Q1361.88 1012.76 1367.69 1012.76 Z" fill="#000000" fill-rule="nonzero" fill-opacity="1"></path><path clip-path="url(#clip630)" d="M1263.13 779.017 Q1259.52 779.017 1257.69 782.582 Q1255.89 786.123 1255.89 793.253 Q1255.89 800.359 1257.69 803.924 Q1259.52 807.466 1263.13 807.466 Q1266.77 807.466 1268.57 803.924 Q1270.4 800.359 1270.4 793.253 Q1270.4 786.123 1268.57 782.582 Q1266.77 779.017 1263.13 779.017 M1263.13 775.313 Q1268.94 775.313 1272 779.92 Q1275.08 784.503 1275.08 793.253 Q1275.08 801.98 1272 806.586 Q1268.94 811.169 1263.13 811.169 Q1257.32 811.169 1254.24 806.586 Q1251.19 801.98 1251.19 793.253 Q1251.19 784.503 1254.24 779.92 Q1257.32 775.313 1263.13 775.313 Z" fill="#000000" fill-rule="nonzero" fill-opacity="1"></path><path clip-path="url(#clip630)" d="M1283.3 804.618 L1288.18 804.618 L1288.18 810.498 L1283.3 810.498 L1283.3 804.618 Z" fill="#000000" fill-rule="nonzero" fill-opacity="1"></path><path clip-path="url(#clip630)" d="M1308.36 794.086 Q1305.03 794.086 1303.11 795.868 Q1301.21 797.651 1301.21 800.776 Q1301.21 803.901 1303.11 805.683 Q1305.03 807.466 1308.36 807.466 Q1311.7 807.466 1313.62 805.683 Q1315.54 803.878 1315.54 800.776 Q1315.54 797.651 1313.62 795.868 Q1311.72 794.086 1308.36 794.086 M1303.69 792.095 Q1300.68 791.355 1298.99 789.294 Q1297.32 787.234 1297.32 784.271 Q1297.32 780.128 1300.26 777.72 Q1303.23 775.313 1308.36 775.313 Q1313.53 775.313 1316.47 777.72 Q1319.41 780.128 1319.41 784.271 Q1319.41 787.234 1317.72 789.294 Q1316.05 791.355 1313.06 792.095 Q1316.44 792.882 1318.32 795.174 Q1320.22 797.466 1320.22 800.776 Q1320.22 805.799 1317.14 808.484 Q1314.08 811.169 1308.36 811.169 Q1302.65 811.169 1299.57 808.484 Q1296.51 805.799 1296.51 800.776 Q1296.51 797.466 1298.41 795.174 Q1300.31 792.882 1303.69 792.095 M1301.98 784.711 Q1301.98 787.396 1303.64 788.901 Q1305.33 790.406 1308.36 790.406 Q1311.37 790.406 1313.06 788.901 Q1314.78 787.396 1314.78 784.711 Q1314.78 782.026 1313.06 780.521 Q1311.37 779.017 1308.36 779.017 Q1305.33 779.017 1303.64 780.521 Q1301.98 782.026 1301.98 784.711 Z" fill="#000000" fill-rule="nonzero" fill-opacity="1"></path><path clip-path="url(#clip630)" d="M1327.35 775.938 L1349.57 775.938 L1349.57 777.929 L1337.02 810.498 L1332.14 810.498 L1343.94 779.873 L1327.35 779.873 L1327.35 775.938 Z" fill="#000000" fill-rule="nonzero" fill-opacity="1"></path><path clip-path="url(#clip630)" d="M1358.73 775.938 L1377.09 775.938 L1377.09 779.873 L1363.02 779.873 L1363.02 788.345 Q1364.04 787.998 1365.05 787.836 Q1366.07 787.651 1367.09 787.651 Q1372.88 787.651 1376.26 790.822 Q1379.64 793.994 1379.64 799.41 Q1379.64 804.989 1376.17 808.091 Q1372.69 811.169 1366.37 811.169 Q1364.2 811.169 1361.93 810.799 Q1359.68 810.429 1357.28 809.688 L1357.28 804.989 Q1359.36 806.123 1361.58 806.679 Q1363.8 807.234 1366.28 807.234 Q1370.29 807.234 1372.62 805.128 Q1374.96 803.021 1374.96 799.41 Q1374.96 795.799 1372.62 793.693 Q1370.29 791.586 1366.28 791.586 Q1364.41 791.586 1362.53 792.003 Q1360.68 792.419 1358.73 793.299 L1358.73 775.938 Z" fill="#000000" fill-rule="nonzero" fill-opacity="1"></path><path clip-path="url(#clip630)" d="M1262.14 541.571 Q1258.53 541.571 1256.7 545.136 Q1254.89 548.677 1254.89 555.807 Q1254.89 562.913 1256.7 566.478 Q1258.53 570.02 1262.14 570.02 Q1265.77 570.02 1267.58 566.478 Q1269.41 562.913 1269.41 555.807 Q1269.41 548.677 1267.58 545.136 Q1265.77 541.571 1262.14 541.571 M1262.14 537.867 Q1267.95 537.867 1271 542.474 Q1274.08 547.057 1274.08 555.807 Q1274.08 564.534 1271 569.14 Q1267.95 573.723 1262.14 573.723 Q1256.33 573.723 1253.25 569.14 Q1250.19 564.534 1250.19 555.807 Q1250.19 547.057 1253.25 542.474 Q1256.33 537.867 1262.14 537.867 Z" fill="#000000" fill-rule="nonzero" fill-opacity="1"></path><path clip-path="url(#clip630)" d="M1282.3 567.173 L1287.18 567.173 L1287.18 573.052 L1282.3 573.052 L1282.3 567.173 Z" fill="#000000" fill-rule="nonzero" fill-opacity="1"></path><path clip-path="url(#clip630)" d="M1307.37 556.64 Q1304.04 556.64 1302.11 558.423 Q1300.22 560.205 1300.22 563.33 Q1300.22 566.455 1302.11 568.237 Q1304.04 570.02 1307.37 570.02 Q1310.7 570.02 1312.62 568.237 Q1314.55 566.432 1314.55 563.33 Q1314.55 560.205 1312.62 558.423 Q1310.73 556.64 1307.37 556.64 M1302.69 554.65 Q1299.68 553.909 1297.99 551.849 Q1296.33 549.788 1296.33 546.825 Q1296.33 542.682 1299.27 540.275 Q1302.23 537.867 1307.37 537.867 Q1312.53 537.867 1315.47 540.275 Q1318.41 542.682 1318.41 546.825 Q1318.41 549.788 1316.72 551.849 Q1315.05 553.909 1312.07 554.65 Q1315.45 555.437 1317.32 557.728 Q1319.22 560.02 1319.22 563.33 Q1319.22 568.353 1316.14 571.038 Q1313.09 573.723 1307.37 573.723 Q1301.65 573.723 1298.57 571.038 Q1295.52 568.353 1295.52 563.33 Q1295.52 560.02 1297.42 557.728 Q1299.31 555.437 1302.69 554.65 M1300.98 547.265 Q1300.98 549.95 1302.65 551.455 Q1304.34 552.96 1307.37 552.96 Q1310.38 552.96 1312.07 551.455 Q1313.78 549.95 1313.78 547.265 Q1313.78 544.58 1312.07 543.075 Q1310.38 541.571 1307.37 541.571 Q1304.34 541.571 1302.65 543.075 Q1300.98 544.58 1300.98 547.265 Z" fill="#000000" fill-rule="nonzero" fill-opacity="1"></path><path clip-path="url(#clip630)" d="M1337.53 556.64 Q1334.2 556.64 1332.28 558.423 Q1330.38 560.205 1330.38 563.33 Q1330.38 566.455 1332.28 568.237 Q1334.2 570.02 1337.53 570.02 Q1340.86 570.02 1342.79 568.237 Q1344.71 566.432 1344.71 563.33 Q1344.71 560.205 1342.79 558.423 Q1340.89 556.64 1337.53 556.64 M1332.86 554.65 Q1329.85 553.909 1328.16 551.849 Q1326.49 549.788 1326.49 546.825 Q1326.49 542.682 1329.43 540.275 Q1332.39 537.867 1337.53 537.867 Q1342.69 537.867 1345.63 540.275 Q1348.57 542.682 1348.57 546.825 Q1348.57 549.788 1346.88 551.849 Q1345.22 553.909 1342.23 554.65 Q1345.61 555.437 1347.48 557.728 Q1349.38 560.02 1349.38 563.33 Q1349.38 568.353 1346.3 571.038 Q1343.25 573.723 1337.53 573.723 Q1331.81 573.723 1328.73 571.038 Q1325.68 568.353 1325.68 563.33 Q1325.68 560.02 1327.58 557.728 Q1329.48 555.437 1332.86 554.65 M1331.14 547.265 Q1331.14 549.95 1332.81 551.455 Q1334.5 552.96 1337.53 552.96 Q1340.54 552.96 1342.23 551.455 Q1343.94 549.95 1343.94 547.265 Q1343.94 544.58 1342.23 543.075 Q1340.54 541.571 1337.53 541.571 Q1334.5 541.571 1332.81 543.075 Q1331.14 544.58 1331.14 547.265 Z" fill="#000000" fill-rule="nonzero" fill-opacity="1"></path><path clip-path="url(#clip630)" d="M1367.69 541.571 Q1364.08 541.571 1362.25 545.136 Q1360.45 548.677 1360.45 555.807 Q1360.45 562.913 1362.25 566.478 Q1364.08 570.02 1367.69 570.02 Q1371.33 570.02 1373.13 566.478 Q1374.96 562.913 1374.96 555.807 Q1374.96 548.677 1373.13 545.136 Q1371.33 541.571 1367.69 541.571 M1367.69 537.867 Q1373.5 537.867 1376.56 542.474 Q1379.64 547.057 1379.64 555.807 Q1379.64 564.534 1376.56 569.14 Q1373.5 573.723 1367.69 573.723 Q1361.88 573.723 1358.8 569.14 Q1355.75 564.534 1355.75 555.807 Q1355.75 547.057 1358.8 542.474 Q1361.88 537.867 1367.69 537.867 Z" fill="#000000" fill-rule="nonzero" fill-opacity="1"></path><path clip-path="url(#clip630)" d="M1263.13 304.125 Q1259.52 304.125 1257.69 307.69 Q1255.89 311.231 1255.89 318.361 Q1255.89 325.467 1257.69 329.032 Q1259.52 332.574 1263.13 332.574 Q1266.77 332.574 1268.57 329.032 Q1270.4 325.467 1270.4 318.361 Q1270.4 311.231 1268.57 307.69 Q1266.77 304.125 1263.13 304.125 M1263.13 300.421 Q1268.94 300.421 1272 305.028 Q1275.08 309.611 1275.08 318.361 Q1275.08 327.088 1272 331.694 Q1268.94 336.278 1263.13 336.278 Q1257.32 336.278 1254.24 331.694 Q1251.19 327.088 1251.19 318.361 Q1251.19 309.611 1254.24 305.028 Q1257.32 300.421 1263.13 300.421 Z" fill="#000000" fill-rule="nonzero" fill-opacity="1"></path><path clip-path="url(#clip630)" d="M1283.3 329.727 L1288.18 329.727 L1288.18 335.606 L1283.3 335.606 L1283.3 329.727 Z" fill="#000000" fill-rule="nonzero" fill-opacity="1"></path><path clip-path="url(#clip630)" d="M1308.36 319.194 Q1305.03 319.194 1303.11 320.977 Q1301.21 322.759 1301.21 325.884 Q1301.21 329.009 1303.11 330.792 Q1305.03 332.574 1308.36 332.574 Q1311.7 332.574 1313.62 330.792 Q1315.54 328.986 1315.54 325.884 Q1315.54 322.759 1313.62 320.977 Q1311.72 319.194 1308.36 319.194 M1303.69 317.204 Q1300.68 316.463 1298.99 314.403 Q1297.32 312.343 1297.32 309.38 Q1297.32 305.236 1300.26 302.829 Q1303.23 300.421 1308.36 300.421 Q1313.53 300.421 1316.47 302.829 Q1319.41 305.236 1319.41 309.38 Q1319.41 312.343 1317.72 314.403 Q1316.05 316.463 1313.06 317.204 Q1316.44 317.991 1318.32 320.282 Q1320.22 322.574 1320.22 325.884 Q1320.22 330.907 1317.14 333.592 Q1314.08 336.278 1308.36 336.278 Q1302.65 336.278 1299.57 333.592 Q1296.51 330.907 1296.51 325.884 Q1296.51 322.574 1298.41 320.282 Q1300.31 317.991 1303.69 317.204 M1301.98 309.819 Q1301.98 312.505 1303.64 314.009 Q1305.33 315.514 1308.36 315.514 Q1311.37 315.514 1313.06 314.009 Q1314.78 312.505 1314.78 309.819 Q1314.78 307.134 1313.06 305.63 Q1311.37 304.125 1308.36 304.125 Q1305.33 304.125 1303.64 305.63 Q1301.98 307.134 1301.98 309.819 Z" fill="#000000" fill-rule="nonzero" fill-opacity="1"></path><path clip-path="url(#clip630)" d="M1338.53 319.194 Q1335.19 319.194 1333.27 320.977 Q1331.37 322.759 1331.37 325.884 Q1331.37 329.009 1333.27 330.792 Q1335.19 332.574 1338.53 332.574 Q1341.86 332.574 1343.78 330.792 Q1345.7 328.986 1345.7 325.884 Q1345.7 322.759 1343.78 320.977 Q1341.88 319.194 1338.53 319.194 M1333.85 317.204 Q1330.84 316.463 1329.15 314.403 Q1327.48 312.343 1327.48 309.38 Q1327.48 305.236 1330.42 302.829 Q1333.39 300.421 1338.53 300.421 Q1343.69 300.421 1346.63 302.829 Q1349.57 305.236 1349.57 309.38 Q1349.57 312.343 1347.88 314.403 Q1346.21 316.463 1343.23 317.204 Q1346.61 317.991 1348.48 320.282 Q1350.38 322.574 1350.38 325.884 Q1350.38 330.907 1347.3 333.592 Q1344.24 336.278 1338.53 336.278 Q1332.81 336.278 1329.73 333.592 Q1326.67 330.907 1326.67 325.884 Q1326.67 322.574 1328.57 320.282 Q1330.47 317.991 1333.85 317.204 M1332.14 309.819 Q1332.14 312.505 1333.8 314.009 Q1335.49 315.514 1338.53 315.514 Q1341.54 315.514 1343.23 314.009 Q1344.94 312.505 1344.94 309.819 Q1344.94 307.134 1343.23 305.63 Q1341.54 304.125 1338.53 304.125 Q1335.49 304.125 1333.8 305.63 Q1332.14 307.134 1332.14 309.819 Z" fill="#000000" fill-rule="nonzero" fill-opacity="1"></path><path clip-path="url(#clip630)" d="M1358.73 301.046 L1377.09 301.046 L1377.09 304.981 L1363.02 304.981 L1363.02 313.454 Q1364.04 313.106 1365.05 312.944 Q1366.07 312.759 1367.09 312.759 Q1372.88 312.759 1376.26 315.931 Q1379.64 319.102 1379.64 324.518 Q1379.64 330.097 1376.17 333.199 Q1372.69 336.278 1366.37 336.278 Q1364.2 336.278 1361.93 335.907 Q1359.68 335.537 1357.28 334.796 L1357.28 330.097 Q1359.36 331.231 1361.58 331.787 Q1363.8 332.342 1366.28 332.342 Q1370.29 332.342 1372.62 330.236 Q1374.96 328.13 1374.96 324.518 Q1374.96 320.907 1372.62 318.801 Q1370.29 316.694 1366.28 316.694 Q1364.41 316.694 1362.53 317.111 Q1360.68 317.528 1358.73 318.407 L1358.73 301.046 Z" fill="#000000" fill-rule="nonzero" fill-opacity="1"></path><path clip-path="url(#clip630)" d="M1615.82 92.096 L1626.84 92.096 L1653.66 142.692 L1653.66 92.096 L1661.6 92.096 L1661.6 152.576 L1650.58 152.576 L1623.76 101.98 L1623.76 152.576 L1615.82 152.576 L1615.82 92.096 Z" fill="#000000" fill-rule="nonzero" fill-opacity="1"></path><path clip-path="url(#clip630)" d="M1695.14 112.432 Q1689.15 112.432 1685.66 117.131 Q1682.18 121.789 1682.18 129.931 Q1682.18 138.074 1685.62 142.773 Q1689.11 147.431 1695.14 147.431 Q1701.1 147.431 1704.58 142.732 Q1708.06 138.033 1708.06 129.931 Q1708.06 121.87 1704.58 117.171 Q1701.1 112.432 1695.14 112.432 M1695.14 106.112 Q1704.86 106.112 1710.41 112.432 Q1715.96 118.751 1715.96 129.931 Q1715.96 141.071 1710.41 147.431 Q1704.86 153.751 1695.14 153.751 Q1685.38 153.751 1679.83 147.431 Q1674.32 141.071 1674.32 129.931 Q1674.32 118.751 1679.83 112.432 Q1685.38 106.112 1695.14 106.112 Z" fill="#000000" fill-rule="nonzero" fill-opacity="1"></path><path clip-path="url(#clip630)" d="M1763.64 115.915 Q1766.44 110.892 1770.33 108.502 Q1774.21 106.112 1779.48 106.112 Q1786.57 106.112 1790.42 111.095 Q1794.27 116.037 1794.27 125.192 L1794.27 152.576 L1786.77 152.576 L1786.77 125.435 Q1786.77 118.913 1784.46 115.753 Q1782.15 112.594 1777.41 112.594 Q1771.62 112.594 1768.26 116.442 Q1764.9 120.29 1764.9 126.934 L1764.9 152.576 L1757.4 152.576 L1757.4 125.435 Q1757.4 118.872 1755.09 115.753 Q1752.79 112.594 1747.96 112.594 Q1742.25 112.594 1738.89 116.482 Q1735.53 120.331 1735.53 126.934 L1735.53 152.576 L1728.03 152.576 L1728.03 107.206 L1735.53 107.206 L1735.53 114.254 Q1738.08 110.082 1741.65 108.097 Q1745.21 106.112 1750.11 106.112 Q1755.05 106.112 1758.5 108.624 Q1761.98 111.135 1763.64 115.915 Z" fill="#000000" fill-rule="nonzero" fill-opacity="1"></path><path clip-path="url(#clip630)" d="M1809.13 107.206 L1816.59 107.206 L1816.59 152.576 L1809.13 152.576 L1809.13 107.206 M1809.13 89.5439 L1816.59 89.5439 L1816.59 98.9825 L1809.13 98.9825 L1809.13 89.5439 Z" fill="#000000" fill-rule="nonzero" fill-opacity="1"></path><path clip-path="url(#clip630)" d="M1869.9 125.192 L1869.9 152.576 L1862.44 152.576 L1862.44 125.435 Q1862.44 118.994 1859.93 115.794 Q1857.42 112.594 1852.4 112.594 Q1846.36 112.594 1842.88 116.442 Q1839.39 120.29 1839.39 126.934 L1839.39 152.576 L1831.9 152.576 L1831.9 107.206 L1839.39 107.206 L1839.39 114.254 Q1842.07 110.163 1845.67 108.138 Q1849.32 106.112 1854.06 106.112 Q1861.88 106.112 1865.89 110.973 Q1869.9 115.794 1869.9 125.192 Z" fill="#000000" fill-rule="nonzero" fill-opacity="1"></path><path clip-path="url(#clip630)" d="M1905.38 129.769 Q1896.35 129.769 1892.87 131.835 Q1889.38 133.901 1889.38 138.884 Q1889.38 142.854 1891.97 145.203 Q1894.61 147.512 1899.1 147.512 Q1905.3 147.512 1909.03 143.137 Q1912.8 138.722 1912.8 131.43 L1912.8 129.769 L1905.38 129.769 M1920.25 126.691 L1920.25 152.576 L1912.8 152.576 L1912.8 145.689 Q1910.24 149.821 1906.44 151.806 Q1902.63 153.751 1897.12 153.751 Q1890.15 153.751 1886.02 149.862 Q1881.93 145.933 1881.93 139.37 Q1881.93 131.714 1887.03 127.825 Q1892.18 123.936 1902.34 123.936 L1912.8 123.936 L1912.8 123.207 Q1912.8 118.062 1909.39 115.267 Q1906.03 112.432 1899.91 112.432 Q1896.03 112.432 1892.34 113.363 Q1888.65 114.295 1885.25 116.158 L1885.25 109.272 Q1889.34 107.692 1893.19 106.922 Q1897.04 106.112 1900.68 106.112 Q1910.53 106.112 1915.39 111.216 Q1920.25 116.32 1920.25 126.691 Z" fill="#000000" fill-rule="nonzero" fill-opacity="1"></path><path clip-path="url(#clip630)" d="M1935.6 89.5439 L1943.06 89.5439 L1943.06 152.576 L1935.6 152.576 L1935.6 89.5439 Z" fill="#000000" fill-rule="nonzero" fill-opacity="1"></path><path clip-path="url(#clip630)" d="M2026.59 143.948 L2026.59 127.703 L2013.22 127.703 L2013.22 120.979 L2034.69 120.979 L2034.69 146.945 Q2029.95 150.307 2024.24 152.049 Q2018.52 153.751 2012.04 153.751 Q1997.86 153.751 1989.84 145.487 Q1981.86 137.183 1981.86 122.397 Q1981.86 107.57 1989.84 99.3066 Q1997.86 91.0023 2012.04 91.0023 Q2017.96 91.0023 2023.26 92.4606 Q2028.61 93.9189 2033.11 96.7545 L2033.11 105.464 Q2028.57 101.616 2023.47 99.6712 Q2018.36 97.7268 2012.73 97.7268 Q2001.63 97.7268 1996.04 103.925 Q1990.49 110.123 1990.49 122.397 Q1990.49 134.63 1996.04 140.828 Q2001.63 147.026 2012.73 147.026 Q2017.07 147.026 2020.47 146.297 Q2023.87 145.527 2026.59 143.948 Z" fill="#000000" fill-rule="nonzero" fill-opacity="1"></path><path clip-path="url(#clip630)" d="M2057.82 98.8205 L2057.82 145.851 L2067.7 145.851 Q2080.22 145.851 2086.01 140.18 Q2091.85 134.509 2091.85 122.275 Q2091.85 110.123 2086.01 104.492 Q2080.22 98.8205 2067.7 98.8205 L2057.82 98.8205 M2049.64 92.096 L2066.45 92.096 Q2084.03 92.096 2092.25 99.4281 Q2100.47 106.72 2100.47 122.275 Q2100.47 137.912 2092.21 145.244 Q2083.95 152.576 2066.45 152.576 L2049.64 152.576 L2049.64 92.096 Z" fill="#000000" fill-rule="nonzero" fill-opacity="1"></path><path clip-path="url(#clip630)" d="M2121.7 98.8205 L2121.7 121.546 L2131.99 121.546 Q2137.7 121.546 2140.82 118.589 Q2143.94 115.632 2143.94 110.163 Q2143.94 104.735 2140.82 101.778 Q2137.7 98.8205 2131.99 98.8205 L2121.7 98.8205 M2113.52 92.096 L2131.99 92.096 Q2142.16 92.096 2147.34 96.714 Q2152.57 101.292 2152.57 110.163 Q2152.57 119.116 2147.34 123.693 Q2142.16 128.271 2131.99 128.271 L2121.7 128.271 L2121.7 152.576 L2113.52 152.576 L2113.52 92.096 Z" fill="#000000" fill-rule="nonzero" fill-opacity="1"></path><polyline clip-path="url(#clip633)" style="stroke:#009af9; stroke-linecap:round; stroke-linejoin:round; stroke-width:4; stroke-opacity:1; fill:none" points="1442.16,239.783 1451.09,250.461 1460.02,261.164 1468.95,271.89 1477.88,282.641 1486.81,293.415 1495.74,304.215 1504.67,315.039 1513.6,325.888 1522.53,336.762 1531.46,347.662 1540.39,358.586 1549.32,369.537 1558.25,380.513 1567.18,391.515 1576.11,402.543 1585.04,413.597 1593.97,424.678 1602.9,435.786 1611.83,446.921 1620.76,458.082 1629.69,469.271 1638.62,480.488 1647.55,491.732 1656.48,503.004 1665.41,514.305 1674.34,525.634 1683.27,536.991 1692.2,548.377 1701.13,559.792 1710.06,571.237 1718.99,582.711 1727.92,594.214 1736.85,605.748 1745.78,617.312 1754.71,628.906 1763.64,640.531 1772.57,652.187 1781.5,663.875 1790.43,675.593 1799.36,687.344 1808.29,699.127 1817.22,710.942 1826.15,722.789 1835.08,734.67 1844.01,746.583 1852.94,758.531 1861.87,770.512 1870.8,782.527 1879.73,794.576 1888.66,806.66 1897.59,818.779 1906.52,830.934 1915.45,843.124 1924.38,855.351 1933.31,867.613 1942.24,879.913 1951.17,892.249 1960.1,904.624 1969.03,917.036 1977.96,929.486 1986.89,941.975 1995.82,954.503 2004.75,967.07 2013.68,979.677 2022.61,992.325 2031.54,1005.01 2040.47,1017.74 2049.4,1030.51 2058.33,1043.33 2067.26,1056.18 2076.19,1069.08 2085.12,1082.02 2094.05,1095.01 2102.98,1108.04 2111.91,1121.12 2120.84,1134.24 2129.77,1147.41 2138.7,1160.62 2147.63,1173.88 2156.56,1187.19 2165.49,1200.55 2174.42,1213.96 2183.35,1227.42 2192.28,1240.92 2201.21,1254.48 2210.14,1268.1 2219.07,1281.76 2228,1295.48 2236.93,1309.25 2245.86,1323.08 2254.79,1336.96 2263.72,1350.9 2272.65,1364.89 2281.58,1378.95 2290.51,1393.06 2299.44,1407.24 2308.37,1421.48 2317.3,1435.77 2326.23,1450.14 "></polyline>
<path clip-path="url(#clip630)" d="M214.839 80 L2352.76 80 L2352.76 0 L214.839 0  Z" fill="#ffffff" fill-rule="evenodd" fill-opacity="1"></path>
<defs>
  <clipPath id="clip634">
    <rect x="214" y="0" width="2139" height="81"></rect>
  </clipPath>
</defs>
<path clip-path="url(#clip630)" d="M572.111 13.824 L615.815 13.824 L615.815 21.6943 L581.463 21.6943 L581.463 42.1572 L614.38 42.1572 L614.38 50.0275 L581.463 50.0275 L581.463 75.0737 L616.648 75.0737 L616.648 82.944 L572.111 82.944 L572.111 13.824 Z" fill="#000000" fill-rule="nonzero" fill-opacity="1"></path><path clip-path="url(#clip630)" d="M657.898 10.9073 L657.898 17.9906 L649.75 17.9906 Q645.166 17.9906 643.361 19.8425 Q641.602 21.6943 641.602 26.5091 L641.602 31.0924 L655.629 31.0924 L655.629 37.7128 L641.602 37.7128 L641.602 82.944 L633.037 82.944 L633.037 37.7128 L624.889 37.7128 L624.889 31.0924 L633.037 31.0924 L633.037 27.4813 Q633.037 18.824 637.065 14.8888 Q641.092 10.9073 649.842 10.9073 L657.898 10.9073 Z" fill="#000000" fill-rule="nonzero" fill-opacity="1"></path><path clip-path="url(#clip630)" d="M691.277 10.9073 L691.277 17.9906 L683.129 17.9906 Q678.546 17.9906 676.74 19.8425 Q674.981 21.6943 674.981 26.5091 L674.981 31.0924 L689.009 31.0924 L689.009 37.7128 L674.981 37.7128 L674.981 82.944 L666.416 82.944 L666.416 37.7128 L658.268 37.7128 L658.268 31.0924 L666.416 31.0924 L666.416 27.4813 Q666.416 18.824 670.444 14.8888 Q674.472 10.9073 683.222 10.9073 L691.277 10.9073 Z" fill="#000000" fill-rule="nonzero" fill-opacity="1"></path><path clip-path="url(#clip630)" d="M742.759 54.8886 L742.759 59.0552 L703.592 59.0552 Q704.148 67.8515 708.87 72.4811 Q713.638 77.0644 722.11 77.0644 Q727.018 77.0644 731.601 75.8607 Q736.231 74.657 740.768 72.2496 L740.768 80.3051 Q736.184 82.2496 731.37 83.2681 Q726.555 84.2866 721.601 84.2866 Q709.194 84.2866 701.925 77.0644 Q694.703 69.8422 694.703 57.5275 Q694.703 44.7961 701.555 37.3424 Q708.453 29.8424 720.12 29.8424 Q730.583 29.8424 736.647 36.6017 Q742.759 43.3146 742.759 54.8886 M734.24 52.3886 Q734.147 45.3979 730.305 41.2313 Q726.509 37.0646 720.212 37.0646 Q713.083 37.0646 708.777 41.0924 Q704.518 45.1201 703.87 52.4349 L734.24 52.3886 Z" fill="#000000" fill-rule="nonzero" fill-opacity="1"></path><path clip-path="url(#clip630)" d="M794.055 33.0832 L794.055 41.0461 Q790.443 39.0553 786.786 38.0831 Q783.175 37.0646 779.471 37.0646 Q771.184 37.0646 766.601 42.3424 Q762.018 47.5738 762.018 57.0645 Q762.018 66.5552 766.601 71.8329 Q771.184 77.0644 779.471 77.0644 Q783.175 77.0644 786.786 76.0922 Q790.443 75.0737 794.055 73.0829 L794.055 80.9533 Q790.49 82.6199 786.647 83.4533 Q782.851 84.2866 778.545 84.2866 Q766.832 84.2866 759.934 76.9255 Q753.036 69.5644 753.036 57.0645 Q753.036 44.3794 759.981 37.1109 Q766.971 29.8424 779.101 29.8424 Q783.036 29.8424 786.786 30.6758 Q790.536 31.4628 794.055 33.0832 Z" fill="#000000" fill-rule="nonzero" fill-opacity="1"></path><path clip-path="url(#clip630)" d="M817.295 16.3703 L817.295 31.0924 L834.841 31.0924 L834.841 37.7128 L817.295 37.7128 L817.295 65.8608 Q817.295 72.2033 819.008 74.0089 Q820.767 75.8144 826.091 75.8144 L834.841 75.8144 L834.841 82.944 L826.091 82.944 Q816.23 82.944 812.48 79.2866 Q808.73 75.5829 808.73 65.8608 L808.73 37.7128 L802.48 37.7128 L802.48 31.0924 L808.73 31.0924 L808.73 16.3703 L817.295 16.3703 Z" fill="#000000" fill-rule="nonzero" fill-opacity="1"></path><path clip-path="url(#clip630)" d="M896.276 37.0646 Q889.424 37.0646 885.443 42.435 Q881.461 47.759 881.461 57.0645 Q881.461 66.37 885.397 71.7404 Q889.378 77.0644 896.276 77.0644 Q903.082 77.0644 907.063 71.6941 Q911.045 66.3237 911.045 57.0645 Q911.045 47.8516 907.063 42.4813 Q903.082 37.0646 896.276 37.0646 M896.276 29.8424 Q907.387 29.8424 913.73 37.0646 Q920.072 44.2868 920.072 57.0645 Q920.072 69.7959 913.73 77.0644 Q907.387 84.2866 896.276 84.2866 Q885.119 84.2866 878.776 77.0644 Q872.48 69.7959 872.48 57.0645 Q872.48 44.2868 878.776 37.0646 Q885.119 29.8424 896.276 29.8424 Z" fill="#000000" fill-rule="nonzero" fill-opacity="1"></path><path clip-path="url(#clip630)" d="M960.443 10.9073 L960.443 17.9906 L952.294 17.9906 Q947.711 17.9906 945.906 19.8425 Q944.146 21.6943 944.146 26.5091 L944.146 31.0924 L958.174 31.0924 L958.174 37.7128 L944.146 37.7128 L944.146 82.944 L935.582 82.944 L935.582 37.7128 L927.433 37.7128 L927.433 31.0924 L935.582 31.0924 L935.582 27.4813 Q935.582 18.824 939.609 14.8888 Q943.637 10.9073 952.387 10.9073 L960.443 10.9073 Z" fill="#000000" fill-rule="nonzero" fill-opacity="1"></path><path clip-path="url(#clip630)" d="M1031.83 38.9628 L1031.83 10.9073 L1040.35 10.9073 L1040.35 82.944 L1031.83 82.944 L1031.83 75.1663 Q1029.15 79.7959 1025.03 82.0644 Q1020.95 84.2866 1015.21 84.2866 Q1005.81 84.2866 999.887 76.7866 Q994.007 69.2867 994.007 57.0645 Q994.007 44.8424 999.887 37.3424 Q1005.81 29.8424 1015.21 29.8424 Q1020.95 29.8424 1025.03 32.1109 Q1029.15 34.3331 1031.83 38.9628 M1002.8 57.0645 Q1002.8 66.4626 1006.65 71.8329 Q1010.53 77.157 1017.29 77.157 Q1024.05 77.157 1027.94 71.8329 Q1031.83 66.4626 1031.83 57.0645 Q1031.83 47.6664 1027.94 42.3424 Q1024.05 36.972 1017.29 36.972 Q1010.53 36.972 1006.65 42.3424 Q1002.8 47.6664 1002.8 57.0645 Z" fill="#000000" fill-rule="nonzero" fill-opacity="1"></path><path clip-path="url(#clip630)" d="M1057.9 31.0924 L1066.41 31.0924 L1066.41 82.944 L1057.9 82.944 L1057.9 31.0924 M1057.9 10.9073 L1066.41 10.9073 L1066.41 21.6943 L1057.9 21.6943 L1057.9 10.9073 Z" fill="#000000" fill-rule="nonzero" fill-opacity="1"></path><path clip-path="url(#clip630)" d="M1110.49 10.9073 L1110.49 17.9906 L1102.34 17.9906 Q1097.76 17.9906 1095.95 19.8425 Q1094.19 21.6943 1094.19 26.5091 L1094.19 31.0924 L1108.22 31.0924 L1108.22 37.7128 L1094.19 37.7128 L1094.19 82.944 L1085.63 82.944 L1085.63 37.7128 L1077.48 37.7128 L1077.48 31.0924 L1085.63 31.0924 L1085.63 27.4813 Q1085.63 18.824 1089.65 14.8888 Q1093.68 10.9073 1102.43 10.9073 L1110.49 10.9073 Z" fill="#000000" fill-rule="nonzero" fill-opacity="1"></path><path clip-path="url(#clip630)" d="M1143.87 10.9073 L1143.87 17.9906 L1135.72 17.9906 Q1131.14 17.9906 1129.33 19.8425 Q1127.57 21.6943 1127.57 26.5091 L1127.57 31.0924 L1141.6 31.0924 L1141.6 37.7128 L1127.57 37.7128 L1127.57 82.944 L1119.01 82.944 L1119.01 37.7128 L1110.86 37.7128 L1110.86 31.0924 L1119.01 31.0924 L1119.01 27.4813 Q1119.01 18.824 1123.03 14.8888 Q1127.06 10.9073 1135.81 10.9073 L1143.87 10.9073 Z" fill="#000000" fill-rule="nonzero" fill-opacity="1"></path><path clip-path="url(#clip630)" d="M1195.35 54.8886 L1195.35 59.0552 L1156.18 59.0552 Q1156.74 67.8515 1161.46 72.4811 Q1166.23 77.0644 1174.7 77.0644 Q1179.61 77.0644 1184.19 75.8607 Q1188.82 74.657 1193.36 72.2496 L1193.36 80.3051 Q1188.77 82.2496 1183.96 83.2681 Q1179.15 84.2866 1174.19 84.2866 Q1161.78 84.2866 1154.52 77.0644 Q1147.29 69.8422 1147.29 57.5275 Q1147.29 44.7961 1154.15 37.3424 Q1161.04 29.8424 1172.71 29.8424 Q1183.17 29.8424 1189.24 36.6017 Q1195.35 43.3146 1195.35 54.8886 M1186.83 52.3886 Q1186.74 45.3979 1182.9 41.2313 Q1179.1 37.0646 1172.8 37.0646 Q1165.67 37.0646 1161.37 41.0924 Q1157.11 45.1201 1156.46 52.4349 L1186.83 52.3886 Z" fill="#000000" fill-rule="nonzero" fill-opacity="1"></path><path clip-path="url(#clip630)" d="M1239.38 39.0553 Q1237.94 38.222 1236.23 37.8516 Q1234.56 37.435 1232.52 37.435 Q1225.3 37.435 1221.41 42.1572 Q1217.57 46.8331 1217.57 55.6293 L1217.57 82.944 L1209.01 82.944 L1209.01 31.0924 L1217.57 31.0924 L1217.57 39.1479 Q1220.26 34.4257 1224.56 32.1572 Q1228.87 29.8424 1235.02 29.8424 Q1235.9 29.8424 1236.97 29.9813 Q1238.03 30.0739 1239.33 30.3054 L1239.38 39.0553 Z" fill="#000000" fill-rule="nonzero" fill-opacity="1"></path><path clip-path="url(#clip630)" d="M1290.58 54.8886 L1290.58 59.0552 L1251.41 59.0552 Q1251.97 67.8515 1256.69 72.4811 Q1261.46 77.0644 1269.93 77.0644 Q1274.84 77.0644 1279.42 75.8607 Q1284.05 74.657 1288.59 72.2496 L1288.59 80.3051 Q1284.01 82.2496 1279.19 83.2681 Q1274.38 84.2866 1269.42 84.2866 Q1257.02 84.2866 1249.75 77.0644 Q1242.52 69.8422 1242.52 57.5275 Q1242.52 44.7961 1249.38 37.3424 Q1256.27 29.8424 1267.94 29.8424 Q1278.4 29.8424 1284.47 36.6017 Q1290.58 43.3146 1290.58 54.8886 M1282.06 52.3886 Q1281.97 45.3979 1278.13 41.2313 Q1274.33 37.0646 1268.03 37.0646 Q1260.9 37.0646 1256.6 41.0924 Q1252.34 45.1201 1251.69 52.4349 L1282.06 52.3886 Z" fill="#000000" fill-rule="nonzero" fill-opacity="1"></path><path clip-path="url(#clip630)" d="M1347.66 51.6479 L1347.66 82.944 L1339.14 82.944 L1339.14 51.9256 Q1339.14 44.5646 1336.27 40.9072 Q1333.4 37.2498 1327.66 37.2498 Q1320.76 37.2498 1316.78 41.6479 Q1312.8 46.046 1312.8 53.6386 L1312.8 82.944 L1304.24 82.944 L1304.24 31.0924 L1312.8 31.0924 L1312.8 39.1479 Q1315.86 34.472 1319.98 32.1572 Q1324.14 29.8424 1329.56 29.8424 Q1338.5 29.8424 1343.08 35.398 Q1347.66 40.9072 1347.66 51.6479 Z" fill="#000000" fill-rule="nonzero" fill-opacity="1"></path><path clip-path="url(#clip630)" d="M1373.08 16.3703 L1373.08 31.0924 L1390.63 31.0924 L1390.63 37.7128 L1373.08 37.7128 L1373.08 65.8608 Q1373.08 72.2033 1374.79 74.0089 Q1376.55 75.8144 1381.88 75.8144 L1390.63 75.8144 L1390.63 82.944 L1381.88 82.944 Q1372.01 82.944 1368.26 79.2866 Q1364.51 75.5829 1364.51 65.8608 L1364.51 37.7128 L1358.26 37.7128 L1358.26 31.0924 L1364.51 31.0924 L1364.51 16.3703 L1373.08 16.3703 Z" fill="#000000" fill-rule="nonzero" fill-opacity="1"></path><path clip-path="url(#clip630)" d="M1431.97 10.9073 L1440.49 10.9073 L1440.49 82.944 L1431.97 82.944 L1431.97 10.9073 Z" fill="#000000" fill-rule="nonzero" fill-opacity="1"></path><path clip-path="url(#clip630)" d="M1481.87 56.8793 Q1471.55 56.8793 1467.57 59.2404 Q1463.59 61.6015 1463.59 67.2959 Q1463.59 71.8329 1466.55 74.5181 Q1469.56 77.157 1474.7 77.157 Q1481.78 77.157 1486.04 72.157 Q1490.35 67.1108 1490.35 58.7775 L1490.35 56.8793 L1481.87 56.8793 M1498.87 53.3608 L1498.87 82.944 L1490.35 82.944 L1490.35 75.0737 Q1487.43 79.7959 1483.08 82.0644 Q1478.73 84.2866 1472.43 84.2866 Q1464.47 84.2866 1459.75 79.8422 Q1455.07 75.3514 1455.07 67.8515 Q1455.07 59.1015 1460.9 54.6571 Q1466.78 50.2127 1478.4 50.2127 L1490.35 50.2127 L1490.35 49.3794 Q1490.35 43.4998 1486.46 40.3053 Q1482.62 37.0646 1475.62 37.0646 Q1471.18 37.0646 1466.97 38.1294 Q1462.75 39.1942 1458.87 41.3239 L1458.87 33.4535 Q1463.54 31.648 1467.94 30.7684 Q1472.34 29.8424 1476.5 29.8424 Q1487.75 29.8424 1493.31 35.6757 Q1498.87 41.509 1498.87 53.3608 Z" fill="#000000" fill-rule="nonzero" fill-opacity="1"></path><path clip-path="url(#clip630)" d="M1553.63 57.0645 Q1553.63 47.6664 1549.74 42.3424 Q1545.9 36.972 1539.14 36.972 Q1532.38 36.972 1528.5 42.3424 Q1524.65 47.6664 1524.65 57.0645 Q1524.65 66.4626 1528.5 71.8329 Q1532.38 77.157 1539.14 77.157 Q1545.9 77.157 1549.74 71.8329 Q1553.63 66.4626 1553.63 57.0645 M1524.65 38.9628 Q1527.34 34.3331 1531.41 32.1109 Q1535.53 29.8424 1541.23 29.8424 Q1550.67 29.8424 1556.55 37.3424 Q1562.48 44.8424 1562.48 57.0645 Q1562.48 69.2867 1556.55 76.7866 Q1550.67 84.2866 1541.23 84.2866 Q1535.53 84.2866 1531.41 82.0644 Q1527.34 79.7959 1524.65 75.1663 L1524.65 82.944 L1516.09 82.944 L1516.09 10.9073 L1524.65 10.9073 L1524.65 38.9628 Z" fill="#000000" fill-rule="nonzero" fill-opacity="1"></path><path clip-path="url(#clip630)" d="M1596.69 37.0646 Q1589.84 37.0646 1585.86 42.435 Q1581.87 47.759 1581.87 57.0645 Q1581.87 66.37 1585.81 71.7404 Q1589.79 77.0644 1596.69 77.0644 Q1603.49 77.0644 1607.48 71.6941 Q1611.46 66.3237 1611.46 57.0645 Q1611.46 47.8516 1607.48 42.4813 Q1603.49 37.0646 1596.69 37.0646 M1596.69 29.8424 Q1607.8 29.8424 1614.14 37.0646 Q1620.49 44.2868 1620.49 57.0645 Q1620.49 69.7959 1614.14 77.0644 Q1607.8 84.2866 1596.69 84.2866 Q1585.53 84.2866 1579.19 77.0644 Q1572.89 69.7959 1572.89 57.0645 Q1572.89 44.2868 1579.19 37.0646 Q1585.53 29.8424 1596.69 29.8424 Z" fill="#000000" fill-rule="nonzero" fill-opacity="1"></path><path clip-path="url(#clip630)" d="M1633.73 62.4811 L1633.73 31.0924 L1642.24 31.0924 L1642.24 62.1571 Q1642.24 69.5181 1645.11 73.2218 Q1647.99 76.8792 1653.73 76.8792 Q1660.62 76.8792 1664.61 72.4811 Q1668.63 68.083 1668.63 60.4904 L1668.63 31.0924 L1677.15 31.0924 L1677.15 82.944 L1668.63 82.944 L1668.63 74.9811 Q1665.53 79.7033 1661.41 82.0181 Q1657.34 84.2866 1651.92 84.2866 Q1642.99 84.2866 1638.36 78.7311 Q1633.73 73.1755 1633.73 62.4811 M1655.16 29.8424 L1655.16 29.8424 Z" fill="#000000" fill-rule="nonzero" fill-opacity="1"></path><path clip-path="url(#clip630)" d="M1724.74 39.0553 Q1723.31 38.222 1721.6 37.8516 Q1719.93 37.435 1717.89 37.435 Q1710.67 37.435 1706.78 42.1572 Q1702.94 46.8331 1702.94 55.6293 L1702.94 82.944 L1694.37 82.944 L1694.37 31.0924 L1702.94 31.0924 L1702.94 39.1479 Q1705.62 34.4257 1709.93 32.1572 Q1714.23 29.8424 1720.39 29.8424 Q1721.27 29.8424 1722.34 29.9813 Q1723.4 30.0739 1724.7 30.3054 L1724.74 39.0553 Z" fill="#000000" fill-rule="nonzero" fill-opacity="1"></path><path clip-path="url(#clip630)" d="M1796.87 32.6202 L1796.87 40.6757 Q1793.26 38.8239 1789.37 37.8979 Q1785.48 36.972 1781.32 36.972 Q1774.98 36.972 1771.78 38.9165 Q1768.63 40.8609 1768.63 44.7498 Q1768.63 47.7127 1770.9 49.4257 Q1773.17 51.0923 1780.02 52.6201 L1782.94 53.2682 Q1792.01 55.2127 1795.81 58.7775 Q1799.65 62.296 1799.65 68.6385 Q1799.65 75.8607 1793.91 80.0736 Q1788.22 84.2866 1778.22 84.2866 Q1774.05 84.2866 1769.51 83.4533 Q1765.02 82.6662 1760.02 81.0459 L1760.02 72.2496 Q1764.74 74.7033 1769.33 75.9533 Q1773.91 77.157 1778.4 77.157 Q1784.42 77.157 1787.66 75.12 Q1790.9 73.0366 1790.9 69.2867 Q1790.9 65.8145 1788.54 63.9626 Q1786.23 62.1108 1778.31 60.3978 L1775.35 59.7034 Q1767.43 58.0367 1763.91 54.6108 Q1760.39 51.1386 1760.39 45.1201 Q1760.39 37.8054 1765.58 33.8239 Q1770.76 29.8424 1780.3 29.8424 Q1785.02 29.8424 1789.19 30.5369 Q1793.35 31.2313 1796.87 32.6202 Z" fill="#000000" fill-rule="nonzero" fill-opacity="1"></path><path clip-path="url(#clip630)" d="M1813.22 10.9073 L1821.73 10.9073 L1821.73 82.944 L1813.22 82.944 L1813.22 10.9073 Z" fill="#000000" fill-rule="nonzero" fill-opacity="1"></path><path clip-path="url(#clip630)" d="M1863.12 56.8793 Q1852.8 56.8793 1848.82 59.2404 Q1844.84 61.6015 1844.84 67.2959 Q1844.84 71.8329 1847.8 74.5181 Q1850.81 77.157 1855.95 77.157 Q1863.03 77.157 1867.29 72.157 Q1871.6 67.1108 1871.6 58.7775 L1871.6 56.8793 L1863.12 56.8793 M1880.11 53.3608 L1880.11 82.944 L1871.6 82.944 L1871.6 75.0737 Q1868.68 79.7959 1864.33 82.0644 Q1859.97 84.2866 1853.68 84.2866 Q1845.72 84.2866 1840.99 79.8422 Q1836.32 75.3514 1836.32 67.8515 Q1836.32 59.1015 1842.15 54.6571 Q1848.03 50.2127 1859.65 50.2127 L1871.6 50.2127 L1871.6 49.3794 Q1871.6 43.4998 1867.71 40.3053 Q1863.86 37.0646 1856.87 37.0646 Q1852.43 37.0646 1848.22 38.1294 Q1844 39.1942 1840.11 41.3239 L1840.11 33.4535 Q1844.79 31.648 1849.19 30.7684 Q1853.59 29.8424 1857.75 29.8424 Q1869 29.8424 1874.56 35.6757 Q1880.11 41.509 1880.11 53.3608 Z" fill="#000000" fill-rule="nonzero" fill-opacity="1"></path><path clip-path="url(#clip630)" d="M1934.97 33.0832 L1934.97 41.0461 Q1931.36 39.0553 1927.71 38.0831 Q1924.09 37.0646 1920.39 37.0646 Q1912.1 37.0646 1907.52 42.3424 Q1902.94 47.5738 1902.94 57.0645 Q1902.94 66.5552 1907.52 71.8329 Q1912.1 77.0644 1920.39 77.0644 Q1924.09 77.0644 1927.71 76.0922 Q1931.36 75.0737 1934.97 73.0829 L1934.97 80.9533 Q1931.41 82.6199 1927.57 83.4533 Q1923.77 84.2866 1919.47 84.2866 Q1907.75 84.2866 1900.85 76.9255 Q1893.96 69.5644 1893.96 57.0645 Q1893.96 44.3794 1900.9 37.1109 Q1907.89 29.8424 1920.02 29.8424 Q1923.96 29.8424 1927.71 30.6758 Q1931.46 31.4628 1934.97 33.0832 Z" fill="#000000" fill-rule="nonzero" fill-opacity="1"></path><path clip-path="url(#clip630)" d="M1949.47 10.9073 L1958.03 10.9073 L1958.03 53.4534 L1983.45 31.0924 L1994.33 31.0924 L1966.83 55.3516 L1995.48 82.944 L1984.37 82.944 L1958.03 57.6201 L1958.03 82.944 L1949.47 82.944 L1949.47 10.9073 Z" fill="#000000" fill-rule="nonzero" fill-opacity="1"></path></svg>