<svg xmlns="http://www.w3.org/2000/svg" xmlns:xlink="http://www.w3.org/1999/xlink" width="1000" height="500" viewBox="0 0 4000 2000">
<defs>
  <clipPath id="clip890">
    <rect x="0" y="0" width="4000" height="2000"></rect>
  </clipPath>
</defs>
<path clip-path="url(#clip890)" d="M0 2000 L4000 2000 L4000 0 L0 0  Z" fill="#ffffff" fill-rule="evenodd" fill-opacity="1"></path>
<defs>
  <clipPath id="clip891">
    <rect x="800" y="0" width="2801" height="2000"></rect>
  </clipPath>
</defs>
<path clip-path="url(#clip890)" d="M230.839 1891.09 L1951.96 1891.09 L1951.96 108.352 L230.839 108.352  Z" fill="#ffffff" fill-rule="evenodd" fill-opacity="1"></path>
<defs>
  <clipPath id="clip892">
    <rect x="230" y="108" width="1722" height="1784"></rect>
  </clipPath>
</defs>
<polyline clip-path="url(#clip892)" style="stroke:#000000; stroke-linecap:round; stroke-linejoin:round; stroke-width:2; stroke-opacity:0.1; fill:none" points="279.55,1891.09 279.55,108.352 "></polyline>
<polyline clip-path="url(#clip892)" style="stroke:#000000; stroke-linecap:round; stroke-linejoin:round; stroke-width:2; stroke-opacity:0.1; fill:none" points="685.474,1891.09 685.474,108.352 "></polyline>
<polyline clip-path="url(#clip892)" style="stroke:#000000; stroke-linecap:round; stroke-linejoin:round; stroke-width:2; stroke-opacity:0.1; fill:none" points="1091.4,1891.09 1091.4,108.352 "></polyline>
<polyline clip-path="url(#clip892)" style="stroke:#000000; stroke-linecap:round; stroke-linejoin:round; stroke-width:2; stroke-opacity:0.1; fill:none" points="1497.32,1891.09 1497.32,108.352 "></polyline>
<polyline clip-path="url(#clip892)" style="stroke:#000000; stroke-linecap:round; stroke-linejoin:round; stroke-width:2; stroke-opacity:0.1; fill:none" points="1903.25,1891.09 1903.25,108.352 "></polyline>
<polyline clip-path="url(#clip890)" style="stroke:#000000; stroke-linecap:round; stroke-linejoin:round; stroke-width:4; stroke-opacity:1; fill:none" points="230.839,1891.09 1951.96,1891.09 "></polyline>
<polyline clip-path="url(#clip890)" style="stroke:#000000; stroke-linecap:round; stroke-linejoin:round; stroke-width:4; stroke-opacity:1; fill:none" points="279.55,1891.09 279.55,1872.19 "></polyline>
<polyline clip-path="url(#clip890)" style="stroke:#000000; stroke-linecap:round; stroke-linejoin:round; stroke-width:4; stroke-opacity:1; fill:none" points="685.474,1891.09 685.474,1872.19 "></polyline>
<polyline clip-path="url(#clip890)" style="stroke:#000000; stroke-linecap:round; stroke-linejoin:round; stroke-width:4; stroke-opacity:1; fill:none" points="1091.4,1891.09 1091.4,1872.19 "></polyline>
<polyline clip-path="url(#clip890)" style="stroke:#000000; stroke-linecap:round; stroke-linejoin:round; stroke-width:4; stroke-opacity:1; fill:none" points="1497.32,1891.09 1497.32,1872.19 "></polyline>
<polyline clip-path="url(#clip890)" style="stroke:#000000; stroke-linecap:round; stroke-linejoin:round; stroke-width:4; stroke-opacity:1; fill:none" points="1903.25,1891.09 1903.25,1872.19 "></polyline>
<path clip-path="url(#clip890)" d="M241.853 1934.81 Q238.242 1934.81 236.413 1938.37 Q234.608 1941.91 234.608 1949.04 Q234.608 1956.15 236.413 1959.71 Q238.242 1963.26 241.853 1963.26 Q245.487 1963.26 247.293 1959.71 Q249.121 1956.15 249.121 1949.04 Q249.121 1941.91 247.293 1938.37 Q245.487 1934.81 241.853 1934.81 M241.853 1931.1 Q247.663 1931.1 250.719 1935.71 Q253.797 1940.29 253.797 1949.04 Q253.797 1957.77 250.719 1962.38 Q247.663 1966.96 241.853 1966.96 Q236.043 1966.96 232.964 1962.38 Q229.909 1957.77 229.909 1949.04 Q229.909 1940.29 232.964 1935.71 Q236.043 1931.1 241.853 1931.1 Z" fill="#000000" fill-rule="nonzero" fill-opacity="1"></path><path clip-path="url(#clip890)" d="M262.015 1960.41 L266.899 1960.41 L266.899 1966.29 L262.015 1966.29 L262.015 1960.41 Z" fill="#000000" fill-rule="nonzero" fill-opacity="1"></path><path clip-path="url(#clip890)" d="M287.084 1934.81 Q283.473 1934.81 281.644 1938.37 Q279.839 1941.91 279.839 1949.04 Q279.839 1956.15 281.644 1959.71 Q283.473 1963.26 287.084 1963.26 Q290.718 1963.26 292.524 1959.71 Q294.353 1956.15 294.353 1949.04 Q294.353 1941.91 292.524 1938.37 Q290.718 1934.81 287.084 1934.81 M287.084 1931.1 Q292.894 1931.1 295.95 1935.71 Q299.029 1940.29 299.029 1949.04 Q299.029 1957.77 295.95 1962.38 Q292.894 1966.96 287.084 1966.96 Q281.274 1966.96 278.195 1962.38 Q275.14 1957.77 275.14 1949.04 Q275.14 1940.29 278.195 1935.71 Q281.274 1931.1 287.084 1931.1 Z" fill="#000000" fill-rule="nonzero" fill-opacity="1"></path><path clip-path="url(#clip890)" d="M317.246 1934.81 Q313.635 1934.81 311.806 1938.37 Q310.001 1941.91 310.001 1949.04 Q310.001 1956.15 311.806 1959.71 Q313.635 1963.26 317.246 1963.26 Q320.88 1963.26 322.686 1959.71 Q324.515 1956.15 324.515 1949.04 Q324.515 1941.91 322.686 1938.37 Q320.88 1934.81 317.246 1934.81 M317.246 1931.1 Q323.056 1931.1 326.112 1935.71 Q329.191 1940.29 329.191 1949.04 Q329.191 1957.77 326.112 1962.38 Q323.056 1966.96 317.246 1966.96 Q311.436 1966.96 308.357 1962.38 Q305.302 1957.77 305.302 1949.04 Q305.302 1940.29 308.357 1935.71 Q311.436 1931.1 317.246 1931.1 Z" fill="#000000" fill-rule="nonzero" fill-opacity="1"></path><path clip-path="url(#clip890)" d="M648.275 1934.81 Q644.664 1934.81 642.835 1938.37 Q641.03 1941.91 641.03 1949.04 Q641.03 1956.15 642.835 1959.71 Q644.664 1963.26 648.275 1963.26 Q651.909 1963.26 653.715 1959.71 Q655.543 1956.15 655.543 1949.04 Q655.543 1941.91 653.715 1938.37 Q651.909 1934.81 648.275 1934.81 M648.275 1931.1 Q654.085 1931.1 657.141 1935.71 Q660.219 1940.29 660.219 1949.04 Q660.219 1957.77 657.141 1962.38 Q654.085 1966.96 648.275 1966.96 Q642.465 1966.96 639.386 1962.38 Q636.331 1957.77 636.331 1949.04 Q636.331 1940.29 639.386 1935.71 Q642.465 1931.1 648.275 1931.1 Z" fill="#000000" fill-rule="nonzero" fill-opacity="1"></path><path clip-path="url(#clip890)" d="M668.437 1960.41 L673.321 1960.41 L673.321 1966.29 L668.437 1966.29 L668.437 1960.41 Z" fill="#000000" fill-rule="nonzero" fill-opacity="1"></path><path clip-path="url(#clip890)" d="M687.534 1962.35 L703.853 1962.35 L703.853 1966.29 L681.909 1966.29 L681.909 1962.35 Q684.571 1959.6 689.154 1954.97 Q693.761 1950.32 694.941 1948.97 Q697.187 1946.45 698.066 1944.71 Q698.969 1942.95 698.969 1941.26 Q698.969 1938.51 697.025 1936.77 Q695.103 1935.04 692.002 1935.04 Q689.802 1935.04 687.349 1935.8 Q684.918 1936.57 682.14 1938.12 L682.14 1933.39 Q684.965 1932.26 687.418 1931.68 Q689.872 1931.1 691.909 1931.1 Q697.279 1931.1 700.474 1933.79 Q703.668 1936.47 703.668 1940.96 Q703.668 1943.09 702.858 1945.01 Q702.071 1946.91 699.964 1949.51 Q699.386 1950.18 696.284 1953.39 Q693.182 1956.59 687.534 1962.35 Z" fill="#000000" fill-rule="nonzero" fill-opacity="1"></path><path clip-path="url(#clip890)" d="M713.714 1931.73 L732.071 1931.73 L732.071 1935.66 L717.997 1935.66 L717.997 1944.14 Q719.015 1943.79 720.034 1943.63 Q721.052 1943.44 722.071 1943.44 Q727.858 1943.44 731.237 1946.61 Q734.617 1949.78 734.617 1955.2 Q734.617 1960.78 731.145 1963.88 Q727.673 1966.96 721.353 1966.96 Q719.177 1966.96 716.909 1966.59 Q714.663 1966.22 712.256 1965.48 L712.256 1960.78 Q714.339 1961.91 716.562 1962.47 Q718.784 1963.02 721.261 1963.02 Q725.265 1963.02 727.603 1960.92 Q729.941 1958.81 729.941 1955.2 Q729.941 1951.59 727.603 1949.48 Q725.265 1947.38 721.261 1947.38 Q719.386 1947.38 717.511 1947.79 Q715.659 1948.21 713.714 1949.09 L713.714 1931.73 Z" fill="#000000" fill-rule="nonzero" fill-opacity="1"></path><path clip-path="url(#clip890)" d="M1053.7 1934.81 Q1050.09 1934.81 1048.26 1938.37 Q1046.46 1941.91 1046.46 1949.04 Q1046.46 1956.15 1048.26 1959.71 Q1050.09 1963.26 1053.7 1963.26 Q1057.34 1963.26 1059.14 1959.71 Q1060.97 1956.15 1060.97 1949.04 Q1060.97 1941.91 1059.14 1938.37 Q1057.34 1934.81 1053.7 1934.81 M1053.7 1931.1 Q1059.51 1931.1 1062.57 1935.71 Q1065.65 1940.29 1065.65 1949.04 Q1065.65 1957.77 1062.57 1962.38 Q1059.51 1966.96 1053.7 1966.96 Q1047.89 1966.96 1044.81 1962.38 Q1041.76 1957.77 1041.76 1949.04 Q1041.76 1940.29 1044.81 1935.71 Q1047.89 1931.1 1053.7 1931.1 Z" fill="#000000" fill-rule="nonzero" fill-opacity="1"></path><path clip-path="url(#clip890)" d="M1073.86 1960.41 L1078.75 1960.41 L1078.75 1966.29 L1073.86 1966.29 L1073.86 1960.41 Z" fill="#000000" fill-rule="nonzero" fill-opacity="1"></path><path clip-path="url(#clip890)" d="M1088.98 1931.73 L1107.34 1931.73 L1107.34 1935.66 L1093.26 1935.66 L1093.26 1944.14 Q1094.28 1943.79 1095.3 1943.63 Q1096.32 1943.44 1097.34 1943.44 Q1103.12 1943.44 1106.5 1946.61 Q1109.88 1949.78 1109.88 1955.2 Q1109.88 1960.78 1106.41 1963.88 Q1102.94 1966.96 1096.62 1966.96 Q1094.44 1966.96 1092.17 1966.59 Q1089.93 1966.22 1087.52 1965.48 L1087.52 1960.78 Q1089.6 1961.91 1091.83 1962.47 Q1094.05 1963.02 1096.53 1963.02 Q1100.53 1963.02 1102.87 1960.92 Q1105.21 1958.81 1105.21 1955.2 Q1105.21 1951.59 1102.87 1949.48 Q1100.53 1947.38 1096.53 1947.38 Q1094.65 1947.38 1092.78 1947.79 Q1090.92 1948.21 1088.98 1949.09 L1088.98 1931.73 Z" fill="#000000" fill-rule="nonzero" fill-opacity="1"></path><path clip-path="url(#clip890)" d="M1129.09 1934.81 Q1125.48 1934.81 1123.65 1938.37 Q1121.85 1941.91 1121.85 1949.04 Q1121.85 1956.15 1123.65 1959.71 Q1125.48 1963.26 1129.09 1963.26 Q1132.73 1963.26 1134.53 1959.71 Q1136.36 1956.15 1136.36 1949.04 Q1136.36 1941.91 1134.53 1938.37 Q1132.73 1934.81 1129.09 1934.81 M1129.09 1931.1 Q1134.9 1931.1 1137.96 1935.71 Q1141.04 1940.29 1141.04 1949.04 Q1141.04 1957.77 1137.96 1962.38 Q1134.9 1966.96 1129.09 1966.96 Q1123.28 1966.96 1120.21 1962.38 Q1117.15 1957.77 1117.15 1949.04 Q1117.15 1940.29 1120.21 1935.71 Q1123.28 1931.1 1129.09 1931.1 Z" fill="#000000" fill-rule="nonzero" fill-opacity="1"></path><path clip-path="url(#clip890)" d="M1460.12 1934.81 Q1456.51 1934.81 1454.68 1938.37 Q1452.88 1941.91 1452.88 1949.04 Q1452.88 1956.15 1454.68 1959.71 Q1456.51 1963.26 1460.12 1963.26 Q1463.76 1963.26 1465.56 1959.71 Q1467.39 1956.15 1467.39 1949.04 Q1467.39 1941.91 1465.56 1938.37 Q1463.76 1934.81 1460.12 1934.81 M1460.12 1931.1 Q1465.93 1931.1 1468.99 1935.71 Q1472.07 1940.29 1472.07 1949.04 Q1472.07 1957.77 1468.99 1962.38 Q1465.93 1966.96 1460.12 1966.96 Q1454.31 1966.96 1451.23 1962.38 Q1448.18 1957.77 1448.18 1949.04 Q1448.18 1940.29 1451.23 1935.71 Q1454.31 1931.1 1460.12 1931.1 Z" fill="#000000" fill-rule="nonzero" fill-opacity="1"></path><path clip-path="url(#clip890)" d="M1480.29 1960.41 L1485.17 1960.41 L1485.17 1966.29 L1480.29 1966.29 L1480.29 1960.41 Z" fill="#000000" fill-rule="nonzero" fill-opacity="1"></path><path clip-path="url(#clip890)" d="M1494.17 1931.73 L1516.4 1931.73 L1516.4 1933.72 L1503.85 1966.29 L1498.97 1966.29 L1510.77 1935.66 L1494.17 1935.66 L1494.17 1931.73 Z" fill="#000000" fill-rule="nonzero" fill-opacity="1"></path><path clip-path="url(#clip890)" d="M1525.56 1931.73 L1543.92 1931.73 L1543.92 1935.66 L1529.85 1935.66 L1529.85 1944.14 Q1530.86 1943.79 1531.88 1943.63 Q1532.9 1943.44 1533.92 1943.44 Q1539.71 1943.44 1543.09 1946.61 Q1546.47 1949.78 1546.47 1955.2 Q1546.47 1960.78 1542.99 1963.88 Q1539.52 1966.96 1533.2 1966.96 Q1531.03 1966.96 1528.76 1966.59 Q1526.51 1966.22 1524.1 1965.48 L1524.1 1960.78 Q1526.19 1961.91 1528.41 1962.47 Q1530.63 1963.02 1533.11 1963.02 Q1537.11 1963.02 1539.45 1960.92 Q1541.79 1958.81 1541.79 1955.2 Q1541.79 1951.59 1539.45 1949.48 Q1537.11 1947.38 1533.11 1947.38 Q1531.23 1947.38 1529.36 1947.79 Q1527.51 1948.21 1525.56 1949.09 L1525.56 1931.73 Z" fill="#000000" fill-rule="nonzero" fill-opacity="1"></path><path clip-path="url(#clip890)" d="M1855.32 1962.35 L1862.96 1962.35 L1862.96 1935.99 L1854.65 1937.65 L1854.65 1933.39 L1862.91 1931.73 L1867.59 1931.73 L1867.59 1962.35 L1875.23 1962.35 L1875.23 1966.29 L1855.32 1966.29 L1855.32 1962.35 Z" fill="#000000" fill-rule="nonzero" fill-opacity="1"></path><path clip-path="url(#clip890)" d="M1884.67 1960.41 L1889.55 1960.41 L1889.55 1966.29 L1884.67 1966.29 L1884.67 1960.41 Z" fill="#000000" fill-rule="nonzero" fill-opacity="1"></path><path clip-path="url(#clip890)" d="M1909.74 1934.81 Q1906.13 1934.81 1904.3 1938.37 Q1902.49 1941.91 1902.49 1949.04 Q1902.49 1956.15 1904.3 1959.71 Q1906.13 1963.26 1909.74 1963.26 Q1913.37 1963.26 1915.18 1959.71 Q1917.01 1956.15 1917.01 1949.04 Q1917.01 1941.91 1915.18 1938.37 Q1913.37 1934.81 1909.74 1934.81 M1909.74 1931.1 Q1915.55 1931.1 1918.61 1935.71 Q1921.68 1940.29 1921.68 1949.04 Q1921.68 1957.77 1918.61 1962.38 Q1915.55 1966.96 1909.74 1966.96 Q1903.93 1966.96 1900.85 1962.38 Q1897.8 1957.77 1897.8 1949.04 Q1897.8 1940.29 1900.85 1935.71 Q1903.93 1931.1 1909.74 1931.1 Z" fill="#000000" fill-rule="nonzero" fill-opacity="1"></path><path clip-path="url(#clip890)" d="M1939.9 1934.81 Q1936.29 1934.81 1934.46 1938.37 Q1932.66 1941.91 1932.66 1949.04 Q1932.66 1956.15 1934.46 1959.71 Q1936.29 1963.26 1939.9 1963.26 Q1943.54 1963.26 1945.34 1959.71 Q1947.17 1956.15 1947.17 1949.04 Q1947.17 1941.91 1945.34 1938.37 Q1943.54 1934.81 1939.9 1934.81 M1939.9 1931.1 Q1945.71 1931.1 1948.77 1935.71 Q1951.85 1940.29 1951.85 1949.04 Q1951.85 1957.77 1948.77 1962.38 Q1945.71 1966.96 1939.9 1966.96 Q1934.09 1966.96 1931.01 1962.38 Q1927.96 1957.77 1927.96 1949.04 Q1927.96 1940.29 1931.01 1935.71 Q1934.09 1931.1 1939.9 1931.1 Z" fill="#000000" fill-rule="nonzero" fill-opacity="1"></path><polyline clip-path="url(#clip892)" style="stroke:#000000; stroke-linecap:round; stroke-linejoin:round; stroke-width:2; stroke-opacity:0.1; fill:none" points="230.839,1812.49 1951.96,1812.49 "></polyline>
<polyline clip-path="url(#clip892)" style="stroke:#000000; stroke-linecap:round; stroke-linejoin:round; stroke-width:2; stroke-opacity:0.1; fill:none" points="230.839,1595.64 1951.96,1595.64 "></polyline>
<polyline clip-path="url(#clip892)" style="stroke:#000000; stroke-linecap:round; stroke-linejoin:round; stroke-width:2; stroke-opacity:0.1; fill:none" points="230.839,1378.78 1951.96,1378.78 "></polyline>
<polyline clip-path="url(#clip892)" style="stroke:#000000; stroke-linecap:round; stroke-linejoin:round; stroke-width:2; stroke-opacity:0.1; fill:none" points="230.839,1161.92 1951.96,1161.92 "></polyline>
<polyline clip-path="url(#clip892)" style="stroke:#000000; stroke-linecap:round; stroke-linejoin:round; stroke-width:2; stroke-opacity:0.1; fill:none" points="230.839,945.057 1951.96,945.057 "></polyline>
<polyline clip-path="url(#clip892)" style="stroke:#000000; stroke-linecap:round; stroke-linejoin:round; stroke-width:2; stroke-opacity:0.1; fill:none" points="230.839,728.198 1951.96,728.198 "></polyline>
<polyline clip-path="url(#clip892)" style="stroke:#000000; stroke-linecap:round; stroke-linejoin:round; stroke-width:2; stroke-opacity:0.1; fill:none" points="230.839,511.338 1951.96,511.338 "></polyline>
<polyline clip-path="url(#clip892)" style="stroke:#000000; stroke-linecap:round; stroke-linejoin:round; stroke-width:2; stroke-opacity:0.1; fill:none" points="230.839,294.479 1951.96,294.479 "></polyline>
<polyline clip-path="url(#clip890)" style="stroke:#000000; stroke-linecap:round; stroke-linejoin:round; stroke-width:4; stroke-opacity:1; fill:none" points="230.839,1891.09 230.839,108.352 "></polyline>
<polyline clip-path="url(#clip890)" style="stroke:#000000; stroke-linecap:round; stroke-linejoin:round; stroke-width:4; stroke-opacity:1; fill:none" points="230.839,1812.49 249.736,1812.49 "></polyline>
<polyline clip-path="url(#clip890)" style="stroke:#000000; stroke-linecap:round; stroke-linejoin:round; stroke-width:4; stroke-opacity:1; fill:none" points="230.839,1595.64 249.736,1595.64 "></polyline>
<polyline clip-path="url(#clip890)" style="stroke:#000000; stroke-linecap:round; stroke-linejoin:round; stroke-width:4; stroke-opacity:1; fill:none" points="230.839,1378.78 249.736,1378.78 "></polyline>
<polyline clip-path="url(#clip890)" style="stroke:#000000; stroke-linecap:round; stroke-linejoin:round; stroke-width:4; stroke-opacity:1; fill:none" points="230.839,1161.92 249.736,1161.92 "></polyline>
<polyline clip-path="url(#clip890)" style="stroke:#000000; stroke-linecap:round; stroke-linejoin:round; stroke-width:4; stroke-opacity:1; fill:none" points="230.839,945.057 249.736,945.057 "></polyline>
<polyline clip-path="url(#clip890)" style="stroke:#000000; stroke-linecap:round; stroke-linejoin:round; stroke-width:4; stroke-opacity:1; fill:none" points="230.839,728.198 249.736,728.198 "></polyline>
<polyline clip-path="url(#clip890)" style="stroke:#000000; stroke-linecap:round; stroke-linejoin:round; stroke-width:4; stroke-opacity:1; fill:none" points="230.839,511.338 249.736,511.338 "></polyline>
<polyline clip-path="url(#clip890)" style="stroke:#000000; stroke-linecap:round; stroke-linejoin:round; stroke-width:4; stroke-opacity:1; fill:none" points="230.839,294.479 249.736,294.479 "></polyline>
<path clip-path="url(#clip890)" d="M45.7467 1825.84 L53.3856 1825.84 L53.3856 1799.47 L45.0754 1801.14 L45.0754 1796.88 L53.3393 1795.21 L58.0152 1795.21 L58.0152 1825.84 L65.654 1825.84 L65.654 1829.77 L45.7467 1829.77 L45.7467 1825.84 Z" fill="#000000" fill-rule="nonzero" fill-opacity="1"></path><path clip-path="url(#clip890)" d="M75.0984 1823.89 L79.9827 1823.89 L79.9827 1829.77 L75.0984 1829.77 L75.0984 1823.89 Z" fill="#000000" fill-rule="nonzero" fill-opacity="1"></path><path clip-path="url(#clip890)" d="M100.168 1798.29 Q96.5567 1798.29 94.728 1801.86 Q92.9224 1805.4 92.9224 1812.53 Q92.9224 1819.64 94.728 1823.2 Q96.5567 1826.74 100.168 1826.74 Q103.802 1826.74 105.608 1823.2 Q107.436 1819.64 107.436 1812.53 Q107.436 1805.4 105.608 1801.86 Q103.802 1798.29 100.168 1798.29 M100.168 1794.59 Q105.978 1794.59 109.033 1799.2 Q112.112 1803.78 112.112 1812.53 Q112.112 1821.26 109.033 1825.86 Q105.978 1830.45 100.168 1830.45 Q94.3576 1830.45 91.2789 1825.86 Q88.2234 1821.26 88.2234 1812.53 Q88.2234 1803.78 91.2789 1799.2 Q94.3576 1794.59 100.168 1794.59 Z" fill="#000000" fill-rule="nonzero" fill-opacity="1"></path><path clip-path="url(#clip890)" d="M130.33 1798.29 Q126.719 1798.29 124.89 1801.86 Q123.084 1805.4 123.084 1812.53 Q123.084 1819.64 124.89 1823.2 Q126.719 1826.74 130.33 1826.74 Q133.964 1826.74 135.769 1823.2 Q137.598 1819.64 137.598 1812.53 Q137.598 1805.4 135.769 1801.86 Q133.964 1798.29 130.33 1798.29 M130.33 1794.59 Q136.14 1794.59 139.195 1799.2 Q142.274 1803.78 142.274 1812.53 Q142.274 1821.26 139.195 1825.86 Q136.14 1830.45 130.33 1830.45 Q124.519 1830.45 121.441 1825.86 Q118.385 1821.26 118.385 1812.53 Q118.385 1803.78 121.441 1799.2 Q124.519 1794.59 130.33 1794.59 Z" fill="#000000" fill-rule="nonzero" fill-opacity="1"></path><path clip-path="url(#clip890)" d="M154.519 1825.84 L170.839 1825.84 L170.839 1829.77 L148.894 1829.77 L148.894 1825.84 Q151.556 1823.08 156.14 1818.46 Q160.746 1813.8 161.927 1812.46 Q164.172 1809.94 165.052 1808.2 Q165.954 1806.44 165.954 1804.75 Q165.954 1802 164.01 1800.26 Q162.089 1798.52 158.987 1798.52 Q156.788 1798.52 154.334 1799.29 Q151.904 1800.05 149.126 1801.6 L149.126 1796.88 Q151.95 1795.75 154.404 1795.17 Q156.857 1794.59 158.894 1794.59 Q164.265 1794.59 167.459 1797.27 Q170.653 1799.96 170.653 1804.45 Q170.653 1806.58 169.843 1808.5 Q169.056 1810.4 166.95 1812.99 Q166.371 1813.66 163.269 1816.88 Q160.167 1820.08 154.519 1825.84 Z" fill="#000000" fill-rule="nonzero" fill-opacity="1"></path><path clip-path="url(#clip890)" d="M43.6634 1608.98 L51.3023 1608.98 L51.3023 1582.61 L42.9921 1584.28 L42.9921 1580.02 L51.256 1578.36 L55.9319 1578.36 L55.9319 1608.98 L63.5707 1608.98 L63.5707 1612.92 L43.6634 1612.92 L43.6634 1608.98 Z" fill="#000000" fill-rule="nonzero" fill-opacity="1"></path><path clip-path="url(#clip890)" d="M73.0151 1607.04 L77.8993 1607.04 L77.8993 1612.92 L73.0151 1612.92 L73.0151 1607.04 Z" fill="#000000" fill-rule="nonzero" fill-opacity="1"></path><path clip-path="url(#clip890)" d="M98.0844 1581.43 Q94.4733 1581.43 92.6446 1585 Q90.8391 1588.54 90.8391 1595.67 Q90.8391 1602.78 92.6446 1606.34 Q94.4733 1609.88 98.0844 1609.88 Q101.719 1609.88 103.524 1606.34 Q105.353 1602.78 105.353 1595.67 Q105.353 1588.54 103.524 1585 Q101.719 1581.43 98.0844 1581.43 M98.0844 1577.73 Q103.895 1577.73 106.95 1582.34 Q110.029 1586.92 110.029 1595.67 Q110.029 1604.4 106.95 1609 Q103.895 1613.59 98.0844 1613.59 Q92.2743 1613.59 89.1956 1609 Q86.14 1604.4 86.14 1595.67 Q86.14 1586.92 89.1956 1582.34 Q92.2743 1577.73 98.0844 1577.73 Z" fill="#000000" fill-rule="nonzero" fill-opacity="1"></path><path clip-path="url(#clip890)" d="M128.246 1581.43 Q124.635 1581.43 122.807 1585 Q121.001 1588.54 121.001 1595.67 Q121.001 1602.78 122.807 1606.34 Q124.635 1609.88 128.246 1609.88 Q131.881 1609.88 133.686 1606.34 Q135.515 1602.78 135.515 1595.67 Q135.515 1588.54 133.686 1585 Q131.881 1581.43 128.246 1581.43 M128.246 1577.73 Q134.056 1577.73 137.112 1582.34 Q140.191 1586.92 140.191 1595.67 Q140.191 1604.4 137.112 1609 Q134.056 1613.59 128.246 1613.59 Q122.436 1613.59 119.357 1609 Q116.302 1604.4 116.302 1595.67 Q116.302 1586.92 119.357 1582.34 Q122.436 1577.73 128.246 1577.73 Z" fill="#000000" fill-rule="nonzero" fill-opacity="1"></path><path clip-path="url(#clip890)" d="M161.255 1582.43 L149.45 1600.88 L161.255 1600.88 L161.255 1582.43 M160.029 1578.36 L165.908 1578.36 L165.908 1600.88 L170.839 1600.88 L170.839 1604.77 L165.908 1604.77 L165.908 1612.92 L161.255 1612.92 L161.255 1604.77 L145.654 1604.77 L145.654 1600.25 L160.029 1578.36 Z" fill="#000000" fill-rule="nonzero" fill-opacity="1"></path><path clip-path="url(#clip890)" d="M43.9875 1392.12 L51.6263 1392.12 L51.6263 1365.76 L43.3162 1367.42 L43.3162 1363.16 L51.58 1361.5 L56.2559 1361.5 L56.2559 1392.12 L63.8948 1392.12 L63.8948 1396.06 L43.9875 1396.06 L43.9875 1392.12 Z" fill="#000000" fill-rule="nonzero" fill-opacity="1"></path><path clip-path="url(#clip890)" d="M73.3392 1390.18 L78.2234 1390.18 L78.2234 1396.06 L73.3392 1396.06 L73.3392 1390.18 Z" fill="#000000" fill-rule="nonzero" fill-opacity="1"></path><path clip-path="url(#clip890)" d="M98.4085 1364.57 Q94.7974 1364.57 92.9687 1368.14 Q91.1632 1371.68 91.1632 1378.81 Q91.1632 1385.92 92.9687 1389.48 Q94.7974 1393.02 98.4085 1393.02 Q102.043 1393.02 103.848 1389.48 Q105.677 1385.92 105.677 1378.81 Q105.677 1371.68 103.848 1368.14 Q102.043 1364.57 98.4085 1364.57 M98.4085 1360.87 Q104.219 1360.87 107.274 1365.48 Q110.353 1370.06 110.353 1378.81 Q110.353 1387.54 107.274 1392.14 Q104.219 1396.73 98.4085 1396.73 Q92.5983 1396.73 89.5197 1392.14 Q86.4641 1387.54 86.4641 1378.81 Q86.4641 1370.06 89.5197 1365.48 Q92.5983 1360.87 98.4085 1360.87 Z" fill="#000000" fill-rule="nonzero" fill-opacity="1"></path><path clip-path="url(#clip890)" d="M128.57 1364.57 Q124.959 1364.57 123.131 1368.14 Q121.325 1371.68 121.325 1378.81 Q121.325 1385.92 123.131 1389.48 Q124.959 1393.02 128.57 1393.02 Q132.205 1393.02 134.01 1389.48 Q135.839 1385.92 135.839 1378.81 Q135.839 1371.68 134.01 1368.14 Q132.205 1364.57 128.57 1364.57 M128.57 1360.87 Q134.381 1360.87 137.436 1365.48 Q140.515 1370.06 140.515 1378.81 Q140.515 1387.54 137.436 1392.14 Q134.381 1396.73 128.57 1396.73 Q122.76 1396.73 119.682 1392.14 Q116.626 1387.54 116.626 1378.81 Q116.626 1370.06 119.682 1365.48 Q122.76 1360.87 128.57 1360.87 Z" fill="#000000" fill-rule="nonzero" fill-opacity="1"></path><path clip-path="url(#clip890)" d="M159.311 1376.91 Q156.163 1376.91 154.311 1379.07 Q152.482 1381.22 152.482 1384.97 Q152.482 1388.69 154.311 1390.87 Q156.163 1393.02 159.311 1393.02 Q162.459 1393.02 164.288 1390.87 Q166.14 1388.69 166.14 1384.97 Q166.14 1381.22 164.288 1379.07 Q162.459 1376.91 159.311 1376.91 M168.593 1362.26 L168.593 1366.52 Q166.834 1365.69 165.029 1365.25 Q163.246 1364.81 161.487 1364.81 Q156.857 1364.81 154.404 1367.93 Q151.973 1371.06 151.626 1377.38 Q152.992 1375.36 155.052 1374.3 Q157.112 1373.21 159.589 1373.21 Q164.797 1373.21 167.806 1376.38 Q170.839 1379.53 170.839 1384.97 Q170.839 1390.29 167.691 1393.51 Q164.542 1396.73 159.311 1396.73 Q153.316 1396.73 150.144 1392.14 Q146.973 1387.54 146.973 1378.81 Q146.973 1370.62 150.862 1365.76 Q154.751 1360.87 161.302 1360.87 Q163.061 1360.87 164.843 1361.22 Q166.649 1361.57 168.593 1362.26 Z" fill="#000000" fill-rule="nonzero" fill-opacity="1"></path><path clip-path="url(#clip890)" d="M44.2421 1175.26 L51.881 1175.26 L51.881 1148.9 L43.5708 1150.56 L43.5708 1146.3 L51.8347 1144.64 L56.5106 1144.64 L56.5106 1175.26 L64.1494 1175.26 L64.1494 1179.2 L44.2421 1179.2 L44.2421 1175.26 Z" fill="#000000" fill-rule="nonzero" fill-opacity="1"></path><path clip-path="url(#clip890)" d="M73.5938 1173.32 L78.478 1173.32 L78.478 1179.2 L73.5938 1179.2 L73.5938 1173.32 Z" fill="#000000" fill-rule="nonzero" fill-opacity="1"></path><path clip-path="url(#clip890)" d="M98.6631 1147.72 Q95.052 1147.72 93.2233 1151.28 Q91.4178 1154.82 91.4178 1161.95 Q91.4178 1169.06 93.2233 1172.62 Q95.052 1176.16 98.6631 1176.16 Q102.297 1176.16 104.103 1172.62 Q105.932 1169.06 105.932 1161.95 Q105.932 1154.82 104.103 1151.28 Q102.297 1147.72 98.6631 1147.72 M98.6631 1144.01 Q104.473 1144.01 107.529 1148.62 Q110.608 1153.2 110.608 1161.95 Q110.608 1170.68 107.529 1175.28 Q104.473 1179.87 98.6631 1179.87 Q92.853 1179.87 89.7743 1175.28 Q86.7187 1170.68 86.7187 1161.95 Q86.7187 1153.2 89.7743 1148.62 Q92.853 1144.01 98.6631 1144.01 Z" fill="#000000" fill-rule="nonzero" fill-opacity="1"></path><path clip-path="url(#clip890)" d="M128.825 1147.72 Q125.214 1147.72 123.385 1151.28 Q121.58 1154.82 121.58 1161.95 Q121.58 1169.06 123.385 1172.62 Q125.214 1176.16 128.825 1176.16 Q132.459 1176.16 134.265 1172.62 Q136.093 1169.06 136.093 1161.95 Q136.093 1154.82 134.265 1151.28 Q132.459 1147.72 128.825 1147.72 M128.825 1144.01 Q134.635 1144.01 137.691 1148.62 Q140.769 1153.2 140.769 1161.95 Q140.769 1170.68 137.691 1175.28 Q134.635 1179.87 128.825 1179.87 Q123.015 1179.87 119.936 1175.28 Q116.881 1170.68 116.881 1161.95 Q116.881 1153.2 119.936 1148.62 Q123.015 1144.01 128.825 1144.01 Z" fill="#000000" fill-rule="nonzero" fill-opacity="1"></path><path clip-path="url(#clip890)" d="M158.987 1162.78 Q155.654 1162.78 153.732 1164.57 Q151.834 1166.35 151.834 1169.47 Q151.834 1172.6 153.732 1174.38 Q155.654 1176.16 158.987 1176.16 Q162.32 1176.16 164.241 1174.38 Q166.163 1172.58 166.163 1169.47 Q166.163 1166.35 164.241 1164.57 Q162.343 1162.78 158.987 1162.78 M154.311 1160.79 Q151.302 1160.05 149.612 1157.99 Q147.945 1155.93 147.945 1152.97 Q147.945 1148.83 150.885 1146.42 Q153.848 1144.01 158.987 1144.01 Q164.149 1144.01 167.089 1146.42 Q170.028 1148.83 170.028 1152.97 Q170.028 1155.93 168.339 1157.99 Q166.672 1160.05 163.686 1160.79 Q167.066 1161.58 168.941 1163.87 Q170.839 1166.16 170.839 1169.47 Q170.839 1174.5 167.76 1177.18 Q164.704 1179.87 158.987 1179.87 Q153.269 1179.87 150.191 1177.18 Q147.135 1174.5 147.135 1169.47 Q147.135 1166.16 149.033 1163.87 Q150.931 1161.58 154.311 1160.79 M152.598 1153.41 Q152.598 1156.09 154.265 1157.6 Q155.954 1159.1 158.987 1159.1 Q161.996 1159.1 163.686 1157.6 Q165.399 1156.09 165.399 1153.41 Q165.399 1150.72 163.686 1149.22 Q161.996 1147.72 158.987 1147.72 Q155.954 1147.72 154.265 1149.22 Q152.598 1150.72 152.598 1153.41 Z" fill="#000000" fill-rule="nonzero" fill-opacity="1"></path><path clip-path="url(#clip890)" d="M44.1495 958.402 L51.7884 958.402 L51.7884 932.036 L43.4782 933.703 L43.4782 929.444 L51.7421 927.777 L56.418 927.777 L56.418 958.402 L64.0568 958.402 L64.0568 962.337 L44.1495 962.337 L44.1495 958.402 Z" fill="#000000" fill-rule="nonzero" fill-opacity="1"></path><path clip-path="url(#clip890)" d="M73.5012 956.458 L78.3855 956.458 L78.3855 962.337 L73.5012 962.337 L73.5012 956.458 Z" fill="#000000" fill-rule="nonzero" fill-opacity="1"></path><path clip-path="url(#clip890)" d="M98.5705 930.856 Q94.9594 930.856 93.1307 934.421 Q91.3252 937.962 91.3252 945.092 Q91.3252 952.198 93.1307 955.763 Q94.9594 959.305 98.5705 959.305 Q102.205 959.305 104.01 955.763 Q105.839 952.198 105.839 945.092 Q105.839 937.962 104.01 934.421 Q102.205 930.856 98.5705 930.856 M98.5705 927.152 Q104.381 927.152 107.436 931.759 Q110.515 936.342 110.515 945.092 Q110.515 953.819 107.436 958.425 Q104.381 963.008 98.5705 963.008 Q92.7604 963.008 89.6817 958.425 Q86.6262 953.819 86.6262 945.092 Q86.6262 936.342 89.6817 931.759 Q92.7604 927.152 98.5705 927.152 Z" fill="#000000" fill-rule="nonzero" fill-opacity="1"></path><path clip-path="url(#clip890)" d="M119.543 958.402 L127.181 958.402 L127.181 932.036 L118.871 933.703 L118.871 929.444 L127.135 927.777 L131.811 927.777 L131.811 958.402 L139.45 958.402 L139.45 962.337 L119.543 962.337 L119.543 958.402 Z" fill="#000000" fill-rule="nonzero" fill-opacity="1"></path><path clip-path="url(#clip890)" d="M158.894 930.856 Q155.283 930.856 153.454 934.421 Q151.649 937.962 151.649 945.092 Q151.649 952.198 153.454 955.763 Q155.283 959.305 158.894 959.305 Q162.529 959.305 164.334 955.763 Q166.163 952.198 166.163 945.092 Q166.163 937.962 164.334 934.421 Q162.529 930.856 158.894 930.856 M158.894 927.152 Q164.704 927.152 167.76 931.759 Q170.839 936.342 170.839 945.092 Q170.839 953.819 167.76 958.425 Q164.704 963.008 158.894 963.008 Q153.084 963.008 150.005 958.425 Q146.95 953.819 146.95 945.092 Q146.95 936.342 150.005 931.759 Q153.084 927.152 158.894 927.152 Z" fill="#000000" fill-rule="nonzero" fill-opacity="1"></path><path clip-path="url(#clip890)" d="M45.7467 741.543 L53.3856 741.543 L53.3856 715.177 L45.0754 716.844 L45.0754 712.584 L53.3393 710.918 L58.0152 710.918 L58.0152 741.543 L65.654 741.543 L65.654 745.478 L45.7467 745.478 L45.7467 741.543 Z" fill="#000000" fill-rule="nonzero" fill-opacity="1"></path><path clip-path="url(#clip890)" d="M75.0984 739.598 L79.9827 739.598 L79.9827 745.478 L75.0984 745.478 L75.0984 739.598 Z" fill="#000000" fill-rule="nonzero" fill-opacity="1"></path><path clip-path="url(#clip890)" d="M100.168 713.996 Q96.5567 713.996 94.728 717.561 Q92.9224 721.103 92.9224 728.232 Q92.9224 735.339 94.728 738.904 Q96.5567 742.445 100.168 742.445 Q103.802 742.445 105.608 738.904 Q107.436 735.339 107.436 728.232 Q107.436 721.103 105.608 717.561 Q103.802 713.996 100.168 713.996 M100.168 710.293 Q105.978 710.293 109.033 714.899 Q112.112 719.483 112.112 728.232 Q112.112 736.959 109.033 741.566 Q105.978 746.149 100.168 746.149 Q94.3576 746.149 91.2789 741.566 Q88.2234 736.959 88.2234 728.232 Q88.2234 719.483 91.2789 714.899 Q94.3576 710.293 100.168 710.293 Z" fill="#000000" fill-rule="nonzero" fill-opacity="1"></path><path clip-path="url(#clip890)" d="M121.14 741.543 L128.779 741.543 L128.779 715.177 L120.469 716.844 L120.469 712.584 L128.732 710.918 L133.408 710.918 L133.408 741.543 L141.047 741.543 L141.047 745.478 L121.14 745.478 L121.14 741.543 Z" fill="#000000" fill-rule="nonzero" fill-opacity="1"></path><path clip-path="url(#clip890)" d="M154.519 741.543 L170.839 741.543 L170.839 745.478 L148.894 745.478 L148.894 741.543 Q151.556 738.788 156.14 734.158 Q160.746 729.506 161.927 728.163 Q164.172 725.64 165.052 723.904 Q165.954 722.145 165.954 720.455 Q165.954 717.7 164.01 715.964 Q162.089 714.228 158.987 714.228 Q156.788 714.228 154.334 714.992 Q151.904 715.756 149.126 717.307 L149.126 712.584 Q151.95 711.45 154.404 710.871 Q156.857 710.293 158.894 710.293 Q164.265 710.293 167.459 712.978 Q170.653 715.663 170.653 720.154 Q170.653 722.283 169.843 724.205 Q169.056 726.103 166.95 728.695 Q166.371 729.367 163.269 732.584 Q160.167 735.779 154.519 741.543 Z" fill="#000000" fill-rule="nonzero" fill-opacity="1"></path><path clip-path="url(#clip890)" d="M43.6634 524.683 L51.3023 524.683 L51.3023 498.318 L42.9921 499.984 L42.9921 495.725 L51.256 494.058 L55.9319 494.058 L55.9319 524.683 L63.5707 524.683 L63.5707 528.618 L43.6634 528.618 L43.6634 524.683 Z" fill="#000000" fill-rule="nonzero" fill-opacity="1"></path><path clip-path="url(#clip890)" d="M73.0151 522.739 L77.8993 522.739 L77.8993 528.618 L73.0151 528.618 L73.0151 522.739 Z" fill="#000000" fill-rule="nonzero" fill-opacity="1"></path><path clip-path="url(#clip890)" d="M98.0844 497.137 Q94.4733 497.137 92.6446 500.702 Q90.8391 504.244 90.8391 511.373 Q90.8391 518.48 92.6446 522.044 Q94.4733 525.586 98.0844 525.586 Q101.719 525.586 103.524 522.044 Q105.353 518.48 105.353 511.373 Q105.353 504.244 103.524 500.702 Q101.719 497.137 98.0844 497.137 M98.0844 493.433 Q103.895 493.433 106.95 498.04 Q110.029 502.623 110.029 511.373 Q110.029 520.1 106.95 524.706 Q103.895 529.29 98.0844 529.29 Q92.2743 529.29 89.1956 524.706 Q86.14 520.1 86.14 511.373 Q86.14 502.623 89.1956 498.04 Q92.2743 493.433 98.0844 493.433 Z" fill="#000000" fill-rule="nonzero" fill-opacity="1"></path><path clip-path="url(#clip890)" d="M119.057 524.683 L126.695 524.683 L126.695 498.318 L118.385 499.984 L118.385 495.725 L126.649 494.058 L131.325 494.058 L131.325 524.683 L138.964 524.683 L138.964 528.618 L119.057 528.618 L119.057 524.683 Z" fill="#000000" fill-rule="nonzero" fill-opacity="1"></path><path clip-path="url(#clip890)" d="M161.255 498.132 L149.45 516.581 L161.255 516.581 L161.255 498.132 M160.029 494.058 L165.908 494.058 L165.908 516.581 L170.839 516.581 L170.839 520.47 L165.908 520.47 L165.908 528.618 L161.255 528.618 L161.255 520.47 L145.654 520.47 L145.654 515.956 L160.029 494.058 Z" fill="#000000" fill-rule="nonzero" fill-opacity="1"></path><path clip-path="url(#clip890)" d="M43.9875 307.824 L51.6263 307.824 L51.6263 281.458 L43.3162 283.125 L43.3162 278.866 L51.58 277.199 L56.2559 277.199 L56.2559 307.824 L63.8948 307.824 L63.8948 311.759 L43.9875 311.759 L43.9875 307.824 Z" fill="#000000" fill-rule="nonzero" fill-opacity="1"></path><path clip-path="url(#clip890)" d="M73.3392 305.879 L78.2234 305.879 L78.2234 311.759 L73.3392 311.759 L73.3392 305.879 Z" fill="#000000" fill-rule="nonzero" fill-opacity="1"></path><path clip-path="url(#clip890)" d="M98.4085 280.278 Q94.7974 280.278 92.9687 283.843 Q91.1632 287.384 91.1632 294.514 Q91.1632 301.62 92.9687 305.185 Q94.7974 308.727 98.4085 308.727 Q102.043 308.727 103.848 305.185 Q105.677 301.62 105.677 294.514 Q105.677 287.384 103.848 283.843 Q102.043 280.278 98.4085 280.278 M98.4085 276.574 Q104.219 276.574 107.274 281.181 Q110.353 285.764 110.353 294.514 Q110.353 303.241 107.274 307.847 Q104.219 312.43 98.4085 312.43 Q92.5983 312.43 89.5197 307.847 Q86.4641 303.241 86.4641 294.514 Q86.4641 285.764 89.5197 281.181 Q92.5983 276.574 98.4085 276.574 Z" fill="#000000" fill-rule="nonzero" fill-opacity="1"></path><path clip-path="url(#clip890)" d="M119.381 307.824 L127.019 307.824 L127.019 281.458 L118.709 283.125 L118.709 278.866 L126.973 277.199 L131.649 277.199 L131.649 307.824 L139.288 307.824 L139.288 311.759 L119.381 311.759 L119.381 307.824 Z" fill="#000000" fill-rule="nonzero" fill-opacity="1"></path><path clip-path="url(#clip890)" d="M159.311 292.616 Q156.163 292.616 154.311 294.768 Q152.482 296.921 152.482 300.671 Q152.482 304.398 154.311 306.574 Q156.163 308.727 159.311 308.727 Q162.459 308.727 164.288 306.574 Q166.14 304.398 166.14 300.671 Q166.14 296.921 164.288 294.768 Q162.459 292.616 159.311 292.616 M168.593 277.963 L168.593 282.222 Q166.834 281.389 165.029 280.949 Q163.246 280.509 161.487 280.509 Q156.857 280.509 154.404 283.634 Q151.973 286.759 151.626 293.079 Q152.992 291.065 155.052 290 Q157.112 288.912 159.589 288.912 Q164.797 288.912 167.806 292.083 Q170.839 295.231 170.839 300.671 Q170.839 305.995 167.691 309.213 Q164.542 312.43 159.311 312.43 Q153.316 312.43 150.144 307.847 Q146.973 303.241 146.973 294.514 Q146.973 286.319 150.862 281.458 Q154.751 276.574 161.302 276.574 Q163.061 276.574 164.843 276.921 Q166.649 277.269 168.593 277.963 Z" fill="#000000" fill-rule="nonzero" fill-opacity="1"></path><path clip-path="url(#clip890)" d="M933.858 44.2197 Q936.491 45.1109 938.962 48.0275 Q941.474 50.9442 943.986 56.0483 L952.29 72.576 L943.499 72.576 L935.762 57.061 Q932.765 50.9847 929.929 48.9997 Q927.134 47.0148 922.273 47.0148 L913.361 47.0148 L913.361 72.576 L905.178 72.576 L905.178 12.096 L923.65 12.096 Q934.02 12.096 939.124 16.4305 Q944.229 20.7649 944.229 29.5149 Q944.229 35.2267 941.555 38.994 Q938.922 42.7613 933.858 44.2197 M913.361 18.8205 L913.361 40.2903 L923.65 40.2903 Q929.564 40.2903 932.562 37.5762 Q935.6 34.8216 935.6 29.5149 Q935.6 24.2082 932.562 21.5346 Q929.564 18.8205 923.65 18.8205 L913.361 18.8205 Z" fill="#000000" fill-rule="nonzero" fill-opacity="1"></path><path clip-path="url(#clip890)" d="M997.579 48.0275 L997.579 51.6733 L963.308 51.6733 Q963.794 59.3701 967.926 63.421 Q972.099 67.4314 979.512 67.4314 Q983.806 67.4314 987.816 66.3781 Q991.867 65.3249 995.837 63.2184 L995.837 70.267 Q991.827 71.9684 987.614 72.8596 Q983.401 73.7508 979.066 73.7508 Q968.21 73.7508 961.85 67.4314 Q955.531 61.1119 955.531 50.3365 Q955.531 39.1965 961.526 32.6746 Q967.562 26.1121 977.77 26.1121 Q986.925 26.1121 992.232 32.0264 Q997.579 37.9003 997.579 48.0275 M990.125 45.84 Q990.044 39.7232 986.682 36.0774 Q983.36 32.4315 977.851 32.4315 Q971.613 32.4315 967.845 35.9558 Q964.119 39.4801 963.551 45.8805 L990.125 45.84 Z" fill="#000000" fill-rule="nonzero" fill-opacity="1"></path><path clip-path="url(#clip890)" d="M1030.43 49.7694 Q1021.4 49.7694 1017.91 51.8354 Q1014.43 53.9013 1014.43 58.8839 Q1014.43 62.8538 1017.02 65.2034 Q1019.66 67.5124 1024.15 67.5124 Q1030.35 67.5124 1034.08 63.1374 Q1037.85 58.7219 1037.85 51.4303 L1037.85 49.7694 L1030.43 49.7694 M1045.3 46.6907 L1045.3 72.576 L1037.85 72.576 L1037.85 65.6895 Q1035.29 69.8214 1031.49 71.8063 Q1027.68 73.7508 1022.17 73.7508 Q1015.2 73.7508 1011.07 69.8619 Q1006.98 65.9325 1006.98 59.3701 Q1006.98 51.7138 1012.08 47.825 Q1017.23 43.9361 1027.39 43.9361 L1037.85 43.9361 L1037.85 43.2069 Q1037.85 38.0623 1034.44 35.2672 Q1031.08 32.4315 1024.96 32.4315 Q1021.07 32.4315 1017.39 33.3632 Q1013.7 34.295 1010.3 36.1584 L1010.3 29.2718 Q1014.39 27.692 1018.24 26.9223 Q1022.09 26.1121 1025.73 26.1121 Q1035.58 26.1121 1040.44 31.2163 Q1045.3 36.3204 1045.3 46.6907 Z" fill="#000000" fill-rule="nonzero" fill-opacity="1"></path><path clip-path="url(#clip890)" d="M1060.65 9.54393 L1068.11 9.54393 L1068.11 72.576 L1060.65 72.576 L1060.65 9.54393 Z" fill="#000000" fill-rule="nonzero" fill-opacity="1"></path><path clip-path="url(#clip890)" d="M1151.63 63.9476 L1151.63 47.7034 L1138.27 47.7034 L1138.27 40.9789 L1159.74 40.9789 L1159.74 66.9452 Q1155 70.3075 1149.29 72.0494 Q1143.57 73.7508 1137.09 73.7508 Q1122.91 73.7508 1114.89 65.4869 Q1106.91 57.1826 1106.91 42.3968 Q1106.91 27.5705 1114.89 19.3066 Q1122.91 11.0023 1137.09 11.0023 Q1143.01 11.0023 1148.31 12.4606 Q1153.66 13.9189 1158.16 16.7545 L1158.16 25.464 Q1153.62 21.6156 1148.52 19.6712 Q1143.41 17.7268 1137.78 17.7268 Q1126.68 17.7268 1121.09 23.9246 Q1115.54 30.1225 1115.54 42.3968 Q1115.54 54.6305 1121.09 60.8284 Q1126.68 67.0263 1137.78 67.0263 Q1142.12 67.0263 1145.52 66.2971 Q1148.92 65.5274 1151.63 63.9476 Z" fill="#000000" fill-rule="nonzero" fill-opacity="1"></path><path clip-path="url(#clip890)" d="M1182.87 18.8205 L1182.87 65.8515 L1192.75 65.8515 Q1205.27 65.8515 1211.06 60.1802 Q1216.89 54.509 1216.89 42.2752 Q1216.89 30.1225 1211.06 24.4918 Q1205.27 18.8205 1192.75 18.8205 L1182.87 18.8205 M1174.68 12.096 L1191.5 12.096 Q1209.08 12.096 1217.3 19.4281 Q1225.52 26.7198 1225.52 42.2752 Q1225.52 57.9117 1217.26 65.2439 Q1209 72.576 1191.5 72.576 L1174.68 72.576 L1174.68 12.096 Z" fill="#000000" fill-rule="nonzero" fill-opacity="1"></path><path clip-path="url(#clip890)" d="M1246.75 18.8205 L1246.75 41.5461 L1257.04 41.5461 Q1262.75 41.5461 1265.87 38.5889 Q1268.99 35.6318 1268.99 30.163 Q1268.99 24.7348 1265.87 21.7777 Q1262.75 18.8205 1257.04 18.8205 L1246.75 18.8205 M1238.57 12.096 L1257.04 12.096 Q1267.21 12.096 1272.39 16.714 Q1277.62 21.2916 1277.62 30.163 Q1277.62 39.1155 1272.39 43.6931 Q1267.21 48.2706 1257.04 48.2706 L1246.75 48.2706 L1246.75 72.576 L1238.57 72.576 L1238.57 12.096 Z" fill="#000000" fill-rule="nonzero" fill-opacity="1"></path><polyline clip-path="url(#clip892)" style="stroke:#009af9; stroke-linecap:round; stroke-linejoin:round; stroke-width:4; stroke-opacity:1; fill:none" points="279.55,158.807 295.951,172.106 312.352,185.46 328.753,198.869 345.153,212.334 361.554,225.854 377.955,239.431 394.356,253.064 410.757,266.754 427.158,280.503 443.559,294.309 459.96,308.174 476.361,322.098 492.762,336.081 509.163,350.125 525.564,364.229 541.965,378.394 558.366,392.62 574.767,406.909 591.168,421.26 607.569,435.675 623.97,450.153 640.371,464.695 656.772,479.302 673.173,493.974 689.574,508.712 705.975,523.517 722.376,538.389 738.777,553.328 755.178,568.336 771.579,583.412 787.98,598.558 804.381,613.774 820.782,629.061 837.183,644.419 853.584,659.849 869.985,675.352 886.386,690.929 902.787,706.579 919.188,722.305 935.589,738.106 951.99,753.983 968.391,769.937 984.792,785.97 1001.19,802.08 1017.59,818.27 1033.99,834.541 1050.4,850.892 1066.8,867.325 1083.2,883.84 1099.6,900.44 1116,917.123 1132.4,933.892 1148.8,950.747 1165.2,967.689 1181.6,984.72 1198,1001.84 1214.41,1019.05 1230.81,1036.35 1247.21,1053.74 1263.61,1071.23 1280.01,1088.81 1296.41,1106.48 1312.81,1124.25 1329.21,1142.12 1345.61,1160.09 1362.01,1178.16 1378.42,1196.33 1394.82,1214.6 1411.22,1232.97 1427.62,1251.45 1444.02,1270.04 1460.42,1288.74 1476.82,1307.54 1493.22,1326.45 1509.62,1345.48 1526.02,1364.62 1542.42,1383.88 1558.83,1403.25 1575.23,1422.74 1591.63,1442.35 1608.03,1462.09 1624.43,1481.95 1640.83,1501.93 1657.23,1522.04 1673.63,1542.28 1690.03,1562.66 1706.43,1583.17 1722.84,1603.81 1739.24,1624.6 1755.64,1645.52 1772.04,1666.59 1788.44,1687.8 1804.84,1709.17 1821.24,1730.68 1837.64,1752.35 1854.04,1774.18 1870.44,1796.16 1886.85,1818.31 1903.25,1840.63 "></polyline>
<path clip-path="url(#clip890)" d="M2231.64 1891.09 L3952.76 1891.09 L3952.76 108.352 L2231.64 108.352  Z" fill="#ffffff" fill-rule="evenodd" fill-opacity="1"></path>
<defs>
  <clipPath id="clip893">
    <rect x="2231" y="108" width="1722" height="1784"></rect>
  </clipPath>
</defs>
<polyline clip-path="url(#clip893)" style="stroke:#000000; stroke-linecap:round; stroke-linejoin:round; stroke-width:2; stroke-opacity:0.1; fill:none" points="2280.35,1891.09 2280.35,108.352 "></polyline>
<polyline clip-path="url(#clip893)" style="stroke:#000000; stroke-linecap:round; stroke-linejoin:round; stroke-width:2; stroke-opacity:0.1; fill:none" points="2686.27,1891.09 2686.27,108.352 "></polyline>
<polyline clip-path="url(#clip893)" style="stroke:#000000; stroke-linecap:round; stroke-linejoin:round; stroke-width:2; stroke-opacity:0.1; fill:none" points="3092.2,1891.09 3092.2,108.352 "></polyline>
<polyline clip-path="url(#clip893)" style="stroke:#000000; stroke-linecap:round; stroke-linejoin:round; stroke-width:2; stroke-opacity:0.1; fill:none" points="3498.12,1891.09 3498.12,108.352 "></polyline>
<polyline clip-path="url(#clip893)" style="stroke:#000000; stroke-linecap:round; stroke-linejoin:round; stroke-width:2; stroke-opacity:0.1; fill:none" points="3904.05,1891.09 3904.05,108.352 "></polyline>
<polyline clip-path="url(#clip890)" style="stroke:#000000; stroke-linecap:round; stroke-linejoin:round; stroke-width:4; stroke-opacity:1; fill:none" points="2231.64,1891.09 3952.76,1891.09 "></polyline>
<polyline clip-path="url(#clip890)" style="stroke:#000000; stroke-linecap:round; stroke-linejoin:round; stroke-width:4; stroke-opacity:1; fill:none" points="2280.35,1891.09 2280.35,1872.19 "></polyline>
<polyline clip-path="url(#clip890)" style="stroke:#000000; stroke-linecap:round; stroke-linejoin:round; stroke-width:4; stroke-opacity:1; fill:none" points="2686.27,1891.09 2686.27,1872.19 "></polyline>
<polyline clip-path="url(#clip890)" style="stroke:#000000; stroke-linecap:round; stroke-linejoin:round; stroke-width:4; stroke-opacity:1; fill:none" points="3092.2,1891.09 3092.2,1872.19 "></polyline>
<polyline clip-path="url(#clip890)" style="stroke:#000000; stroke-linecap:round; stroke-linejoin:round; stroke-width:4; stroke-opacity:1; fill:none" points="3498.12,1891.09 3498.12,1872.19 "></polyline>
<polyline clip-path="url(#clip890)" style="stroke:#000000; stroke-linecap:round; stroke-linejoin:round; stroke-width:4; stroke-opacity:1; fill:none" points="3904.05,1891.09 3904.05,1872.19 "></polyline>
<path clip-path="url(#clip890)" d="M2242.65 1934.81 Q2239.04 1934.81 2237.21 1938.37 Q2235.41 1941.91 2235.41 1949.04 Q2235.41 1956.15 2237.21 1959.71 Q2239.04 1963.26 2242.65 1963.26 Q2246.29 1963.26 2248.09 1959.71 Q2249.92 1956.15 2249.92 1949.04 Q2249.92 1941.91 2248.09 1938.37 Q2246.29 1934.81 2242.65 1934.81 M2242.65 1931.1 Q2248.46 1931.1 2251.52 1935.71 Q2254.6 1940.29 2254.6 1949.04 Q2254.6 1957.77 2251.52 1962.38 Q2248.46 1966.96 2242.65 1966.96 Q2236.84 1966.96 2233.76 1962.38 Q2230.71 1957.77 2230.71 1949.04 Q2230.71 1940.29 2233.76 1935.71 Q2236.84 1931.1 2242.65 1931.1 Z" fill="#000000" fill-rule="nonzero" fill-opacity="1"></path><path clip-path="url(#clip890)" d="M2262.81 1960.41 L2267.7 1960.41 L2267.7 1966.29 L2262.81 1966.29 L2262.81 1960.41 Z" fill="#000000" fill-rule="nonzero" fill-opacity="1"></path><path clip-path="url(#clip890)" d="M2287.88 1934.81 Q2284.27 1934.81 2282.44 1938.37 Q2280.64 1941.91 2280.64 1949.04 Q2280.64 1956.15 2282.44 1959.71 Q2284.27 1963.26 2287.88 1963.26 Q2291.52 1963.26 2293.32 1959.71 Q2295.15 1956.15 2295.15 1949.04 Q2295.15 1941.91 2293.32 1938.37 Q2291.52 1934.81 2287.88 1934.81 M2287.88 1931.1 Q2293.69 1931.1 2296.75 1935.71 Q2299.83 1940.29 2299.83 1949.04 Q2299.83 1957.77 2296.75 1962.38 Q2293.69 1966.96 2287.88 1966.96 Q2282.07 1966.96 2278.99 1962.38 Q2275.94 1957.77 2275.94 1949.04 Q2275.94 1940.29 2278.99 1935.71 Q2282.07 1931.1 2287.88 1931.1 Z" fill="#000000" fill-rule="nonzero" fill-opacity="1"></path><path clip-path="url(#clip890)" d="M2318.04 1934.81 Q2314.43 1934.81 2312.6 1938.37 Q2310.8 1941.91 2310.8 1949.04 Q2310.8 1956.15 2312.6 1959.71 Q2314.43 1963.26 2318.04 1963.26 Q2321.68 1963.26 2323.48 1959.71 Q2325.31 1956.15 2325.31 1949.04 Q2325.31 1941.91 2323.48 1938.37 Q2321.68 1934.81 2318.04 1934.81 M2318.04 1931.1 Q2323.85 1931.1 2326.91 1935.71 Q2329.99 1940.29 2329.99 1949.04 Q2329.99 1957.77 2326.91 1962.38 Q2323.85 1966.96 2318.04 1966.96 Q2312.23 1966.96 2309.16 1962.38 Q2306.1 1957.77 2306.1 1949.04 Q2306.1 1940.29 2309.16 1935.71 Q2312.23 1931.1 2318.04 1931.1 Z" fill="#000000" fill-rule="nonzero" fill-opacity="1"></path><path clip-path="url(#clip890)" d="M2649.07 1934.81 Q2645.46 1934.81 2643.63 1938.37 Q2641.83 1941.91 2641.83 1949.04 Q2641.83 1956.15 2643.63 1959.71 Q2645.46 1963.26 2649.07 1963.26 Q2652.71 1963.26 2654.51 1959.71 Q2656.34 1956.15 2656.34 1949.04 Q2656.34 1941.91 2654.51 1938.37 Q2652.71 1934.81 2649.07 1934.81 M2649.07 1931.1 Q2654.88 1931.1 2657.94 1935.71 Q2661.02 1940.29 2661.02 1949.04 Q2661.02 1957.77 2657.94 1962.38 Q2654.88 1966.96 2649.07 1966.96 Q2643.26 1966.96 2640.18 1962.38 Q2637.13 1957.77 2637.13 1949.04 Q2637.13 1940.29 2640.18 1935.71 Q2643.26 1931.1 2649.07 1931.1 Z" fill="#000000" fill-rule="nonzero" fill-opacity="1"></path><path clip-path="url(#clip890)" d="M2669.24 1960.41 L2674.12 1960.41 L2674.12 1966.29 L2669.24 1966.29 L2669.24 1960.41 Z" fill="#000000" fill-rule="nonzero" fill-opacity="1"></path><path clip-path="url(#clip890)" d="M2688.33 1962.35 L2704.65 1962.35 L2704.65 1966.29 L2682.71 1966.29 L2682.71 1962.35 Q2685.37 1959.6 2689.95 1954.97 Q2694.56 1950.32 2695.74 1948.97 Q2697.99 1946.45 2698.86 1944.71 Q2699.77 1942.95 2699.77 1941.26 Q2699.77 1938.51 2697.82 1936.77 Q2695.9 1935.04 2692.8 1935.04 Q2690.6 1935.04 2688.15 1935.8 Q2685.72 1936.57 2682.94 1938.12 L2682.94 1933.39 Q2685.76 1932.26 2688.22 1931.68 Q2690.67 1931.1 2692.71 1931.1 Q2698.08 1931.1 2701.27 1933.79 Q2704.47 1936.47 2704.47 1940.96 Q2704.47 1943.09 2703.66 1945.01 Q2702.87 1946.91 2700.76 1949.51 Q2700.18 1950.18 2697.08 1953.39 Q2693.98 1956.59 2688.33 1962.35 Z" fill="#000000" fill-rule="nonzero" fill-opacity="1"></path><path clip-path="url(#clip890)" d="M2714.51 1931.73 L2732.87 1931.73 L2732.87 1935.66 L2718.8 1935.66 L2718.8 1944.14 Q2719.81 1943.79 2720.83 1943.63 Q2721.85 1943.44 2722.87 1943.44 Q2728.66 1943.44 2732.04 1946.61 Q2735.42 1949.78 2735.42 1955.2 Q2735.42 1960.78 2731.94 1963.88 Q2728.47 1966.96 2722.15 1966.96 Q2719.98 1966.96 2717.71 1966.59 Q2715.46 1966.22 2713.05 1965.48 L2713.05 1960.78 Q2715.14 1961.91 2717.36 1962.47 Q2719.58 1963.02 2722.06 1963.02 Q2726.06 1963.02 2728.4 1960.92 Q2730.74 1958.81 2730.74 1955.2 Q2730.74 1951.59 2728.4 1949.48 Q2726.06 1947.38 2722.06 1947.38 Q2720.18 1947.38 2718.31 1947.79 Q2716.46 1948.21 2714.51 1949.09 L2714.51 1931.73 Z" fill="#000000" fill-rule="nonzero" fill-opacity="1"></path><path clip-path="url(#clip890)" d="M3054.5 1934.81 Q3050.89 1934.81 3049.06 1938.37 Q3047.25 1941.91 3047.25 1949.04 Q3047.25 1956.15 3049.06 1959.71 Q3050.89 1963.26 3054.5 1963.26 Q3058.13 1963.26 3059.94 1959.71 Q3061.77 1956.15 3061.77 1949.04 Q3061.77 1941.91 3059.94 1938.37 Q3058.13 1934.81 3054.5 1934.81 M3054.5 1931.1 Q3060.31 1931.1 3063.37 1935.71 Q3066.44 1940.29 3066.44 1949.04 Q3066.44 1957.77 3063.37 1962.38 Q3060.31 1966.96 3054.5 1966.96 Q3048.69 1966.96 3045.61 1962.38 Q3042.56 1957.77 3042.56 1949.04 Q3042.56 1940.29 3045.61 1935.71 Q3048.69 1931.1 3054.5 1931.1 Z" fill="#000000" fill-rule="nonzero" fill-opacity="1"></path><path clip-path="url(#clip890)" d="M3074.66 1960.41 L3079.55 1960.41 L3079.55 1966.29 L3074.66 1966.29 L3074.66 1960.41 Z" fill="#000000" fill-rule="nonzero" fill-opacity="1"></path><path clip-path="url(#clip890)" d="M3089.78 1931.73 L3108.13 1931.73 L3108.13 1935.66 L3094.06 1935.66 L3094.06 1944.14 Q3095.08 1943.79 3096.1 1943.63 Q3097.12 1943.44 3098.13 1943.44 Q3103.92 1943.44 3107.3 1946.61 Q3110.68 1949.78 3110.68 1955.2 Q3110.68 1960.78 3107.21 1963.88 Q3103.74 1966.96 3097.42 1966.96 Q3095.24 1966.96 3092.97 1966.59 Q3090.73 1966.22 3088.32 1965.48 L3088.32 1960.78 Q3090.4 1961.91 3092.62 1962.47 Q3094.85 1963.02 3097.32 1963.02 Q3101.33 1963.02 3103.67 1960.92 Q3106 1958.81 3106 1955.2 Q3106 1951.59 3103.67 1949.48 Q3101.33 1947.38 3097.32 1947.38 Q3095.45 1947.38 3093.57 1947.79 Q3091.72 1948.21 3089.78 1949.09 L3089.78 1931.73 Z" fill="#000000" fill-rule="nonzero" fill-opacity="1"></path><path clip-path="url(#clip890)" d="M3129.89 1934.81 Q3126.28 1934.81 3124.45 1938.37 Q3122.65 1941.91 3122.65 1949.04 Q3122.65 1956.15 3124.45 1959.71 Q3126.28 1963.26 3129.89 1963.26 Q3133.53 1963.26 3135.33 1959.71 Q3137.16 1956.15 3137.16 1949.04 Q3137.16 1941.91 3135.33 1938.37 Q3133.53 1934.81 3129.89 1934.81 M3129.89 1931.1 Q3135.7 1931.1 3138.76 1935.71 Q3141.84 1940.29 3141.84 1949.04 Q3141.84 1957.77 3138.76 1962.38 Q3135.7 1966.96 3129.89 1966.96 Q3124.08 1966.96 3121 1962.38 Q3117.95 1957.77 3117.95 1949.04 Q3117.95 1940.29 3121 1935.71 Q3124.08 1931.1 3129.89 1931.1 Z" fill="#000000" fill-rule="nonzero" fill-opacity="1"></path><path clip-path="url(#clip890)" d="M3460.92 1934.81 Q3457.31 1934.81 3455.48 1938.37 Q3453.68 1941.91 3453.68 1949.04 Q3453.68 1956.15 3455.48 1959.71 Q3457.31 1963.26 3460.92 1963.26 Q3464.56 1963.26 3466.36 1959.71 Q3468.19 1956.15 3468.19 1949.04 Q3468.19 1941.91 3466.36 1938.37 Q3464.56 1934.81 3460.92 1934.81 M3460.92 1931.1 Q3466.73 1931.1 3469.79 1935.71 Q3472.87 1940.29 3472.87 1949.04 Q3472.87 1957.77 3469.79 1962.38 Q3466.73 1966.96 3460.92 1966.96 Q3455.11 1966.96 3452.03 1962.38 Q3448.98 1957.77 3448.98 1949.04 Q3448.98 1940.29 3452.03 1935.71 Q3455.11 1931.1 3460.92 1931.1 Z" fill="#000000" fill-rule="nonzero" fill-opacity="1"></path><path clip-path="url(#clip890)" d="M3481.08 1960.41 L3485.97 1960.41 L3485.97 1966.29 L3481.08 1966.29 L3481.08 1960.41 Z" fill="#000000" fill-rule="nonzero" fill-opacity="1"></path><path clip-path="url(#clip890)" d="M3494.97 1931.73 L3517.19 1931.73 L3517.19 1933.72 L3504.65 1966.29 L3499.76 1966.29 L3511.57 1935.66 L3494.97 1935.66 L3494.97 1931.73 Z" fill="#000000" fill-rule="nonzero" fill-opacity="1"></path><path clip-path="url(#clip890)" d="M3526.36 1931.73 L3544.72 1931.73 L3544.72 1935.66 L3530.64 1935.66 L3530.64 1944.14 Q3531.66 1943.79 3532.68 1943.63 Q3533.7 1943.44 3534.72 1943.44 Q3540.5 1943.44 3543.88 1946.61 Q3547.26 1949.78 3547.26 1955.2 Q3547.26 1960.78 3543.79 1963.88 Q3540.32 1966.96 3534 1966.96 Q3531.82 1966.96 3529.56 1966.59 Q3527.31 1966.22 3524.9 1965.48 L3524.9 1960.78 Q3526.99 1961.91 3529.21 1962.47 Q3531.43 1963.02 3533.91 1963.02 Q3537.91 1963.02 3540.25 1960.92 Q3542.59 1958.81 3542.59 1955.2 Q3542.59 1951.59 3540.25 1949.48 Q3537.91 1947.38 3533.91 1947.38 Q3532.03 1947.38 3530.16 1947.79 Q3528.31 1948.21 3526.36 1949.09 L3526.36 1931.73 Z" fill="#000000" fill-rule="nonzero" fill-opacity="1"></path><path clip-path="url(#clip890)" d="M3856.12 1962.35 L3863.76 1962.35 L3863.76 1935.99 L3855.45 1937.65 L3855.45 1933.39 L3863.71 1931.73 L3868.39 1931.73 L3868.39 1962.35 L3876.02 1962.35 L3876.02 1966.29 L3856.12 1966.29 L3856.12 1962.35 Z" fill="#000000" fill-rule="nonzero" fill-opacity="1"></path><path clip-path="url(#clip890)" d="M3885.47 1960.41 L3890.35 1960.41 L3890.35 1966.29 L3885.47 1966.29 L3885.47 1960.41 Z" fill="#000000" fill-rule="nonzero" fill-opacity="1"></path><path clip-path="url(#clip890)" d="M3910.54 1934.81 Q3906.93 1934.81 3905.1 1938.37 Q3903.29 1941.91 3903.29 1949.04 Q3903.29 1956.15 3905.1 1959.71 Q3906.93 1963.26 3910.54 1963.26 Q3914.17 1963.26 3915.98 1959.71 Q3917.81 1956.15 3917.81 1949.04 Q3917.81 1941.91 3915.98 1938.37 Q3914.17 1934.81 3910.54 1934.81 M3910.54 1931.1 Q3916.35 1931.1 3919.4 1935.71 Q3922.48 1940.29 3922.48 1949.04 Q3922.48 1957.77 3919.4 1962.38 Q3916.35 1966.96 3910.54 1966.96 Q3904.73 1966.96 3901.65 1962.38 Q3898.59 1957.77 3898.59 1949.04 Q3898.59 1940.29 3901.65 1935.71 Q3904.73 1931.1 3910.54 1931.1 Z" fill="#000000" fill-rule="nonzero" fill-opacity="1"></path><path clip-path="url(#clip890)" d="M3940.7 1934.81 Q3937.09 1934.81 3935.26 1938.37 Q3933.45 1941.91 3933.45 1949.04 Q3933.45 1956.15 3935.26 1959.71 Q3937.09 1963.26 3940.7 1963.26 Q3944.33 1963.26 3946.14 1959.71 Q3947.97 1956.15 3947.97 1949.04 Q3947.97 1941.91 3946.14 1938.37 Q3944.33 1934.81 3940.7 1934.81 M3940.7 1931.1 Q3946.51 1931.1 3949.57 1935.71 Q3952.64 1940.29 3952.64 1949.04 Q3952.64 1957.77 3949.57 1962.38 Q3946.51 1966.96 3940.7 1966.96 Q3934.89 1966.96 3931.81 1962.38 Q3928.76 1957.77 3928.76 1949.04 Q3928.76 1940.29 3931.81 1935.71 Q3934.89 1931.1 3940.7 1931.1 Z" fill="#000000" fill-rule="nonzero" fill-opacity="1"></path><polyline clip-path="url(#clip893)" style="stroke:#000000; stroke-linecap:round; stroke-linejoin:round; stroke-width:2; stroke-opacity:0.1; fill:none" points="2231.64,1587.7 3952.76,1587.7 "></polyline>
<polyline clip-path="url(#clip893)" style="stroke:#000000; stroke-linecap:round; stroke-linejoin:round; stroke-width:2; stroke-opacity:0.1; fill:none" points="2231.64,1257.76 3952.76,1257.76 "></polyline>
<polyline clip-path="url(#clip893)" style="stroke:#000000; stroke-linecap:round; stroke-linejoin:round; stroke-width:2; stroke-opacity:0.1; fill:none" points="2231.64,927.823 3952.76,927.823 "></polyline>
<polyline clip-path="url(#clip893)" style="stroke:#000000; stroke-linecap:round; stroke-linejoin:round; stroke-width:2; stroke-opacity:0.1; fill:none" points="2231.64,597.884 3952.76,597.884 "></polyline>
<polyline clip-path="url(#clip893)" style="stroke:#000000; stroke-linecap:round; stroke-linejoin:round; stroke-width:2; stroke-opacity:0.1; fill:none" points="2231.64,267.946 3952.76,267.946 "></polyline>
<polyline clip-path="url(#clip890)" style="stroke:#000000; stroke-linecap:round; stroke-linejoin:round; stroke-width:4; stroke-opacity:1; fill:none" points="2231.64,1891.09 2231.64,108.352 "></polyline>
<polyline clip-path="url(#clip890)" style="stroke:#000000; stroke-linecap:round; stroke-linejoin:round; stroke-width:4; stroke-opacity:1; fill:none" points="2231.64,1587.7 2250.53,1587.7 "></polyline>
<polyline clip-path="url(#clip890)" style="stroke:#000000; stroke-linecap:round; stroke-linejoin:round; stroke-width:4; stroke-opacity:1; fill:none" points="2231.64,1257.76 2250.53,1257.76 "></polyline>
<polyline clip-path="url(#clip890)" style="stroke:#000000; stroke-linecap:round; stroke-linejoin:round; stroke-width:4; stroke-opacity:1; fill:none" points="2231.64,927.823 2250.53,927.823 "></polyline>
<polyline clip-path="url(#clip890)" style="stroke:#000000; stroke-linecap:round; stroke-linejoin:round; stroke-width:4; stroke-opacity:1; fill:none" points="2231.64,597.884 2250.53,597.884 "></polyline>
<polyline clip-path="url(#clip890)" style="stroke:#000000; stroke-linecap:round; stroke-linejoin:round; stroke-width:4; stroke-opacity:1; fill:none" points="2231.64,267.946 2250.53,267.946 "></polyline>
<path clip-path="url(#clip890)" d="M2055.13 1573.5 Q2051.52 1573.5 2049.69 1577.06 Q2047.89 1580.61 2047.89 1587.73 Q2047.89 1594.84 2049.69 1598.41 Q2051.52 1601.95 2055.13 1601.95 Q2058.77 1601.95 2060.57 1598.41 Q2062.4 1594.84 2062.4 1587.73 Q2062.4 1580.61 2060.57 1577.06 Q2058.77 1573.5 2055.13 1573.5 M2055.13 1569.8 Q2060.94 1569.8 2064 1574.4 Q2067.08 1578.98 2067.08 1587.73 Q2067.08 1596.46 2064 1601.07 Q2060.94 1605.65 2055.13 1605.65 Q2049.32 1605.65 2046.24 1601.07 Q2043.19 1596.46 2043.19 1587.73 Q2043.19 1578.98 2046.24 1574.4 Q2049.32 1569.8 2055.13 1569.8 Z" fill="#000000" fill-rule="nonzero" fill-opacity="1"></path><path clip-path="url(#clip890)" d="M2075.3 1599.1 L2080.18 1599.1 L2080.18 1604.98 L2075.3 1604.98 L2075.3 1599.1 Z" fill="#000000" fill-rule="nonzero" fill-opacity="1"></path><path clip-path="url(#clip890)" d="M2100.36 1588.57 Q2097.03 1588.57 2095.11 1590.35 Q2093.21 1592.13 2093.21 1595.26 Q2093.21 1598.38 2095.11 1600.17 Q2097.03 1601.95 2100.36 1601.95 Q2103.7 1601.95 2105.62 1600.17 Q2107.54 1598.36 2107.54 1595.26 Q2107.54 1592.13 2105.62 1590.35 Q2103.72 1588.57 2100.36 1588.57 M2095.69 1586.58 Q2092.68 1585.84 2090.99 1583.78 Q2089.32 1581.72 2089.32 1578.75 Q2089.32 1574.61 2092.26 1572.2 Q2095.23 1569.8 2100.36 1569.8 Q2105.53 1569.8 2108.47 1572.2 Q2111.41 1574.61 2111.41 1578.75 Q2111.41 1581.72 2109.72 1583.78 Q2108.05 1585.84 2105.06 1586.58 Q2108.44 1587.36 2110.32 1589.66 Q2112.22 1591.95 2112.22 1595.26 Q2112.22 1600.28 2109.14 1602.97 Q2106.08 1605.65 2100.36 1605.65 Q2094.65 1605.65 2091.57 1602.97 Q2088.51 1600.28 2088.51 1595.26 Q2088.51 1591.95 2090.41 1589.66 Q2092.31 1587.36 2095.69 1586.58 M2093.98 1579.19 Q2093.98 1581.88 2095.64 1583.38 Q2097.33 1584.89 2100.36 1584.89 Q2103.37 1584.89 2105.06 1583.38 Q2106.78 1581.88 2106.78 1579.19 Q2106.78 1576.51 2105.06 1575 Q2103.37 1573.5 2100.36 1573.5 Q2097.33 1573.5 2095.64 1575 Q2093.98 1576.51 2093.98 1579.19 Z" fill="#000000" fill-rule="nonzero" fill-opacity="1"></path><path clip-path="url(#clip890)" d="M2131.11 1585.84 Q2127.96 1585.84 2126.11 1587.99 Q2124.28 1590.14 2124.28 1593.89 Q2124.28 1597.62 2126.11 1599.79 Q2127.96 1601.95 2131.11 1601.95 Q2134.25 1601.95 2136.08 1599.79 Q2137.93 1597.62 2137.93 1593.89 Q2137.93 1590.14 2136.08 1587.99 Q2134.25 1585.84 2131.11 1585.84 M2140.39 1571.18 L2140.39 1575.44 Q2138.63 1574.61 2136.82 1574.17 Q2135.04 1573.73 2133.28 1573.73 Q2128.65 1573.73 2126.2 1576.86 Q2123.77 1579.98 2123.42 1586.3 Q2124.79 1584.29 2126.85 1583.22 Q2128.91 1582.13 2131.38 1582.13 Q2136.59 1582.13 2139.6 1585.3 Q2142.63 1588.45 2142.63 1593.89 Q2142.63 1599.22 2139.48 1602.43 Q2136.34 1605.65 2131.11 1605.65 Q2125.11 1605.65 2121.94 1601.07 Q2118.77 1596.46 2118.77 1587.73 Q2118.77 1579.54 2122.66 1574.68 Q2126.54 1569.8 2133.1 1569.8 Q2134.86 1569.8 2136.64 1570.14 Q2138.44 1570.49 2140.39 1571.18 Z" fill="#000000" fill-rule="nonzero" fill-opacity="1"></path><path clip-path="url(#clip890)" d="M2150.73 1570.42 L2169.09 1570.42 L2169.09 1574.36 L2155.02 1574.36 L2155.02 1582.83 Q2156.04 1582.48 2157.05 1582.32 Q2158.07 1582.13 2159.09 1582.13 Q2164.88 1582.13 2168.26 1585.3 Q2171.64 1588.48 2171.64 1593.89 Q2171.64 1599.47 2168.17 1602.57 Q2164.69 1605.65 2158.37 1605.65 Q2156.2 1605.65 2153.93 1605.28 Q2151.68 1604.91 2149.28 1604.17 L2149.28 1599.47 Q2151.36 1600.61 2153.58 1601.16 Q2155.8 1601.72 2158.28 1601.72 Q2162.29 1601.72 2164.62 1599.61 Q2166.96 1597.5 2166.96 1593.89 Q2166.96 1590.28 2164.62 1588.17 Q2162.29 1586.07 2158.28 1586.07 Q2156.41 1586.07 2154.53 1586.48 Q2152.68 1586.9 2150.73 1587.78 L2150.73 1570.42 Z" fill="#000000" fill-rule="nonzero" fill-opacity="1"></path><path clip-path="url(#clip890)" d="M2054.14 1243.56 Q2050.53 1243.56 2048.7 1247.12 Q2046.89 1250.67 2046.89 1257.8 Q2046.89 1264.9 2048.7 1268.47 Q2050.53 1272.01 2054.14 1272.01 Q2057.77 1272.01 2059.58 1268.47 Q2061.41 1264.9 2061.41 1257.8 Q2061.41 1250.67 2059.58 1247.12 Q2057.77 1243.56 2054.14 1243.56 M2054.14 1239.86 Q2059.95 1239.86 2063 1244.46 Q2066.08 1249.05 2066.08 1257.8 Q2066.08 1266.52 2063 1271.13 Q2059.95 1275.71 2054.14 1275.71 Q2048.33 1275.71 2045.25 1271.13 Q2042.19 1266.52 2042.19 1257.8 Q2042.19 1249.05 2045.25 1244.46 Q2048.33 1239.86 2054.14 1239.86 Z" fill="#000000" fill-rule="nonzero" fill-opacity="1"></path><path clip-path="url(#clip890)" d="M2074.3 1269.16 L2079.18 1269.16 L2079.18 1275.04 L2074.3 1275.04 L2074.3 1269.16 Z" fill="#000000" fill-rule="nonzero" fill-opacity="1"></path><path clip-path="url(#clip890)" d="M2099.37 1258.63 Q2096.04 1258.63 2094.11 1260.41 Q2092.22 1262.19 2092.22 1265.32 Q2092.22 1268.44 2094.11 1270.23 Q2096.04 1272.01 2099.37 1272.01 Q2102.7 1272.01 2104.62 1270.23 Q2106.55 1268.42 2106.55 1265.32 Q2106.55 1262.19 2104.62 1260.41 Q2102.73 1258.63 2099.37 1258.63 M2094.69 1256.64 Q2091.68 1255.9 2089.99 1253.84 Q2088.33 1251.78 2088.33 1248.81 Q2088.33 1244.67 2091.27 1242.26 Q2094.23 1239.86 2099.37 1239.86 Q2104.53 1239.86 2107.47 1242.26 Q2110.41 1244.67 2110.41 1248.81 Q2110.41 1251.78 2108.72 1253.84 Q2107.05 1255.9 2104.07 1256.64 Q2107.45 1257.43 2109.32 1259.72 Q2111.22 1262.01 2111.22 1265.32 Q2111.22 1270.34 2108.14 1273.03 Q2105.09 1275.71 2099.37 1275.71 Q2093.65 1275.71 2090.57 1273.03 Q2087.52 1270.34 2087.52 1265.32 Q2087.52 1262.01 2089.42 1259.72 Q2091.31 1257.43 2094.69 1256.64 M2092.98 1249.25 Q2092.98 1251.94 2094.65 1253.44 Q2096.34 1254.95 2099.37 1254.95 Q2102.38 1254.95 2104.07 1253.44 Q2105.78 1251.94 2105.78 1249.25 Q2105.78 1246.57 2104.07 1245.06 Q2102.38 1243.56 2099.37 1243.56 Q2096.34 1243.56 2094.65 1245.06 Q2092.98 1246.57 2092.98 1249.25 Z" fill="#000000" fill-rule="nonzero" fill-opacity="1"></path><path clip-path="url(#clip890)" d="M2118.35 1240.48 L2140.57 1240.48 L2140.57 1242.47 L2128.03 1275.04 L2123.14 1275.04 L2134.95 1244.42 L2118.35 1244.42 L2118.35 1240.48 Z" fill="#000000" fill-rule="nonzero" fill-opacity="1"></path><path clip-path="url(#clip890)" d="M2159.69 1243.56 Q2156.08 1243.56 2154.25 1247.12 Q2152.45 1250.67 2152.45 1257.8 Q2152.45 1264.9 2154.25 1268.47 Q2156.08 1272.01 2159.69 1272.01 Q2163.33 1272.01 2165.13 1268.47 Q2166.96 1264.9 2166.96 1257.8 Q2166.96 1250.67 2165.13 1247.12 Q2163.33 1243.56 2159.69 1243.56 M2159.69 1239.86 Q2165.5 1239.86 2168.56 1244.46 Q2171.64 1249.05 2171.64 1257.8 Q2171.64 1266.52 2168.56 1271.13 Q2165.5 1275.71 2159.69 1275.71 Q2153.88 1275.71 2150.8 1271.13 Q2147.75 1266.52 2147.75 1257.8 Q2147.75 1249.05 2150.8 1244.46 Q2153.88 1239.86 2159.69 1239.86 Z" fill="#000000" fill-rule="nonzero" fill-opacity="1"></path><path clip-path="url(#clip890)" d="M2055.13 913.622 Q2051.52 913.622 2049.69 917.186 Q2047.89 920.728 2047.89 927.858 Q2047.89 934.964 2049.69 938.529 Q2051.52 942.071 2055.13 942.071 Q2058.77 942.071 2060.57 938.529 Q2062.4 934.964 2062.4 927.858 Q2062.4 920.728 2060.57 917.186 Q2058.77 913.622 2055.13 913.622 M2055.13 909.918 Q2060.94 909.918 2064 914.524 Q2067.08 919.108 2067.08 927.858 Q2067.08 936.584 2064 941.191 Q2060.94 945.774 2055.13 945.774 Q2049.32 945.774 2046.24 941.191 Q2043.19 936.584 2043.19 927.858 Q2043.19 919.108 2046.24 914.524 Q2049.32 909.918 2055.13 909.918 Z" fill="#000000" fill-rule="nonzero" fill-opacity="1"></path><path clip-path="url(#clip890)" d="M2075.3 939.223 L2080.18 939.223 L2080.18 945.103 L2075.3 945.103 L2075.3 939.223 Z" fill="#000000" fill-rule="nonzero" fill-opacity="1"></path><path clip-path="url(#clip890)" d="M2100.36 928.691 Q2097.03 928.691 2095.11 930.473 Q2093.21 932.256 2093.21 935.381 Q2093.21 938.506 2095.11 940.288 Q2097.03 942.071 2100.36 942.071 Q2103.7 942.071 2105.62 940.288 Q2107.54 938.483 2107.54 935.381 Q2107.54 932.256 2105.62 930.473 Q2103.72 928.691 2100.36 928.691 M2095.69 926.7 Q2092.68 925.959 2090.99 923.899 Q2089.32 921.839 2089.32 918.876 Q2089.32 914.733 2092.26 912.325 Q2095.23 909.918 2100.36 909.918 Q2105.53 909.918 2108.47 912.325 Q2111.41 914.733 2111.41 918.876 Q2111.41 921.839 2109.72 923.899 Q2108.05 925.959 2105.06 926.7 Q2108.44 927.487 2110.32 929.779 Q2112.22 932.071 2112.22 935.381 Q2112.22 940.404 2109.14 943.089 Q2106.08 945.774 2100.36 945.774 Q2094.65 945.774 2091.57 943.089 Q2088.51 940.404 2088.51 935.381 Q2088.51 932.071 2090.41 929.779 Q2092.31 927.487 2095.69 926.7 M2093.98 919.316 Q2093.98 922.001 2095.64 923.506 Q2097.33 925.01 2100.36 925.01 Q2103.37 925.01 2105.06 923.506 Q2106.78 922.001 2106.78 919.316 Q2106.78 916.631 2105.06 915.126 Q2103.37 913.622 2100.36 913.622 Q2097.33 913.622 2095.64 915.126 Q2093.98 916.631 2093.98 919.316 Z" fill="#000000" fill-rule="nonzero" fill-opacity="1"></path><path clip-path="url(#clip890)" d="M2119.35 910.543 L2141.57 910.543 L2141.57 912.534 L2129.02 945.103 L2124.14 945.103 L2135.94 914.478 L2119.35 914.478 L2119.35 910.543 Z" fill="#000000" fill-rule="nonzero" fill-opacity="1"></path><path clip-path="url(#clip890)" d="M2150.73 910.543 L2169.09 910.543 L2169.09 914.478 L2155.02 914.478 L2155.02 922.95 Q2156.04 922.603 2157.05 922.441 Q2158.07 922.256 2159.09 922.256 Q2164.88 922.256 2168.26 925.427 Q2171.64 928.598 2171.64 934.015 Q2171.64 939.594 2168.17 942.696 Q2164.69 945.774 2158.37 945.774 Q2156.2 945.774 2153.93 945.404 Q2151.68 945.033 2149.28 944.293 L2149.28 939.594 Q2151.36 940.728 2153.58 941.283 Q2155.8 941.839 2158.28 941.839 Q2162.29 941.839 2164.62 939.733 Q2166.96 937.626 2166.96 934.015 Q2166.96 930.404 2164.62 928.297 Q2162.29 926.191 2158.28 926.191 Q2156.41 926.191 2154.53 926.608 Q2152.68 927.024 2150.73 927.904 L2150.73 910.543 Z" fill="#000000" fill-rule="nonzero" fill-opacity="1"></path><path clip-path="url(#clip890)" d="M2054.14 583.683 Q2050.53 583.683 2048.7 587.248 Q2046.89 590.789 2046.89 597.919 Q2046.89 605.025 2048.7 608.59 Q2050.53 612.132 2054.14 612.132 Q2057.77 612.132 2059.58 608.59 Q2061.41 605.025 2061.41 597.919 Q2061.41 590.789 2059.58 587.248 Q2057.77 583.683 2054.14 583.683 M2054.14 579.979 Q2059.95 579.979 2063 584.586 Q2066.08 589.169 2066.08 597.919 Q2066.08 606.646 2063 611.252 Q2059.95 615.836 2054.14 615.836 Q2048.33 615.836 2045.25 611.252 Q2042.19 606.646 2042.19 597.919 Q2042.19 589.169 2045.25 584.586 Q2048.33 579.979 2054.14 579.979 Z" fill="#000000" fill-rule="nonzero" fill-opacity="1"></path><path clip-path="url(#clip890)" d="M2074.3 609.285 L2079.18 609.285 L2079.18 615.164 L2074.3 615.164 L2074.3 609.285 Z" fill="#000000" fill-rule="nonzero" fill-opacity="1"></path><path clip-path="url(#clip890)" d="M2099.37 598.752 Q2096.04 598.752 2094.11 600.535 Q2092.22 602.317 2092.22 605.442 Q2092.22 608.567 2094.11 610.35 Q2096.04 612.132 2099.37 612.132 Q2102.7 612.132 2104.62 610.35 Q2106.55 608.544 2106.55 605.442 Q2106.55 602.317 2104.62 600.535 Q2102.73 598.752 2099.37 598.752 M2094.69 596.762 Q2091.68 596.021 2089.99 593.961 Q2088.33 591.901 2088.33 588.938 Q2088.33 584.794 2091.27 582.387 Q2094.23 579.979 2099.37 579.979 Q2104.53 579.979 2107.47 582.387 Q2110.41 584.794 2110.41 588.938 Q2110.41 591.901 2108.72 593.961 Q2107.05 596.021 2104.07 596.762 Q2107.45 597.549 2109.32 599.84 Q2111.22 602.132 2111.22 605.442 Q2111.22 610.465 2108.14 613.15 Q2105.09 615.836 2099.37 615.836 Q2093.65 615.836 2090.57 613.15 Q2087.52 610.465 2087.52 605.442 Q2087.52 602.132 2089.42 599.84 Q2091.31 597.549 2094.69 596.762 M2092.98 589.377 Q2092.98 592.063 2094.65 593.567 Q2096.34 595.072 2099.37 595.072 Q2102.38 595.072 2104.07 593.567 Q2105.78 592.063 2105.78 589.377 Q2105.78 586.692 2104.07 585.188 Q2102.38 583.683 2099.37 583.683 Q2096.34 583.683 2094.65 585.188 Q2092.98 586.692 2092.98 589.377 Z" fill="#000000" fill-rule="nonzero" fill-opacity="1"></path><path clip-path="url(#clip890)" d="M2129.53 598.752 Q2126.2 598.752 2124.28 600.535 Q2122.38 602.317 2122.38 605.442 Q2122.38 608.567 2124.28 610.35 Q2126.2 612.132 2129.53 612.132 Q2132.86 612.132 2134.79 610.35 Q2136.71 608.544 2136.71 605.442 Q2136.71 602.317 2134.79 600.535 Q2132.89 598.752 2129.53 598.752 M2124.86 596.762 Q2121.85 596.021 2120.16 593.961 Q2118.49 591.901 2118.49 588.938 Q2118.49 584.794 2121.43 582.387 Q2124.39 579.979 2129.53 579.979 Q2134.69 579.979 2137.63 582.387 Q2140.57 584.794 2140.57 588.938 Q2140.57 591.901 2138.88 593.961 Q2137.22 596.021 2134.23 596.762 Q2137.61 597.549 2139.48 599.84 Q2141.38 602.132 2141.38 605.442 Q2141.38 610.465 2138.3 613.15 Q2135.25 615.836 2129.53 615.836 Q2123.81 615.836 2120.73 613.15 Q2117.68 610.465 2117.68 605.442 Q2117.68 602.132 2119.58 599.84 Q2121.48 597.549 2124.86 596.762 M2123.14 589.377 Q2123.14 592.063 2124.81 593.567 Q2126.5 595.072 2129.53 595.072 Q2132.54 595.072 2134.23 593.567 Q2135.94 592.063 2135.94 589.377 Q2135.94 586.692 2134.23 585.188 Q2132.54 583.683 2129.53 583.683 Q2126.5 583.683 2124.81 585.188 Q2123.14 586.692 2123.14 589.377 Z" fill="#000000" fill-rule="nonzero" fill-opacity="1"></path><path clip-path="url(#clip890)" d="M2159.69 583.683 Q2156.08 583.683 2154.25 587.248 Q2152.45 590.789 2152.45 597.919 Q2152.45 605.025 2154.25 608.59 Q2156.08 612.132 2159.69 612.132 Q2163.33 612.132 2165.13 608.59 Q2166.96 605.025 2166.96 597.919 Q2166.96 590.789 2165.13 587.248 Q2163.33 583.683 2159.69 583.683 M2159.69 579.979 Q2165.5 579.979 2168.56 584.586 Q2171.64 589.169 2171.64 597.919 Q2171.64 606.646 2168.56 611.252 Q2165.5 615.836 2159.69 615.836 Q2153.88 615.836 2150.8 611.252 Q2147.75 606.646 2147.75 597.919 Q2147.75 589.169 2150.8 584.586 Q2153.88 579.979 2159.69 579.979 Z" fill="#000000" fill-rule="nonzero" fill-opacity="1"></path><path clip-path="url(#clip890)" d="M2055.13 253.744 Q2051.52 253.744 2049.69 257.309 Q2047.89 260.851 2047.89 267.98 Q2047.89 275.087 2049.69 278.652 Q2051.52 282.193 2055.13 282.193 Q2058.77 282.193 2060.57 278.652 Q2062.4 275.087 2062.4 267.98 Q2062.4 260.851 2060.57 257.309 Q2058.77 253.744 2055.13 253.744 M2055.13 250.041 Q2060.94 250.041 2064 254.647 Q2067.08 259.23 2067.08 267.98 Q2067.08 276.707 2064 281.314 Q2060.94 285.897 2055.13 285.897 Q2049.32 285.897 2046.24 281.314 Q2043.19 276.707 2043.19 267.98 Q2043.19 259.23 2046.24 254.647 Q2049.32 250.041 2055.13 250.041 Z" fill="#000000" fill-rule="nonzero" fill-opacity="1"></path><path clip-path="url(#clip890)" d="M2075.3 279.346 L2080.18 279.346 L2080.18 285.226 L2075.3 285.226 L2075.3 279.346 Z" fill="#000000" fill-rule="nonzero" fill-opacity="1"></path><path clip-path="url(#clip890)" d="M2100.36 268.814 Q2097.03 268.814 2095.11 270.596 Q2093.21 272.379 2093.21 275.504 Q2093.21 278.629 2095.11 280.411 Q2097.03 282.193 2100.36 282.193 Q2103.7 282.193 2105.62 280.411 Q2107.54 278.605 2107.54 275.504 Q2107.54 272.379 2105.62 270.596 Q2103.72 268.814 2100.36 268.814 M2095.69 266.823 Q2092.68 266.082 2090.99 264.022 Q2089.32 261.962 2089.32 258.999 Q2089.32 254.855 2092.26 252.448 Q2095.23 250.041 2100.36 250.041 Q2105.53 250.041 2108.47 252.448 Q2111.41 254.855 2111.41 258.999 Q2111.41 261.962 2109.72 264.022 Q2108.05 266.082 2105.06 266.823 Q2108.44 267.61 2110.32 269.902 Q2112.22 272.193 2112.22 275.504 Q2112.22 280.527 2109.14 283.212 Q2106.08 285.897 2100.36 285.897 Q2094.65 285.897 2091.57 283.212 Q2088.51 280.527 2088.51 275.504 Q2088.51 272.193 2090.41 269.902 Q2092.31 267.61 2095.69 266.823 M2093.98 259.439 Q2093.98 262.124 2095.64 263.629 Q2097.33 265.133 2100.36 265.133 Q2103.37 265.133 2105.06 263.629 Q2106.78 262.124 2106.78 259.439 Q2106.78 256.754 2105.06 255.249 Q2103.37 253.744 2100.36 253.744 Q2097.33 253.744 2095.64 255.249 Q2093.98 256.754 2093.98 259.439 Z" fill="#000000" fill-rule="nonzero" fill-opacity="1"></path><path clip-path="url(#clip890)" d="M2130.53 268.814 Q2127.19 268.814 2125.27 270.596 Q2123.37 272.379 2123.37 275.504 Q2123.37 278.629 2125.27 280.411 Q2127.19 282.193 2130.53 282.193 Q2133.86 282.193 2135.78 280.411 Q2137.7 278.605 2137.7 275.504 Q2137.7 272.379 2135.78 270.596 Q2133.88 268.814 2130.53 268.814 M2125.85 266.823 Q2122.84 266.082 2121.15 264.022 Q2119.48 261.962 2119.48 258.999 Q2119.48 254.855 2122.42 252.448 Q2125.39 250.041 2130.53 250.041 Q2135.69 250.041 2138.63 252.448 Q2141.57 254.855 2141.57 258.999 Q2141.57 261.962 2139.88 264.022 Q2138.21 266.082 2135.23 266.823 Q2138.61 267.61 2140.48 269.902 Q2142.38 272.193 2142.38 275.504 Q2142.38 280.527 2139.3 283.212 Q2136.24 285.897 2130.53 285.897 Q2124.81 285.897 2121.73 283.212 Q2118.67 280.527 2118.67 275.504 Q2118.67 272.193 2120.57 269.902 Q2122.47 267.61 2125.85 266.823 M2124.14 259.439 Q2124.14 262.124 2125.8 263.629 Q2127.49 265.133 2130.53 265.133 Q2133.54 265.133 2135.23 263.629 Q2136.94 262.124 2136.94 259.439 Q2136.94 256.754 2135.23 255.249 Q2133.54 253.744 2130.53 253.744 Q2127.49 253.744 2125.8 255.249 Q2124.14 256.754 2124.14 259.439 Z" fill="#000000" fill-rule="nonzero" fill-opacity="1"></path><path clip-path="url(#clip890)" d="M2150.73 250.666 L2169.09 250.666 L2169.09 254.601 L2155.02 254.601 L2155.02 263.073 Q2156.04 262.726 2157.05 262.564 Q2158.07 262.379 2159.09 262.379 Q2164.88 262.379 2168.26 265.55 Q2171.64 268.721 2171.64 274.138 Q2171.64 279.716 2168.17 282.818 Q2164.69 285.897 2158.37 285.897 Q2156.2 285.897 2153.93 285.527 Q2151.68 285.156 2149.28 284.416 L2149.28 279.716 Q2151.36 280.851 2153.58 281.406 Q2155.8 281.962 2158.28 281.962 Q2162.29 281.962 2164.62 279.855 Q2166.96 277.749 2166.96 274.138 Q2166.96 270.527 2164.62 268.42 Q2162.29 266.314 2158.28 266.314 Q2156.41 266.314 2154.53 266.73 Q2152.68 267.147 2150.73 268.027 L2150.73 250.666 Z" fill="#000000" fill-rule="nonzero" fill-opacity="1"></path><path clip-path="url(#clip890)" d="M2823.82 12.096 L2834.84 12.096 L2861.66 62.6918 L2861.66 12.096 L2869.6 12.096 L2869.6 72.576 L2858.58 72.576 L2831.76 21.9802 L2831.76 72.576 L2823.82 72.576 L2823.82 12.096 Z" fill="#000000" fill-rule="nonzero" fill-opacity="1"></path><path clip-path="url(#clip890)" d="M2903.14 32.4315 Q2897.15 32.4315 2893.66 37.1306 Q2890.18 41.7891 2890.18 49.9314 Q2890.18 58.0738 2893.62 62.7728 Q2897.11 67.4314 2903.14 67.4314 Q2909.1 67.4314 2912.58 62.7323 Q2916.06 58.0333 2916.06 49.9314 Q2916.06 41.8701 2912.58 37.1711 Q2909.1 32.4315 2903.14 32.4315 M2903.14 26.1121 Q2912.86 26.1121 2918.41 32.4315 Q2923.96 38.7509 2923.96 49.9314 Q2923.96 61.0714 2918.41 67.4314 Q2912.86 73.7508 2903.14 73.7508 Q2893.38 73.7508 2887.83 67.4314 Q2882.32 61.0714 2882.32 49.9314 Q2882.32 38.7509 2887.83 32.4315 Q2893.38 26.1121 2903.14 26.1121 Z" fill="#000000" fill-rule="nonzero" fill-opacity="1"></path><path clip-path="url(#clip890)" d="M2971.64 35.9153 Q2974.44 30.8922 2978.33 28.5022 Q2982.21 26.1121 2987.48 26.1121 Q2994.57 26.1121 2998.42 31.0947 Q3002.27 36.0368 3002.27 45.1919 L3002.27 72.576 L2994.77 72.576 L2994.77 45.4349 Q2994.77 38.913 2992.46 35.7533 Q2990.15 32.5936 2985.41 32.5936 Q2979.62 32.5936 2976.26 36.4419 Q2972.9 40.2903 2972.9 46.9338 L2972.9 72.576 L2965.4 72.576 L2965.4 45.4349 Q2965.4 38.8725 2963.09 35.7533 Q2960.79 32.5936 2955.96 32.5936 Q2950.25 32.5936 2946.89 36.4824 Q2943.53 40.3308 2943.53 46.9338 L2943.53 72.576 L2936.03 72.576 L2936.03 27.2059 L2943.53 27.2059 L2943.53 34.2544 Q2946.08 30.082 2949.65 28.0971 Q2953.21 26.1121 2958.11 26.1121 Q2963.05 26.1121 2966.5 28.6237 Q2969.98 31.1352 2971.64 35.9153 Z" fill="#000000" fill-rule="nonzero" fill-opacity="1"></path><path clip-path="url(#clip890)" d="M3017.13 27.2059 L3024.59 27.2059 L3024.59 72.576 L3017.13 72.576 L3017.13 27.2059 M3017.13 9.54393 L3024.59 9.54393 L3024.59 18.9825 L3017.13 18.9825 L3017.13 9.54393 Z" fill="#000000" fill-rule="nonzero" fill-opacity="1"></path><path clip-path="url(#clip890)" d="M3077.9 45.1919 L3077.9 72.576 L3070.44 72.576 L3070.44 45.4349 Q3070.44 38.994 3067.93 35.7938 Q3065.42 32.5936 3060.4 32.5936 Q3054.36 32.5936 3050.88 36.4419 Q3047.39 40.2903 3047.39 46.9338 L3047.39 72.576 L3039.9 72.576 L3039.9 27.2059 L3047.39 27.2059 L3047.39 34.2544 Q3050.07 30.163 3053.67 28.1376 Q3057.32 26.1121 3062.06 26.1121 Q3069.88 26.1121 3073.89 30.9732 Q3077.9 35.7938 3077.9 45.1919 Z" fill="#000000" fill-rule="nonzero" fill-opacity="1"></path><path clip-path="url(#clip890)" d="M3113.38 49.7694 Q3104.35 49.7694 3100.87 51.8354 Q3097.38 53.9013 3097.38 58.8839 Q3097.38 62.8538 3099.97 65.2034 Q3102.61 67.5124 3107.1 67.5124 Q3113.3 67.5124 3117.03 63.1374 Q3120.8 58.7219 3120.8 51.4303 L3120.8 49.7694 L3113.38 49.7694 M3128.25 46.6907 L3128.25 72.576 L3120.8 72.576 L3120.8 65.6895 Q3118.24 69.8214 3114.44 71.8063 Q3110.63 73.7508 3105.12 73.7508 Q3098.15 73.7508 3094.02 69.8619 Q3089.93 65.9325 3089.93 59.3701 Q3089.93 51.7138 3095.03 47.825 Q3100.18 43.9361 3110.34 43.9361 L3120.8 43.9361 L3120.8 43.2069 Q3120.8 38.0623 3117.39 35.2672 Q3114.03 32.4315 3107.91 32.4315 Q3104.03 32.4315 3100.34 33.3632 Q3096.65 34.295 3093.25 36.1584 L3093.25 29.2718 Q3097.34 27.692 3101.19 26.9223 Q3105.04 26.1121 3108.68 26.1121 Q3118.53 26.1121 3123.39 31.2163 Q3128.25 36.3204 3128.25 46.6907 Z" fill="#000000" fill-rule="nonzero" fill-opacity="1"></path><path clip-path="url(#clip890)" d="M3143.6 9.54393 L3151.06 9.54393 L3151.06 72.576 L3143.6 72.576 L3143.6 9.54393 Z" fill="#000000" fill-rule="nonzero" fill-opacity="1"></path><path clip-path="url(#clip890)" d="M3234.59 63.9476 L3234.59 47.7034 L3221.22 47.7034 L3221.22 40.9789 L3242.69 40.9789 L3242.69 66.9452 Q3237.95 70.3075 3232.24 72.0494 Q3226.52 73.7508 3220.04 73.7508 Q3205.86 73.7508 3197.84 65.4869 Q3189.86 57.1826 3189.86 42.3968 Q3189.86 27.5705 3197.84 19.3066 Q3205.86 11.0023 3220.04 11.0023 Q3225.96 11.0023 3231.26 12.4606 Q3236.61 13.9189 3241.11 16.7545 L3241.11 25.464 Q3236.57 21.6156 3231.47 19.6712 Q3226.36 17.7268 3220.73 17.7268 Q3209.63 17.7268 3204.04 23.9246 Q3198.49 30.1225 3198.49 42.3968 Q3198.49 54.6305 3204.04 60.8284 Q3209.63 67.0263 3220.73 67.0263 Q3225.07 67.0263 3228.47 66.2971 Q3231.87 65.5274 3234.59 63.9476 Z" fill="#000000" fill-rule="nonzero" fill-opacity="1"></path><path clip-path="url(#clip890)" d="M3265.82 18.8205 L3265.82 65.8515 L3275.7 65.8515 Q3288.22 65.8515 3294.01 60.1802 Q3299.85 54.509 3299.85 42.2752 Q3299.85 30.1225 3294.01 24.4918 Q3288.22 18.8205 3275.7 18.8205 L3265.82 18.8205 M3257.64 12.096 L3274.45 12.096 Q3292.03 12.096 3300.25 19.4281 Q3308.47 26.7198 3308.47 42.2752 Q3308.47 57.9117 3300.21 65.2439 Q3291.95 72.576 3274.45 72.576 L3257.64 72.576 L3257.64 12.096 Z" fill="#000000" fill-rule="nonzero" fill-opacity="1"></path><path clip-path="url(#clip890)" d="M3329.7 18.8205 L3329.7 41.5461 L3339.99 41.5461 Q3345.7 41.5461 3348.82 38.5889 Q3351.94 35.6318 3351.94 30.163 Q3351.94 24.7348 3348.82 21.7777 Q3345.7 18.8205 3339.99 18.8205 L3329.7 18.8205 M3321.52 12.096 L3339.99 12.096 Q3350.16 12.096 3355.34 16.714 Q3360.57 21.2916 3360.57 30.163 Q3360.57 39.1155 3355.34 43.6931 Q3350.16 48.2706 3339.99 48.2706 L3329.7 48.2706 L3329.7 72.576 L3321.52 72.576 L3321.52 12.096 Z" fill="#000000" fill-rule="nonzero" fill-opacity="1"></path><polyline clip-path="url(#clip893)" style="stroke:#009af9; stroke-linecap:round; stroke-linejoin:round; stroke-width:4; stroke-opacity:1; fill:none" points="2280.35,158.807 2296.75,173.645 2313.15,188.516 2329.55,203.421 2345.95,218.359 2362.35,233.331 2378.75,248.337 2395.16,263.378 2411.56,278.453 2427.96,293.563 2444.36,308.708 2460.76,323.888 2477.16,339.104 2493.56,354.356 2509.96,369.643 2526.36,384.967 2542.76,400.328 2559.16,415.725 2575.57,431.16 2591.97,446.632 2608.37,462.141 2624.77,477.689 2641.17,493.274 2657.57,508.899 2673.97,524.562 2690.37,540.264 2706.77,556.006 2723.17,571.787 2739.58,587.608 2755.98,603.47 2772.38,619.373 2788.78,635.316 2805.18,651.301 2821.58,667.327 2837.98,683.396 2854.38,699.506 2870.78,715.66 2887.18,731.856 2903.59,748.096 2919.99,764.38 2936.39,780.708 2952.79,797.08 2969.19,813.497 2985.59,829.96 3001.99,846.468 3018.39,863.023 3034.79,879.624 3051.19,896.271 3067.6,912.967 3084,929.71 3100.4,946.501 3116.8,963.341 3133.2,980.23 3149.6,997.169 3166,1014.16 3182.4,1031.2 3198.8,1048.29 3215.2,1065.43 3231.6,1082.62 3248.01,1099.87 3264.41,1117.17 3280.81,1134.52 3297.21,1151.93 3313.61,1169.4 3330.01,1186.91 3346.41,1204.49 3362.81,1222.12 3379.21,1239.81 3395.61,1257.55 3412.02,1275.36 3428.42,1293.22 3444.82,1311.14 3461.22,1329.13 3477.62,1347.17 3494.02,1365.28 3510.42,1383.45 3526.82,1401.68 3543.22,1419.98 3559.62,1438.34 3576.03,1456.77 3592.43,1475.26 3608.83,1493.83 3625.23,1512.46 3641.63,1531.16 3658.03,1549.93 3674.43,1568.77 3690.83,1587.68 3707.23,1606.67 3723.63,1625.73 3740.04,1644.86 3756.44,1664.08 3772.84,1683.37 3789.24,1702.74 3805.64,1722.19 3822.04,1741.72 3838.44,1761.33 3854.84,1781.03 3871.24,1800.81 3887.64,1820.68 3904.05,1840.63 "></polyline>
</svg>