<svg xmlns="http://www.w3.org/2000/svg" xmlns:xlink="http://www.w3.org/1999/xlink" width="600" height="400" viewBox="0 0 2400 1600">
<defs>
  <clipPath id="clip850">
    <rect x="0" y="0" width="2400" height="1600"></rect>
  </clipPath>
</defs>
<path clip-path="url(#clip850)" d="M0 1600 L2400 1600 L2400 0 L0 0  Z" fill="#ffffff" fill-rule="evenodd" fill-opacity="1"></path>
<defs>
  <clipPath id="clip851">
    <rect x="480" y="0" width="1681" height="1600"></rect>
  </clipPath>
</defs>
<path clip-path="url(#clip850)" d="M214.839 1486.45 L1151.96 1486.45 L1151.96 123.472 L214.839 123.472  Z" fill="#ffffff" fill-rule="evenodd" fill-opacity="1"></path>
<defs>
  <clipPath id="clip852">
    <rect x="214" y="123" width="938" height="1364"></rect>
  </clipPath>
</defs>
<polyline clip-path="url(#clip852)" style="stroke:#000000; stroke-linecap:round; stroke-linejoin:round; stroke-width:2; stroke-opacity:0.1; fill:none" points="241.361,1486.45 241.361,123.472 "></polyline>
<polyline clip-path="url(#clip852)" style="stroke:#000000; stroke-linecap:round; stroke-linejoin:round; stroke-width:2; stroke-opacity:0.1; fill:none" points="462.379,1486.45 462.379,123.472 "></polyline>
<polyline clip-path="url(#clip852)" style="stroke:#000000; stroke-linecap:round; stroke-linejoin:round; stroke-width:2; stroke-opacity:0.1; fill:none" points="683.398,1486.45 683.398,123.472 "></polyline>
<polyline clip-path="url(#clip852)" style="stroke:#000000; stroke-linecap:round; stroke-linejoin:round; stroke-width:2; stroke-opacity:0.1; fill:none" points="904.417,1486.45 904.417,123.472 "></polyline>
<polyline clip-path="url(#clip852)" style="stroke:#000000; stroke-linecap:round; stroke-linejoin:round; stroke-width:2; stroke-opacity:0.1; fill:none" points="1125.44,1486.45 1125.44,123.472 "></polyline>
<polyline clip-path="url(#clip850)" style="stroke:#000000; stroke-linecap:round; stroke-linejoin:round; stroke-width:4; stroke-opacity:1; fill:none" points="214.839,1486.45 1151.96,1486.45 "></polyline>
<polyline clip-path="url(#clip850)" style="stroke:#000000; stroke-linecap:round; stroke-linejoin:round; stroke-width:4; stroke-opacity:1; fill:none" points="241.361,1486.45 241.361,1467.55 "></polyline>
<polyline clip-path="url(#clip850)" style="stroke:#000000; stroke-linecap:round; stroke-linejoin:round; stroke-width:4; stroke-opacity:1; fill:none" points="462.379,1486.45 462.379,1467.55 "></polyline>
<polyline clip-path="url(#clip850)" style="stroke:#000000; stroke-linecap:round; stroke-linejoin:round; stroke-width:4; stroke-opacity:1; fill:none" points="683.398,1486.45 683.398,1467.55 "></polyline>
<polyline clip-path="url(#clip850)" style="stroke:#000000; stroke-linecap:round; stroke-linejoin:round; stroke-width:4; stroke-opacity:1; fill:none" points="904.417,1486.45 904.417,1467.55 "></polyline>
<polyline clip-path="url(#clip850)" style="stroke:#000000; stroke-linecap:round; stroke-linejoin:round; stroke-width:4; stroke-opacity:1; fill:none" points="1125.44,1486.45 1125.44,1467.55 "></polyline>
<path clip-path="url(#clip850)" d="M203.664 1517.37 Q200.053 1517.37 198.225 1520.93 Q196.419 1524.47 196.419 1531.6 Q196.419 1538.71 198.225 1542.27 Q200.053 1545.82 203.664 1545.82 Q207.299 1545.82 209.104 1542.27 Q210.933 1538.71 210.933 1531.6 Q210.933 1524.47 209.104 1520.93 Q207.299 1517.37 203.664 1517.37 M203.664 1513.66 Q209.474 1513.66 212.53 1518.27 Q215.609 1522.85 215.609 1531.6 Q215.609 1540.33 212.53 1544.94 Q209.474 1549.52 203.664 1549.52 Q197.854 1549.52 194.775 1544.94 Q191.72 1540.33 191.72 1531.6 Q191.72 1522.85 194.775 1518.27 Q197.854 1513.66 203.664 1513.66 Z" fill="#000000" fill-rule="nonzero" fill-opacity="1"></path><path clip-path="url(#clip850)" d="M223.826 1542.97 L228.71 1542.97 L228.71 1548.85 L223.826 1548.85 L223.826 1542.97 Z" fill="#000000" fill-rule="nonzero" fill-opacity="1"></path><path clip-path="url(#clip850)" d="M248.896 1517.37 Q245.284 1517.37 243.456 1520.93 Q241.65 1524.47 241.65 1531.6 Q241.65 1538.71 243.456 1542.27 Q245.284 1545.82 248.896 1545.82 Q252.53 1545.82 254.335 1542.27 Q256.164 1538.71 256.164 1531.6 Q256.164 1524.47 254.335 1520.93 Q252.53 1517.37 248.896 1517.37 M248.896 1513.66 Q254.706 1513.66 257.761 1518.27 Q260.84 1522.85 260.84 1531.6 Q260.84 1540.33 257.761 1544.94 Q254.706 1549.52 248.896 1549.52 Q243.085 1549.52 240.007 1544.94 Q236.951 1540.33 236.951 1531.6 Q236.951 1522.85 240.007 1518.27 Q243.085 1513.66 248.896 1513.66 Z" fill="#000000" fill-rule="nonzero" fill-opacity="1"></path><path clip-path="url(#clip850)" d="M279.057 1517.37 Q275.446 1517.37 273.618 1520.93 Q271.812 1524.47 271.812 1531.6 Q271.812 1538.71 273.618 1542.27 Q275.446 1545.82 279.057 1545.82 Q282.692 1545.82 284.497 1542.27 Q286.326 1538.71 286.326 1531.6 Q286.326 1524.47 284.497 1520.93 Q282.692 1517.37 279.057 1517.37 M279.057 1513.66 Q284.868 1513.66 287.923 1518.27 Q291.002 1522.85 291.002 1531.6 Q291.002 1540.33 287.923 1544.94 Q284.868 1549.52 279.057 1549.52 Q273.247 1549.52 270.169 1544.94 Q267.113 1540.33 267.113 1531.6 Q267.113 1522.85 270.169 1518.27 Q273.247 1513.66 279.057 1513.66 Z" fill="#000000" fill-rule="nonzero" fill-opacity="1"></path><path clip-path="url(#clip850)" d="M425.181 1517.37 Q421.569 1517.37 419.741 1520.93 Q417.935 1524.47 417.935 1531.6 Q417.935 1538.71 419.741 1542.27 Q421.569 1545.82 425.181 1545.82 Q428.815 1545.82 430.62 1542.27 Q432.449 1538.71 432.449 1531.6 Q432.449 1524.47 430.62 1520.93 Q428.815 1517.37 425.181 1517.37 M425.181 1513.66 Q430.991 1513.66 434.046 1518.27 Q437.125 1522.85 437.125 1531.6 Q437.125 1540.33 434.046 1544.94 Q430.991 1549.52 425.181 1549.52 Q419.37 1549.52 416.292 1544.94 Q413.236 1540.33 413.236 1531.6 Q413.236 1522.85 416.292 1518.27 Q419.37 1513.66 425.181 1513.66 Z" fill="#000000" fill-rule="nonzero" fill-opacity="1"></path><path clip-path="url(#clip850)" d="M445.342 1542.97 L450.227 1542.97 L450.227 1548.85 L445.342 1548.85 L445.342 1542.97 Z" fill="#000000" fill-rule="nonzero" fill-opacity="1"></path><path clip-path="url(#clip850)" d="M464.44 1544.91 L480.759 1544.91 L480.759 1548.85 L458.815 1548.85 L458.815 1544.91 Q461.477 1542.16 466.06 1537.53 Q470.666 1532.88 471.847 1531.53 Q474.092 1529.01 474.972 1527.27 Q475.875 1525.51 475.875 1523.82 Q475.875 1521.07 473.93 1519.33 Q472.009 1517.6 468.907 1517.6 Q466.708 1517.6 464.254 1518.36 Q461.824 1519.13 459.046 1520.68 L459.046 1515.95 Q461.87 1514.82 464.324 1514.24 Q466.778 1513.66 468.815 1513.66 Q474.185 1513.66 477.379 1516.35 Q480.574 1519.03 480.574 1523.52 Q480.574 1525.65 479.764 1527.57 Q478.977 1529.47 476.87 1532.07 Q476.291 1532.74 473.19 1535.95 Q470.088 1539.15 464.44 1544.91 Z" fill="#000000" fill-rule="nonzero" fill-opacity="1"></path><path clip-path="url(#clip850)" d="M490.62 1514.29 L508.976 1514.29 L508.976 1518.22 L494.902 1518.22 L494.902 1526.7 Q495.921 1526.35 496.939 1526.19 Q497.958 1526 498.976 1526 Q504.763 1526 508.143 1529.17 Q511.523 1532.34 511.523 1537.76 Q511.523 1543.34 508.05 1546.44 Q504.578 1549.52 498.259 1549.52 Q496.083 1549.52 493.814 1549.15 Q491.569 1548.78 489.162 1548.04 L489.162 1543.34 Q491.245 1544.47 493.467 1545.03 Q495.689 1545.58 498.166 1545.58 Q502.171 1545.58 504.509 1543.48 Q506.847 1541.37 506.847 1537.76 Q506.847 1534.15 504.509 1532.04 Q502.171 1529.94 498.166 1529.94 Q496.291 1529.94 494.416 1530.35 Q492.564 1530.77 490.62 1531.65 L490.62 1514.29 Z" fill="#000000" fill-rule="nonzero" fill-opacity="1"></path><path clip-path="url(#clip850)" d="M645.701 1517.37 Q642.09 1517.37 640.262 1520.93 Q638.456 1524.47 638.456 1531.6 Q638.456 1538.71 640.262 1542.27 Q642.09 1545.82 645.701 1545.82 Q649.336 1545.82 651.141 1542.27 Q652.97 1538.71 652.97 1531.6 Q652.97 1524.47 651.141 1520.93 Q649.336 1517.37 645.701 1517.37 M645.701 1513.66 Q651.512 1513.66 654.567 1518.27 Q657.646 1522.85 657.646 1531.6 Q657.646 1540.33 654.567 1544.94 Q651.512 1549.52 645.701 1549.52 Q639.891 1549.52 636.813 1544.94 Q633.757 1540.33 633.757 1531.6 Q633.757 1522.85 636.813 1518.27 Q639.891 1513.66 645.701 1513.66 Z" fill="#000000" fill-rule="nonzero" fill-opacity="1"></path><path clip-path="url(#clip850)" d="M665.863 1542.97 L670.748 1542.97 L670.748 1548.85 L665.863 1548.85 L665.863 1542.97 Z" fill="#000000" fill-rule="nonzero" fill-opacity="1"></path><path clip-path="url(#clip850)" d="M680.979 1514.29 L699.335 1514.29 L699.335 1518.22 L685.261 1518.22 L685.261 1526.7 Q686.28 1526.35 687.298 1526.19 Q688.317 1526 689.335 1526 Q695.122 1526 698.502 1529.17 Q701.882 1532.34 701.882 1537.76 Q701.882 1543.34 698.409 1546.44 Q694.937 1549.52 688.618 1549.52 Q686.442 1549.52 684.173 1549.15 Q681.928 1548.78 679.521 1548.04 L679.521 1543.34 Q681.604 1544.47 683.826 1545.03 Q686.048 1545.58 688.525 1545.58 Q692.53 1545.58 694.868 1543.48 Q697.206 1541.37 697.206 1537.76 Q697.206 1534.15 694.868 1532.04 Q692.53 1529.94 688.525 1529.94 Q686.65 1529.94 684.775 1530.35 Q682.923 1530.77 680.979 1531.65 L680.979 1514.29 Z" fill="#000000" fill-rule="nonzero" fill-opacity="1"></path><path clip-path="url(#clip850)" d="M721.095 1517.37 Q717.483 1517.37 715.655 1520.93 Q713.849 1524.47 713.849 1531.6 Q713.849 1538.71 715.655 1542.27 Q717.483 1545.82 721.095 1545.82 Q724.729 1545.82 726.534 1542.27 Q728.363 1538.71 728.363 1531.6 Q728.363 1524.47 726.534 1520.93 Q724.729 1517.37 721.095 1517.37 M721.095 1513.66 Q726.905 1513.66 729.96 1518.27 Q733.039 1522.85 733.039 1531.6 Q733.039 1540.33 729.96 1544.94 Q726.905 1549.52 721.095 1549.52 Q715.284 1549.52 712.206 1544.94 Q709.15 1540.33 709.15 1531.6 Q709.15 1522.85 712.206 1518.27 Q715.284 1513.66 721.095 1513.66 Z" fill="#000000" fill-rule="nonzero" fill-opacity="1"></path><path clip-path="url(#clip850)" d="M867.218 1517.37 Q863.607 1517.37 861.778 1520.93 Q859.972 1524.47 859.972 1531.6 Q859.972 1538.71 861.778 1542.27 Q863.607 1545.82 867.218 1545.82 Q870.852 1545.82 872.657 1542.27 Q874.486 1538.71 874.486 1531.6 Q874.486 1524.47 872.657 1520.93 Q870.852 1517.37 867.218 1517.37 M867.218 1513.66 Q873.028 1513.66 876.083 1518.27 Q879.162 1522.85 879.162 1531.6 Q879.162 1540.33 876.083 1544.94 Q873.028 1549.52 867.218 1549.52 Q861.407 1549.52 858.329 1544.94 Q855.273 1540.33 855.273 1531.6 Q855.273 1522.85 858.329 1518.27 Q861.407 1513.66 867.218 1513.66 Z" fill="#000000" fill-rule="nonzero" fill-opacity="1"></path><path clip-path="url(#clip850)" d="M887.38 1542.97 L892.264 1542.97 L892.264 1548.85 L887.38 1548.85 L887.38 1542.97 Z" fill="#000000" fill-rule="nonzero" fill-opacity="1"></path><path clip-path="url(#clip850)" d="M901.268 1514.29 L923.49 1514.29 L923.49 1516.28 L910.944 1548.85 L906.06 1548.85 L917.866 1518.22 L901.268 1518.22 L901.268 1514.29 Z" fill="#000000" fill-rule="nonzero" fill-opacity="1"></path><path clip-path="url(#clip850)" d="M932.657 1514.29 L951.013 1514.29 L951.013 1518.22 L936.94 1518.22 L936.94 1526.7 Q937.958 1526.35 938.977 1526.19 Q939.995 1526 941.014 1526 Q946.801 1526 950.18 1529.17 Q953.56 1532.34 953.56 1537.76 Q953.56 1543.34 950.088 1546.44 Q946.615 1549.52 940.296 1549.52 Q938.12 1549.52 935.852 1549.15 Q933.606 1548.78 931.199 1548.04 L931.199 1543.34 Q933.282 1544.47 935.504 1545.03 Q937.727 1545.58 940.203 1545.58 Q944.208 1545.58 946.546 1543.48 Q948.884 1541.37 948.884 1537.76 Q948.884 1534.15 946.546 1532.04 Q944.208 1529.94 940.203 1529.94 Q938.328 1529.94 936.453 1530.35 Q934.602 1530.77 932.657 1531.65 L932.657 1514.29 Z" fill="#000000" fill-rule="nonzero" fill-opacity="1"></path><path clip-path="url(#clip850)" d="M1077.51 1544.91 L1085.15 1544.91 L1085.15 1518.55 L1076.84 1520.21 L1076.84 1515.95 L1085.1 1514.29 L1089.78 1514.29 L1089.78 1544.91 L1097.41 1544.91 L1097.41 1548.85 L1077.51 1548.85 L1077.51 1544.91 Z" fill="#000000" fill-rule="nonzero" fill-opacity="1"></path><path clip-path="url(#clip850)" d="M1106.86 1542.97 L1111.74 1542.97 L1111.74 1548.85 L1106.86 1548.85 L1106.86 1542.97 Z" fill="#000000" fill-rule="nonzero" fill-opacity="1"></path><path clip-path="url(#clip850)" d="M1131.93 1517.37 Q1128.32 1517.37 1126.49 1520.93 Q1124.68 1524.47 1124.68 1531.6 Q1124.68 1538.71 1126.49 1542.27 Q1128.32 1545.82 1131.93 1545.82 Q1135.56 1545.82 1137.37 1542.27 Q1139.2 1538.71 1139.2 1531.6 Q1139.2 1524.47 1137.37 1520.93 Q1135.56 1517.37 1131.93 1517.37 M1131.93 1513.66 Q1137.74 1513.66 1140.79 1518.27 Q1143.87 1522.85 1143.87 1531.6 Q1143.87 1540.33 1140.79 1544.94 Q1137.74 1549.52 1131.93 1549.52 Q1126.12 1549.52 1123.04 1544.94 Q1119.98 1540.33 1119.98 1531.6 Q1119.98 1522.85 1123.04 1518.27 Q1126.12 1513.66 1131.93 1513.66 Z" fill="#000000" fill-rule="nonzero" fill-opacity="1"></path><path clip-path="url(#clip850)" d="M1162.09 1517.37 Q1158.48 1517.37 1156.65 1520.93 Q1154.84 1524.47 1154.84 1531.6 Q1154.84 1538.71 1156.65 1542.27 Q1158.48 1545.82 1162.09 1545.82 Q1165.72 1545.82 1167.53 1542.27 Q1169.36 1538.71 1169.36 1531.6 Q1169.36 1524.47 1167.53 1520.93 Q1165.72 1517.37 1162.09 1517.37 M1162.09 1513.66 Q1167.9 1513.66 1170.96 1518.27 Q1174.03 1522.85 1174.03 1531.6 Q1174.03 1540.33 1170.96 1544.94 Q1167.9 1549.52 1162.09 1549.52 Q1156.28 1549.52 1153.2 1544.94 Q1150.15 1540.33 1150.15 1531.6 Q1150.15 1522.85 1153.2 1518.27 Q1156.28 1513.66 1162.09 1513.66 Z" fill="#000000" fill-rule="nonzero" fill-opacity="1"></path><polyline clip-path="url(#clip852)" style="stroke:#000000; stroke-linecap:round; stroke-linejoin:round; stroke-width:2; stroke-opacity:0.1; fill:none" points="214.839,1426.36 1151.96,1426.36 "></polyline>
<polyline clip-path="url(#clip852)" style="stroke:#000000; stroke-linecap:round; stroke-linejoin:round; stroke-width:2; stroke-opacity:0.1; fill:none" points="214.839,1260.56 1151.96,1260.56 "></polyline>
<polyline clip-path="url(#clip852)" style="stroke:#000000; stroke-linecap:round; stroke-linejoin:round; stroke-width:2; stroke-opacity:0.1; fill:none" points="214.839,1094.76 1151.96,1094.76 "></polyline>
<polyline clip-path="url(#clip852)" style="stroke:#000000; stroke-linecap:round; stroke-linejoin:round; stroke-width:2; stroke-opacity:0.1; fill:none" points="214.839,928.966 1151.96,928.966 "></polyline>
<polyline clip-path="url(#clip852)" style="stroke:#000000; stroke-linecap:round; stroke-linejoin:round; stroke-width:2; stroke-opacity:0.1; fill:none" points="214.839,763.168 1151.96,763.168 "></polyline>
<polyline clip-path="url(#clip852)" style="stroke:#000000; stroke-linecap:round; stroke-linejoin:round; stroke-width:2; stroke-opacity:0.1; fill:none" points="214.839,597.37 1151.96,597.37 "></polyline>
<polyline clip-path="url(#clip852)" style="stroke:#000000; stroke-linecap:round; stroke-linejoin:round; stroke-width:2; stroke-opacity:0.1; fill:none" points="214.839,431.572 1151.96,431.572 "></polyline>
<polyline clip-path="url(#clip852)" style="stroke:#000000; stroke-linecap:round; stroke-linejoin:round; stroke-width:2; stroke-opacity:0.1; fill:none" points="214.839,265.774 1151.96,265.774 "></polyline>
<polyline clip-path="url(#clip850)" style="stroke:#000000; stroke-linecap:round; stroke-linejoin:round; stroke-width:4; stroke-opacity:1; fill:none" points="214.839,1486.45 214.839,123.472 "></polyline>
<polyline clip-path="url(#clip850)" style="stroke:#000000; stroke-linecap:round; stroke-linejoin:round; stroke-width:4; stroke-opacity:1; fill:none" points="214.839,1426.36 233.736,1426.36 "></polyline>
<polyline clip-path="url(#clip850)" style="stroke:#000000; stroke-linecap:round; stroke-linejoin:round; stroke-width:4; stroke-opacity:1; fill:none" points="214.839,1260.56 233.736,1260.56 "></polyline>
<polyline clip-path="url(#clip850)" style="stroke:#000000; stroke-linecap:round; stroke-linejoin:round; stroke-width:4; stroke-opacity:1; fill:none" points="214.839,1094.76 233.736,1094.76 "></polyline>
<polyline clip-path="url(#clip850)" style="stroke:#000000; stroke-linecap:round; stroke-linejoin:round; stroke-width:4; stroke-opacity:1; fill:none" points="214.839,928.966 233.736,928.966 "></polyline>
<polyline clip-path="url(#clip850)" style="stroke:#000000; stroke-linecap:round; stroke-linejoin:round; stroke-width:4; stroke-opacity:1; fill:none" points="214.839,763.168 233.736,763.168 "></polyline>
<polyline clip-path="url(#clip850)" style="stroke:#000000; stroke-linecap:round; stroke-linejoin:round; stroke-width:4; stroke-opacity:1; fill:none" points="214.839,597.37 233.736,597.37 "></polyline>
<polyline clip-path="url(#clip850)" style="stroke:#000000; stroke-linecap:round; stroke-linejoin:round; stroke-width:4; stroke-opacity:1; fill:none" points="214.839,431.572 233.736,431.572 "></polyline>
<polyline clip-path="url(#clip850)" style="stroke:#000000; stroke-linecap:round; stroke-linejoin:round; stroke-width:4; stroke-opacity:1; fill:none" points="214.839,265.774 233.736,265.774 "></polyline>
<path clip-path="url(#clip850)" d="M53.7467 1439.7 L61.3856 1439.7 L61.3856 1413.34 L53.0754 1415.01 L53.0754 1410.75 L61.3393 1409.08 L66.0152 1409.08 L66.0152 1439.7 L73.654 1439.7 L73.654 1443.64 L53.7467 1443.64 L53.7467 1439.7 Z" fill="#000000" fill-rule="nonzero" fill-opacity="1"></path><path clip-path="url(#clip850)" d="M83.0984 1437.76 L87.9827 1437.76 L87.9827 1443.64 L83.0984 1443.64 L83.0984 1437.76 Z" fill="#000000" fill-rule="nonzero" fill-opacity="1"></path><path clip-path="url(#clip850)" d="M108.168 1412.16 Q104.557 1412.16 102.728 1415.72 Q100.922 1419.27 100.922 1426.39 Q100.922 1433.5 102.728 1437.07 Q104.557 1440.61 108.168 1440.61 Q111.802 1440.61 113.608 1437.07 Q115.436 1433.5 115.436 1426.39 Q115.436 1419.27 113.608 1415.72 Q111.802 1412.16 108.168 1412.16 M108.168 1408.45 Q113.978 1408.45 117.033 1413.06 Q120.112 1417.64 120.112 1426.39 Q120.112 1435.12 117.033 1439.73 Q113.978 1444.31 108.168 1444.31 Q102.358 1444.31 99.2789 1439.73 Q96.2234 1435.12 96.2234 1426.39 Q96.2234 1417.64 99.2789 1413.06 Q102.358 1408.45 108.168 1408.45 Z" fill="#000000" fill-rule="nonzero" fill-opacity="1"></path><path clip-path="url(#clip850)" d="M138.33 1412.16 Q134.719 1412.16 132.89 1415.72 Q131.084 1419.27 131.084 1426.39 Q131.084 1433.5 132.89 1437.07 Q134.719 1440.61 138.33 1440.61 Q141.964 1440.61 143.769 1437.07 Q145.598 1433.5 145.598 1426.39 Q145.598 1419.27 143.769 1415.72 Q141.964 1412.16 138.33 1412.16 M138.33 1408.45 Q144.14 1408.45 147.195 1413.06 Q150.274 1417.64 150.274 1426.39 Q150.274 1435.12 147.195 1439.73 Q144.14 1444.31 138.33 1444.31 Q132.519 1444.31 129.441 1439.73 Q126.385 1435.12 126.385 1426.39 Q126.385 1417.64 129.441 1413.06 Q132.519 1408.45 138.33 1408.45 Z" fill="#000000" fill-rule="nonzero" fill-opacity="1"></path><path clip-path="url(#clip850)" d="M162.519 1439.7 L178.839 1439.7 L178.839 1443.64 L156.894 1443.64 L156.894 1439.7 Q159.556 1436.95 164.14 1432.32 Q168.746 1427.67 169.927 1426.33 Q172.172 1423.8 173.052 1422.07 Q173.954 1420.31 173.954 1418.62 Q173.954 1415.86 172.01 1414.13 Q170.089 1412.39 166.987 1412.39 Q164.788 1412.39 162.334 1413.15 Q159.904 1413.92 157.126 1415.47 L157.126 1410.75 Q159.95 1409.61 162.404 1409.03 Q164.857 1408.45 166.894 1408.45 Q172.265 1408.45 175.459 1411.14 Q178.653 1413.83 178.653 1418.32 Q178.653 1420.45 177.843 1422.37 Q177.056 1424.27 174.95 1426.86 Q174.371 1427.53 171.269 1430.75 Q168.167 1433.94 162.519 1439.7 Z" fill="#000000" fill-rule="nonzero" fill-opacity="1"></path><path clip-path="url(#clip850)" d="M51.6634 1273.91 L59.3023 1273.91 L59.3023 1247.54 L50.9921 1249.21 L50.9921 1244.95 L59.256 1243.28 L63.9319 1243.28 L63.9319 1273.91 L71.5707 1273.91 L71.5707 1277.84 L51.6634 1277.84 L51.6634 1273.91 Z" fill="#000000" fill-rule="nonzero" fill-opacity="1"></path><path clip-path="url(#clip850)" d="M81.0151 1271.96 L85.8993 1271.96 L85.8993 1277.84 L81.0151 1277.84 L81.0151 1271.96 Z" fill="#000000" fill-rule="nonzero" fill-opacity="1"></path><path clip-path="url(#clip850)" d="M106.084 1246.36 Q102.473 1246.36 100.645 1249.93 Q98.8391 1253.47 98.8391 1260.6 Q98.8391 1267.7 100.645 1271.27 Q102.473 1274.81 106.084 1274.81 Q109.719 1274.81 111.524 1271.27 Q113.353 1267.7 113.353 1260.6 Q113.353 1253.47 111.524 1249.93 Q109.719 1246.36 106.084 1246.36 M106.084 1242.66 Q111.895 1242.66 114.95 1247.26 Q118.029 1251.85 118.029 1260.6 Q118.029 1269.32 114.95 1273.93 Q111.895 1278.51 106.084 1278.51 Q100.274 1278.51 97.1956 1273.93 Q94.14 1269.32 94.14 1260.6 Q94.14 1251.85 97.1956 1247.26 Q100.274 1242.66 106.084 1242.66 Z" fill="#000000" fill-rule="nonzero" fill-opacity="1"></path><path clip-path="url(#clip850)" d="M136.246 1246.36 Q132.635 1246.36 130.807 1249.93 Q129.001 1253.47 129.001 1260.6 Q129.001 1267.7 130.807 1271.27 Q132.635 1274.81 136.246 1274.81 Q139.881 1274.81 141.686 1271.27 Q143.515 1267.7 143.515 1260.6 Q143.515 1253.47 141.686 1249.93 Q139.881 1246.36 136.246 1246.36 M136.246 1242.66 Q142.056 1242.66 145.112 1247.26 Q148.191 1251.85 148.191 1260.6 Q148.191 1269.32 145.112 1273.93 Q142.056 1278.51 136.246 1278.51 Q130.436 1278.51 127.357 1273.93 Q124.302 1269.32 124.302 1260.6 Q124.302 1251.85 127.357 1247.26 Q130.436 1242.66 136.246 1242.66 Z" fill="#000000" fill-rule="nonzero" fill-opacity="1"></path><path clip-path="url(#clip850)" d="M169.255 1247.36 L157.45 1265.8 L169.255 1265.8 L169.255 1247.36 M168.029 1243.28 L173.908 1243.28 L173.908 1265.8 L178.839 1265.8 L178.839 1269.69 L173.908 1269.69 L173.908 1277.84 L169.255 1277.84 L169.255 1269.69 L153.654 1269.69 L153.654 1265.18 L168.029 1243.28 Z" fill="#000000" fill-rule="nonzero" fill-opacity="1"></path><path clip-path="url(#clip850)" d="M51.9875 1108.11 L59.6263 1108.11 L59.6263 1081.74 L51.3162 1083.41 L51.3162 1079.15 L59.58 1077.48 L64.2559 1077.48 L64.2559 1108.11 L71.8948 1108.11 L71.8948 1112.04 L51.9875 1112.04 L51.9875 1108.11 Z" fill="#000000" fill-rule="nonzero" fill-opacity="1"></path><path clip-path="url(#clip850)" d="M81.3392 1106.16 L86.2234 1106.16 L86.2234 1112.04 L81.3392 1112.04 L81.3392 1106.16 Z" fill="#000000" fill-rule="nonzero" fill-opacity="1"></path><path clip-path="url(#clip850)" d="M106.408 1080.56 Q102.797 1080.56 100.969 1084.13 Q99.1632 1087.67 99.1632 1094.8 Q99.1632 1101.91 100.969 1105.47 Q102.797 1109.01 106.408 1109.01 Q110.043 1109.01 111.848 1105.47 Q113.677 1101.91 113.677 1094.8 Q113.677 1087.67 111.848 1084.13 Q110.043 1080.56 106.408 1080.56 M106.408 1076.86 Q112.219 1076.86 115.274 1081.47 Q118.353 1086.05 118.353 1094.8 Q118.353 1103.53 115.274 1108.13 Q112.219 1112.72 106.408 1112.72 Q100.598 1112.72 97.5197 1108.13 Q94.4641 1103.53 94.4641 1094.8 Q94.4641 1086.05 97.5197 1081.47 Q100.598 1076.86 106.408 1076.86 Z" fill="#000000" fill-rule="nonzero" fill-opacity="1"></path><path clip-path="url(#clip850)" d="M136.57 1080.56 Q132.959 1080.56 131.131 1084.13 Q129.325 1087.67 129.325 1094.8 Q129.325 1101.91 131.131 1105.47 Q132.959 1109.01 136.57 1109.01 Q140.205 1109.01 142.01 1105.47 Q143.839 1101.91 143.839 1094.8 Q143.839 1087.67 142.01 1084.13 Q140.205 1080.56 136.57 1080.56 M136.57 1076.86 Q142.381 1076.86 145.436 1081.47 Q148.515 1086.05 148.515 1094.8 Q148.515 1103.53 145.436 1108.13 Q142.381 1112.72 136.57 1112.72 Q130.76 1112.72 127.682 1108.13 Q124.626 1103.53 124.626 1094.8 Q124.626 1086.05 127.682 1081.47 Q130.76 1076.86 136.57 1076.86 Z" fill="#000000" fill-rule="nonzero" fill-opacity="1"></path><path clip-path="url(#clip850)" d="M167.311 1092.9 Q164.163 1092.9 162.311 1095.05 Q160.482 1097.21 160.482 1100.96 Q160.482 1104.68 162.311 1106.86 Q164.163 1109.01 167.311 1109.01 Q170.459 1109.01 172.288 1106.86 Q174.14 1104.68 174.14 1100.96 Q174.14 1097.21 172.288 1095.05 Q170.459 1092.9 167.311 1092.9 M176.593 1078.25 L176.593 1082.51 Q174.834 1081.67 173.029 1081.23 Q171.246 1080.79 169.487 1080.79 Q164.857 1080.79 162.404 1083.92 Q159.973 1087.04 159.626 1093.36 Q160.992 1091.35 163.052 1090.28 Q165.112 1089.2 167.589 1089.2 Q172.797 1089.2 175.806 1092.37 Q178.839 1095.52 178.839 1100.96 Q178.839 1106.28 175.691 1109.5 Q172.542 1112.72 167.311 1112.72 Q161.316 1112.72 158.144 1108.13 Q154.973 1103.53 154.973 1094.8 Q154.973 1086.6 158.862 1081.74 Q162.751 1076.86 169.302 1076.86 Q171.061 1076.86 172.843 1077.21 Q174.649 1077.55 176.593 1078.25 Z" fill="#000000" fill-rule="nonzero" fill-opacity="1"></path><path clip-path="url(#clip850)" d="M52.2421 942.311 L59.881 942.311 L59.881 915.945 L51.5708 917.612 L51.5708 913.353 L59.8347 911.686 L64.5106 911.686 L64.5106 942.311 L72.1494 942.311 L72.1494 946.246 L52.2421 946.246 L52.2421 942.311 Z" fill="#000000" fill-rule="nonzero" fill-opacity="1"></path><path clip-path="url(#clip850)" d="M81.5938 940.366 L86.478 940.366 L86.478 946.246 L81.5938 946.246 L81.5938 940.366 Z" fill="#000000" fill-rule="nonzero" fill-opacity="1"></path><path clip-path="url(#clip850)" d="M106.663 914.765 Q103.052 914.765 101.223 918.329 Q99.4178 921.871 99.4178 929.001 Q99.4178 936.107 101.223 939.672 Q103.052 943.214 106.663 943.214 Q110.297 943.214 112.103 939.672 Q113.932 936.107 113.932 929.001 Q113.932 921.871 112.103 918.329 Q110.297 914.765 106.663 914.765 M106.663 911.061 Q112.473 911.061 115.529 915.667 Q118.608 920.251 118.608 929.001 Q118.608 937.727 115.529 942.334 Q112.473 946.917 106.663 946.917 Q100.853 946.917 97.7743 942.334 Q94.7187 937.727 94.7187 929.001 Q94.7187 920.251 97.7743 915.667 Q100.853 911.061 106.663 911.061 Z" fill="#000000" fill-rule="nonzero" fill-opacity="1"></path><path clip-path="url(#clip850)" d="M136.825 914.765 Q133.214 914.765 131.385 918.329 Q129.58 921.871 129.58 929.001 Q129.58 936.107 131.385 939.672 Q133.214 943.214 136.825 943.214 Q140.459 943.214 142.265 939.672 Q144.093 936.107 144.093 929.001 Q144.093 921.871 142.265 918.329 Q140.459 914.765 136.825 914.765 M136.825 911.061 Q142.635 911.061 145.691 915.667 Q148.769 920.251 148.769 929.001 Q148.769 937.727 145.691 942.334 Q142.635 946.917 136.825 946.917 Q131.015 946.917 127.936 942.334 Q124.881 937.727 124.881 929.001 Q124.881 920.251 127.936 915.667 Q131.015 911.061 136.825 911.061 Z" fill="#000000" fill-rule="nonzero" fill-opacity="1"></path><path clip-path="url(#clip850)" d="M166.987 929.834 Q163.654 929.834 161.732 931.616 Q159.834 933.399 159.834 936.524 Q159.834 939.649 161.732 941.431 Q163.654 943.214 166.987 943.214 Q170.32 943.214 172.241 941.431 Q174.163 939.626 174.163 936.524 Q174.163 933.399 172.241 931.616 Q170.343 929.834 166.987 929.834 M162.311 927.843 Q159.302 927.103 157.612 925.042 Q155.945 922.982 155.945 920.019 Q155.945 915.876 158.885 913.468 Q161.848 911.061 166.987 911.061 Q172.149 911.061 175.089 913.468 Q178.028 915.876 178.028 920.019 Q178.028 922.982 176.339 925.042 Q174.672 927.103 171.686 927.843 Q175.066 928.63 176.941 930.922 Q178.839 933.214 178.839 936.524 Q178.839 941.547 175.76 944.232 Q172.704 946.917 166.987 946.917 Q161.269 946.917 158.191 944.232 Q155.135 941.547 155.135 936.524 Q155.135 933.214 157.033 930.922 Q158.931 928.63 162.311 927.843 M160.598 920.459 Q160.598 923.144 162.265 924.649 Q163.954 926.153 166.987 926.153 Q169.996 926.153 171.686 924.649 Q173.399 923.144 173.399 920.459 Q173.399 917.774 171.686 916.269 Q169.996 914.765 166.987 914.765 Q163.954 914.765 162.265 916.269 Q160.598 917.774 160.598 920.459 Z" fill="#000000" fill-rule="nonzero" fill-opacity="1"></path><path clip-path="url(#clip850)" d="M52.1495 776.513 L59.7884 776.513 L59.7884 750.147 L51.4782 751.814 L51.4782 747.555 L59.7421 745.888 L64.418 745.888 L64.418 776.513 L72.0568 776.513 L72.0568 780.448 L52.1495 780.448 L52.1495 776.513 Z" fill="#000000" fill-rule="nonzero" fill-opacity="1"></path><path clip-path="url(#clip850)" d="M81.5012 774.568 L86.3855 774.568 L86.3855 780.448 L81.5012 780.448 L81.5012 774.568 Z" fill="#000000" fill-rule="nonzero" fill-opacity="1"></path><path clip-path="url(#clip850)" d="M106.571 748.967 Q102.959 748.967 101.131 752.531 Q99.3252 756.073 99.3252 763.203 Q99.3252 770.309 101.131 773.874 Q102.959 777.416 106.571 777.416 Q110.205 777.416 112.01 773.874 Q113.839 770.309 113.839 763.203 Q113.839 756.073 112.01 752.531 Q110.205 748.967 106.571 748.967 M106.571 745.263 Q112.381 745.263 115.436 749.869 Q118.515 754.453 118.515 763.203 Q118.515 771.929 115.436 776.536 Q112.381 781.119 106.571 781.119 Q100.76 781.119 97.6817 776.536 Q94.6262 771.929 94.6262 763.203 Q94.6262 754.453 97.6817 749.869 Q100.76 745.263 106.571 745.263 Z" fill="#000000" fill-rule="nonzero" fill-opacity="1"></path><path clip-path="url(#clip850)" d="M127.543 776.513 L135.181 776.513 L135.181 750.147 L126.871 751.814 L126.871 747.555 L135.135 745.888 L139.811 745.888 L139.811 776.513 L147.45 776.513 L147.45 780.448 L127.543 780.448 L127.543 776.513 Z" fill="#000000" fill-rule="nonzero" fill-opacity="1"></path><path clip-path="url(#clip850)" d="M166.894 748.967 Q163.283 748.967 161.454 752.531 Q159.649 756.073 159.649 763.203 Q159.649 770.309 161.454 773.874 Q163.283 777.416 166.894 777.416 Q170.529 777.416 172.334 773.874 Q174.163 770.309 174.163 763.203 Q174.163 756.073 172.334 752.531 Q170.529 748.967 166.894 748.967 M166.894 745.263 Q172.704 745.263 175.76 749.869 Q178.839 754.453 178.839 763.203 Q178.839 771.929 175.76 776.536 Q172.704 781.119 166.894 781.119 Q161.084 781.119 158.005 776.536 Q154.95 771.929 154.95 763.203 Q154.95 754.453 158.005 749.869 Q161.084 745.263 166.894 745.263 Z" fill="#000000" fill-rule="nonzero" fill-opacity="1"></path><path clip-path="url(#clip850)" d="M53.7467 610.715 L61.3856 610.715 L61.3856 584.349 L53.0754 586.016 L53.0754 581.757 L61.3393 580.09 L66.0152 580.09 L66.0152 610.715 L73.654 610.715 L73.654 614.65 L53.7467 614.65 L53.7467 610.715 Z" fill="#000000" fill-rule="nonzero" fill-opacity="1"></path><path clip-path="url(#clip850)" d="M83.0984 608.77 L87.9827 608.77 L87.9827 614.65 L83.0984 614.65 L83.0984 608.77 Z" fill="#000000" fill-rule="nonzero" fill-opacity="1"></path><path clip-path="url(#clip850)" d="M108.168 583.169 Q104.557 583.169 102.728 586.733 Q100.922 590.275 100.922 597.405 Q100.922 604.511 102.728 608.076 Q104.557 611.618 108.168 611.618 Q111.802 611.618 113.608 608.076 Q115.436 604.511 115.436 597.405 Q115.436 590.275 113.608 586.733 Q111.802 583.169 108.168 583.169 M108.168 579.465 Q113.978 579.465 117.033 584.071 Q120.112 588.655 120.112 597.405 Q120.112 606.131 117.033 610.738 Q113.978 615.321 108.168 615.321 Q102.358 615.321 99.2789 610.738 Q96.2234 606.131 96.2234 597.405 Q96.2234 588.655 99.2789 584.071 Q102.358 579.465 108.168 579.465 Z" fill="#000000" fill-rule="nonzero" fill-opacity="1"></path><path clip-path="url(#clip850)" d="M129.14 610.715 L136.779 610.715 L136.779 584.349 L128.469 586.016 L128.469 581.757 L136.732 580.09 L141.408 580.09 L141.408 610.715 L149.047 610.715 L149.047 614.65 L129.14 614.65 L129.14 610.715 Z" fill="#000000" fill-rule="nonzero" fill-opacity="1"></path><path clip-path="url(#clip850)" d="M162.519 610.715 L178.839 610.715 L178.839 614.65 L156.894 614.65 L156.894 610.715 Q159.556 607.96 164.14 603.331 Q168.746 598.678 169.927 597.335 Q172.172 594.812 173.052 593.076 Q173.954 591.317 173.954 589.627 Q173.954 586.872 172.01 585.136 Q170.089 583.4 166.987 583.4 Q164.788 583.4 162.334 584.164 Q159.904 584.928 157.126 586.479 L157.126 581.757 Q159.95 580.622 162.404 580.044 Q164.857 579.465 166.894 579.465 Q172.265 579.465 175.459 582.15 Q178.653 584.835 178.653 589.326 Q178.653 591.456 177.843 593.377 Q177.056 595.275 174.95 597.868 Q174.371 598.539 171.269 601.756 Q168.167 604.951 162.519 610.715 Z" fill="#000000" fill-rule="nonzero" fill-opacity="1"></path><path clip-path="url(#clip850)" d="M51.6634 444.917 L59.3023 444.917 L59.3023 418.551 L50.9921 420.218 L50.9921 415.959 L59.256 414.292 L63.9319 414.292 L63.9319 444.917 L71.5707 444.917 L71.5707 448.852 L51.6634 448.852 L51.6634 444.917 Z" fill="#000000" fill-rule="nonzero" fill-opacity="1"></path><path clip-path="url(#clip850)" d="M81.0151 442.972 L85.8993 442.972 L85.8993 448.852 L81.0151 448.852 L81.0151 442.972 Z" fill="#000000" fill-rule="nonzero" fill-opacity="1"></path><path clip-path="url(#clip850)" d="M106.084 417.371 Q102.473 417.371 100.645 420.935 Q98.8391 424.477 98.8391 431.607 Q98.8391 438.713 100.645 442.278 Q102.473 445.82 106.084 445.82 Q109.719 445.82 111.524 442.278 Q113.353 438.713 113.353 431.607 Q113.353 424.477 111.524 420.935 Q109.719 417.371 106.084 417.371 M106.084 413.667 Q111.895 413.667 114.95 418.273 Q118.029 422.857 118.029 431.607 Q118.029 440.333 114.95 444.94 Q111.895 449.523 106.084 449.523 Q100.274 449.523 97.1956 444.94 Q94.14 440.333 94.14 431.607 Q94.14 422.857 97.1956 418.273 Q100.274 413.667 106.084 413.667 Z" fill="#000000" fill-rule="nonzero" fill-opacity="1"></path><path clip-path="url(#clip850)" d="M127.057 444.917 L134.695 444.917 L134.695 418.551 L126.385 420.218 L126.385 415.959 L134.649 414.292 L139.325 414.292 L139.325 444.917 L146.964 444.917 L146.964 448.852 L127.057 448.852 L127.057 444.917 Z" fill="#000000" fill-rule="nonzero" fill-opacity="1"></path><path clip-path="url(#clip850)" d="M169.255 418.366 L157.45 436.815 L169.255 436.815 L169.255 418.366 M168.029 414.292 L173.908 414.292 L173.908 436.815 L178.839 436.815 L178.839 440.704 L173.908 440.704 L173.908 448.852 L169.255 448.852 L169.255 440.704 L153.654 440.704 L153.654 436.19 L168.029 414.292 Z" fill="#000000" fill-rule="nonzero" fill-opacity="1"></path><path clip-path="url(#clip850)" d="M51.9875 279.119 L59.6263 279.119 L59.6263 252.753 L51.3162 254.42 L51.3162 250.161 L59.58 248.494 L64.2559 248.494 L64.2559 279.119 L71.8948 279.119 L71.8948 283.054 L51.9875 283.054 L51.9875 279.119 Z" fill="#000000" fill-rule="nonzero" fill-opacity="1"></path><path clip-path="url(#clip850)" d="M81.3392 277.174 L86.2234 277.174 L86.2234 283.054 L81.3392 283.054 L81.3392 277.174 Z" fill="#000000" fill-rule="nonzero" fill-opacity="1"></path><path clip-path="url(#clip850)" d="M106.408 251.573 Q102.797 251.573 100.969 255.137 Q99.1632 258.679 99.1632 265.809 Q99.1632 272.915 100.969 276.48 Q102.797 280.022 106.408 280.022 Q110.043 280.022 111.848 276.48 Q113.677 272.915 113.677 265.809 Q113.677 258.679 111.848 255.137 Q110.043 251.573 106.408 251.573 M106.408 247.869 Q112.219 247.869 115.274 252.475 Q118.353 257.059 118.353 265.809 Q118.353 274.535 115.274 279.142 Q112.219 283.725 106.408 283.725 Q100.598 283.725 97.5197 279.142 Q94.4641 274.535 94.4641 265.809 Q94.4641 257.059 97.5197 252.475 Q100.598 247.869 106.408 247.869 Z" fill="#000000" fill-rule="nonzero" fill-opacity="1"></path><path clip-path="url(#clip850)" d="M127.381 279.119 L135.019 279.119 L135.019 252.753 L126.709 254.42 L126.709 250.161 L134.973 248.494 L139.649 248.494 L139.649 279.119 L147.288 279.119 L147.288 283.054 L127.381 283.054 L127.381 279.119 Z" fill="#000000" fill-rule="nonzero" fill-opacity="1"></path><path clip-path="url(#clip850)" d="M167.311 263.911 Q164.163 263.911 162.311 266.063 Q160.482 268.216 160.482 271.966 Q160.482 275.693 162.311 277.869 Q164.163 280.022 167.311 280.022 Q170.459 280.022 172.288 277.869 Q174.14 275.693 174.14 271.966 Q174.14 268.216 172.288 266.063 Q170.459 263.911 167.311 263.911 M176.593 249.258 L176.593 253.517 Q174.834 252.684 173.029 252.244 Q171.246 251.804 169.487 251.804 Q164.857 251.804 162.404 254.929 Q159.973 258.054 159.626 264.373 Q160.992 262.36 163.052 261.295 Q165.112 260.207 167.589 260.207 Q172.797 260.207 175.806 263.378 Q178.839 266.526 178.839 271.966 Q178.839 277.29 175.691 280.508 Q172.542 283.725 167.311 283.725 Q161.316 283.725 158.144 279.142 Q154.973 274.535 154.973 265.809 Q154.973 257.614 158.862 252.753 Q162.751 247.869 169.302 247.869 Q171.061 247.869 172.843 248.216 Q174.649 248.563 176.593 249.258 Z" fill="#000000" fill-rule="nonzero" fill-opacity="1"></path><path clip-path="url(#clip850)" d="M525.858 44.2197 Q528.491 45.1109 530.962 48.0275 Q533.474 50.9442 535.986 56.0483 L544.29 72.576 L535.499 72.576 L527.762 57.061 Q524.765 50.9847 521.929 48.9997 Q519.134 47.0148 514.273 47.0148 L505.361 47.0148 L505.361 72.576 L497.178 72.576 L497.178 12.096 L515.65 12.096 Q526.02 12.096 531.124 16.4305 Q536.229 20.7649 536.229 29.5149 Q536.229 35.2267 533.555 38.994 Q530.922 42.7613 525.858 44.2197 M505.361 18.8205 L505.361 40.2903 L515.65 40.2903 Q521.564 40.2903 524.562 37.5762 Q527.6 34.8216 527.6 29.5149 Q527.6 24.2082 524.562 21.5346 Q521.564 18.8205 515.65 18.8205 L505.361 18.8205 Z" fill="#000000" fill-rule="nonzero" fill-opacity="1"></path><path clip-path="url(#clip850)" d="M589.579 48.0275 L589.579 51.6733 L555.308 51.6733 Q555.794 59.3701 559.926 63.421 Q564.099 67.4314 571.512 67.4314 Q575.806 67.4314 579.816 66.3781 Q583.867 65.3249 587.837 63.2184 L587.837 70.267 Q583.827 71.9684 579.614 72.8596 Q575.401 73.7508 571.066 73.7508 Q560.21 73.7508 553.85 67.4314 Q547.531 61.1119 547.531 50.3365 Q547.531 39.1965 553.526 32.6746 Q559.562 26.1121 569.77 26.1121 Q578.925 26.1121 584.232 32.0264 Q589.579 37.9003 589.579 48.0275 M582.125 45.84 Q582.044 39.7232 578.682 36.0774 Q575.36 32.4315 569.851 32.4315 Q563.613 32.4315 559.845 35.9558 Q556.119 39.4801 555.551 45.8805 L582.125 45.84 Z" fill="#000000" fill-rule="nonzero" fill-opacity="1"></path><path clip-path="url(#clip850)" d="M622.432 49.7694 Q613.398 49.7694 609.915 51.8354 Q606.431 53.9013 606.431 58.8839 Q606.431 62.8538 609.023 65.2034 Q611.656 67.5124 616.153 67.5124 Q622.351 67.5124 626.078 63.1374 Q629.845 58.7219 629.845 51.4303 L629.845 49.7694 L622.432 49.7694 M637.299 46.6907 L637.299 72.576 L629.845 72.576 L629.845 65.6895 Q627.293 69.8214 623.485 71.8063 Q619.677 73.7508 614.168 73.7508 Q607.2 73.7508 603.069 69.8619 Q598.977 65.9325 598.977 59.3701 Q598.977 51.7138 604.081 47.825 Q609.226 43.9361 619.394 43.9361 L629.845 43.9361 L629.845 43.2069 Q629.845 38.0623 626.442 35.2672 Q623.08 32.4315 616.963 32.4315 Q613.074 32.4315 609.388 33.3632 Q605.702 34.295 602.299 36.1584 L602.299 29.2718 Q606.39 27.692 610.239 26.9223 Q614.087 26.1121 617.733 26.1121 Q627.577 26.1121 632.438 31.2163 Q637.299 36.3204 637.299 46.6907 Z" fill="#000000" fill-rule="nonzero" fill-opacity="1"></path><path clip-path="url(#clip850)" d="M652.652 9.54393 L660.105 9.54393 L660.105 72.576 L652.652 72.576 L652.652 9.54393 Z" fill="#000000" fill-rule="nonzero" fill-opacity="1"></path><path clip-path="url(#clip850)" d="M743.635 63.9476 L743.635 47.7034 L730.267 47.7034 L730.267 40.9789 L751.737 40.9789 L751.737 66.9452 Q746.997 70.3075 741.285 72.0494 Q735.574 73.7508 729.092 73.7508 Q714.914 73.7508 706.893 65.4869 Q698.913 57.1826 698.913 42.3968 Q698.913 27.5705 706.893 19.3066 Q714.914 11.0023 729.092 11.0023 Q735.007 11.0023 740.313 12.4606 Q745.66 13.9189 750.157 16.7545 L750.157 25.464 Q745.62 21.6156 740.516 19.6712 Q735.412 17.7268 729.781 17.7268 Q718.681 17.7268 713.091 23.9246 Q707.541 30.1225 707.541 42.3968 Q707.541 54.6305 713.091 60.8284 Q718.681 67.0263 729.781 67.0263 Q734.115 67.0263 737.518 66.2971 Q740.921 65.5274 743.635 63.9476 Z" fill="#000000" fill-rule="nonzero" fill-opacity="1"></path><path clip-path="url(#clip850)" d="M774.867 18.8205 L774.867 65.8515 L784.752 65.8515 Q797.269 65.8515 803.062 60.1802 Q808.895 54.509 808.895 42.2752 Q808.895 30.1225 803.062 24.4918 Q797.269 18.8205 784.752 18.8205 L774.867 18.8205 M766.685 12.096 L783.496 12.096 Q801.077 12.096 809.3 19.4281 Q817.523 26.7198 817.523 42.2752 Q817.523 57.9117 809.26 65.2439 Q800.996 72.576 783.496 72.576 L766.685 72.576 L766.685 12.096 Z" fill="#000000" fill-rule="nonzero" fill-opacity="1"></path><path clip-path="url(#clip850)" d="M838.75 18.8205 L838.75 41.5461 L849.039 41.5461 Q854.751 41.5461 857.87 38.5889 Q860.99 35.6318 860.99 30.163 Q860.99 24.7348 857.87 21.7777 Q854.751 18.8205 849.039 18.8205 L838.75 18.8205 M830.567 12.096 L849.039 12.096 Q859.207 12.096 864.392 16.714 Q869.618 21.2916 869.618 30.163 Q869.618 39.1155 864.392 43.6931 Q859.207 48.2706 849.039 48.2706 L838.75 48.2706 L838.75 72.576 L830.567 72.576 L830.567 12.096 Z" fill="#000000" fill-rule="nonzero" fill-opacity="1"></path><polyline clip-path="url(#clip852)" style="stroke:#009af9; stroke-linecap:round; stroke-linejoin:round; stroke-width:4; stroke-opacity:1; fill:none" points="241.361,162.047 250.291,172.215 259.221,182.425 268.151,192.676 277.081,202.97 286.011,213.307 294.941,223.687 303.871,234.11 312.801,244.577 321.731,255.088 330.661,265.644 339.591,276.244 348.521,286.889 357.451,297.58 366.381,308.317 375.312,319.1 384.242,329.93 393.172,340.807 402.102,351.731 411.032,362.704 419.962,373.724 428.892,384.793 437.822,395.911 446.752,407.079 455.682,418.296 464.612,429.564 473.542,440.883 482.472,452.253 491.402,463.675 500.332,475.149 509.262,486.675 518.192,498.255 527.122,509.888 536.052,521.576 544.982,533.318 553.912,545.115 562.842,556.967 571.772,568.876 580.702,580.842 589.633,592.864 598.563,604.945 607.493,617.084 616.423,629.282 625.353,641.539 634.283,653.856 643.213,666.234 652.143,678.673 661.073,691.175 670.003,703.738 678.933,716.365 687.863,729.056 696.793,741.811 705.723,754.632 714.653,767.518 723.583,780.471 732.513,793.492 741.443,806.58 750.373,819.737 759.303,832.964 768.233,846.261 777.163,859.63 786.093,873.07 795.024,886.584 803.954,900.171 812.884,913.832 821.814,927.57 830.744,941.383 839.674,955.274 848.604,969.244 857.534,983.292 866.464,997.421 875.394,1011.63 884.324,1025.92 893.254,1040.3 902.184,1054.76 911.114,1069.31 920.044,1083.94 928.974,1098.66 937.904,1113.48 946.834,1128.38 955.764,1143.37 964.694,1158.46 973.624,1173.64 982.554,1188.92 991.484,1204.3 1000.41,1219.77 1009.34,1235.35 1018.27,1251.03 1027.2,1266.81 1036.13,1282.7 1045.06,1298.7 1053.99,1314.81 1062.92,1331.03 1071.85,1347.36 1080.78,1363.81 1089.71,1380.38 1098.64,1397.06 1107.57,1413.87 1116.51,1430.81 1125.44,1447.87 "></polyline>
<path clip-path="url(#clip850)" d="M1415.64 1486.45 L2352.76 1486.45 L2352.76 123.472 L1415.64 123.472  Z" fill="#ffffff" fill-rule="evenodd" fill-opacity="1"></path>
<defs>
  <clipPath id="clip853">
    <rect x="1415" y="123" width="938" height="1364"></rect>
  </clipPath>
</defs>
<polyline clip-path="url(#clip853)" style="stroke:#000000; stroke-linecap:round; stroke-linejoin:round; stroke-width:2; stroke-opacity:0.1; fill:none" points="1442.16,1486.45 1442.16,123.472 "></polyline>
<polyline clip-path="url(#clip853)" style="stroke:#000000; stroke-linecap:round; stroke-linejoin:round; stroke-width:2; stroke-opacity:0.1; fill:none" points="1663.18,1486.45 1663.18,123.472 "></polyline>
<polyline clip-path="url(#clip853)" style="stroke:#000000; stroke-linecap:round; stroke-linejoin:round; stroke-width:2; stroke-opacity:0.1; fill:none" points="1884.2,1486.45 1884.2,123.472 "></polyline>
<polyline clip-path="url(#clip853)" style="stroke:#000000; stroke-linecap:round; stroke-linejoin:round; stroke-width:2; stroke-opacity:0.1; fill:none" points="2105.22,1486.45 2105.22,123.472 "></polyline>
<polyline clip-path="url(#clip853)" style="stroke:#000000; stroke-linecap:round; stroke-linejoin:round; stroke-width:2; stroke-opacity:0.1; fill:none" points="2326.23,1486.45 2326.23,123.472 "></polyline>
<polyline clip-path="url(#clip850)" style="stroke:#000000; stroke-linecap:round; stroke-linejoin:round; stroke-width:4; stroke-opacity:1; fill:none" points="1415.64,1486.45 2352.76,1486.45 "></polyline>
<polyline clip-path="url(#clip850)" style="stroke:#000000; stroke-linecap:round; stroke-linejoin:round; stroke-width:4; stroke-opacity:1; fill:none" points="1442.16,1486.45 1442.16,1467.55 "></polyline>
<polyline clip-path="url(#clip850)" style="stroke:#000000; stroke-linecap:round; stroke-linejoin:round; stroke-width:4; stroke-opacity:1; fill:none" points="1663.18,1486.45 1663.18,1467.55 "></polyline>
<polyline clip-path="url(#clip850)" style="stroke:#000000; stroke-linecap:round; stroke-linejoin:round; stroke-width:4; stroke-opacity:1; fill:none" points="1884.2,1486.45 1884.2,1467.55 "></polyline>
<polyline clip-path="url(#clip850)" style="stroke:#000000; stroke-linecap:round; stroke-linejoin:round; stroke-width:4; stroke-opacity:1; fill:none" points="2105.22,1486.45 2105.22,1467.55 "></polyline>
<polyline clip-path="url(#clip850)" style="stroke:#000000; stroke-linecap:round; stroke-linejoin:round; stroke-width:4; stroke-opacity:1; fill:none" points="2326.23,1486.45 2326.23,1467.55 "></polyline>
<path clip-path="url(#clip850)" d="M1404.46 1517.37 Q1400.85 1517.37 1399.02 1520.93 Q1397.22 1524.47 1397.22 1531.6 Q1397.22 1538.71 1399.02 1542.27 Q1400.85 1545.82 1404.46 1545.82 Q1408.1 1545.82 1409.9 1542.27 Q1411.73 1538.71 1411.73 1531.6 Q1411.73 1524.47 1409.9 1520.93 Q1408.1 1517.37 1404.46 1517.37 M1404.46 1513.66 Q1410.27 1513.66 1413.33 1518.27 Q1416.41 1522.85 1416.41 1531.6 Q1416.41 1540.33 1413.33 1544.94 Q1410.27 1549.52 1404.46 1549.52 Q1398.65 1549.52 1395.57 1544.94 Q1392.52 1540.33 1392.52 1531.6 Q1392.52 1522.85 1395.57 1518.27 Q1398.65 1513.66 1404.46 1513.66 Z" fill="#000000" fill-rule="nonzero" fill-opacity="1"></path><path clip-path="url(#clip850)" d="M1424.62 1542.97 L1429.51 1542.97 L1429.51 1548.85 L1424.62 1548.85 L1424.62 1542.97 Z" fill="#000000" fill-rule="nonzero" fill-opacity="1"></path><path clip-path="url(#clip850)" d="M1449.69 1517.37 Q1446.08 1517.37 1444.25 1520.93 Q1442.45 1524.47 1442.45 1531.6 Q1442.45 1538.71 1444.25 1542.27 Q1446.08 1545.82 1449.69 1545.82 Q1453.33 1545.82 1455.13 1542.27 Q1456.96 1538.71 1456.96 1531.6 Q1456.96 1524.47 1455.13 1520.93 Q1453.33 1517.37 1449.69 1517.37 M1449.69 1513.66 Q1455.5 1513.66 1458.56 1518.27 Q1461.64 1522.85 1461.64 1531.6 Q1461.64 1540.33 1458.56 1544.94 Q1455.5 1549.52 1449.69 1549.52 Q1443.88 1549.52 1440.81 1544.94 Q1437.75 1540.33 1437.75 1531.6 Q1437.75 1522.85 1440.81 1518.27 Q1443.88 1513.66 1449.69 1513.66 Z" fill="#000000" fill-rule="nonzero" fill-opacity="1"></path><path clip-path="url(#clip850)" d="M1479.86 1517.37 Q1476.24 1517.37 1474.42 1520.93 Q1472.61 1524.47 1472.61 1531.6 Q1472.61 1538.71 1474.42 1542.27 Q1476.24 1545.82 1479.86 1545.82 Q1483.49 1545.82 1485.3 1542.27 Q1487.12 1538.71 1487.12 1531.6 Q1487.12 1524.47 1485.3 1520.93 Q1483.49 1517.37 1479.86 1517.37 M1479.86 1513.66 Q1485.67 1513.66 1488.72 1518.27 Q1491.8 1522.85 1491.8 1531.6 Q1491.8 1540.33 1488.72 1544.94 Q1485.67 1549.52 1479.86 1549.52 Q1474.05 1549.52 1470.97 1544.94 Q1467.91 1540.33 1467.91 1531.6 Q1467.91 1522.85 1470.97 1518.27 Q1474.05 1513.66 1479.86 1513.66 Z" fill="#000000" fill-rule="nonzero" fill-opacity="1"></path><path clip-path="url(#clip850)" d="M1625.98 1517.37 Q1622.37 1517.37 1620.54 1520.93 Q1618.73 1524.47 1618.73 1531.6 Q1618.73 1538.71 1620.54 1542.27 Q1622.37 1545.82 1625.98 1545.82 Q1629.61 1545.82 1631.42 1542.27 Q1633.25 1538.71 1633.25 1531.6 Q1633.25 1524.47 1631.42 1520.93 Q1629.61 1517.37 1625.98 1517.37 M1625.98 1513.66 Q1631.79 1513.66 1634.84 1518.27 Q1637.92 1522.85 1637.92 1531.6 Q1637.92 1540.33 1634.84 1544.94 Q1631.79 1549.52 1625.98 1549.52 Q1620.17 1549.52 1617.09 1544.94 Q1614.03 1540.33 1614.03 1531.6 Q1614.03 1522.85 1617.09 1518.27 Q1620.17 1513.66 1625.98 1513.66 Z" fill="#000000" fill-rule="nonzero" fill-opacity="1"></path><path clip-path="url(#clip850)" d="M1646.14 1542.97 L1651.03 1542.97 L1651.03 1548.85 L1646.14 1548.85 L1646.14 1542.97 Z" fill="#000000" fill-rule="nonzero" fill-opacity="1"></path><path clip-path="url(#clip850)" d="M1665.24 1544.91 L1681.56 1544.91 L1681.56 1548.85 L1659.61 1548.85 L1659.61 1544.91 Q1662.28 1542.16 1666.86 1537.53 Q1671.47 1532.88 1672.65 1531.53 Q1674.89 1529.01 1675.77 1527.27 Q1676.67 1525.51 1676.67 1523.82 Q1676.67 1521.07 1674.73 1519.33 Q1672.81 1517.6 1669.71 1517.6 Q1667.51 1517.6 1665.05 1518.36 Q1662.62 1519.13 1659.84 1520.68 L1659.84 1515.95 Q1662.67 1514.82 1665.12 1514.24 Q1667.58 1513.66 1669.61 1513.66 Q1674.98 1513.66 1678.18 1516.35 Q1681.37 1519.03 1681.37 1523.52 Q1681.37 1525.65 1680.56 1527.57 Q1679.78 1529.47 1677.67 1532.07 Q1677.09 1532.74 1673.99 1535.95 Q1670.89 1539.15 1665.24 1544.91 Z" fill="#000000" fill-rule="nonzero" fill-opacity="1"></path><path clip-path="url(#clip850)" d="M1691.42 1514.29 L1709.78 1514.29 L1709.78 1518.22 L1695.7 1518.22 L1695.7 1526.7 Q1696.72 1526.35 1697.74 1526.19 Q1698.76 1526 1699.78 1526 Q1705.56 1526 1708.94 1529.17 Q1712.32 1532.34 1712.32 1537.76 Q1712.32 1543.34 1708.85 1546.44 Q1705.38 1549.52 1699.06 1549.52 Q1696.88 1549.52 1694.61 1549.15 Q1692.37 1548.78 1689.96 1548.04 L1689.96 1543.34 Q1692.04 1544.47 1694.27 1545.03 Q1696.49 1545.58 1698.96 1545.58 Q1702.97 1545.58 1705.31 1543.48 Q1707.65 1541.37 1707.65 1537.76 Q1707.65 1534.15 1705.31 1532.04 Q1702.97 1529.94 1698.96 1529.94 Q1697.09 1529.94 1695.21 1530.35 Q1693.36 1530.77 1691.42 1531.65 L1691.42 1514.29 Z" fill="#000000" fill-rule="nonzero" fill-opacity="1"></path><path clip-path="url(#clip850)" d="M1846.5 1517.37 Q1842.89 1517.37 1841.06 1520.93 Q1839.25 1524.47 1839.25 1531.6 Q1839.25 1538.71 1841.06 1542.27 Q1842.89 1545.82 1846.5 1545.82 Q1850.13 1545.82 1851.94 1542.27 Q1853.77 1538.71 1853.77 1531.6 Q1853.77 1524.47 1851.94 1520.93 Q1850.13 1517.37 1846.5 1517.37 M1846.5 1513.66 Q1852.31 1513.66 1855.37 1518.27 Q1858.44 1522.85 1858.44 1531.6 Q1858.44 1540.33 1855.37 1544.94 Q1852.31 1549.52 1846.5 1549.52 Q1840.69 1549.52 1837.61 1544.94 Q1834.56 1540.33 1834.56 1531.6 Q1834.56 1522.85 1837.61 1518.27 Q1840.69 1513.66 1846.5 1513.66 Z" fill="#000000" fill-rule="nonzero" fill-opacity="1"></path><path clip-path="url(#clip850)" d="M1866.66 1542.97 L1871.55 1542.97 L1871.55 1548.85 L1866.66 1548.85 L1866.66 1542.97 Z" fill="#000000" fill-rule="nonzero" fill-opacity="1"></path><path clip-path="url(#clip850)" d="M1881.78 1514.29 L1900.13 1514.29 L1900.13 1518.22 L1886.06 1518.22 L1886.06 1526.7 Q1887.08 1526.35 1888.1 1526.19 Q1889.12 1526 1890.13 1526 Q1895.92 1526 1899.3 1529.17 Q1902.68 1532.34 1902.68 1537.76 Q1902.68 1543.34 1899.21 1546.44 Q1895.74 1549.52 1889.42 1549.52 Q1887.24 1549.52 1884.97 1549.15 Q1882.73 1548.78 1880.32 1548.04 L1880.32 1543.34 Q1882.4 1544.47 1884.62 1545.03 Q1886.85 1545.58 1889.32 1545.58 Q1893.33 1545.58 1895.67 1543.48 Q1898 1541.37 1898 1537.76 Q1898 1534.15 1895.67 1532.04 Q1893.33 1529.94 1889.32 1529.94 Q1887.45 1529.94 1885.57 1530.35 Q1883.72 1530.77 1881.78 1531.65 L1881.78 1514.29 Z" fill="#000000" fill-rule="nonzero" fill-opacity="1"></path><path clip-path="url(#clip850)" d="M1921.89 1517.37 Q1918.28 1517.37 1916.45 1520.93 Q1914.65 1524.47 1914.65 1531.6 Q1914.65 1538.71 1916.45 1542.27 Q1918.28 1545.82 1921.89 1545.82 Q1925.53 1545.82 1927.33 1542.27 Q1929.16 1538.71 1929.16 1531.6 Q1929.16 1524.47 1927.33 1520.93 Q1925.53 1517.37 1921.89 1517.37 M1921.89 1513.66 Q1927.7 1513.66 1930.76 1518.27 Q1933.84 1522.85 1933.84 1531.6 Q1933.84 1540.33 1930.76 1544.94 Q1927.7 1549.52 1921.89 1549.52 Q1916.08 1549.52 1913 1544.94 Q1909.95 1540.33 1909.95 1531.6 Q1909.95 1522.85 1913 1518.27 Q1916.08 1513.66 1921.89 1513.66 Z" fill="#000000" fill-rule="nonzero" fill-opacity="1"></path><path clip-path="url(#clip850)" d="M2068.02 1517.37 Q2064.41 1517.37 2062.58 1520.93 Q2060.77 1524.47 2060.77 1531.6 Q2060.77 1538.71 2062.58 1542.27 Q2064.41 1545.82 2068.02 1545.82 Q2071.65 1545.82 2073.46 1542.27 Q2075.28 1538.71 2075.28 1531.6 Q2075.28 1524.47 2073.46 1520.93 Q2071.65 1517.37 2068.02 1517.37 M2068.02 1513.66 Q2073.83 1513.66 2076.88 1518.27 Q2079.96 1522.85 2079.96 1531.6 Q2079.96 1540.33 2076.88 1544.94 Q2073.83 1549.52 2068.02 1549.52 Q2062.21 1549.52 2059.13 1544.94 Q2056.07 1540.33 2056.07 1531.6 Q2056.07 1522.85 2059.13 1518.27 Q2062.21 1513.66 2068.02 1513.66 Z" fill="#000000" fill-rule="nonzero" fill-opacity="1"></path><path clip-path="url(#clip850)" d="M2088.18 1542.97 L2093.06 1542.97 L2093.06 1548.85 L2088.18 1548.85 L2088.18 1542.97 Z" fill="#000000" fill-rule="nonzero" fill-opacity="1"></path><path clip-path="url(#clip850)" d="M2102.07 1514.29 L2124.29 1514.29 L2124.29 1516.28 L2111.74 1548.85 L2106.86 1548.85 L2118.66 1518.22 L2102.07 1518.22 L2102.07 1514.29 Z" fill="#000000" fill-rule="nonzero" fill-opacity="1"></path><path clip-path="url(#clip850)" d="M2133.46 1514.29 L2151.81 1514.29 L2151.81 1518.22 L2137.74 1518.22 L2137.74 1526.7 Q2138.76 1526.35 2139.78 1526.19 Q2140.79 1526 2141.81 1526 Q2147.6 1526 2150.98 1529.17 Q2154.36 1532.34 2154.36 1537.76 Q2154.36 1543.34 2150.89 1546.44 Q2147.41 1549.52 2141.09 1549.52 Q2138.92 1549.52 2136.65 1549.15 Q2134.4 1548.78 2132 1548.04 L2132 1543.34 Q2134.08 1544.47 2136.3 1545.03 Q2138.53 1545.58 2141 1545.58 Q2145.01 1545.58 2147.34 1543.48 Q2149.68 1541.37 2149.68 1537.76 Q2149.68 1534.15 2147.34 1532.04 Q2145.01 1529.94 2141 1529.94 Q2139.13 1529.94 2137.25 1530.35 Q2135.4 1530.77 2133.46 1531.65 L2133.46 1514.29 Z" fill="#000000" fill-rule="nonzero" fill-opacity="1"></path><path clip-path="url(#clip850)" d="M2278.31 1544.91 L2285.94 1544.91 L2285.94 1518.55 L2277.63 1520.21 L2277.63 1515.95 L2285.9 1514.29 L2290.57 1514.29 L2290.57 1544.91 L2298.21 1544.91 L2298.21 1548.85 L2278.31 1548.85 L2278.31 1544.91 Z" fill="#000000" fill-rule="nonzero" fill-opacity="1"></path><path clip-path="url(#clip850)" d="M2307.66 1542.97 L2312.54 1542.97 L2312.54 1548.85 L2307.66 1548.85 L2307.66 1542.97 Z" fill="#000000" fill-rule="nonzero" fill-opacity="1"></path><path clip-path="url(#clip850)" d="M2332.73 1517.37 Q2329.12 1517.37 2327.29 1520.93 Q2325.48 1524.47 2325.48 1531.6 Q2325.48 1538.71 2327.29 1542.27 Q2329.12 1545.82 2332.73 1545.82 Q2336.36 1545.82 2338.17 1542.27 Q2340 1538.71 2340 1531.6 Q2340 1524.47 2338.17 1520.93 Q2336.36 1517.37 2332.73 1517.37 M2332.73 1513.66 Q2338.54 1513.66 2341.59 1518.27 Q2344.67 1522.85 2344.67 1531.6 Q2344.67 1540.33 2341.59 1544.94 Q2338.54 1549.52 2332.73 1549.52 Q2326.92 1549.52 2323.84 1544.94 Q2320.78 1540.33 2320.78 1531.6 Q2320.78 1522.85 2323.84 1518.27 Q2326.92 1513.66 2332.73 1513.66 Z" fill="#000000" fill-rule="nonzero" fill-opacity="1"></path><path clip-path="url(#clip850)" d="M2362.89 1517.37 Q2359.28 1517.37 2357.45 1520.93 Q2355.64 1524.47 2355.64 1531.6 Q2355.64 1538.71 2357.45 1542.27 Q2359.28 1545.82 2362.89 1545.82 Q2366.52 1545.82 2368.33 1542.27 Q2370.16 1538.71 2370.16 1531.6 Q2370.16 1524.47 2368.33 1520.93 Q2366.52 1517.37 2362.89 1517.37 M2362.89 1513.66 Q2368.7 1513.66 2371.75 1518.27 Q2374.83 1522.85 2374.83 1531.6 Q2374.83 1540.33 2371.75 1544.94 Q2368.7 1549.52 2362.89 1549.52 Q2357.08 1549.52 2354 1544.94 Q2350.94 1540.33 2350.94 1531.6 Q2350.94 1522.85 2354 1518.27 Q2357.08 1513.66 2362.89 1513.66 Z" fill="#000000" fill-rule="nonzero" fill-opacity="1"></path><polyline clip-path="url(#clip853)" style="stroke:#000000; stroke-linecap:round; stroke-linejoin:round; stroke-width:2; stroke-opacity:0.1; fill:none" points="1415.64,1254.5 2352.76,1254.5 "></polyline>
<polyline clip-path="url(#clip853)" style="stroke:#000000; stroke-linecap:round; stroke-linejoin:round; stroke-width:2; stroke-opacity:0.1; fill:none" points="1415.64,1002.24 2352.76,1002.24 "></polyline>
<polyline clip-path="url(#clip853)" style="stroke:#000000; stroke-linecap:round; stroke-linejoin:round; stroke-width:2; stroke-opacity:0.1; fill:none" points="1415.64,749.992 2352.76,749.992 "></polyline>
<polyline clip-path="url(#clip853)" style="stroke:#000000; stroke-linecap:round; stroke-linejoin:round; stroke-width:2; stroke-opacity:0.1; fill:none" points="1415.64,497.74 2352.76,497.74 "></polyline>
<polyline clip-path="url(#clip853)" style="stroke:#000000; stroke-linecap:round; stroke-linejoin:round; stroke-width:2; stroke-opacity:0.1; fill:none" points="1415.64,245.488 2352.76,245.488 "></polyline>
<polyline clip-path="url(#clip850)" style="stroke:#000000; stroke-linecap:round; stroke-linejoin:round; stroke-width:4; stroke-opacity:1; fill:none" points="1415.64,1486.45 1415.64,123.472 "></polyline>
<polyline clip-path="url(#clip850)" style="stroke:#000000; stroke-linecap:round; stroke-linejoin:round; stroke-width:4; stroke-opacity:1; fill:none" points="1415.64,1254.5 1434.53,1254.5 "></polyline>
<polyline clip-path="url(#clip850)" style="stroke:#000000; stroke-linecap:round; stroke-linejoin:round; stroke-width:4; stroke-opacity:1; fill:none" points="1415.64,1002.24 1434.53,1002.24 "></polyline>
<polyline clip-path="url(#clip850)" style="stroke:#000000; stroke-linecap:round; stroke-linejoin:round; stroke-width:4; stroke-opacity:1; fill:none" points="1415.64,749.992 1434.53,749.992 "></polyline>
<polyline clip-path="url(#clip850)" style="stroke:#000000; stroke-linecap:round; stroke-linejoin:round; stroke-width:4; stroke-opacity:1; fill:none" points="1415.64,497.74 1434.53,497.74 "></polyline>
<polyline clip-path="url(#clip850)" style="stroke:#000000; stroke-linecap:round; stroke-linejoin:round; stroke-width:4; stroke-opacity:1; fill:none" points="1415.64,245.488 1434.53,245.488 "></polyline>
<path clip-path="url(#clip850)" d="M1263.13 1240.29 Q1259.52 1240.29 1257.69 1243.86 Q1255.89 1247.4 1255.89 1254.53 Q1255.89 1261.64 1257.69 1265.2 Q1259.52 1268.74 1263.13 1268.74 Q1266.77 1268.74 1268.57 1265.2 Q1270.4 1261.64 1270.4 1254.53 Q1270.4 1247.4 1268.57 1243.86 Q1266.77 1240.29 1263.13 1240.29 M1263.13 1236.59 Q1268.94 1236.59 1272 1241.2 Q1275.08 1245.78 1275.08 1254.53 Q1275.08 1263.26 1272 1267.86 Q1268.94 1272.45 1263.13 1272.45 Q1257.32 1272.45 1254.24 1267.86 Q1251.19 1263.26 1251.19 1254.53 Q1251.19 1245.78 1254.24 1241.2 Q1257.32 1236.59 1263.13 1236.59 Z" fill="#000000" fill-rule="nonzero" fill-opacity="1"></path><path clip-path="url(#clip850)" d="M1283.3 1265.9 L1288.18 1265.9 L1288.18 1271.78 L1283.3 1271.78 L1283.3 1265.9 Z" fill="#000000" fill-rule="nonzero" fill-opacity="1"></path><path clip-path="url(#clip850)" d="M1308.36 1255.36 Q1305.03 1255.36 1303.11 1257.15 Q1301.21 1258.93 1301.21 1262.05 Q1301.21 1265.18 1303.11 1266.96 Q1305.03 1268.74 1308.36 1268.74 Q1311.7 1268.74 1313.62 1266.96 Q1315.54 1265.15 1315.54 1262.05 Q1315.54 1258.93 1313.62 1257.15 Q1311.72 1255.36 1308.36 1255.36 M1303.69 1253.37 Q1300.68 1252.63 1298.99 1250.57 Q1297.32 1248.51 1297.32 1245.55 Q1297.32 1241.41 1300.26 1239 Q1303.23 1236.59 1308.36 1236.59 Q1313.53 1236.59 1316.47 1239 Q1319.41 1241.41 1319.41 1245.55 Q1319.41 1248.51 1317.72 1250.57 Q1316.05 1252.63 1313.06 1253.37 Q1316.44 1254.16 1318.32 1256.45 Q1320.22 1258.74 1320.22 1262.05 Q1320.22 1267.08 1317.14 1269.76 Q1314.08 1272.45 1308.36 1272.45 Q1302.65 1272.45 1299.57 1269.76 Q1296.51 1267.08 1296.51 1262.05 Q1296.51 1258.74 1298.41 1256.45 Q1300.31 1254.16 1303.69 1253.37 M1301.98 1245.99 Q1301.98 1248.67 1303.64 1250.18 Q1305.33 1251.68 1308.36 1251.68 Q1311.37 1251.68 1313.06 1250.18 Q1314.78 1248.67 1314.78 1245.99 Q1314.78 1243.3 1313.06 1241.8 Q1311.37 1240.29 1308.36 1240.29 Q1305.33 1240.29 1303.64 1241.8 Q1301.98 1243.3 1301.98 1245.99 Z" fill="#000000" fill-rule="nonzero" fill-opacity="1"></path><path clip-path="url(#clip850)" d="M1339.11 1252.63 Q1335.96 1252.63 1334.11 1254.78 Q1332.28 1256.94 1332.28 1260.69 Q1332.28 1264.41 1334.11 1266.59 Q1335.96 1268.74 1339.11 1268.74 Q1342.25 1268.74 1344.08 1266.59 Q1345.93 1264.41 1345.93 1260.69 Q1345.93 1256.94 1344.08 1254.78 Q1342.25 1252.63 1339.11 1252.63 M1348.39 1237.98 L1348.39 1242.24 Q1346.63 1241.41 1344.82 1240.97 Q1343.04 1240.53 1341.28 1240.53 Q1336.65 1240.53 1334.2 1243.65 Q1331.77 1246.78 1331.42 1253.09 Q1332.79 1251.08 1334.85 1250.02 Q1336.91 1248.93 1339.38 1248.93 Q1344.59 1248.93 1347.6 1252.1 Q1350.63 1255.25 1350.63 1260.69 Q1350.63 1266.01 1347.48 1269.23 Q1344.34 1272.45 1339.11 1272.45 Q1333.11 1272.45 1329.94 1267.86 Q1326.77 1263.26 1326.77 1254.53 Q1326.77 1246.34 1330.66 1241.47 Q1334.54 1236.59 1341.1 1236.59 Q1342.86 1236.59 1344.64 1236.94 Q1346.44 1237.28 1348.39 1237.98 Z" fill="#000000" fill-rule="nonzero" fill-opacity="1"></path><path clip-path="url(#clip850)" d="M1358.73 1237.22 L1377.09 1237.22 L1377.09 1241.15 L1363.02 1241.15 L1363.02 1249.62 Q1364.04 1249.28 1365.05 1249.11 Q1366.07 1248.93 1367.09 1248.93 Q1372.88 1248.93 1376.26 1252.1 Q1379.64 1255.27 1379.64 1260.69 Q1379.64 1266.27 1376.17 1269.37 Q1372.69 1272.45 1366.37 1272.45 Q1364.2 1272.45 1361.93 1272.08 Q1359.68 1271.71 1357.28 1270.97 L1357.28 1266.27 Q1359.36 1267.4 1361.58 1267.96 Q1363.8 1268.51 1366.28 1268.51 Q1370.29 1268.51 1372.62 1266.4 Q1374.96 1264.3 1374.96 1260.69 Q1374.96 1257.08 1372.62 1254.97 Q1370.29 1252.86 1366.28 1252.86 Q1364.41 1252.86 1362.53 1253.28 Q1360.68 1253.7 1358.73 1254.58 L1358.73 1237.22 Z" fill="#000000" fill-rule="nonzero" fill-opacity="1"></path><path clip-path="url(#clip850)" d="M1262.14 988.042 Q1258.53 988.042 1256.7 991.607 Q1254.89 995.149 1254.89 1002.28 Q1254.89 1009.38 1256.7 1012.95 Q1258.53 1016.49 1262.14 1016.49 Q1265.77 1016.49 1267.58 1012.95 Q1269.41 1009.38 1269.41 1002.28 Q1269.41 995.149 1267.58 991.607 Q1265.77 988.042 1262.14 988.042 M1262.14 984.338 Q1267.95 984.338 1271 988.945 Q1274.08 993.528 1274.08 1002.28 Q1274.08 1011.01 1271 1015.61 Q1267.95 1020.19 1262.14 1020.19 Q1256.33 1020.19 1253.25 1015.61 Q1250.19 1011.01 1250.19 1002.28 Q1250.19 993.528 1253.25 988.945 Q1256.33 984.338 1262.14 984.338 Z" fill="#000000" fill-rule="nonzero" fill-opacity="1"></path><path clip-path="url(#clip850)" d="M1282.3 1013.64 L1287.18 1013.64 L1287.18 1019.52 L1282.3 1019.52 L1282.3 1013.64 Z" fill="#000000" fill-rule="nonzero" fill-opacity="1"></path><path clip-path="url(#clip850)" d="M1307.37 1003.11 Q1304.04 1003.11 1302.11 1004.89 Q1300.22 1006.68 1300.22 1009.8 Q1300.22 1012.93 1302.11 1014.71 Q1304.04 1016.49 1307.37 1016.49 Q1310.7 1016.49 1312.62 1014.71 Q1314.55 1012.9 1314.55 1009.8 Q1314.55 1006.68 1312.62 1004.89 Q1310.73 1003.11 1307.37 1003.11 M1302.69 1001.12 Q1299.68 1000.38 1297.99 998.32 Q1296.33 996.26 1296.33 993.297 Q1296.33 989.153 1299.27 986.746 Q1302.23 984.338 1307.37 984.338 Q1312.53 984.338 1315.47 986.746 Q1318.41 989.153 1318.41 993.297 Q1318.41 996.26 1316.72 998.32 Q1315.05 1000.38 1312.07 1001.12 Q1315.45 1001.91 1317.32 1004.2 Q1319.22 1006.49 1319.22 1009.8 Q1319.22 1014.82 1316.14 1017.51 Q1313.09 1020.19 1307.37 1020.19 Q1301.65 1020.19 1298.57 1017.51 Q1295.52 1014.82 1295.52 1009.8 Q1295.52 1006.49 1297.42 1004.2 Q1299.31 1001.91 1302.69 1001.12 M1300.98 993.737 Q1300.98 996.422 1302.65 997.926 Q1304.34 999.431 1307.37 999.431 Q1310.38 999.431 1312.07 997.926 Q1313.78 996.422 1313.78 993.737 Q1313.78 991.051 1312.07 989.547 Q1310.38 988.042 1307.37 988.042 Q1304.34 988.042 1302.65 989.547 Q1300.98 991.051 1300.98 993.737 Z" fill="#000000" fill-rule="nonzero" fill-opacity="1"></path><path clip-path="url(#clip850)" d="M1326.35 984.963 L1348.57 984.963 L1348.57 986.954 L1336.03 1019.52 L1331.14 1019.52 L1342.95 988.899 L1326.35 988.899 L1326.35 984.963 Z" fill="#000000" fill-rule="nonzero" fill-opacity="1"></path><path clip-path="url(#clip850)" d="M1367.69 988.042 Q1364.08 988.042 1362.25 991.607 Q1360.45 995.149 1360.45 1002.28 Q1360.45 1009.38 1362.25 1012.95 Q1364.08 1016.49 1367.69 1016.49 Q1371.33 1016.49 1373.13 1012.95 Q1374.96 1009.38 1374.96 1002.28 Q1374.96 995.149 1373.13 991.607 Q1371.33 988.042 1367.69 988.042 M1367.69 984.338 Q1373.5 984.338 1376.56 988.945 Q1379.64 993.528 1379.64 1002.28 Q1379.64 1011.01 1376.56 1015.61 Q1373.5 1020.19 1367.69 1020.19 Q1361.88 1020.19 1358.8 1015.61 Q1355.75 1011.01 1355.75 1002.28 Q1355.75 993.528 1358.8 988.945 Q1361.88 984.338 1367.69 984.338 Z" fill="#000000" fill-rule="nonzero" fill-opacity="1"></path><path clip-path="url(#clip850)" d="M1263.13 735.79 Q1259.52 735.79 1257.69 739.355 Q1255.89 742.897 1255.89 750.026 Q1255.89 757.133 1257.69 760.698 Q1259.52 764.239 1263.13 764.239 Q1266.77 764.239 1268.57 760.698 Q1270.4 757.133 1270.4 750.026 Q1270.4 742.897 1268.57 739.355 Q1266.77 735.79 1263.13 735.79 M1263.13 732.087 Q1268.94 732.087 1272 736.693 Q1275.08 741.276 1275.08 750.026 Q1275.08 758.753 1272 763.36 Q1268.94 767.943 1263.13 767.943 Q1257.32 767.943 1254.24 763.36 Q1251.19 758.753 1251.19 750.026 Q1251.19 741.276 1254.24 736.693 Q1257.32 732.087 1263.13 732.087 Z" fill="#000000" fill-rule="nonzero" fill-opacity="1"></path><path clip-path="url(#clip850)" d="M1283.3 761.392 L1288.18 761.392 L1288.18 767.272 L1283.3 767.272 L1283.3 761.392 Z" fill="#000000" fill-rule="nonzero" fill-opacity="1"></path><path clip-path="url(#clip850)" d="M1308.36 750.86 Q1305.03 750.86 1303.11 752.642 Q1301.21 754.425 1301.21 757.55 Q1301.21 760.674 1303.11 762.457 Q1305.03 764.239 1308.36 764.239 Q1311.7 764.239 1313.62 762.457 Q1315.54 760.651 1315.54 757.55 Q1315.54 754.425 1313.62 752.642 Q1311.72 750.86 1308.36 750.86 M1303.69 748.869 Q1300.68 748.128 1298.99 746.068 Q1297.32 744.008 1297.32 741.045 Q1297.32 736.901 1300.26 734.494 Q1303.23 732.087 1308.36 732.087 Q1313.53 732.087 1316.47 734.494 Q1319.41 736.901 1319.41 741.045 Q1319.41 744.008 1317.72 746.068 Q1316.05 748.128 1313.06 748.869 Q1316.44 749.656 1318.32 751.948 Q1320.22 754.239 1320.22 757.55 Q1320.22 762.573 1317.14 765.258 Q1314.08 767.943 1308.36 767.943 Q1302.65 767.943 1299.57 765.258 Q1296.51 762.573 1296.51 757.55 Q1296.51 754.239 1298.41 751.948 Q1300.31 749.656 1303.69 748.869 M1301.98 741.485 Q1301.98 744.17 1303.64 745.675 Q1305.33 747.179 1308.36 747.179 Q1311.37 747.179 1313.06 745.675 Q1314.78 744.17 1314.78 741.485 Q1314.78 738.8 1313.06 737.295 Q1311.37 735.79 1308.36 735.79 Q1305.33 735.79 1303.64 737.295 Q1301.98 738.8 1301.98 741.485 Z" fill="#000000" fill-rule="nonzero" fill-opacity="1"></path><path clip-path="url(#clip850)" d="M1327.35 732.712 L1349.57 732.712 L1349.57 734.702 L1337.02 767.272 L1332.14 767.272 L1343.94 736.647 L1327.35 736.647 L1327.35 732.712 Z" fill="#000000" fill-rule="nonzero" fill-opacity="1"></path><path clip-path="url(#clip850)" d="M1358.73 732.712 L1377.09 732.712 L1377.09 736.647 L1363.02 736.647 L1363.02 745.119 Q1364.04 744.772 1365.05 744.61 Q1366.07 744.425 1367.09 744.425 Q1372.88 744.425 1376.26 747.596 Q1379.64 750.767 1379.64 756.184 Q1379.64 761.762 1376.17 764.864 Q1372.69 767.943 1366.37 767.943 Q1364.2 767.943 1361.93 767.573 Q1359.68 767.202 1357.28 766.461 L1357.28 761.762 Q1359.36 762.897 1361.58 763.452 Q1363.8 764.008 1366.28 764.008 Q1370.29 764.008 1372.62 761.901 Q1374.96 759.795 1374.96 756.184 Q1374.96 752.573 1372.62 750.466 Q1370.29 748.36 1366.28 748.36 Q1364.41 748.36 1362.53 748.776 Q1360.68 749.193 1358.73 750.073 L1358.73 732.712 Z" fill="#000000" fill-rule="nonzero" fill-opacity="1"></path><path clip-path="url(#clip850)" d="M1262.14 483.539 Q1258.53 483.539 1256.7 487.103 Q1254.89 490.645 1254.89 497.775 Q1254.89 504.881 1256.7 508.446 Q1258.53 511.987 1262.14 511.987 Q1265.77 511.987 1267.58 508.446 Q1269.41 504.881 1269.41 497.775 Q1269.41 490.645 1267.58 487.103 Q1265.77 483.539 1262.14 483.539 M1262.14 479.835 Q1267.95 479.835 1271 484.441 Q1274.08 489.025 1274.08 497.775 Q1274.08 506.501 1271 511.108 Q1267.95 515.691 1262.14 515.691 Q1256.33 515.691 1253.25 511.108 Q1250.19 506.501 1250.19 497.775 Q1250.19 489.025 1253.25 484.441 Q1256.33 479.835 1262.14 479.835 Z" fill="#000000" fill-rule="nonzero" fill-opacity="1"></path><path clip-path="url(#clip850)" d="M1282.3 509.14 L1287.18 509.14 L1287.18 515.02 L1282.3 515.02 L1282.3 509.14 Z" fill="#000000" fill-rule="nonzero" fill-opacity="1"></path><path clip-path="url(#clip850)" d="M1307.37 498.608 Q1304.04 498.608 1302.11 500.39 Q1300.22 502.173 1300.22 505.298 Q1300.22 508.423 1302.11 510.205 Q1304.04 511.987 1307.37 511.987 Q1310.7 511.987 1312.62 510.205 Q1314.55 508.4 1314.55 505.298 Q1314.55 502.173 1312.62 500.39 Q1310.73 498.608 1307.37 498.608 M1302.69 496.617 Q1299.68 495.876 1297.99 493.816 Q1296.33 491.756 1296.33 488.793 Q1296.33 484.65 1299.27 482.242 Q1302.23 479.835 1307.37 479.835 Q1312.53 479.835 1315.47 482.242 Q1318.41 484.65 1318.41 488.793 Q1318.41 491.756 1316.72 493.816 Q1315.05 495.876 1312.07 496.617 Q1315.45 497.404 1317.32 499.696 Q1319.22 501.988 1319.22 505.298 Q1319.22 510.321 1316.14 513.006 Q1313.09 515.691 1307.37 515.691 Q1301.65 515.691 1298.57 513.006 Q1295.52 510.321 1295.52 505.298 Q1295.52 501.988 1297.42 499.696 Q1299.31 497.404 1302.69 496.617 M1300.98 489.233 Q1300.98 491.918 1302.65 493.423 Q1304.34 494.927 1307.37 494.927 Q1310.38 494.927 1312.07 493.423 Q1313.78 491.918 1313.78 489.233 Q1313.78 486.548 1312.07 485.043 Q1310.38 483.539 1307.37 483.539 Q1304.34 483.539 1302.65 485.043 Q1300.98 486.548 1300.98 489.233 Z" fill="#000000" fill-rule="nonzero" fill-opacity="1"></path><path clip-path="url(#clip850)" d="M1337.53 498.608 Q1334.2 498.608 1332.28 500.39 Q1330.38 502.173 1330.38 505.298 Q1330.38 508.423 1332.28 510.205 Q1334.2 511.987 1337.53 511.987 Q1340.86 511.987 1342.79 510.205 Q1344.71 508.4 1344.71 505.298 Q1344.71 502.173 1342.79 500.39 Q1340.89 498.608 1337.53 498.608 M1332.86 496.617 Q1329.85 495.876 1328.16 493.816 Q1326.49 491.756 1326.49 488.793 Q1326.49 484.65 1329.43 482.242 Q1332.39 479.835 1337.53 479.835 Q1342.69 479.835 1345.63 482.242 Q1348.57 484.65 1348.57 488.793 Q1348.57 491.756 1346.88 493.816 Q1345.22 495.876 1342.23 496.617 Q1345.61 497.404 1347.48 499.696 Q1349.38 501.988 1349.38 505.298 Q1349.38 510.321 1346.3 513.006 Q1343.25 515.691 1337.53 515.691 Q1331.81 515.691 1328.73 513.006 Q1325.68 510.321 1325.68 505.298 Q1325.68 501.988 1327.58 499.696 Q1329.48 497.404 1332.86 496.617 M1331.14 489.233 Q1331.14 491.918 1332.81 493.423 Q1334.5 494.927 1337.53 494.927 Q1340.54 494.927 1342.23 493.423 Q1343.94 491.918 1343.94 489.233 Q1343.94 486.548 1342.23 485.043 Q1340.54 483.539 1337.53 483.539 Q1334.5 483.539 1332.81 485.043 Q1331.14 486.548 1331.14 489.233 Z" fill="#000000" fill-rule="nonzero" fill-opacity="1"></path><path clip-path="url(#clip850)" d="M1367.69 483.539 Q1364.08 483.539 1362.25 487.103 Q1360.45 490.645 1360.45 497.775 Q1360.45 504.881 1362.25 508.446 Q1364.08 511.987 1367.69 511.987 Q1371.33 511.987 1373.13 508.446 Q1374.96 504.881 1374.96 497.775 Q1374.96 490.645 1373.13 487.103 Q1371.33 483.539 1367.69 483.539 M1367.69 479.835 Q1373.5 479.835 1376.56 484.441 Q1379.64 489.025 1379.64 497.775 Q1379.64 506.501 1376.56 511.108 Q1373.5 515.691 1367.69 515.691 Q1361.88 515.691 1358.8 511.108 Q1355.75 506.501 1355.75 497.775 Q1355.75 489.025 1358.8 484.441 Q1361.88 479.835 1367.69 479.835 Z" fill="#000000" fill-rule="nonzero" fill-opacity="1"></path><path clip-path="url(#clip850)" d="M1263.13 231.287 Q1259.52 231.287 1257.69 234.852 Q1255.89 238.393 1255.89 245.523 Q1255.89 252.629 1257.69 256.194 Q1259.52 259.736 1263.13 259.736 Q1266.77 259.736 1268.57 256.194 Q1270.4 252.629 1270.4 245.523 Q1270.4 238.393 1268.57 234.852 Q1266.77 231.287 1263.13 231.287 M1263.13 227.583 Q1268.94 227.583 1272 232.19 Q1275.08 236.773 1275.08 245.523 Q1275.08 254.25 1272 258.856 Q1268.94 263.439 1263.13 263.439 Q1257.32 263.439 1254.24 258.856 Q1251.19 254.25 1251.19 245.523 Q1251.19 236.773 1254.24 232.19 Q1257.32 227.583 1263.13 227.583 Z" fill="#000000" fill-rule="nonzero" fill-opacity="1"></path><path clip-path="url(#clip850)" d="M1283.3 256.888 L1288.18 256.888 L1288.18 262.768 L1283.3 262.768 L1283.3 256.888 Z" fill="#000000" fill-rule="nonzero" fill-opacity="1"></path><path clip-path="url(#clip850)" d="M1308.36 246.356 Q1305.03 246.356 1303.11 248.139 Q1301.21 249.921 1301.21 253.046 Q1301.21 256.171 1303.11 257.953 Q1305.03 259.736 1308.36 259.736 Q1311.7 259.736 1313.62 257.953 Q1315.54 256.148 1315.54 253.046 Q1315.54 249.921 1313.62 248.139 Q1311.72 246.356 1308.36 246.356 M1303.69 244.365 Q1300.68 243.625 1298.99 241.564 Q1297.32 239.504 1297.32 236.541 Q1297.32 232.398 1300.26 229.99 Q1303.23 227.583 1308.36 227.583 Q1313.53 227.583 1316.47 229.99 Q1319.41 232.398 1319.41 236.541 Q1319.41 239.504 1317.72 241.564 Q1316.05 243.625 1313.06 244.365 Q1316.44 245.152 1318.32 247.444 Q1320.22 249.736 1320.22 253.046 Q1320.22 258.069 1317.14 260.754 Q1314.08 263.439 1308.36 263.439 Q1302.65 263.439 1299.57 260.754 Q1296.51 258.069 1296.51 253.046 Q1296.51 249.736 1298.41 247.444 Q1300.31 245.152 1303.69 244.365 M1301.98 236.981 Q1301.98 239.666 1303.64 241.171 Q1305.33 242.676 1308.36 242.676 Q1311.37 242.676 1313.06 241.171 Q1314.78 239.666 1314.78 236.981 Q1314.78 234.296 1313.06 232.791 Q1311.37 231.287 1308.36 231.287 Q1305.33 231.287 1303.64 232.791 Q1301.98 234.296 1301.98 236.981 Z" fill="#000000" fill-rule="nonzero" fill-opacity="1"></path><path clip-path="url(#clip850)" d="M1338.53 246.356 Q1335.19 246.356 1333.27 248.139 Q1331.37 249.921 1331.37 253.046 Q1331.37 256.171 1333.27 257.953 Q1335.19 259.736 1338.53 259.736 Q1341.86 259.736 1343.78 257.953 Q1345.7 256.148 1345.7 253.046 Q1345.7 249.921 1343.78 248.139 Q1341.88 246.356 1338.53 246.356 M1333.85 244.365 Q1330.84 243.625 1329.15 241.564 Q1327.48 239.504 1327.48 236.541 Q1327.48 232.398 1330.42 229.99 Q1333.39 227.583 1338.53 227.583 Q1343.69 227.583 1346.63 229.99 Q1349.57 232.398 1349.57 236.541 Q1349.57 239.504 1347.88 241.564 Q1346.21 243.625 1343.23 244.365 Q1346.61 245.152 1348.48 247.444 Q1350.38 249.736 1350.38 253.046 Q1350.38 258.069 1347.3 260.754 Q1344.24 263.439 1338.53 263.439 Q1332.81 263.439 1329.73 260.754 Q1326.67 258.069 1326.67 253.046 Q1326.67 249.736 1328.57 247.444 Q1330.47 245.152 1333.85 244.365 M1332.14 236.981 Q1332.14 239.666 1333.8 241.171 Q1335.49 242.676 1338.53 242.676 Q1341.54 242.676 1343.23 241.171 Q1344.94 239.666 1344.94 236.981 Q1344.94 234.296 1343.23 232.791 Q1341.54 231.287 1338.53 231.287 Q1335.49 231.287 1333.8 232.791 Q1332.14 234.296 1332.14 236.981 Z" fill="#000000" fill-rule="nonzero" fill-opacity="1"></path><path clip-path="url(#clip850)" d="M1358.73 228.208 L1377.09 228.208 L1377.09 232.143 L1363.02 232.143 L1363.02 240.615 Q1364.04 240.268 1365.05 240.106 Q1366.07 239.921 1367.09 239.921 Q1372.88 239.921 1376.26 243.092 Q1379.64 246.264 1379.64 251.68 Q1379.64 257.259 1376.17 260.361 Q1372.69 263.439 1366.37 263.439 Q1364.2 263.439 1361.93 263.069 Q1359.68 262.699 1357.28 261.958 L1357.28 257.259 Q1359.36 258.393 1361.58 258.949 Q1363.8 259.504 1366.28 259.504 Q1370.29 259.504 1372.62 257.398 Q1374.96 255.291 1374.96 251.68 Q1374.96 248.069 1372.62 245.963 Q1370.29 243.856 1366.28 243.856 Q1364.41 243.856 1362.53 244.273 Q1360.68 244.689 1358.73 245.569 L1358.73 228.208 Z" fill="#000000" fill-rule="nonzero" fill-opacity="1"></path><path clip-path="url(#clip850)" d="M1615.82 12.096 L1626.84 12.096 L1653.66 62.6918 L1653.66 12.096 L1661.6 12.096 L1661.6 72.576 L1650.58 72.576 L1623.76 21.9802 L1623.76 72.576 L1615.82 72.576 L1615.82 12.096 Z" fill="#000000" fill-rule="nonzero" fill-opacity="1"></path><path clip-path="url(#clip850)" d="M1695.14 32.4315 Q1689.15 32.4315 1685.66 37.1306 Q1682.18 41.7891 1682.18 49.9314 Q1682.18 58.0738 1685.62 62.7728 Q1689.11 67.4314 1695.14 67.4314 Q1701.1 67.4314 1704.58 62.7323 Q1708.06 58.0333 1708.06 49.9314 Q1708.06 41.8701 1704.58 37.1711 Q1701.1 32.4315 1695.14 32.4315 M1695.14 26.1121 Q1704.86 26.1121 1710.41 32.4315 Q1715.96 38.7509 1715.96 49.9314 Q1715.96 61.0714 1710.41 67.4314 Q1704.86 73.7508 1695.14 73.7508 Q1685.38 73.7508 1679.83 67.4314 Q1674.32 61.0714 1674.32 49.9314 Q1674.32 38.7509 1679.83 32.4315 Q1685.38 26.1121 1695.14 26.1121 Z" fill="#000000" fill-rule="nonzero" fill-opacity="1"></path><path clip-path="url(#clip850)" d="M1763.64 35.9153 Q1766.44 30.8922 1770.33 28.5022 Q1774.21 26.1121 1779.48 26.1121 Q1786.57 26.1121 1790.42 31.0947 Q1794.27 36.0368 1794.27 45.1919 L1794.27 72.576 L1786.77 72.576 L1786.77 45.4349 Q1786.77 38.913 1784.46 35.7533 Q1782.15 32.5936 1777.41 32.5936 Q1771.62 32.5936 1768.26 36.4419 Q1764.9 40.2903 1764.9 46.9338 L1764.9 72.576 L1757.4 72.576 L1757.4 45.4349 Q1757.4 38.8725 1755.09 35.7533 Q1752.79 32.5936 1747.96 32.5936 Q1742.25 32.5936 1738.89 36.4824 Q1735.53 40.3308 1735.53 46.9338 L1735.53 72.576 L1728.03 72.576 L1728.03 27.2059 L1735.53 27.2059 L1735.53 34.2544 Q1738.08 30.082 1741.65 28.0971 Q1745.21 26.1121 1750.11 26.1121 Q1755.05 26.1121 1758.5 28.6237 Q1761.98 31.1352 1763.64 35.9153 Z" fill="#000000" fill-rule="nonzero" fill-opacity="1"></path><path clip-path="url(#clip850)" d="M1809.13 27.2059 L1816.59 27.2059 L1816.59 72.576 L1809.13 72.576 L1809.13 27.2059 M1809.13 9.54393 L1816.59 9.54393 L1816.59 18.9825 L1809.13 18.9825 L1809.13 9.54393 Z" fill="#000000" fill-rule="nonzero" fill-opacity="1"></path><path clip-path="url(#clip850)" d="M1869.9 45.1919 L1869.9 72.576 L1862.44 72.576 L1862.44 45.4349 Q1862.44 38.994 1859.93 35.7938 Q1857.42 32.5936 1852.4 32.5936 Q1846.36 32.5936 1842.88 36.4419 Q1839.39 40.2903 1839.39 46.9338 L1839.39 72.576 L1831.9 72.576 L1831.9 27.2059 L1839.39 27.2059 L1839.39 34.2544 Q1842.07 30.163 1845.67 28.1376 Q1849.32 26.1121 1854.06 26.1121 Q1861.88 26.1121 1865.89 30.9732 Q1869.9 35.7938 1869.9 45.1919 Z" fill="#000000" fill-rule="nonzero" fill-opacity="1"></path><path clip-path="url(#clip850)" d="M1905.38 49.7694 Q1896.35 49.7694 1892.87 51.8354 Q1889.38 53.9013 1889.38 58.8839 Q1889.38 62.8538 1891.97 65.2034 Q1894.61 67.5124 1899.1 67.5124 Q1905.3 67.5124 1909.03 63.1374 Q1912.8 58.7219 1912.8 51.4303 L1912.8 49.7694 L1905.38 49.7694 M1920.25 46.6907 L1920.25 72.576 L1912.8 72.576 L1912.8 65.6895 Q1910.24 69.8214 1906.44 71.8063 Q1902.63 73.7508 1897.12 73.7508 Q1890.15 73.7508 1886.02 69.8619 Q1881.93 65.9325 1881.93 59.3701 Q1881.93 51.7138 1887.03 47.825 Q1892.18 43.9361 1902.34 43.9361 L1912.8 43.9361 L1912.8 43.2069 Q1912.8 38.0623 1909.39 35.2672 Q1906.03 32.4315 1899.91 32.4315 Q1896.03 32.4315 1892.34 33.3632 Q1888.65 34.295 1885.25 36.1584 L1885.25 29.2718 Q1889.34 27.692 1893.19 26.9223 Q1897.04 26.1121 1900.68 26.1121 Q1910.53 26.1121 1915.39 31.2163 Q1920.25 36.3204 1920.25 46.6907 Z" fill="#000000" fill-rule="nonzero" fill-opacity="1"></path><path clip-path="url(#clip850)" d="M1935.6 9.54393 L1943.06 9.54393 L1943.06 72.576 L1935.6 72.576 L1935.6 9.54393 Z" fill="#000000" fill-rule="nonzero" fill-opacity="1"></path><path clip-path="url(#clip850)" d="M2026.59 63.9476 L2026.59 47.7034 L2013.22 47.7034 L2013.22 40.9789 L2034.69 40.9789 L2034.69 66.9452 Q2029.95 70.3075 2024.24 72.0494 Q2018.52 73.7508 2012.04 73.7508 Q1997.86 73.7508 1989.84 65.4869 Q1981.86 57.1826 1981.86 42.3968 Q1981.86 27.5705 1989.84 19.3066 Q1997.86 11.0023 2012.04 11.0023 Q2017.96 11.0023 2023.26 12.4606 Q2028.61 13.9189 2033.11 16.7545 L2033.11 25.464 Q2028.57 21.6156 2023.47 19.6712 Q2018.36 17.7268 2012.73 17.7268 Q2001.63 17.7268 1996.04 23.9246 Q1990.49 30.1225 1990.49 42.3968 Q1990.49 54.6305 1996.04 60.8284 Q2001.63 67.0263 2012.73 67.0263 Q2017.07 67.0263 2020.47 66.2971 Q2023.87 65.5274 2026.59 63.9476 Z" fill="#000000" fill-rule="nonzero" fill-opacity="1"></path><path clip-path="url(#clip850)" d="M2057.82 18.8205 L2057.82 65.8515 L2067.7 65.8515 Q2080.22 65.8515 2086.01 60.1802 Q2091.85 54.509 2091.85 42.2752 Q2091.85 30.1225 2086.01 24.4918 Q2080.22 18.8205 2067.7 18.8205 L2057.82 18.8205 M2049.64 12.096 L2066.45 12.096 Q2084.03 12.096 2092.25 19.4281 Q2100.47 26.7198 2100.47 42.2752 Q2100.47 57.9117 2092.21 65.2439 Q2083.95 72.576 2066.45 72.576 L2049.64 72.576 L2049.64 12.096 Z" fill="#000000" fill-rule="nonzero" fill-opacity="1"></path><path clip-path="url(#clip850)" d="M2121.7 18.8205 L2121.7 41.5461 L2131.99 41.5461 Q2137.7 41.5461 2140.82 38.5889 Q2143.94 35.6318 2143.94 30.163 Q2143.94 24.7348 2140.82 21.7777 Q2137.7 18.8205 2131.99 18.8205 L2121.7 18.8205 M2113.52 12.096 L2131.99 12.096 Q2142.16 12.096 2147.34 16.714 Q2152.57 21.2916 2152.57 30.163 Q2152.57 39.1155 2147.34 43.6931 Q2142.16 48.2706 2131.99 48.2706 L2121.7 48.2706 L2121.7 72.576 L2113.52 72.576 L2113.52 12.096 Z" fill="#000000" fill-rule="nonzero" fill-opacity="1"></path><polyline clip-path="url(#clip853)" style="stroke:#009af9; stroke-linecap:round; stroke-linejoin:round; stroke-width:4; stroke-opacity:1; fill:none" points="1442.16,162.047 1451.09,173.391 1460.02,184.761 1468.95,196.156 1477.88,207.577 1486.81,219.024 1495.74,230.497 1504.67,241.996 1513.6,253.521 1522.53,265.074 1531.46,276.653 1540.39,288.258 1549.32,299.892 1558.25,311.552 1567.18,323.24 1576.11,334.956 1585.04,346.7 1593.97,358.472 1602.9,370.272 1611.83,382.101 1620.76,393.959 1629.69,405.845 1638.62,417.761 1647.55,429.707 1656.48,441.682 1665.41,453.687 1674.34,465.722 1683.27,477.787 1692.2,489.884 1701.13,502.011 1710.06,514.169 1718.99,526.358 1727.92,538.579 1736.85,550.832 1745.78,563.117 1754.71,575.434 1763.64,587.784 1772.57,600.167 1781.5,612.583 1790.43,625.033 1799.36,637.516 1808.29,650.033 1817.22,662.585 1826.15,675.171 1835.08,687.793 1844.01,700.449 1852.94,713.141 1861.87,725.869 1870.8,738.634 1879.73,751.434 1888.66,764.272 1897.59,777.147 1906.52,790.059 1915.45,803.01 1924.38,815.998 1933.31,829.026 1942.24,842.092 1951.17,855.198 1960.1,868.344 1969.03,881.53 1977.96,894.756 1986.89,908.024 1995.82,921.333 2004.75,934.684 2013.68,948.077 2022.61,961.514 2031.54,974.993 2040.47,988.516 2049.4,1002.08 2058.33,1015.7 2067.26,1029.35 2076.19,1043.06 2085.12,1056.81 2094.05,1070.6 2102.98,1084.44 2111.91,1098.34 2120.84,1112.28 2129.77,1126.26 2138.7,1140.3 2147.63,1154.39 2156.56,1168.53 2165.49,1182.72 2174.42,1196.97 2183.35,1211.26 2192.28,1225.62 2201.21,1240.02 2210.14,1254.48 2219.07,1269 2228,1283.57 2236.93,1298.2 2245.86,1312.89 2254.79,1327.64 2263.72,1342.45 2272.65,1357.32 2281.58,1372.25 2290.51,1387.24 2299.44,1402.3 2308.37,1417.42 2317.3,1432.62 2326.23,1447.87 "></polyline>
</svg>