<svg xmlns="http://www.w3.org/2000/svg" xmlns:xlink="http://www.w3.org/1999/xlink" width="1000" height="600" viewBox="0 0 4000 2400">
<defs>
  <clipPath id="clip130">
    <rect x="0" y="0" width="4000" height="2400"></rect>
  </clipPath>
</defs>
<path clip-path="url(#clip130)" d="M0 2400 L4000 2400 L4000 0 L0 0  Z" fill="#ffffff" fill-rule="evenodd" fill-opacity="1"></path>
<defs>
  <clipPath id="clip131">
    <rect x="800" y="0" width="2801" height="2400"></rect>
  </clipPath>
</defs>
<path clip-path="url(#clip130)" d="M230.353 2281.9 L1966.55 2281.9 L1966.55 117.424 L230.353 117.424  Z" fill="#ffffff" fill-rule="evenodd" fill-opacity="1"></path>
<defs>
  <clipPath id="clip132">
    <rect x="230" y="117" width="1737" height="2165"></rect>
  </clipPath>
</defs>
<polyline clip-path="url(#clip132)" style="stroke:#000000; stroke-linecap:round; stroke-linejoin:round; stroke-width:2; stroke-opacity:0.1; fill:none" points="484.231,2281.9 484.231,117.424 "></polyline>
<polyline clip-path="url(#clip132)" style="stroke:#000000; stroke-linecap:round; stroke-linejoin:round; stroke-width:2; stroke-opacity:0.1; fill:none" points="893.712,2281.9 893.712,117.424 "></polyline>
<polyline clip-path="url(#clip132)" style="stroke:#000000; stroke-linecap:round; stroke-linejoin:round; stroke-width:2; stroke-opacity:0.1; fill:none" points="1303.19,2281.9 1303.19,117.424 "></polyline>
<polyline clip-path="url(#clip132)" style="stroke:#000000; stroke-linecap:round; stroke-linejoin:round; stroke-width:2; stroke-opacity:0.1; fill:none" points="1712.67,2281.9 1712.67,117.424 "></polyline>
<polyline clip-path="url(#clip130)" style="stroke:#000000; stroke-linecap:round; stroke-linejoin:round; stroke-width:4; stroke-opacity:1; fill:none" points="230.353,2281.9 1966.55,2281.9 "></polyline>
<polyline clip-path="url(#clip130)" style="stroke:#000000; stroke-linecap:round; stroke-linejoin:round; stroke-width:4; stroke-opacity:1; fill:none" points="484.231,2281.9 484.231,2263.01 "></polyline>
<polyline clip-path="url(#clip130)" style="stroke:#000000; stroke-linecap:round; stroke-linejoin:round; stroke-width:4; stroke-opacity:1; fill:none" points="893.712,2281.9 893.712,2263.01 "></polyline>
<polyline clip-path="url(#clip130)" style="stroke:#000000; stroke-linecap:round; stroke-linejoin:round; stroke-width:4; stroke-opacity:1; fill:none" points="1303.19,2281.9 1303.19,2263.01 "></polyline>
<polyline clip-path="url(#clip130)" style="stroke:#000000; stroke-linecap:round; stroke-linejoin:round; stroke-width:4; stroke-opacity:1; fill:none" points="1712.67,2281.9 1712.67,2263.01 "></polyline>
<path clip-path="url(#clip130)" d="M462.414 2325.62 Q458.803 2325.62 456.974 2329.19 Q455.168 2332.73 455.168 2339.86 Q455.168 2346.97 456.974 2350.53 Q458.803 2354.07 462.414 2354.07 Q466.048 2354.07 467.854 2350.53 Q469.682 2346.97 469.682 2339.86 Q469.682 2332.73 467.854 2329.19 Q466.048 2325.62 462.414 2325.62 M462.414 2321.92 Q468.224 2321.92 471.279 2326.53 Q474.358 2331.11 474.358 2339.86 Q474.358 2348.59 471.279 2353.19 Q468.224 2357.78 462.414 2357.78 Q456.604 2357.78 453.525 2353.19 Q450.469 2348.59 450.469 2339.86 Q450.469 2331.11 453.525 2326.53 Q456.604 2321.92 462.414 2321.92 Z" fill="#000000" fill-rule="nonzero" fill-opacity="1"></path><path clip-path="url(#clip130)" d="M482.576 2351.22 L487.46 2351.22 L487.46 2357.1 L482.576 2357.1 L482.576 2351.22 Z" fill="#000000" fill-rule="nonzero" fill-opacity="1"></path><path clip-path="url(#clip130)" d="M501.673 2353.17 L517.992 2353.17 L517.992 2357.1 L496.048 2357.1 L496.048 2353.17 Q498.71 2350.41 503.293 2345.78 Q507.9 2341.13 509.08 2339.79 Q511.326 2337.27 512.205 2335.53 Q513.108 2333.77 513.108 2332.08 Q513.108 2329.33 511.164 2327.59 Q509.242 2325.85 506.14 2325.85 Q503.941 2325.85 501.488 2326.62 Q499.057 2327.38 496.279 2328.93 L496.279 2324.21 Q499.103 2323.08 501.557 2322.5 Q504.011 2321.92 506.048 2321.92 Q511.418 2321.92 514.613 2324.6 Q517.807 2327.29 517.807 2331.78 Q517.807 2333.91 516.997 2335.83 Q516.21 2337.73 514.103 2340.32 Q513.525 2340.99 510.423 2344.21 Q507.321 2347.4 501.673 2353.17 Z" fill="#000000" fill-rule="nonzero" fill-opacity="1"></path><path clip-path="url(#clip130)" d="M870.853 2325.62 Q867.242 2325.62 865.413 2329.19 Q863.608 2332.73 863.608 2339.86 Q863.608 2346.97 865.413 2350.53 Q867.242 2354.07 870.853 2354.07 Q874.487 2354.07 876.293 2350.53 Q878.122 2346.97 878.122 2339.86 Q878.122 2332.73 876.293 2329.19 Q874.487 2325.62 870.853 2325.62 M870.853 2321.92 Q876.663 2321.92 879.719 2326.53 Q882.798 2331.11 882.798 2339.86 Q882.798 2348.59 879.719 2353.19 Q876.663 2357.78 870.853 2357.78 Q865.043 2357.78 861.964 2353.19 Q858.909 2348.59 858.909 2339.86 Q858.909 2331.11 861.964 2326.53 Q865.043 2321.92 870.853 2321.92 Z" fill="#000000" fill-rule="nonzero" fill-opacity="1"></path><path clip-path="url(#clip130)" d="M891.015 2351.22 L895.899 2351.22 L895.899 2357.1 L891.015 2357.1 L891.015 2351.22 Z" fill="#000000" fill-rule="nonzero" fill-opacity="1"></path><path clip-path="url(#clip130)" d="M918.932 2326.62 L907.126 2345.07 L918.932 2345.07 L918.932 2326.62 M917.705 2322.54 L923.584 2322.54 L923.584 2345.07 L928.515 2345.07 L928.515 2348.96 L923.584 2348.96 L923.584 2357.1 L918.932 2357.1 L918.932 2348.96 L903.33 2348.96 L903.33 2344.44 L917.705 2322.54 Z" fill="#000000" fill-rule="nonzero" fill-opacity="1"></path><path clip-path="url(#clip130)" d="M1280.5 2325.62 Q1276.89 2325.62 1275.06 2329.19 Q1273.25 2332.73 1273.25 2339.86 Q1273.25 2346.97 1275.06 2350.53 Q1276.89 2354.07 1280.5 2354.07 Q1284.13 2354.07 1285.94 2350.53 Q1287.76 2346.97 1287.76 2339.86 Q1287.76 2332.73 1285.94 2329.19 Q1284.13 2325.62 1280.5 2325.62 M1280.5 2321.92 Q1286.31 2321.92 1289.36 2326.53 Q1292.44 2331.11 1292.44 2339.86 Q1292.44 2348.59 1289.36 2353.19 Q1286.31 2357.78 1280.5 2357.78 Q1274.69 2357.78 1271.61 2353.19 Q1268.55 2348.59 1268.55 2339.86 Q1268.55 2331.11 1271.61 2326.53 Q1274.69 2321.92 1280.5 2321.92 Z" fill="#000000" fill-rule="nonzero" fill-opacity="1"></path><path clip-path="url(#clip130)" d="M1300.66 2351.22 L1305.54 2351.22 L1305.54 2357.1 L1300.66 2357.1 L1300.66 2351.22 Z" fill="#000000" fill-rule="nonzero" fill-opacity="1"></path><path clip-path="url(#clip130)" d="M1326.31 2337.96 Q1323.16 2337.96 1321.31 2340.11 Q1319.48 2342.27 1319.48 2346.02 Q1319.48 2349.74 1321.31 2351.92 Q1323.16 2354.07 1326.31 2354.07 Q1329.45 2354.07 1331.28 2351.92 Q1333.13 2349.74 1333.13 2346.02 Q1333.13 2342.27 1331.28 2340.11 Q1329.45 2337.96 1326.31 2337.96 M1335.59 2323.31 L1335.59 2327.57 Q1333.83 2326.73 1332.02 2326.29 Q1330.24 2325.85 1328.48 2325.85 Q1323.85 2325.85 1321.4 2328.98 Q1318.97 2332.1 1318.62 2338.42 Q1319.99 2336.41 1322.05 2335.34 Q1324.11 2334.26 1326.58 2334.26 Q1331.79 2334.26 1334.8 2337.43 Q1337.83 2340.58 1337.83 2346.02 Q1337.83 2351.34 1334.69 2354.56 Q1331.54 2357.78 1326.31 2357.78 Q1320.31 2357.78 1317.14 2353.19 Q1313.97 2348.59 1313.97 2339.86 Q1313.97 2331.66 1317.86 2326.8 Q1321.75 2321.92 1328.3 2321.92 Q1330.06 2321.92 1331.84 2322.27 Q1333.64 2322.61 1335.59 2323.31 Z" fill="#000000" fill-rule="nonzero" fill-opacity="1"></path><path clip-path="url(#clip130)" d="M1690.1 2325.62 Q1686.49 2325.62 1684.66 2329.19 Q1682.86 2332.73 1682.86 2339.86 Q1682.86 2346.97 1684.66 2350.53 Q1686.49 2354.07 1690.1 2354.07 Q1693.74 2354.07 1695.54 2350.53 Q1697.37 2346.97 1697.37 2339.86 Q1697.37 2332.73 1695.54 2329.19 Q1693.74 2325.62 1690.1 2325.62 M1690.1 2321.92 Q1695.91 2321.92 1698.97 2326.53 Q1702.05 2331.11 1702.05 2339.86 Q1702.05 2348.59 1698.97 2353.19 Q1695.91 2357.78 1690.1 2357.78 Q1684.29 2357.78 1681.22 2353.19 Q1678.16 2348.59 1678.16 2339.86 Q1678.16 2331.11 1681.22 2326.53 Q1684.29 2321.92 1690.1 2321.92 Z" fill="#000000" fill-rule="nonzero" fill-opacity="1"></path><path clip-path="url(#clip130)" d="M1710.27 2351.22 L1715.15 2351.22 L1715.15 2357.1 L1710.27 2357.1 L1710.27 2351.22 Z" fill="#000000" fill-rule="nonzero" fill-opacity="1"></path><path clip-path="url(#clip130)" d="M1735.34 2340.69 Q1732 2340.69 1730.08 2342.47 Q1728.18 2344.26 1728.18 2347.38 Q1728.18 2350.51 1730.08 2352.29 Q1732 2354.07 1735.34 2354.07 Q1738.67 2354.07 1740.59 2352.29 Q1742.51 2350.48 1742.51 2347.38 Q1742.51 2344.26 1740.59 2342.47 Q1738.69 2340.69 1735.34 2340.69 M1730.66 2338.7 Q1727.65 2337.96 1725.96 2335.9 Q1724.29 2333.84 1724.29 2330.88 Q1724.29 2326.73 1727.23 2324.33 Q1730.2 2321.92 1735.34 2321.92 Q1740.5 2321.92 1743.44 2324.33 Q1746.38 2326.73 1746.38 2330.88 Q1746.38 2333.84 1744.69 2335.9 Q1743.02 2337.96 1740.03 2338.7 Q1743.41 2339.49 1745.29 2341.78 Q1747.19 2344.07 1747.19 2347.38 Q1747.19 2352.4 1744.11 2355.09 Q1741.05 2357.78 1735.34 2357.78 Q1729.62 2357.78 1726.54 2355.09 Q1723.48 2352.4 1723.48 2347.38 Q1723.48 2344.07 1725.38 2341.78 Q1727.28 2339.49 1730.66 2338.7 M1728.95 2331.32 Q1728.95 2334 1730.61 2335.51 Q1732.3 2337.01 1735.34 2337.01 Q1738.35 2337.01 1740.03 2335.51 Q1741.75 2334 1741.75 2331.32 Q1741.75 2328.63 1740.03 2327.13 Q1738.35 2325.62 1735.34 2325.62 Q1732.3 2325.62 1730.61 2327.13 Q1728.95 2328.63 1728.95 2331.32 Z" fill="#000000" fill-rule="nonzero" fill-opacity="1"></path><polyline clip-path="url(#clip132)" style="stroke:#000000; stroke-linecap:round; stroke-linejoin:round; stroke-width:2; stroke-opacity:0.1; fill:none" points="230.353,2012.89 1966.55,2012.89 "></polyline>
<polyline clip-path="url(#clip132)" style="stroke:#000000; stroke-linecap:round; stroke-linejoin:round; stroke-width:2; stroke-opacity:0.1; fill:none" points="230.353,1541.78 1966.55,1541.78 "></polyline>
<polyline clip-path="url(#clip132)" style="stroke:#000000; stroke-linecap:round; stroke-linejoin:round; stroke-width:2; stroke-opacity:0.1; fill:none" points="230.353,1070.67 1966.55,1070.67 "></polyline>
<polyline clip-path="url(#clip132)" style="stroke:#000000; stroke-linecap:round; stroke-linejoin:round; stroke-width:2; stroke-opacity:0.1; fill:none" points="230.353,599.554 1966.55,599.554 "></polyline>
<polyline clip-path="url(#clip132)" style="stroke:#000000; stroke-linecap:round; stroke-linejoin:round; stroke-width:2; stroke-opacity:0.1; fill:none" points="230.353,128.441 1966.55,128.441 "></polyline>
<polyline clip-path="url(#clip130)" style="stroke:#000000; stroke-linecap:round; stroke-linejoin:round; stroke-width:4; stroke-opacity:1; fill:none" points="230.353,2281.9 230.353,117.424 "></polyline>
<polyline clip-path="url(#clip130)" style="stroke:#000000; stroke-linecap:round; stroke-linejoin:round; stroke-width:4; stroke-opacity:1; fill:none" points="230.353,2012.89 249.25,2012.89 "></polyline>
<polyline clip-path="url(#clip130)" style="stroke:#000000; stroke-linecap:round; stroke-linejoin:round; stroke-width:4; stroke-opacity:1; fill:none" points="230.353,1541.78 249.25,1541.78 "></polyline>
<polyline clip-path="url(#clip130)" style="stroke:#000000; stroke-linecap:round; stroke-linejoin:round; stroke-width:4; stroke-opacity:1; fill:none" points="230.353,1070.67 249.25,1070.67 "></polyline>
<polyline clip-path="url(#clip130)" style="stroke:#000000; stroke-linecap:round; stroke-linejoin:round; stroke-width:4; stroke-opacity:1; fill:none" points="230.353,599.554 249.25,599.554 "></polyline>
<polyline clip-path="url(#clip130)" style="stroke:#000000; stroke-linecap:round; stroke-linejoin:round; stroke-width:4; stroke-opacity:1; fill:none" points="230.353,128.441 249.25,128.441 "></polyline>
<path clip-path="url(#clip130)" d="M43.8486 2026.24 L51.4875 2026.24 L51.4875 1999.87 L43.1773 2001.54 L43.1773 1997.28 L51.4412 1995.61 L56.1171 1995.61 L56.1171 2026.24 L63.7559 2026.24 L63.7559 2030.17 L43.8486 2030.17 L43.8486 2026.24 Z" fill="#000000" fill-rule="nonzero" fill-opacity="1"></path><path clip-path="url(#clip130)" d="M73.2003 2024.29 L78.0845 2024.29 L78.0845 2030.17 L73.2003 2030.17 L73.2003 2024.29 Z" fill="#000000" fill-rule="nonzero" fill-opacity="1"></path><path clip-path="url(#clip130)" d="M98.2696 1998.69 Q94.6585 1998.69 92.8298 2002.25 Q91.0243 2005.8 91.0243 2012.92 Q91.0243 2020.03 92.8298 2023.6 Q94.6585 2027.14 98.2696 2027.14 Q101.904 2027.14 103.709 2023.6 Q105.538 2020.03 105.538 2012.92 Q105.538 2005.8 103.709 2002.25 Q101.904 1998.69 98.2696 1998.69 M98.2696 1994.99 Q104.08 1994.99 107.135 1999.59 Q110.214 2004.17 110.214 2012.92 Q110.214 2021.65 107.135 2026.26 Q104.08 2030.84 98.2696 2030.84 Q92.4595 2030.84 89.3808 2026.26 Q86.3252 2021.65 86.3252 2012.92 Q86.3252 2004.17 89.3808 1999.59 Q92.4595 1994.99 98.2696 1994.99 Z" fill="#000000" fill-rule="nonzero" fill-opacity="1"></path><path clip-path="url(#clip130)" d="M128.431 1998.69 Q124.82 1998.69 122.992 2002.25 Q121.186 2005.8 121.186 2012.92 Q121.186 2020.03 122.992 2023.6 Q124.82 2027.14 128.431 2027.14 Q132.066 2027.14 133.871 2023.6 Q135.7 2020.03 135.7 2012.92 Q135.7 2005.8 133.871 2002.25 Q132.066 1998.69 128.431 1998.69 M128.431 1994.99 Q134.242 1994.99 137.297 1999.59 Q140.376 2004.17 140.376 2012.92 Q140.376 2021.65 137.297 2026.26 Q134.242 2030.84 128.431 2030.84 Q122.621 2030.84 119.543 2026.26 Q116.487 2021.65 116.487 2012.92 Q116.487 2004.17 119.543 1999.59 Q122.621 1994.99 128.431 1994.99 Z" fill="#000000" fill-rule="nonzero" fill-opacity="1"></path><path clip-path="url(#clip130)" d="M148.732 2029.45 L148.732 2025.19 Q150.492 2026.03 152.297 2026.47 Q154.103 2026.91 155.839 2026.91 Q160.468 2026.91 162.899 2023.8 Q165.353 2020.68 165.7 2014.34 Q164.357 2016.33 162.297 2017.39 Q160.237 2018.46 157.737 2018.46 Q152.552 2018.46 149.519 2015.33 Q146.51 2012.18 146.51 2006.74 Q146.51 2001.42 149.658 1998.2 Q152.806 1994.99 158.038 1994.99 Q164.033 1994.99 167.181 1999.59 Q170.353 2004.17 170.353 2012.92 Q170.353 2021.1 166.464 2025.98 Q162.598 2030.84 156.047 2030.84 Q154.288 2030.84 152.482 2030.49 Q150.677 2030.15 148.732 2029.45 M158.038 2014.8 Q161.186 2014.8 163.015 2012.65 Q164.866 2010.49 164.866 2006.74 Q164.866 2003.02 163.015 2000.86 Q161.186 1998.69 158.038 1998.69 Q154.89 1998.69 153.038 2000.86 Q151.209 2003.02 151.209 2006.74 Q151.209 2010.49 153.038 2012.65 Q154.89 2014.8 158.038 2014.8 Z" fill="#000000" fill-rule="nonzero" fill-opacity="1"></path><path clip-path="url(#clip130)" d="M43.6634 1555.12 L51.3023 1555.12 L51.3023 1528.76 L42.9921 1530.42 L42.9921 1526.16 L51.256 1524.5 L55.9319 1524.5 L55.9319 1555.12 L63.5707 1555.12 L63.5707 1559.06 L43.6634 1559.06 L43.6634 1555.12 Z" fill="#000000" fill-rule="nonzero" fill-opacity="1"></path><path clip-path="url(#clip130)" d="M73.0151 1553.18 L77.8993 1553.18 L77.8993 1559.06 L73.0151 1559.06 L73.0151 1553.18 Z" fill="#000000" fill-rule="nonzero" fill-opacity="1"></path><path clip-path="url(#clip130)" d="M98.0844 1527.58 Q94.4733 1527.58 92.6446 1531.14 Q90.8391 1534.68 90.8391 1541.81 Q90.8391 1548.92 92.6446 1552.48 Q94.4733 1556.03 98.0844 1556.03 Q101.719 1556.03 103.524 1552.48 Q105.353 1548.92 105.353 1541.81 Q105.353 1534.68 103.524 1531.14 Q101.719 1527.58 98.0844 1527.58 M98.0844 1523.87 Q103.895 1523.87 106.95 1528.48 Q110.029 1533.06 110.029 1541.81 Q110.029 1550.54 106.95 1555.15 Q103.895 1559.73 98.0844 1559.73 Q92.2743 1559.73 89.1956 1555.15 Q86.14 1550.54 86.14 1541.81 Q86.14 1533.06 89.1956 1528.48 Q92.2743 1523.87 98.0844 1523.87 Z" fill="#000000" fill-rule="nonzero" fill-opacity="1"></path><path clip-path="url(#clip130)" d="M119.057 1555.12 L126.695 1555.12 L126.695 1528.76 L118.385 1530.42 L118.385 1526.16 L126.649 1524.5 L131.325 1524.5 L131.325 1555.12 L138.964 1555.12 L138.964 1559.06 L119.057 1559.06 L119.057 1555.12 Z" fill="#000000" fill-rule="nonzero" fill-opacity="1"></path><path clip-path="url(#clip130)" d="M158.408 1527.58 Q154.797 1527.58 152.968 1531.14 Q151.163 1534.68 151.163 1541.81 Q151.163 1548.92 152.968 1552.48 Q154.797 1556.03 158.408 1556.03 Q162.042 1556.03 163.848 1552.48 Q165.677 1548.92 165.677 1541.81 Q165.677 1534.68 163.848 1531.14 Q162.042 1527.58 158.408 1527.58 M158.408 1523.87 Q164.218 1523.87 167.274 1528.48 Q170.353 1533.06 170.353 1541.81 Q170.353 1550.54 167.274 1555.15 Q164.218 1559.73 158.408 1559.73 Q152.598 1559.73 149.519 1555.15 Q146.464 1550.54 146.464 1541.81 Q146.464 1533.06 149.519 1528.48 Q152.598 1523.87 158.408 1523.87 Z" fill="#000000" fill-rule="nonzero" fill-opacity="1"></path><path clip-path="url(#clip130)" d="M44.8903 1084.01 L52.5291 1084.01 L52.5291 1057.65 L44.219 1059.31 L44.219 1055.05 L52.4828 1053.39 L57.1587 1053.39 L57.1587 1084.01 L64.7976 1084.01 L64.7976 1087.95 L44.8903 1087.95 L44.8903 1084.01 Z" fill="#000000" fill-rule="nonzero" fill-opacity="1"></path><path clip-path="url(#clip130)" d="M74.242 1082.07 L79.1262 1082.07 L79.1262 1087.95 L74.242 1087.95 L74.242 1082.07 Z" fill="#000000" fill-rule="nonzero" fill-opacity="1"></path><path clip-path="url(#clip130)" d="M99.3113 1056.46 Q95.7002 1056.46 93.8715 1060.03 Q92.0659 1063.57 92.0659 1070.7 Q92.0659 1077.81 93.8715 1081.37 Q95.7002 1084.91 99.3113 1084.91 Q102.946 1084.91 104.751 1081.37 Q106.58 1077.81 106.58 1070.7 Q106.58 1063.57 104.751 1060.03 Q102.946 1056.46 99.3113 1056.46 M99.3113 1052.76 Q105.121 1052.76 108.177 1057.37 Q111.256 1061.95 111.256 1070.7 Q111.256 1079.43 108.177 1084.03 Q105.121 1088.62 99.3113 1088.62 Q93.5011 1088.62 90.4224 1084.03 Q87.3669 1079.43 87.3669 1070.7 Q87.3669 1061.95 90.4224 1057.37 Q93.5011 1052.76 99.3113 1052.76 Z" fill="#000000" fill-rule="nonzero" fill-opacity="1"></path><path clip-path="url(#clip130)" d="M120.283 1084.01 L127.922 1084.01 L127.922 1057.65 L119.612 1059.31 L119.612 1055.05 L127.876 1053.39 L132.552 1053.39 L132.552 1084.01 L140.191 1084.01 L140.191 1087.95 L120.283 1087.95 L120.283 1084.01 Z" fill="#000000" fill-rule="nonzero" fill-opacity="1"></path><path clip-path="url(#clip130)" d="M150.445 1084.01 L158.084 1084.01 L158.084 1057.65 L149.774 1059.31 L149.774 1055.05 L158.038 1053.39 L162.714 1053.39 L162.714 1084.01 L170.353 1084.01 L170.353 1087.95 L150.445 1087.95 L150.445 1084.01 Z" fill="#000000" fill-rule="nonzero" fill-opacity="1"></path><path clip-path="url(#clip130)" d="M45.2606 612.898 L52.8995 612.898 L52.8995 586.533 L44.5893 588.199 L44.5893 583.94 L52.8532 582.274 L57.5291 582.274 L57.5291 612.898 L65.1679 612.898 L65.1679 616.834 L45.2606 616.834 L45.2606 612.898 Z" fill="#000000" fill-rule="nonzero" fill-opacity="1"></path><path clip-path="url(#clip130)" d="M74.6123 610.954 L79.4966 610.954 L79.4966 616.834 L74.6123 616.834 L74.6123 610.954 Z" fill="#000000" fill-rule="nonzero" fill-opacity="1"></path><path clip-path="url(#clip130)" d="M99.6816 585.352 Q96.0705 585.352 94.2419 588.917 Q92.4363 592.459 92.4363 599.588 Q92.4363 606.695 94.2419 610.26 Q96.0705 613.801 99.6816 613.801 Q103.316 613.801 105.121 610.26 Q106.95 606.695 106.95 599.588 Q106.95 592.459 105.121 588.917 Q103.316 585.352 99.6816 585.352 M99.6816 581.649 Q105.492 581.649 108.547 586.255 Q111.626 590.838 111.626 599.588 Q111.626 608.315 108.547 612.922 Q105.492 617.505 99.6816 617.505 Q93.8715 617.505 90.7928 612.922 Q87.7373 608.315 87.7373 599.588 Q87.7373 590.838 90.7928 586.255 Q93.8715 581.649 99.6816 581.649 Z" fill="#000000" fill-rule="nonzero" fill-opacity="1"></path><path clip-path="url(#clip130)" d="M120.654 612.898 L128.293 612.898 L128.293 586.533 L119.982 588.199 L119.982 583.94 L128.246 582.274 L132.922 582.274 L132.922 612.898 L140.561 612.898 L140.561 616.834 L120.654 616.834 L120.654 612.898 Z" fill="#000000" fill-rule="nonzero" fill-opacity="1"></path><path clip-path="url(#clip130)" d="M154.033 612.898 L170.353 612.898 L170.353 616.834 L148.408 616.834 L148.408 612.898 Q151.07 610.144 155.654 605.514 Q160.26 600.861 161.441 599.519 Q163.686 596.996 164.566 595.26 Q165.468 593.5 165.468 591.811 Q165.468 589.056 163.524 587.32 Q161.603 585.584 158.501 585.584 Q156.302 585.584 153.848 586.348 Q151.417 587.112 148.64 588.662 L148.64 583.94 Q151.464 582.806 153.917 582.227 Q156.371 581.649 158.408 581.649 Q163.779 581.649 166.973 584.334 Q170.167 587.019 170.167 591.51 Q170.167 593.639 169.357 595.561 Q168.57 597.459 166.464 600.051 Q165.885 600.723 162.783 603.94 Q159.681 607.135 154.033 612.898 Z" fill="#000000" fill-rule="nonzero" fill-opacity="1"></path><path clip-path="url(#clip130)" d="M44.3116 141.786 L51.9504 141.786 L51.9504 115.421 L43.6403 117.087 L43.6403 112.828 L51.9041 111.161 L56.58 111.161 L56.58 141.786 L64.2189 141.786 L64.2189 145.721 L44.3116 145.721 L44.3116 141.786 Z" fill="#000000" fill-rule="nonzero" fill-opacity="1"></path><path clip-path="url(#clip130)" d="M73.6633 139.842 L78.5475 139.842 L78.5475 145.721 L73.6633 145.721 L73.6633 139.842 Z" fill="#000000" fill-rule="nonzero" fill-opacity="1"></path><path clip-path="url(#clip130)" d="M98.7326 114.24 Q95.1215 114.24 93.2928 117.805 Q91.4872 121.347 91.4872 128.476 Q91.4872 135.583 93.2928 139.147 Q95.1215 142.689 98.7326 142.689 Q102.367 142.689 104.172 139.147 Q106.001 135.583 106.001 128.476 Q106.001 121.347 104.172 117.805 Q102.367 114.24 98.7326 114.24 M98.7326 110.536 Q104.543 110.536 107.598 115.143 Q110.677 119.726 110.677 128.476 Q110.677 137.203 107.598 141.809 Q104.543 146.393 98.7326 146.393 Q92.9224 146.393 89.8437 141.809 Q86.7882 137.203 86.7882 128.476 Q86.7882 119.726 89.8437 115.143 Q92.9224 110.536 98.7326 110.536 Z" fill="#000000" fill-rule="nonzero" fill-opacity="1"></path><path clip-path="url(#clip130)" d="M119.705 141.786 L127.344 141.786 L127.344 115.421 L119.033 117.087 L119.033 112.828 L127.297 111.161 L131.973 111.161 L131.973 141.786 L139.612 141.786 L139.612 145.721 L119.705 145.721 L119.705 141.786 Z" fill="#000000" fill-rule="nonzero" fill-opacity="1"></path><path clip-path="url(#clip130)" d="M163.223 127.087 Q166.579 127.805 168.454 130.073 Q170.353 132.342 170.353 135.675 Q170.353 140.791 166.834 143.592 Q163.316 146.393 156.834 146.393 Q154.658 146.393 152.343 145.953 Q150.052 145.536 147.598 144.68 L147.598 140.166 Q149.542 141.3 151.857 141.879 Q154.172 142.458 156.695 142.458 Q161.093 142.458 163.385 140.721 Q165.7 138.985 165.7 135.675 Q165.7 132.62 163.547 130.907 Q161.417 129.171 157.598 129.171 L153.57 129.171 L153.57 125.328 L157.783 125.328 Q161.232 125.328 163.061 123.962 Q164.89 122.573 164.89 119.981 Q164.89 117.319 162.991 115.907 Q161.116 114.472 157.598 114.472 Q155.677 114.472 153.478 114.888 Q151.279 115.305 148.64 116.185 L148.64 112.018 Q151.302 111.277 153.617 110.907 Q155.954 110.536 158.015 110.536 Q163.339 110.536 166.441 112.967 Q169.542 115.374 169.542 119.495 Q169.542 122.365 167.899 124.356 Q166.255 126.323 163.223 127.087 Z" fill="#000000" fill-rule="nonzero" fill-opacity="1"></path><path clip-path="url(#clip130)" d="M940.913 44.2197 Q943.546 45.1109 946.017 48.0275 Q948.528 50.9442 951.04 56.0483 L959.344 72.576 L950.554 72.576 L942.817 57.061 Q939.819 50.9847 936.983 48.9997 Q934.188 47.0148 929.327 47.0148 L920.415 47.0148 L920.415 72.576 L912.232 72.576 L912.232 12.096 L930.704 12.096 Q941.075 12.096 946.179 16.4305 Q951.283 20.7649 951.283 29.5149 Q951.283 35.2267 948.609 38.994 Q945.976 42.7613 940.913 44.2197 M920.415 18.8205 L920.415 40.2903 L930.704 40.2903 Q936.619 40.2903 939.616 37.5762 Q942.655 34.8216 942.655 29.5149 Q942.655 24.2082 939.616 21.5346 Q936.619 18.8205 930.704 18.8205 L920.415 18.8205 Z" fill="#000000" fill-rule="nonzero" fill-opacity="1"></path><path clip-path="url(#clip130)" d="M1004.63 48.0275 L1004.63 51.6733 L970.363 51.6733 Q970.849 59.3701 974.981 63.421 Q979.153 67.4314 986.566 67.4314 Q990.86 67.4314 994.871 66.3781 Q998.922 65.3249 1002.89 63.2184 L1002.89 70.267 Q998.881 71.9684 994.668 72.8596 Q990.455 73.7508 986.121 73.7508 Q975.264 73.7508 968.904 67.4314 Q962.585 61.1119 962.585 50.3365 Q962.585 39.1965 968.58 32.6746 Q974.616 26.1121 984.824 26.1121 Q993.98 26.1121 999.286 32.0264 Q1004.63 37.9003 1004.63 48.0275 M997.18 45.84 Q997.099 39.7232 993.736 36.0774 Q990.415 32.4315 984.905 32.4315 Q978.667 32.4315 974.9 35.9558 Q971.173 39.4801 970.606 45.8805 L997.18 45.84 Z" fill="#000000" fill-rule="nonzero" fill-opacity="1"></path><path clip-path="url(#clip130)" d="M1037.49 49.7694 Q1028.45 49.7694 1024.97 51.8354 Q1021.49 53.9013 1021.49 58.8839 Q1021.49 62.8538 1024.08 65.2034 Q1026.71 67.5124 1031.21 67.5124 Q1037.41 67.5124 1041.13 63.1374 Q1044.9 58.7219 1044.9 51.4303 L1044.9 49.7694 L1037.49 49.7694 M1052.35 46.6907 L1052.35 72.576 L1044.9 72.576 L1044.9 65.6895 Q1042.35 69.8214 1038.54 71.8063 Q1034.73 73.7508 1029.22 73.7508 Q1022.25 73.7508 1018.12 69.8619 Q1014.03 65.9325 1014.03 59.3701 Q1014.03 51.7138 1019.14 47.825 Q1024.28 43.9361 1034.45 43.9361 L1044.9 43.9361 L1044.9 43.2069 Q1044.9 38.0623 1041.5 35.2672 Q1038.13 32.4315 1032.02 32.4315 Q1028.13 32.4315 1024.44 33.3632 Q1020.76 34.295 1017.35 36.1584 L1017.35 29.2718 Q1021.44 27.692 1025.29 26.9223 Q1029.14 26.1121 1032.79 26.1121 Q1042.63 26.1121 1047.49 31.2163 Q1052.35 36.3204 1052.35 46.6907 Z" fill="#000000" fill-rule="nonzero" fill-opacity="1"></path><path clip-path="url(#clip130)" d="M1067.71 9.54393 L1075.16 9.54393 L1075.16 72.576 L1067.71 72.576 L1067.71 9.54393 Z" fill="#000000" fill-rule="nonzero" fill-opacity="1"></path><path clip-path="url(#clip130)" d="M1158.69 63.9476 L1158.69 47.7034 L1145.32 47.7034 L1145.32 40.9789 L1166.79 40.9789 L1166.79 66.9452 Q1162.05 70.3075 1156.34 72.0494 Q1150.63 73.7508 1144.15 73.7508 Q1129.97 73.7508 1121.95 65.4869 Q1113.97 57.1826 1113.97 42.3968 Q1113.97 27.5705 1121.95 19.3066 Q1129.97 11.0023 1144.15 11.0023 Q1150.06 11.0023 1155.37 12.4606 Q1160.71 13.9189 1165.21 16.7545 L1165.21 25.464 Q1160.67 21.6156 1155.57 19.6712 Q1150.47 17.7268 1144.84 17.7268 Q1133.74 17.7268 1128.15 23.9246 Q1122.6 30.1225 1122.6 42.3968 Q1122.6 54.6305 1128.15 60.8284 Q1133.74 67.0263 1144.84 67.0263 Q1149.17 67.0263 1152.57 66.2971 Q1155.98 65.5274 1158.69 63.9476 Z" fill="#000000" fill-rule="nonzero" fill-opacity="1"></path><path clip-path="url(#clip130)" d="M1189.92 18.8205 L1189.92 65.8515 L1199.81 65.8515 Q1212.32 65.8515 1218.12 60.1802 Q1223.95 54.509 1223.95 42.2752 Q1223.95 30.1225 1218.12 24.4918 Q1212.32 18.8205 1199.81 18.8205 L1189.92 18.8205 M1181.74 12.096 L1198.55 12.096 Q1216.13 12.096 1224.35 19.4281 Q1232.58 26.7198 1232.58 42.2752 Q1232.58 57.9117 1224.31 65.2439 Q1216.05 72.576 1198.55 72.576 L1181.74 72.576 L1181.74 12.096 Z" fill="#000000" fill-rule="nonzero" fill-opacity="1"></path><path clip-path="url(#clip130)" d="M1253.8 18.8205 L1253.8 41.5461 L1264.09 41.5461 Q1269.81 41.5461 1272.92 38.5889 Q1276.04 35.6318 1276.04 30.163 Q1276.04 24.7348 1272.92 21.7777 Q1269.81 18.8205 1264.09 18.8205 L1253.8 18.8205 M1245.62 12.096 L1264.09 12.096 Q1274.26 12.096 1279.45 16.714 Q1284.67 21.2916 1284.67 30.163 Q1284.67 39.1155 1279.45 43.6931 Q1274.26 48.2706 1264.09 48.2706 L1253.8 48.2706 L1253.8 72.576 L1245.62 72.576 L1245.62 12.096 Z" fill="#000000" fill-rule="nonzero" fill-opacity="1"></path><polyline clip-path="url(#clip132)" style="stroke:#009af9; stroke-linecap:round; stroke-linejoin:round; stroke-width:4; stroke-opacity:1; fill:none" points="1917.41,341.417 1900.87,346.912 1884.33,352.457 1867.78,358.054 1851.24,363.704 1834.69,369.408 1818.15,375.167 1801.6,380.98 1785.06,386.851 1768.51,392.778 1751.97,398.764 1735.42,404.809 1718.88,410.915 1702.33,417.082 1685.79,423.311 1669.24,429.604 1652.7,435.962 1636.15,442.385 1619.61,448.876 1603.07,455.435 1586.52,462.064 1569.98,468.764 1553.43,475.536 1536.89,482.382 1520.34,489.303 1503.8,496.301 1487.25,503.377 1470.71,510.533 1454.16,517.77 1437.62,525.09 1421.07,532.495 1404.53,539.986 1387.98,547.566 1371.44,555.237 1354.9,562.999 1338.35,570.856 1321.81,578.81 1305.26,586.862 1288.72,595.015 1272.17,603.271 1255.63,611.633 1239.08,620.103 1222.54,628.683 1205.99,637.378 1189.45,646.188 1172.9,655.118 1156.36,664.17 1139.81,673.347 1123.27,682.653 1106.72,692.091 1090.18,701.664 1073.64,711.377 1057.09,721.233 1040.55,731.236 1024,741.391 1007.46,751.701 990.912,762.172 974.367,772.808 957.822,783.614 941.278,794.595 924.733,805.757 908.188,817.106 891.644,828.648 875.099,840.389 858.554,852.335 842.01,864.495 825.465,876.874 808.92,889.482 792.376,902.326 775.831,915.415 759.286,928.758 742.742,942.365 726.197,956.247 709.652,970.413 693.107,984.876 676.563,999.649 660.018,1014.74 643.473,1030.17 626.929,1045.95 610.384,1062.1 593.839,1078.63 577.295,1095.57 560.75,1112.92 544.205,1130.72 527.661,1148.98 511.116,1167.73 494.571,1187 478.027,1206.81 461.482,1227.19 444.937,1248.18 428.392,1269.81 411.848,1292.13 395.303,1315.17 378.758,1338.98 362.214,1363.61 345.669,1389.12 329.124,1415.58 312.58,1443.04 296.035,1471.59 279.49,1501.32 "></polyline>
<polyline clip-path="url(#clip132)" style="stroke:#e26f46; stroke-linecap:round; stroke-linejoin:round; stroke-width:4; stroke-opacity:1; fill:none" points="1917.41,178.683 1900.87,185.893 1884.33,193.195 1867.78,200.59 1851.24,208.08 1834.69,215.666 1818.15,223.352 1801.6,231.138 1785.06,239.028 1768.51,247.022 1751.97,255.125 1735.42,263.337 1718.88,271.661 1702.33,280.1 1685.79,288.656 1669.24,297.331 1652.7,306.129 1636.15,315.053 1619.61,324.104 1603.07,333.286 1586.52,342.602 1569.98,352.056 1553.43,361.649 1536.89,371.387 1520.34,381.271 1503.8,391.306 1487.25,401.495 1470.71,411.843 1454.16,422.353 1437.62,433.028 1421.07,443.874 1404.53,454.895 1387.98,466.095 1371.44,477.479 1354.9,489.051 1338.35,500.817 1321.81,512.782 1305.26,524.952 1288.72,537.331 1272.17,549.926 1255.63,562.742 1239.08,575.787 1222.54,589.066 1205.99,602.586 1189.45,616.354 1172.9,630.378 1156.36,644.666 1139.81,659.224 1123.27,674.061 1106.72,689.187 1090.18,704.609 1073.64,720.338 1057.09,736.383 1040.55,752.753 1024,769.461 1007.46,786.517 990.912,803.932 974.367,821.719 957.822,839.89 941.278,858.459 924.733,877.439 908.188,896.846 891.644,916.695 875.099,937.001 858.554,957.781 842.01,979.055 825.465,1000.84 808.92,1023.15 792.376,1046.02 775.831,1069.46 759.286,1093.49 742.742,1118.15 726.197,1143.44 709.652,1169.42 693.107,1196.09 676.563,1223.49 660.018,1251.65 643.473,1280.61 626.929,1310.4 610.384,1341.06 593.839,1372.63 577.295,1405.14 560.75,1438.65 544.205,1473.2 527.661,1508.85 511.116,1545.63 494.571,1583.62 478.027,1622.87 461.482,1663.45 444.937,1705.42 428.392,1748.85 411.848,1793.83 395.303,1840.43 378.758,1888.74 362.214,1938.87 345.669,1990.9 329.124,2044.96 312.58,2101.17 296.035,2159.68 279.49,2220.65 "></polyline>
<polyline clip-path="url(#clip132)" style="stroke:#3da44d; stroke-linecap:round; stroke-linejoin:round; stroke-width:4; stroke-opacity:1; fill:none" points="1917.41,696.86 1900.87,700.353 1884.33,703.872 1867.78,707.418 1851.24,710.99 1834.69,714.591 1818.15,718.219 1801.6,721.876 1785.06,725.562 1768.51,729.277 1751.97,733.022 1735.42,736.797 1718.88,740.603 1702.33,744.44 1685.79,748.309 1669.24,752.21 1652.7,756.144 1636.15,760.111 1619.61,764.112 1603.07,768.147 1586.52,772.218 1569.98,776.324 1553.43,780.466 1536.89,784.645 1520.34,788.862 1503.8,793.116 1487.25,797.41 1470.71,801.743 1454.16,806.116 1437.62,810.53 1421.07,814.986 1404.53,819.485 1387.98,824.026 1371.44,828.612 1354.9,833.243 1338.35,837.919 1321.81,842.642 1305.26,847.413 1288.72,852.233 1272.17,857.101 1255.63,862.021 1239.08,866.992 1222.54,872.015 1205.99,877.092 1189.45,882.224 1172.9,887.412 1156.36,892.657 1139.81,897.96 1123.27,903.323 1106.72,908.747 1090.18,914.234 1073.64,919.784 1057.09,925.399 1040.55,931.081 1024,936.831 1007.46,942.651 990.912,948.543 974.367,954.508 957.822,960.547 941.278,966.664 924.733,972.86 908.188,979.136 891.644,985.495 875.099,991.939 858.554,998.47 842.01,1005.09 825.465,1011.8 808.92,1018.61 792.376,1025.52 775.831,1032.52 759.286,1039.63 742.742,1046.84 726.197,1054.16 709.652,1061.59 693.107,1069.14 676.563,1076.81 660.018,1084.6 643.473,1092.51 626.929,1100.56 610.384,1108.74 593.839,1117.06 577.295,1125.53 560.75,1134.14 544.205,1142.91 527.661,1151.84 511.116,1160.93 494.571,1170.19 478.027,1179.64 461.482,1189.27 444.937,1199.09 428.392,1209.11 411.848,1219.34 395.303,1229.79 378.758,1240.47 362.214,1251.38 345.669,1262.55 329.124,1273.97 312.58,1285.67 296.035,1297.66 279.49,1309.94 "></polyline>
<path clip-path="url(#clip130)" d="M288.226 396.933 L903.533 396.933 L903.533 189.573 L288.226 189.573  Z" fill="#ffffff" fill-rule="evenodd" fill-opacity="1"></path>
<polyline clip-path="url(#clip130)" style="stroke:#000000; stroke-linecap:round; stroke-linejoin:round; stroke-width:4; stroke-opacity:1; fill:none" points="288.226,396.933 903.533,396.933 903.533,189.573 288.226,189.573 288.226,396.933 "></polyline>
<polyline clip-path="url(#clip130)" style="stroke:#009af9; stroke-linecap:round; stroke-linejoin:round; stroke-width:4; stroke-opacity:1; fill:none" points="307.517,241.413 423.264,241.413 "></polyline>
<path clip-path="url(#clip130)" d="M468.11 253.763 L468.11 244.481 L460.471 244.481 L460.471 240.638 L472.74 240.638 L472.74 255.476 Q470.031 257.397 466.768 258.393 Q463.504 259.365 459.8 259.365 Q451.698 259.365 447.115 254.643 Q442.555 249.897 442.555 241.448 Q442.555 232.976 447.115 228.254 Q451.698 223.508 459.8 223.508 Q463.18 223.508 466.212 224.342 Q469.268 225.175 471.837 226.795 L471.837 231.772 Q469.244 229.573 466.328 228.462 Q463.411 227.351 460.194 227.351 Q453.851 227.351 450.657 230.893 Q447.485 234.434 447.485 241.448 Q447.485 248.439 450.657 251.981 Q453.851 255.522 460.194 255.522 Q462.67 255.522 464.615 255.106 Q466.559 254.666 468.11 253.763 Z" fill="#000000" fill-rule="nonzero" fill-opacity="1"></path><path clip-path="url(#clip130)" d="M491.142 235.754 Q487.717 235.754 485.726 238.439 Q483.735 241.101 483.735 245.754 Q483.735 250.406 485.703 253.092 Q487.693 255.754 491.142 255.754 Q494.545 255.754 496.536 253.068 Q498.527 250.383 498.527 245.754 Q498.527 241.147 496.536 238.462 Q494.545 235.754 491.142 235.754 M491.142 232.143 Q496.698 232.143 499.869 235.754 Q503.041 239.365 503.041 245.754 Q503.041 252.119 499.869 255.754 Q496.698 259.365 491.142 259.365 Q485.564 259.365 482.392 255.754 Q479.244 252.119 479.244 245.754 Q479.244 239.365 482.392 235.754 Q485.564 232.143 491.142 232.143 Z" fill="#000000" fill-rule="nonzero" fill-opacity="1"></path><path clip-path="url(#clip130)" d="M520.147 235.754 Q516.721 235.754 514.73 238.439 Q512.74 241.101 512.74 245.754 Q512.74 250.406 514.707 253.092 Q516.698 255.754 520.147 255.754 Q523.55 255.754 525.54 253.068 Q527.531 250.383 527.531 245.754 Q527.531 241.147 525.54 238.462 Q523.55 235.754 520.147 235.754 M520.147 232.143 Q525.702 232.143 528.874 235.754 Q532.045 239.365 532.045 245.754 Q532.045 252.119 528.874 255.754 Q525.702 259.365 520.147 259.365 Q514.568 259.365 511.397 255.754 Q508.249 252.119 508.249 245.754 Q508.249 239.365 511.397 235.754 Q514.568 232.143 520.147 232.143 Z" fill="#000000" fill-rule="nonzero" fill-opacity="1"></path><path clip-path="url(#clip130)" d="M556.165 236.703 L556.165 222.675 L560.424 222.675 L560.424 258.693 L556.165 258.693 L556.165 254.805 Q554.823 257.119 552.762 258.254 Q550.725 259.365 547.855 259.365 Q543.156 259.365 540.193 255.615 Q537.253 251.865 537.253 245.754 Q537.253 239.643 540.193 235.893 Q543.156 232.143 547.855 232.143 Q550.725 232.143 552.762 233.277 Q554.823 234.388 556.165 236.703 M541.651 245.754 Q541.651 250.453 543.573 253.138 Q545.517 255.8 548.897 255.8 Q552.276 255.8 554.221 253.138 Q556.165 250.453 556.165 245.754 Q556.165 241.055 554.221 238.393 Q552.276 235.707 548.897 235.707 Q545.517 235.707 543.573 238.393 Q541.651 241.055 541.651 245.754 Z" fill="#000000" fill-rule="nonzero" fill-opacity="1"></path><path clip-path="url(#clip130)" d="M585.725 233.532 L585.725 237.559 Q583.92 236.633 581.975 236.17 Q580.031 235.707 577.948 235.707 Q574.776 235.707 573.179 236.68 Q571.605 237.652 571.605 239.596 Q571.605 241.078 572.739 241.934 Q573.873 242.768 577.299 243.531 L578.758 243.856 Q583.295 244.828 585.193 246.61 Q587.114 248.369 587.114 251.541 Q587.114 255.152 584.244 257.258 Q581.397 259.365 576.397 259.365 Q574.313 259.365 572.045 258.948 Q569.799 258.555 567.299 257.744 L567.299 253.346 Q569.661 254.573 571.952 255.198 Q574.244 255.8 576.489 255.8 Q579.498 255.8 581.119 254.781 Q582.739 253.74 582.739 251.865 Q582.739 250.129 581.559 249.203 Q580.401 248.277 576.443 247.42 L574.961 247.073 Q571.003 246.24 569.244 244.527 Q567.485 242.791 567.485 239.782 Q567.485 236.124 570.077 234.133 Q572.67 232.143 577.438 232.143 Q579.799 232.143 581.883 232.49 Q583.966 232.837 585.725 233.532 Z" fill="#000000" fill-rule="nonzero" fill-opacity="1"></path><polyline clip-path="url(#clip130)" style="stroke:#e26f46; stroke-linecap:round; stroke-linejoin:round; stroke-width:4; stroke-opacity:1; fill:none" points="307.517,293.253 423.264,293.253 "></polyline>
<path clip-path="url(#clip130)" d="M468.11 305.603 L468.11 296.321 L460.471 296.321 L460.471 292.478 L472.74 292.478 L472.74 307.316 Q470.031 309.237 466.768 310.233 Q463.504 311.205 459.8 311.205 Q451.698 311.205 447.115 306.483 Q442.555 301.737 442.555 293.288 Q442.555 284.816 447.115 280.094 Q451.698 275.348 459.8 275.348 Q463.18 275.348 466.212 276.182 Q469.268 277.015 471.837 278.635 L471.837 283.612 Q469.244 281.413 466.328 280.302 Q463.411 279.191 460.194 279.191 Q453.851 279.191 450.657 282.733 Q447.485 286.274 447.485 293.288 Q447.485 300.279 450.657 303.821 Q453.851 307.362 460.194 307.362 Q462.67 307.362 464.615 306.946 Q466.559 306.506 468.11 305.603 Z" fill="#000000" fill-rule="nonzero" fill-opacity="1"></path><path clip-path="url(#clip130)" d="M491.142 287.594 Q487.717 287.594 485.726 290.279 Q483.735 292.941 483.735 297.594 Q483.735 302.246 485.703 304.932 Q487.693 307.594 491.142 307.594 Q494.545 307.594 496.536 304.908 Q498.527 302.223 498.527 297.594 Q498.527 292.987 496.536 290.302 Q494.545 287.594 491.142 287.594 M491.142 283.983 Q496.698 283.983 499.869 287.594 Q503.041 291.205 503.041 297.594 Q503.041 303.959 499.869 307.594 Q496.698 311.205 491.142 311.205 Q485.564 311.205 482.392 307.594 Q479.244 303.959 479.244 297.594 Q479.244 291.205 482.392 287.594 Q485.564 283.983 491.142 283.983 Z" fill="#000000" fill-rule="nonzero" fill-opacity="1"></path><path clip-path="url(#clip130)" d="M520.147 287.594 Q516.721 287.594 514.73 290.279 Q512.74 292.941 512.74 297.594 Q512.74 302.246 514.707 304.932 Q516.698 307.594 520.147 307.594 Q523.55 307.594 525.54 304.908 Q527.531 302.223 527.531 297.594 Q527.531 292.987 525.54 290.302 Q523.55 287.594 520.147 287.594 M520.147 283.983 Q525.702 283.983 528.874 287.594 Q532.045 291.205 532.045 297.594 Q532.045 303.959 528.874 307.594 Q525.702 311.205 520.147 311.205 Q514.568 311.205 511.397 307.594 Q508.249 303.959 508.249 297.594 Q508.249 291.205 511.397 287.594 Q514.568 283.983 520.147 283.983 Z" fill="#000000" fill-rule="nonzero" fill-opacity="1"></path><path clip-path="url(#clip130)" d="M556.165 288.543 L556.165 274.515 L560.424 274.515 L560.424 310.533 L556.165 310.533 L556.165 306.645 Q554.823 308.959 552.762 310.094 Q550.725 311.205 547.855 311.205 Q543.156 311.205 540.193 307.455 Q537.253 303.705 537.253 297.594 Q537.253 291.483 540.193 287.733 Q543.156 283.983 547.855 283.983 Q550.725 283.983 552.762 285.117 Q554.823 286.228 556.165 288.543 M541.651 297.594 Q541.651 302.293 543.573 304.978 Q545.517 307.64 548.897 307.64 Q552.276 307.64 554.221 304.978 Q556.165 302.293 556.165 297.594 Q556.165 292.895 554.221 290.233 Q552.276 287.547 548.897 287.547 Q545.517 287.547 543.573 290.233 Q541.651 292.895 541.651 297.594 Z" fill="#000000" fill-rule="nonzero" fill-opacity="1"></path><path clip-path="url(#clip130)" d="M585.725 285.372 L585.725 289.399 Q583.92 288.473 581.975 288.01 Q580.031 287.547 577.948 287.547 Q574.776 287.547 573.179 288.52 Q571.605 289.492 571.605 291.436 Q571.605 292.918 572.739 293.774 Q573.873 294.608 577.299 295.371 L578.758 295.696 Q583.295 296.668 585.193 298.45 Q587.114 300.209 587.114 303.381 Q587.114 306.992 584.244 309.098 Q581.397 311.205 576.397 311.205 Q574.313 311.205 572.045 310.788 Q569.799 310.395 567.299 309.584 L567.299 305.186 Q569.661 306.413 571.952 307.038 Q574.244 307.64 576.489 307.64 Q579.498 307.64 581.119 306.621 Q582.739 305.58 582.739 303.705 Q582.739 301.969 581.559 301.043 Q580.401 300.117 576.443 299.26 L574.961 298.913 Q571.003 298.08 569.244 296.367 Q567.485 294.631 567.485 291.622 Q567.485 287.964 570.077 285.973 Q572.67 283.983 577.438 283.983 Q579.799 283.983 581.883 284.33 Q583.966 284.677 585.725 285.372 Z" fill="#000000" fill-rule="nonzero" fill-opacity="1"></path><path clip-path="url(#clip130)" d="M606.489 284.608 L610.748 284.608 L616.072 304.839 L621.373 284.608 L626.396 284.608 L631.72 304.839 L637.021 284.608 L641.281 284.608 L634.498 310.533 L629.475 310.533 L623.896 289.284 L618.295 310.533 L613.271 310.533 L606.489 284.608 Z" fill="#000000" fill-rule="nonzero" fill-opacity="1"></path><path clip-path="url(#clip130)" d="M647.739 284.608 L651.998 284.608 L651.998 310.533 L647.739 310.533 L647.739 284.608 M647.739 274.515 L651.998 274.515 L651.998 279.909 L647.739 279.909 L647.739 274.515 Z" fill="#000000" fill-rule="nonzero" fill-opacity="1"></path><path clip-path="url(#clip130)" d="M665.123 277.247 L665.123 284.608 L673.896 284.608 L673.896 287.918 L665.123 287.918 L665.123 301.992 Q665.123 305.163 665.979 306.066 Q666.859 306.969 669.521 306.969 L673.896 306.969 L673.896 310.533 L669.521 310.533 Q664.591 310.533 662.716 308.705 Q660.841 306.853 660.841 301.992 L660.841 287.918 L657.716 287.918 L657.716 284.608 L660.841 284.608 L660.841 277.247 L665.123 277.247 Z" fill="#000000" fill-rule="nonzero" fill-opacity="1"></path><path clip-path="url(#clip130)" d="M701.049 294.885 L701.049 310.533 L696.789 310.533 L696.789 295.024 Q696.789 291.344 695.354 289.515 Q693.919 287.686 691.049 287.686 Q687.6 287.686 685.609 289.885 Q683.618 292.084 683.618 295.881 L683.618 310.533 L679.336 310.533 L679.336 274.515 L683.618 274.515 L683.618 288.635 Q685.146 286.297 687.206 285.14 Q689.29 283.983 691.998 283.983 Q696.465 283.983 698.757 286.76 Q701.049 289.515 701.049 294.885 Z" fill="#000000" fill-rule="nonzero" fill-opacity="1"></path><path clip-path="url(#clip130)" d="M724.799 275.973 L729.474 275.973 L729.474 306.598 L746.303 306.598 L746.303 310.533 L724.799 310.533 L724.799 275.973 Z" fill="#000000" fill-rule="nonzero" fill-opacity="1"></path><path clip-path="url(#clip130)" d="M762.808 297.501 Q757.646 297.501 755.655 298.682 Q753.664 299.862 753.664 302.709 Q753.664 304.978 755.146 306.321 Q756.65 307.64 759.22 307.64 Q762.761 307.64 764.891 305.14 Q767.044 302.617 767.044 298.45 L767.044 297.501 L762.808 297.501 M771.303 295.742 L771.303 310.533 L767.044 310.533 L767.044 306.598 Q765.585 308.959 763.409 310.094 Q761.234 311.205 758.085 311.205 Q754.104 311.205 751.743 308.983 Q749.405 306.737 749.405 302.987 Q749.405 298.612 752.322 296.39 Q755.261 294.168 761.072 294.168 L767.044 294.168 L767.044 293.751 Q767.044 290.811 765.099 289.214 Q763.178 287.594 759.683 287.594 Q757.46 287.594 755.354 288.126 Q753.248 288.659 751.303 289.723 L751.303 285.788 Q753.641 284.885 755.84 284.446 Q758.039 283.983 760.122 283.983 Q765.747 283.983 768.525 286.899 Q771.303 289.816 771.303 295.742 Z" fill="#000000" fill-rule="nonzero" fill-opacity="1"></path><path clip-path="url(#clip130)" d="M798.687 297.594 Q798.687 292.895 796.743 290.233 Q794.821 287.547 791.442 287.547 Q788.062 287.547 786.118 290.233 Q784.196 292.895 784.196 297.594 Q784.196 302.293 786.118 304.978 Q788.062 307.64 791.442 307.64 Q794.821 307.64 796.743 304.978 Q798.687 302.293 798.687 297.594 M784.196 288.543 Q785.539 286.228 787.576 285.117 Q789.636 283.983 792.483 283.983 Q797.206 283.983 800.145 287.733 Q803.108 291.483 803.108 297.594 Q803.108 303.705 800.145 307.455 Q797.206 311.205 792.483 311.205 Q789.636 311.205 787.576 310.094 Q785.539 308.959 784.196 306.645 L784.196 310.533 L779.914 310.533 L779.914 274.515 L784.196 274.515 L784.196 288.543 Z" fill="#000000" fill-rule="nonzero" fill-opacity="1"></path><path clip-path="url(#clip130)" d="M820.215 287.594 Q816.789 287.594 814.798 290.279 Q812.807 292.941 812.807 297.594 Q812.807 302.246 814.775 304.932 Q816.766 307.594 820.215 307.594 Q823.617 307.594 825.608 304.908 Q827.599 302.223 827.599 297.594 Q827.599 292.987 825.608 290.302 Q823.617 287.594 820.215 287.594 M820.215 283.983 Q825.77 283.983 828.942 287.594 Q832.113 291.205 832.113 297.594 Q832.113 303.959 828.942 307.594 Q825.77 311.205 820.215 311.205 Q814.636 311.205 811.465 307.594 Q808.317 303.959 808.317 297.594 Q808.317 291.205 811.465 287.594 Q814.636 283.983 820.215 283.983 Z" fill="#000000" fill-rule="nonzero" fill-opacity="1"></path><path clip-path="url(#clip130)" d="M838.733 300.302 L838.733 284.608 L842.992 284.608 L842.992 300.14 Q842.992 303.821 844.428 305.672 Q845.863 307.501 848.733 307.501 Q852.182 307.501 854.173 305.302 Q856.187 303.103 856.187 299.307 L856.187 284.608 L860.446 284.608 L860.446 310.533 L856.187 310.533 L856.187 306.552 Q854.636 308.913 852.576 310.07 Q850.539 311.205 847.83 311.205 Q843.363 311.205 841.048 308.427 Q838.733 305.649 838.733 300.302 M849.451 283.983 L849.451 283.983 Z" fill="#000000" fill-rule="nonzero" fill-opacity="1"></path><path clip-path="url(#clip130)" d="M884.242 288.589 Q883.525 288.172 882.668 287.987 Q881.835 287.779 880.816 287.779 Q877.205 287.779 875.261 290.14 Q873.339 292.478 873.339 296.876 L873.339 310.533 L869.057 310.533 L869.057 284.608 L873.339 284.608 L873.339 288.635 Q874.682 286.274 876.835 285.14 Q878.988 283.983 882.066 283.983 Q882.506 283.983 883.038 284.052 Q883.571 284.098 884.219 284.214 L884.242 288.589 Z" fill="#000000" fill-rule="nonzero" fill-opacity="1"></path><polyline clip-path="url(#clip130)" style="stroke:#3da44d; stroke-linecap:round; stroke-linejoin:round; stroke-width:4; stroke-opacity:1; fill:none" points="307.517,345.093 423.264,345.093 "></polyline>
<path clip-path="url(#clip130)" d="M470.425 330.475 L470.425 335.406 Q468.064 333.207 465.379 332.119 Q462.717 331.031 459.707 331.031 Q453.782 331.031 450.633 334.665 Q447.485 338.276 447.485 345.128 Q447.485 351.957 450.633 355.591 Q453.782 359.202 459.707 359.202 Q462.717 359.202 465.379 358.114 Q468.064 357.026 470.425 354.827 L470.425 359.711 Q467.971 361.378 465.217 362.211 Q462.485 363.045 459.43 363.045 Q451.582 363.045 447.069 358.253 Q442.555 353.438 442.555 345.128 Q442.555 336.795 447.069 332.003 Q451.582 327.188 459.43 327.188 Q462.531 327.188 465.263 328.022 Q468.018 328.832 470.425 330.475 Z" fill="#000000" fill-rule="nonzero" fill-opacity="1"></path><path clip-path="url(#clip130)" d="M487.508 339.434 Q484.082 339.434 482.092 342.119 Q480.101 344.781 480.101 349.434 Q480.101 354.086 482.068 356.772 Q484.059 359.434 487.508 359.434 Q490.911 359.434 492.902 356.748 Q494.892 354.063 494.892 349.434 Q494.892 344.827 492.902 342.142 Q490.911 339.434 487.508 339.434 M487.508 335.823 Q493.064 335.823 496.235 339.434 Q499.406 343.045 499.406 349.434 Q499.406 355.799 496.235 359.434 Q493.064 363.045 487.508 363.045 Q481.93 363.045 478.758 359.434 Q475.61 355.799 475.61 349.434 Q475.61 343.045 478.758 339.434 Q481.93 335.823 487.508 335.823 Z" fill="#000000" fill-rule="nonzero" fill-opacity="1"></path><path clip-path="url(#clip130)" d="M528.017 346.725 L528.017 362.373 L523.758 362.373 L523.758 346.864 Q523.758 343.184 522.323 341.355 Q520.888 339.526 518.017 339.526 Q514.568 339.526 512.577 341.725 Q510.587 343.924 510.587 347.721 L510.587 362.373 L506.304 362.373 L506.304 336.448 L510.587 336.448 L510.587 340.475 Q512.115 338.137 514.175 336.98 Q516.258 335.823 518.966 335.823 Q523.434 335.823 525.726 338.6 Q528.017 341.355 528.017 346.725 Z" fill="#000000" fill-rule="nonzero" fill-opacity="1"></path><path clip-path="url(#clip130)" d="M553.04 337.212 L553.04 341.239 Q551.235 340.313 549.29 339.85 Q547.346 339.387 545.263 339.387 Q542.091 339.387 540.494 340.36 Q538.92 341.332 538.92 343.276 Q538.92 344.758 540.054 345.614 Q541.188 346.448 544.614 347.211 L546.073 347.536 Q550.61 348.508 552.508 350.29 Q554.429 352.049 554.429 355.221 Q554.429 358.832 551.559 360.938 Q548.712 363.045 543.712 363.045 Q541.628 363.045 539.36 362.628 Q537.114 362.235 534.614 361.424 L534.614 357.026 Q536.976 358.253 539.267 358.878 Q541.559 359.48 543.804 359.48 Q546.813 359.48 548.434 358.461 Q550.054 357.42 550.054 355.545 Q550.054 353.809 548.874 352.883 Q547.716 351.957 543.758 351.1 L542.276 350.753 Q538.318 349.92 536.559 348.207 Q534.8 346.471 534.8 343.462 Q534.8 339.804 537.392 337.813 Q539.985 335.823 544.753 335.823 Q547.114 335.823 549.198 336.17 Q551.281 336.517 553.04 337.212 Z" fill="#000000" fill-rule="nonzero" fill-opacity="1"></path><path clip-path="url(#clip130)" d="M560.772 352.142 L560.772 336.448 L565.031 336.448 L565.031 351.98 Q565.031 355.661 566.466 357.512 Q567.901 359.341 570.772 359.341 Q574.221 359.341 576.211 357.142 Q578.225 354.943 578.225 351.147 L578.225 336.448 L582.485 336.448 L582.485 362.373 L578.225 362.373 L578.225 358.392 Q576.674 360.753 574.614 361.91 Q572.577 363.045 569.869 363.045 Q565.401 363.045 563.086 360.267 Q560.772 357.489 560.772 352.142 M571.489 335.823 L571.489 335.823 Z" fill="#000000" fill-rule="nonzero" fill-opacity="1"></path><path clip-path="url(#clip130)" d="M611.443 341.424 Q613.04 338.554 615.262 337.188 Q617.484 335.823 620.494 335.823 Q624.544 335.823 626.744 338.67 Q628.943 341.494 628.943 346.725 L628.943 362.373 L624.66 362.373 L624.66 346.864 Q624.66 343.137 623.341 341.332 Q622.021 339.526 619.313 339.526 Q616.003 339.526 614.082 341.725 Q612.16 343.924 612.16 347.721 L612.16 362.373 L607.878 362.373 L607.878 346.864 Q607.878 343.114 606.558 341.332 Q605.239 339.526 602.484 339.526 Q599.221 339.526 597.299 341.749 Q595.378 343.948 595.378 347.721 L595.378 362.373 L591.096 362.373 L591.096 336.448 L595.378 336.448 L595.378 340.475 Q596.836 338.091 598.873 336.957 Q600.91 335.823 603.711 335.823 Q606.535 335.823 608.503 337.258 Q610.494 338.693 611.443 341.424 Z" fill="#000000" fill-rule="nonzero" fill-opacity="1"></path><path clip-path="url(#clip130)" d="M641.558 358.485 L641.558 372.235 L637.276 372.235 L637.276 336.448 L641.558 336.448 L641.558 340.383 Q642.901 338.068 644.938 336.957 Q646.998 335.823 649.845 335.823 Q654.567 335.823 657.507 339.573 Q660.47 343.323 660.47 349.434 Q660.47 355.545 657.507 359.295 Q654.567 363.045 649.845 363.045 Q646.998 363.045 644.938 361.934 Q642.901 360.799 641.558 358.485 M656.049 349.434 Q656.049 344.735 654.105 342.073 Q652.183 339.387 648.804 339.387 Q645.424 339.387 643.48 342.073 Q641.558 344.735 641.558 349.434 Q641.558 354.133 643.48 356.818 Q645.424 359.48 648.804 359.48 Q652.183 359.48 654.105 356.818 Q656.049 354.133 656.049 349.434 Z" fill="#000000" fill-rule="nonzero" fill-opacity="1"></path><path clip-path="url(#clip130)" d="M671.743 329.087 L671.743 336.448 L680.516 336.448 L680.516 339.758 L671.743 339.758 L671.743 353.832 Q671.743 357.003 672.6 357.906 Q673.479 358.809 676.141 358.809 L680.516 358.809 L680.516 362.373 L676.141 362.373 Q671.211 362.373 669.336 360.545 Q667.461 358.693 667.461 353.832 L667.461 339.758 L664.336 339.758 L664.336 336.448 L667.461 336.448 L667.461 329.087 L671.743 329.087 Z" fill="#000000" fill-rule="nonzero" fill-opacity="1"></path><path clip-path="url(#clip130)" d="M686.118 336.448 L690.377 336.448 L690.377 362.373 L686.118 362.373 L686.118 336.448 M686.118 326.355 L690.377 326.355 L690.377 331.749 L686.118 331.749 L686.118 326.355 Z" fill="#000000" fill-rule="nonzero" fill-opacity="1"></path><path clip-path="url(#clip130)" d="M709.336 339.434 Q705.91 339.434 703.919 342.119 Q701.928 344.781 701.928 349.434 Q701.928 354.086 703.896 356.772 Q705.887 359.434 709.336 359.434 Q712.738 359.434 714.729 356.748 Q716.72 354.063 716.72 349.434 Q716.72 344.827 714.729 342.142 Q712.738 339.434 709.336 339.434 M709.336 335.823 Q714.891 335.823 718.063 339.434 Q721.234 343.045 721.234 349.434 Q721.234 355.799 718.063 359.434 Q714.891 363.045 709.336 363.045 Q703.757 363.045 700.586 359.434 Q697.438 355.799 697.438 349.434 Q697.438 343.045 700.586 339.434 Q703.757 335.823 709.336 335.823 Z" fill="#000000" fill-rule="nonzero" fill-opacity="1"></path><path clip-path="url(#clip130)" d="M749.845 346.725 L749.845 362.373 L745.586 362.373 L745.586 346.864 Q745.586 343.184 744.15 341.355 Q742.715 339.526 739.845 339.526 Q736.396 339.526 734.405 341.725 Q732.414 343.924 732.414 347.721 L732.414 362.373 L728.132 362.373 L728.132 336.448 L732.414 336.448 L732.414 340.475 Q733.942 338.137 736.002 336.98 Q738.086 335.823 740.794 335.823 Q745.261 335.823 747.553 338.6 Q749.845 341.355 749.845 346.725 Z" fill="#000000" fill-rule="nonzero" fill-opacity="1"></path><path clip-path="url(#clip130)" d="M2216.56 2281.9 L3952.76 2281.9 L3952.76 117.424 L2216.56 117.424  Z" fill="#ffffff" fill-rule="evenodd" fill-opacity="1"></path>
<defs>
  <clipPath id="clip133">
    <rect x="2216" y="117" width="1737" height="2165"></rect>
  </clipPath>
</defs>
<polyline clip-path="url(#clip133)" style="stroke:#000000; stroke-linecap:round; stroke-linejoin:round; stroke-width:2; stroke-opacity:0.1; fill:none" points="2470.43,2281.9 2470.43,117.424 "></polyline>
<polyline clip-path="url(#clip133)" style="stroke:#000000; stroke-linecap:round; stroke-linejoin:round; stroke-width:2; stroke-opacity:0.1; fill:none" points="2879.92,2281.9 2879.92,117.424 "></polyline>
<polyline clip-path="url(#clip133)" style="stroke:#000000; stroke-linecap:round; stroke-linejoin:round; stroke-width:2; stroke-opacity:0.1; fill:none" points="3289.4,2281.9 3289.4,117.424 "></polyline>
<polyline clip-path="url(#clip133)" style="stroke:#000000; stroke-linecap:round; stroke-linejoin:round; stroke-width:2; stroke-opacity:0.1; fill:none" points="3698.88,2281.9 3698.88,117.424 "></polyline>
<polyline clip-path="url(#clip130)" style="stroke:#000000; stroke-linecap:round; stroke-linejoin:round; stroke-width:4; stroke-opacity:1; fill:none" points="2216.56,2281.9 3952.76,2281.9 "></polyline>
<polyline clip-path="url(#clip130)" style="stroke:#000000; stroke-linecap:round; stroke-linejoin:round; stroke-width:4; stroke-opacity:1; fill:none" points="2470.43,2281.9 2470.43,2263.01 "></polyline>
<polyline clip-path="url(#clip130)" style="stroke:#000000; stroke-linecap:round; stroke-linejoin:round; stroke-width:4; stroke-opacity:1; fill:none" points="2879.92,2281.9 2879.92,2263.01 "></polyline>
<polyline clip-path="url(#clip130)" style="stroke:#000000; stroke-linecap:round; stroke-linejoin:round; stroke-width:4; stroke-opacity:1; fill:none" points="3289.4,2281.9 3289.4,2263.01 "></polyline>
<polyline clip-path="url(#clip130)" style="stroke:#000000; stroke-linecap:round; stroke-linejoin:round; stroke-width:4; stroke-opacity:1; fill:none" points="3698.88,2281.9 3698.88,2263.01 "></polyline>
<path clip-path="url(#clip130)" d="M2448.62 2325.62 Q2445.01 2325.62 2443.18 2329.19 Q2441.37 2332.73 2441.37 2339.86 Q2441.37 2346.97 2443.18 2350.53 Q2445.01 2354.07 2448.62 2354.07 Q2452.25 2354.07 2454.06 2350.53 Q2455.89 2346.97 2455.89 2339.86 Q2455.89 2332.73 2454.06 2329.19 Q2452.25 2325.62 2448.62 2325.62 M2448.62 2321.92 Q2454.43 2321.92 2457.48 2326.53 Q2460.56 2331.11 2460.56 2339.86 Q2460.56 2348.59 2457.48 2353.19 Q2454.43 2357.78 2448.62 2357.78 Q2442.81 2357.78 2439.73 2353.19 Q2436.67 2348.59 2436.67 2339.86 Q2436.67 2331.11 2439.73 2326.53 Q2442.81 2321.92 2448.62 2321.92 Z" fill="#000000" fill-rule="nonzero" fill-opacity="1"></path><path clip-path="url(#clip130)" d="M2468.78 2351.22 L2473.66 2351.22 L2473.66 2357.1 L2468.78 2357.1 L2468.78 2351.22 Z" fill="#000000" fill-rule="nonzero" fill-opacity="1"></path><path clip-path="url(#clip130)" d="M2487.88 2353.17 L2504.2 2353.17 L2504.2 2357.1 L2482.25 2357.1 L2482.25 2353.17 Q2484.91 2350.41 2489.5 2345.78 Q2494.1 2341.13 2495.28 2339.79 Q2497.53 2337.27 2498.41 2335.53 Q2499.31 2333.77 2499.31 2332.08 Q2499.31 2329.33 2497.37 2327.59 Q2495.45 2325.85 2492.34 2325.85 Q2490.15 2325.85 2487.69 2326.62 Q2485.26 2327.38 2482.48 2328.93 L2482.48 2324.21 Q2485.31 2323.08 2487.76 2322.5 Q2490.21 2321.92 2492.25 2321.92 Q2497.62 2321.92 2500.82 2324.6 Q2504.01 2327.29 2504.01 2331.78 Q2504.01 2333.91 2503.2 2335.83 Q2502.41 2337.73 2500.31 2340.32 Q2499.73 2340.99 2496.63 2344.21 Q2493.52 2347.4 2487.88 2353.17 Z" fill="#000000" fill-rule="nonzero" fill-opacity="1"></path><path clip-path="url(#clip130)" d="M2857.06 2325.62 Q2853.45 2325.62 2851.62 2329.19 Q2849.81 2332.73 2849.81 2339.86 Q2849.81 2346.97 2851.62 2350.53 Q2853.45 2354.07 2857.06 2354.07 Q2860.69 2354.07 2862.5 2350.53 Q2864.33 2346.97 2864.33 2339.86 Q2864.33 2332.73 2862.5 2329.19 Q2860.69 2325.62 2857.06 2325.62 M2857.06 2321.92 Q2862.87 2321.92 2865.92 2326.53 Q2869 2331.11 2869 2339.86 Q2869 2348.59 2865.92 2353.19 Q2862.87 2357.78 2857.06 2357.78 Q2851.25 2357.78 2848.17 2353.19 Q2845.11 2348.59 2845.11 2339.86 Q2845.11 2331.11 2848.17 2326.53 Q2851.25 2321.92 2857.06 2321.92 Z" fill="#000000" fill-rule="nonzero" fill-opacity="1"></path><path clip-path="url(#clip130)" d="M2877.22 2351.22 L2882.1 2351.22 L2882.1 2357.1 L2877.22 2357.1 L2877.22 2351.22 Z" fill="#000000" fill-rule="nonzero" fill-opacity="1"></path><path clip-path="url(#clip130)" d="M2905.14 2326.62 L2893.33 2345.07 L2905.14 2345.07 L2905.14 2326.62 M2903.91 2322.54 L2909.79 2322.54 L2909.79 2345.07 L2914.72 2345.07 L2914.72 2348.96 L2909.79 2348.96 L2909.79 2357.1 L2905.14 2357.1 L2905.14 2348.96 L2889.53 2348.96 L2889.53 2344.44 L2903.91 2322.54 Z" fill="#000000" fill-rule="nonzero" fill-opacity="1"></path><path clip-path="url(#clip130)" d="M3266.7 2325.62 Q3263.09 2325.62 3261.26 2329.19 Q3259.45 2332.73 3259.45 2339.86 Q3259.45 2346.97 3261.26 2350.53 Q3263.09 2354.07 3266.7 2354.07 Q3270.33 2354.07 3272.14 2350.53 Q3273.97 2346.97 3273.97 2339.86 Q3273.97 2332.73 3272.14 2329.19 Q3270.33 2325.62 3266.7 2325.62 M3266.7 2321.92 Q3272.51 2321.92 3275.57 2326.53 Q3278.64 2331.11 3278.64 2339.86 Q3278.64 2348.59 3275.57 2353.19 Q3272.51 2357.78 3266.7 2357.78 Q3260.89 2357.78 3257.81 2353.19 Q3254.76 2348.59 3254.76 2339.86 Q3254.76 2331.11 3257.81 2326.53 Q3260.89 2321.92 3266.7 2321.92 Z" fill="#000000" fill-rule="nonzero" fill-opacity="1"></path><path clip-path="url(#clip130)" d="M3286.86 2351.22 L3291.75 2351.22 L3291.75 2357.1 L3286.86 2357.1 L3286.86 2351.22 Z" fill="#000000" fill-rule="nonzero" fill-opacity="1"></path><path clip-path="url(#clip130)" d="M3312.51 2337.96 Q3309.36 2337.96 3307.51 2340.11 Q3305.68 2342.27 3305.68 2346.02 Q3305.68 2349.74 3307.51 2351.92 Q3309.36 2354.07 3312.51 2354.07 Q3315.66 2354.07 3317.49 2351.92 Q3319.34 2349.74 3319.34 2346.02 Q3319.34 2342.27 3317.49 2340.11 Q3315.66 2337.96 3312.51 2337.96 M3321.79 2323.31 L3321.79 2327.57 Q3320.03 2326.73 3318.23 2326.29 Q3316.45 2325.85 3314.69 2325.85 Q3310.06 2325.85 3307.6 2328.98 Q3305.17 2332.1 3304.82 2338.42 Q3306.19 2336.41 3308.25 2335.34 Q3310.31 2334.26 3312.79 2334.26 Q3318 2334.26 3321.01 2337.43 Q3324.04 2340.58 3324.04 2346.02 Q3324.04 2351.34 3320.89 2354.56 Q3317.74 2357.78 3312.51 2357.78 Q3306.51 2357.78 3303.34 2353.19 Q3300.17 2348.59 3300.17 2339.86 Q3300.17 2331.66 3304.06 2326.8 Q3307.95 2321.92 3314.5 2321.92 Q3316.26 2321.92 3318.04 2322.27 Q3319.85 2322.61 3321.79 2323.31 Z" fill="#000000" fill-rule="nonzero" fill-opacity="1"></path><path clip-path="url(#clip130)" d="M3676.31 2325.62 Q3672.7 2325.62 3670.87 2329.19 Q3669.06 2332.73 3669.06 2339.86 Q3669.06 2346.97 3670.87 2350.53 Q3672.7 2354.07 3676.31 2354.07 Q3679.94 2354.07 3681.75 2350.53 Q3683.58 2346.97 3683.58 2339.86 Q3683.58 2332.73 3681.75 2329.19 Q3679.94 2325.62 3676.31 2325.62 M3676.31 2321.92 Q3682.12 2321.92 3685.17 2326.53 Q3688.25 2331.11 3688.25 2339.86 Q3688.25 2348.59 3685.17 2353.19 Q3682.12 2357.78 3676.31 2357.78 Q3670.5 2357.78 3667.42 2353.19 Q3664.36 2348.59 3664.36 2339.86 Q3664.36 2331.11 3667.42 2326.53 Q3670.5 2321.92 3676.31 2321.92 Z" fill="#000000" fill-rule="nonzero" fill-opacity="1"></path><path clip-path="url(#clip130)" d="M3696.47 2351.22 L3701.35 2351.22 L3701.35 2357.1 L3696.47 2357.1 L3696.47 2351.22 Z" fill="#000000" fill-rule="nonzero" fill-opacity="1"></path><path clip-path="url(#clip130)" d="M3721.54 2340.69 Q3718.21 2340.69 3716.28 2342.47 Q3714.39 2344.26 3714.39 2347.38 Q3714.39 2350.51 3716.28 2352.29 Q3718.21 2354.07 3721.54 2354.07 Q3724.87 2354.07 3726.79 2352.29 Q3728.72 2350.48 3728.72 2347.38 Q3728.72 2344.26 3726.79 2342.47 Q3724.9 2340.69 3721.54 2340.69 M3716.86 2338.7 Q3713.85 2337.96 3712.16 2335.9 Q3710.5 2333.84 3710.5 2330.88 Q3710.5 2326.73 3713.44 2324.33 Q3716.4 2321.92 3721.54 2321.92 Q3726.7 2321.92 3729.64 2324.33 Q3732.58 2326.73 3732.58 2330.88 Q3732.58 2333.84 3730.89 2335.9 Q3729.22 2337.96 3726.24 2338.7 Q3729.62 2339.49 3731.49 2341.78 Q3733.39 2344.07 3733.39 2347.38 Q3733.39 2352.4 3730.31 2355.09 Q3727.26 2357.78 3721.54 2357.78 Q3715.82 2357.78 3712.74 2355.09 Q3709.69 2352.4 3709.69 2347.38 Q3709.69 2344.07 3711.59 2341.78 Q3713.48 2339.49 3716.86 2338.7 M3715.15 2331.32 Q3715.15 2334 3716.82 2335.51 Q3718.51 2337.01 3721.54 2337.01 Q3724.55 2337.01 3726.24 2335.51 Q3727.95 2334 3727.95 2331.32 Q3727.95 2328.63 3726.24 2327.13 Q3724.55 2325.62 3721.54 2325.62 Q3718.51 2325.62 3716.82 2327.13 Q3715.15 2328.63 3715.15 2331.32 Z" fill="#000000" fill-rule="nonzero" fill-opacity="1"></path><polyline clip-path="url(#clip133)" style="stroke:#000000; stroke-linecap:round; stroke-linejoin:round; stroke-width:2; stroke-opacity:0.1; fill:none" points="2216.56,2275.54 3952.76,2275.54 "></polyline>
<polyline clip-path="url(#clip133)" style="stroke:#000000; stroke-linecap:round; stroke-linejoin:round; stroke-width:2; stroke-opacity:0.1; fill:none" points="2216.56,1958.97 3952.76,1958.97 "></polyline>
<polyline clip-path="url(#clip133)" style="stroke:#000000; stroke-linecap:round; stroke-linejoin:round; stroke-width:2; stroke-opacity:0.1; fill:none" points="2216.56,1642.4 3952.76,1642.4 "></polyline>
<polyline clip-path="url(#clip133)" style="stroke:#000000; stroke-linecap:round; stroke-linejoin:round; stroke-width:2; stroke-opacity:0.1; fill:none" points="2216.56,1325.84 3952.76,1325.84 "></polyline>
<polyline clip-path="url(#clip133)" style="stroke:#000000; stroke-linecap:round; stroke-linejoin:round; stroke-width:2; stroke-opacity:0.1; fill:none" points="2216.56,1009.27 3952.76,1009.27 "></polyline>
<polyline clip-path="url(#clip133)" style="stroke:#000000; stroke-linecap:round; stroke-linejoin:round; stroke-width:2; stroke-opacity:0.1; fill:none" points="2216.56,692.7 3952.76,692.7 "></polyline>
<polyline clip-path="url(#clip133)" style="stroke:#000000; stroke-linecap:round; stroke-linejoin:round; stroke-width:2; stroke-opacity:0.1; fill:none" points="2216.56,376.132 3952.76,376.132 "></polyline>
<polyline clip-path="url(#clip130)" style="stroke:#000000; stroke-linecap:round; stroke-linejoin:round; stroke-width:4; stroke-opacity:1; fill:none" points="2216.56,2281.9 2216.56,117.424 "></polyline>
<polyline clip-path="url(#clip130)" style="stroke:#000000; stroke-linecap:round; stroke-linejoin:round; stroke-width:4; stroke-opacity:1; fill:none" points="2216.56,2275.54 2235.45,2275.54 "></polyline>
<polyline clip-path="url(#clip130)" style="stroke:#000000; stroke-linecap:round; stroke-linejoin:round; stroke-width:4; stroke-opacity:1; fill:none" points="2216.56,1958.97 2235.45,1958.97 "></polyline>
<polyline clip-path="url(#clip130)" style="stroke:#000000; stroke-linecap:round; stroke-linejoin:round; stroke-width:4; stroke-opacity:1; fill:none" points="2216.56,1642.4 2235.45,1642.4 "></polyline>
<polyline clip-path="url(#clip130)" style="stroke:#000000; stroke-linecap:round; stroke-linejoin:round; stroke-width:4; stroke-opacity:1; fill:none" points="2216.56,1325.84 2235.45,1325.84 "></polyline>
<polyline clip-path="url(#clip130)" style="stroke:#000000; stroke-linecap:round; stroke-linejoin:round; stroke-width:4; stroke-opacity:1; fill:none" points="2216.56,1009.27 2235.45,1009.27 "></polyline>
<polyline clip-path="url(#clip130)" style="stroke:#000000; stroke-linecap:round; stroke-linejoin:round; stroke-width:4; stroke-opacity:1; fill:none" points="2216.56,692.7 2235.45,692.7 "></polyline>
<polyline clip-path="url(#clip130)" style="stroke:#000000; stroke-linecap:round; stroke-linejoin:round; stroke-width:4; stroke-opacity:1; fill:none" points="2216.56,376.132 2235.45,376.132 "></polyline>
<path clip-path="url(#clip130)" d="M2068.73 2261.34 Q2065.12 2261.34 2063.29 2264.9 Q2061.49 2268.45 2061.49 2275.58 Q2061.49 2282.68 2063.29 2286.25 Q2065.12 2289.79 2068.73 2289.79 Q2072.37 2289.79 2074.17 2286.25 Q2076 2282.68 2076 2275.58 Q2076 2268.45 2074.17 2264.9 Q2072.37 2261.34 2068.73 2261.34 M2068.73 2257.64 Q2074.54 2257.64 2077.6 2262.24 Q2080.68 2266.83 2080.68 2275.58 Q2080.68 2284.3 2077.6 2288.91 Q2074.54 2293.49 2068.73 2293.49 Q2062.92 2293.49 2059.84 2288.91 Q2056.79 2284.3 2056.79 2275.58 Q2056.79 2266.83 2059.84 2262.24 Q2062.92 2257.64 2068.73 2257.64 Z" fill="#000000" fill-rule="nonzero" fill-opacity="1"></path><path clip-path="url(#clip130)" d="M2088.89 2286.94 L2093.78 2286.94 L2093.78 2292.82 L2088.89 2292.82 L2088.89 2286.94 Z" fill="#000000" fill-rule="nonzero" fill-opacity="1"></path><path clip-path="url(#clip130)" d="M2104.1 2292.1 L2104.1 2287.84 Q2105.86 2288.68 2107.67 2289.12 Q2109.47 2289.56 2111.21 2289.56 Q2115.84 2289.56 2118.27 2286.46 Q2120.72 2283.33 2121.07 2276.99 Q2119.73 2278.98 2117.67 2280.04 Q2115.61 2281.11 2113.11 2281.11 Q2107.92 2281.11 2104.89 2277.98 Q2101.88 2274.84 2101.88 2269.4 Q2101.88 2264.07 2105.03 2260.85 Q2108.18 2257.64 2113.41 2257.64 Q2119.4 2257.64 2122.55 2262.24 Q2125.72 2266.83 2125.72 2275.58 Q2125.72 2283.75 2121.83 2288.63 Q2117.97 2293.49 2111.42 2293.49 Q2109.66 2293.49 2107.85 2293.15 Q2106.05 2292.8 2104.1 2292.1 M2113.41 2277.45 Q2116.56 2277.45 2118.39 2275.3 Q2120.24 2273.15 2120.24 2269.4 Q2120.24 2265.67 2118.39 2263.52 Q2116.56 2261.34 2113.41 2261.34 Q2110.26 2261.34 2108.41 2263.52 Q2106.58 2265.67 2106.58 2269.4 Q2106.58 2273.15 2108.41 2275.3 Q2110.26 2277.45 2113.41 2277.45 Z" fill="#000000" fill-rule="nonzero" fill-opacity="1"></path><path clip-path="url(#clip130)" d="M2146.97 2262.34 L2135.17 2280.78 L2146.97 2280.78 L2146.97 2262.34 M2145.75 2258.26 L2151.63 2258.26 L2151.63 2280.78 L2156.56 2280.78 L2156.56 2284.67 L2151.63 2284.67 L2151.63 2292.82 L2146.97 2292.82 L2146.97 2284.67 L2131.37 2284.67 L2131.37 2280.16 L2145.75 2258.26 Z" fill="#000000" fill-rule="nonzero" fill-opacity="1"></path><path clip-path="url(#clip130)" d="M2070.21 1944.77 Q2066.6 1944.77 2064.77 1948.34 Q2062.97 1951.88 2062.97 1959.01 Q2062.97 1966.11 2064.77 1969.68 Q2066.6 1973.22 2070.21 1973.22 Q2073.85 1973.22 2075.65 1969.68 Q2077.48 1966.11 2077.48 1959.01 Q2077.48 1951.88 2075.65 1948.34 Q2073.85 1944.77 2070.21 1944.77 M2070.21 1941.07 Q2076.02 1941.07 2079.08 1945.67 Q2082.16 1950.26 2082.16 1959.01 Q2082.16 1967.73 2079.08 1972.34 Q2076.02 1976.92 2070.21 1976.92 Q2064.4 1976.92 2061.33 1972.34 Q2058.27 1967.73 2058.27 1959.01 Q2058.27 1950.26 2061.33 1945.67 Q2064.4 1941.07 2070.21 1941.07 Z" fill="#000000" fill-rule="nonzero" fill-opacity="1"></path><path clip-path="url(#clip130)" d="M2090.38 1970.37 L2095.26 1970.37 L2095.26 1976.25 L2090.38 1976.25 L2090.38 1970.37 Z" fill="#000000" fill-rule="nonzero" fill-opacity="1"></path><path clip-path="url(#clip130)" d="M2105.58 1975.54 L2105.58 1971.28 Q2107.34 1972.11 2109.15 1972.55 Q2110.95 1972.99 2112.69 1972.99 Q2117.32 1972.99 2119.75 1969.89 Q2122.2 1966.76 2122.55 1960.42 Q2121.21 1962.41 2119.15 1963.48 Q2117.09 1964.54 2114.59 1964.54 Q2109.4 1964.54 2106.37 1961.42 Q2103.36 1958.27 2103.36 1952.83 Q2103.36 1947.5 2106.51 1944.29 Q2109.66 1941.07 2114.89 1941.07 Q2120.89 1941.07 2124.03 1945.67 Q2127.2 1950.26 2127.2 1959.01 Q2127.2 1967.18 2123.32 1972.06 Q2119.45 1976.92 2112.9 1976.92 Q2111.14 1976.92 2109.33 1976.58 Q2107.53 1976.23 2105.58 1975.54 M2114.89 1960.88 Q2118.04 1960.88 2119.87 1958.73 Q2121.72 1956.58 2121.72 1952.83 Q2121.72 1949.1 2119.87 1946.95 Q2118.04 1944.77 2114.89 1944.77 Q2111.74 1944.77 2109.89 1946.95 Q2108.06 1949.1 2108.06 1952.83 Q2108.06 1956.58 2109.89 1958.73 Q2111.74 1960.88 2114.89 1960.88 Z" fill="#000000" fill-rule="nonzero" fill-opacity="1"></path><path clip-path="url(#clip130)" d="M2135.65 1941.69 L2154.01 1941.69 L2154.01 1945.63 L2139.94 1945.63 L2139.94 1954.1 Q2140.95 1953.75 2141.97 1953.59 Q2142.99 1953.41 2144.01 1953.41 Q2149.8 1953.41 2153.18 1956.58 Q2156.56 1959.75 2156.56 1965.17 Q2156.56 1970.74 2153.08 1973.85 Q2149.61 1976.92 2143.29 1976.92 Q2141.12 1976.92 2138.85 1976.55 Q2136.6 1976.18 2134.2 1975.44 L2134.2 1970.74 Q2136.28 1971.88 2138.5 1972.43 Q2140.72 1972.99 2143.2 1972.99 Q2147.2 1972.99 2149.54 1970.88 Q2151.88 1968.78 2151.88 1965.17 Q2151.88 1961.55 2149.54 1959.45 Q2147.2 1957.34 2143.2 1957.34 Q2141.32 1957.34 2139.45 1957.76 Q2137.6 1958.17 2135.65 1959.05 L2135.65 1941.69 Z" fill="#000000" fill-rule="nonzero" fill-opacity="1"></path><path clip-path="url(#clip130)" d="M2069.06 1628.2 Q2065.45 1628.2 2063.62 1631.77 Q2061.81 1635.31 2061.81 1642.44 Q2061.81 1649.55 2063.62 1653.11 Q2065.45 1656.65 2069.06 1656.65 Q2072.69 1656.65 2074.5 1653.11 Q2076.33 1649.55 2076.33 1642.44 Q2076.33 1635.31 2074.5 1631.77 Q2072.69 1628.2 2069.06 1628.2 M2069.06 1624.5 Q2074.87 1624.5 2077.92 1629.11 Q2081 1633.69 2081 1642.44 Q2081 1651.17 2077.92 1655.77 Q2074.87 1660.36 2069.06 1660.36 Q2063.25 1660.36 2060.17 1655.77 Q2057.11 1651.17 2057.11 1642.44 Q2057.11 1633.69 2060.17 1629.11 Q2063.25 1624.5 2069.06 1624.5 Z" fill="#000000" fill-rule="nonzero" fill-opacity="1"></path><path clip-path="url(#clip130)" d="M2089.22 1653.81 L2094.1 1653.81 L2094.1 1659.68 L2089.22 1659.68 L2089.22 1653.81 Z" fill="#000000" fill-rule="nonzero" fill-opacity="1"></path><path clip-path="url(#clip130)" d="M2104.43 1658.97 L2104.43 1654.71 Q2106.19 1655.54 2107.99 1655.98 Q2109.8 1656.42 2111.53 1656.42 Q2116.16 1656.42 2118.59 1653.32 Q2121.05 1650.19 2121.39 1643.85 Q2120.05 1645.84 2117.99 1646.91 Q2115.93 1647.97 2113.43 1647.97 Q2108.25 1647.97 2105.21 1644.85 Q2102.2 1641.7 2102.2 1636.26 Q2102.2 1630.93 2105.35 1627.72 Q2108.5 1624.5 2113.73 1624.5 Q2119.73 1624.5 2122.88 1629.11 Q2126.05 1633.69 2126.05 1642.44 Q2126.05 1650.61 2122.16 1655.49 Q2118.29 1660.36 2111.74 1660.36 Q2109.98 1660.36 2108.18 1660.01 Q2106.37 1659.66 2104.43 1658.97 M2113.73 1644.31 Q2116.88 1644.31 2118.71 1642.16 Q2120.56 1640.01 2120.56 1636.26 Q2120.56 1632.53 2118.71 1630.38 Q2116.88 1628.2 2113.73 1628.2 Q2110.58 1628.2 2108.73 1630.38 Q2106.9 1632.53 2106.9 1636.26 Q2106.9 1640.01 2108.73 1642.16 Q2110.58 1644.31 2113.73 1644.31 Z" fill="#000000" fill-rule="nonzero" fill-opacity="1"></path><path clip-path="url(#clip130)" d="M2145.03 1640.54 Q2141.88 1640.54 2140.03 1642.69 Q2138.2 1644.85 2138.2 1648.6 Q2138.2 1652.32 2140.03 1654.5 Q2141.88 1656.65 2145.03 1656.65 Q2148.18 1656.65 2150.01 1654.5 Q2151.86 1652.32 2151.86 1648.6 Q2151.86 1644.85 2150.01 1642.69 Q2148.18 1640.54 2145.03 1640.54 M2154.31 1625.89 L2154.31 1630.15 Q2152.55 1629.31 2150.75 1628.87 Q2148.96 1628.43 2147.2 1628.43 Q2142.57 1628.43 2140.12 1631.56 Q2137.69 1634.68 2137.34 1641 Q2138.71 1638.99 2140.77 1637.93 Q2142.83 1636.84 2145.31 1636.84 Q2150.51 1636.84 2153.52 1640.01 Q2156.56 1643.16 2156.56 1648.6 Q2156.56 1653.92 2153.41 1657.14 Q2150.26 1660.36 2145.03 1660.36 Q2139.03 1660.36 2135.86 1655.77 Q2132.69 1651.17 2132.69 1642.44 Q2132.69 1634.25 2136.58 1629.38 Q2140.47 1624.5 2147.02 1624.5 Q2148.78 1624.5 2150.56 1624.85 Q2152.37 1625.19 2154.31 1625.89 Z" fill="#000000" fill-rule="nonzero" fill-opacity="1"></path><path clip-path="url(#clip130)" d="M2070.12 1311.64 Q2066.51 1311.64 2064.68 1315.2 Q2062.88 1318.74 2062.88 1325.87 Q2062.88 1332.98 2064.68 1336.54 Q2066.51 1340.08 2070.12 1340.08 Q2073.76 1340.08 2075.56 1336.54 Q2077.39 1332.98 2077.39 1325.87 Q2077.39 1318.74 2075.56 1315.2 Q2073.76 1311.64 2070.12 1311.64 M2070.12 1307.93 Q2075.93 1307.93 2078.99 1312.54 Q2082.07 1317.12 2082.07 1325.87 Q2082.07 1334.6 2078.99 1339.2 Q2075.93 1343.79 2070.12 1343.79 Q2064.31 1343.79 2061.23 1339.2 Q2058.18 1334.6 2058.18 1325.87 Q2058.18 1317.12 2061.23 1312.54 Q2064.31 1307.93 2070.12 1307.93 Z" fill="#000000" fill-rule="nonzero" fill-opacity="1"></path><path clip-path="url(#clip130)" d="M2090.28 1337.24 L2095.17 1337.24 L2095.17 1343.12 L2090.28 1343.12 L2090.28 1337.24 Z" fill="#000000" fill-rule="nonzero" fill-opacity="1"></path><path clip-path="url(#clip130)" d="M2105.49 1342.4 L2105.49 1338.14 Q2107.25 1338.97 2109.06 1339.41 Q2110.86 1339.85 2112.6 1339.85 Q2117.23 1339.85 2119.66 1336.75 Q2122.11 1333.63 2122.46 1327.28 Q2121.12 1329.27 2119.06 1330.34 Q2117 1331.4 2114.5 1331.4 Q2109.31 1331.4 2106.28 1328.28 Q2103.27 1325.13 2103.27 1319.69 Q2103.27 1314.37 2106.42 1311.15 Q2109.57 1307.93 2114.8 1307.93 Q2120.79 1307.93 2123.94 1312.54 Q2127.11 1317.12 2127.11 1325.87 Q2127.11 1334.04 2123.22 1338.93 Q2119.36 1343.79 2112.81 1343.79 Q2111.05 1343.79 2109.24 1343.44 Q2107.44 1343.09 2105.49 1342.4 M2114.8 1327.75 Q2117.95 1327.75 2119.77 1325.59 Q2121.63 1323.44 2121.63 1319.69 Q2121.63 1315.96 2119.77 1313.81 Q2117.95 1311.64 2114.8 1311.64 Q2111.65 1311.64 2109.8 1313.81 Q2107.97 1315.96 2107.97 1319.69 Q2107.97 1323.44 2109.8 1325.59 Q2111.65 1327.75 2114.8 1327.75 Z" fill="#000000" fill-rule="nonzero" fill-opacity="1"></path><path clip-path="url(#clip130)" d="M2134.33 1308.56 L2156.56 1308.56 L2156.56 1310.55 L2144.01 1343.12 L2139.13 1343.12 L2150.93 1312.49 L2134.33 1312.49 L2134.33 1308.56 Z" fill="#000000" fill-rule="nonzero" fill-opacity="1"></path><path clip-path="url(#clip130)" d="M2069.31 995.067 Q2065.7 995.067 2063.87 998.632 Q2062.07 1002.17 2062.07 1009.3 Q2062.07 1016.41 2063.87 1019.97 Q2065.7 1023.52 2069.31 1023.52 Q2072.95 1023.52 2074.75 1019.97 Q2076.58 1016.41 2076.58 1009.3 Q2076.58 1002.17 2074.75 998.632 Q2072.95 995.067 2069.31 995.067 M2069.31 991.363 Q2075.12 991.363 2078.18 995.97 Q2081.26 1000.55 2081.26 1009.3 Q2081.26 1018.03 2078.18 1022.64 Q2075.12 1027.22 2069.31 1027.22 Q2063.5 1027.22 2060.42 1022.64 Q2057.37 1018.03 2057.37 1009.3 Q2057.37 1000.55 2060.42 995.97 Q2063.5 991.363 2069.31 991.363 Z" fill="#000000" fill-rule="nonzero" fill-opacity="1"></path><path clip-path="url(#clip130)" d="M2089.47 1020.67 L2094.36 1020.67 L2094.36 1026.55 L2089.47 1026.55 L2089.47 1020.67 Z" fill="#000000" fill-rule="nonzero" fill-opacity="1"></path><path clip-path="url(#clip130)" d="M2104.68 1025.83 L2104.68 1021.57 Q2106.44 1022.4 2108.25 1022.84 Q2110.05 1023.28 2111.79 1023.28 Q2116.42 1023.28 2118.85 1020.18 Q2121.3 1017.06 2121.65 1010.72 Q2120.31 1012.71 2118.25 1013.77 Q2116.19 1014.84 2113.69 1014.84 Q2108.5 1014.84 2105.47 1011.71 Q2102.46 1008.56 2102.46 1003.12 Q2102.46 997.798 2105.61 994.581 Q2108.76 991.363 2113.99 991.363 Q2119.98 991.363 2123.13 995.97 Q2126.3 1000.55 2126.3 1009.3 Q2126.3 1017.47 2122.41 1022.36 Q2118.55 1027.22 2112 1027.22 Q2110.24 1027.22 2108.43 1026.87 Q2106.63 1026.53 2104.68 1025.83 M2113.99 1011.18 Q2117.14 1011.18 2118.96 1009.03 Q2120.82 1006.87 2120.82 1003.12 Q2120.82 999.396 2118.96 997.243 Q2117.14 995.067 2113.99 995.067 Q2110.84 995.067 2108.99 997.243 Q2107.16 999.396 2107.16 1003.12 Q2107.16 1006.87 2108.99 1009.03 Q2110.84 1011.18 2113.99 1011.18 Z" fill="#000000" fill-rule="nonzero" fill-opacity="1"></path><path clip-path="url(#clip130)" d="M2144.7 1010.14 Q2141.37 1010.14 2139.45 1011.92 Q2137.55 1013.7 2137.55 1016.83 Q2137.55 1019.95 2139.45 1021.73 Q2141.37 1023.52 2144.7 1023.52 Q2148.04 1023.52 2149.96 1021.73 Q2151.88 1019.93 2151.88 1016.83 Q2151.88 1013.7 2149.96 1011.92 Q2148.06 1010.14 2144.7 1010.14 M2140.03 1008.15 Q2137.02 1007.4 2135.33 1005.34 Q2133.66 1003.28 2133.66 1000.32 Q2133.66 996.178 2136.6 993.771 Q2139.57 991.363 2144.7 991.363 Q2149.87 991.363 2152.81 993.771 Q2155.75 996.178 2155.75 1000.32 Q2155.75 1003.28 2154.06 1005.34 Q2152.39 1007.4 2149.4 1008.15 Q2152.78 1008.93 2154.66 1011.22 Q2156.56 1013.52 2156.56 1016.83 Q2156.56 1021.85 2153.48 1024.53 Q2150.42 1027.22 2144.7 1027.22 Q2138.99 1027.22 2135.91 1024.53 Q2132.85 1021.85 2132.85 1016.83 Q2132.85 1013.52 2134.75 1011.22 Q2136.65 1008.93 2140.03 1008.15 M2138.32 1000.76 Q2138.32 1003.45 2139.98 1004.95 Q2141.67 1006.46 2144.7 1006.46 Q2147.71 1006.46 2149.4 1004.95 Q2151.12 1003.45 2151.12 1000.76 Q2151.12 998.076 2149.4 996.572 Q2147.71 995.067 2144.7 995.067 Q2141.67 995.067 2139.98 996.572 Q2138.32 998.076 2138.32 1000.76 Z" fill="#000000" fill-rule="nonzero" fill-opacity="1"></path><path clip-path="url(#clip130)" d="M2069.4 678.499 Q2065.79 678.499 2063.96 682.064 Q2062.16 685.605 2062.16 692.735 Q2062.16 699.841 2063.96 703.406 Q2065.79 706.948 2069.4 706.948 Q2073.04 706.948 2074.84 703.406 Q2076.67 699.841 2076.67 692.735 Q2076.67 685.605 2074.84 682.064 Q2073.04 678.499 2069.4 678.499 M2069.4 674.795 Q2075.21 674.795 2078.27 679.402 Q2081.35 683.985 2081.35 692.735 Q2081.35 701.462 2078.27 706.068 Q2075.21 710.651 2069.4 710.651 Q2063.59 710.651 2060.52 706.068 Q2057.46 701.462 2057.46 692.735 Q2057.46 683.985 2060.52 679.402 Q2063.59 674.795 2069.4 674.795 Z" fill="#000000" fill-rule="nonzero" fill-opacity="1"></path><path clip-path="url(#clip130)" d="M2089.57 704.1 L2094.45 704.1 L2094.45 709.98 L2089.57 709.98 L2089.57 704.1 Z" fill="#000000" fill-rule="nonzero" fill-opacity="1"></path><path clip-path="url(#clip130)" d="M2104.77 709.262 L2104.77 705.003 Q2106.53 705.837 2108.34 706.276 Q2110.14 706.716 2111.88 706.716 Q2116.51 706.716 2118.94 703.614 Q2121.39 700.489 2121.74 694.147 Q2120.4 696.138 2118.34 697.202 Q2116.28 698.267 2113.78 698.267 Q2108.59 698.267 2105.56 695.142 Q2102.55 691.994 2102.55 686.554 Q2102.55 681.23 2105.7 678.013 Q2108.85 674.795 2114.08 674.795 Q2120.08 674.795 2123.22 679.402 Q2126.39 683.985 2126.39 692.735 Q2126.39 700.906 2122.51 705.79 Q2118.64 710.651 2112.09 710.651 Q2110.33 710.651 2108.52 710.304 Q2106.72 709.957 2104.77 709.262 M2114.08 694.61 Q2117.23 694.61 2119.06 692.457 Q2120.91 690.304 2120.91 686.554 Q2120.91 682.827 2119.06 680.675 Q2117.23 678.499 2114.08 678.499 Q2110.93 678.499 2109.08 680.675 Q2107.25 682.827 2107.25 686.554 Q2107.25 690.304 2109.08 692.457 Q2110.93 694.61 2114.08 694.61 Z" fill="#000000" fill-rule="nonzero" fill-opacity="1"></path><path clip-path="url(#clip130)" d="M2134.94 709.262 L2134.94 705.003 Q2136.7 705.837 2138.5 706.276 Q2140.31 706.716 2142.04 706.716 Q2146.67 706.716 2149.1 703.614 Q2151.56 700.489 2151.9 694.147 Q2150.56 696.138 2148.5 697.202 Q2146.44 698.267 2143.94 698.267 Q2138.76 698.267 2135.72 695.142 Q2132.71 691.994 2132.71 686.554 Q2132.71 681.23 2135.86 678.013 Q2139.01 674.795 2144.24 674.795 Q2150.24 674.795 2153.39 679.402 Q2156.56 683.985 2156.56 692.735 Q2156.56 700.906 2152.67 705.79 Q2148.8 710.651 2142.25 710.651 Q2140.49 710.651 2138.69 710.304 Q2136.88 709.957 2134.94 709.262 M2144.24 694.61 Q2147.39 694.61 2149.22 692.457 Q2151.07 690.304 2151.07 686.554 Q2151.07 682.827 2149.22 680.675 Q2147.39 678.499 2144.24 678.499 Q2141.09 678.499 2139.24 680.675 Q2137.41 682.827 2137.41 686.554 Q2137.41 690.304 2139.24 692.457 Q2141.09 694.61 2144.24 694.61 Z" fill="#000000" fill-rule="nonzero" fill-opacity="1"></path><path clip-path="url(#clip130)" d="M2060.03 389.477 L2067.67 389.477 L2067.67 363.111 L2059.36 364.778 L2059.36 360.518 L2067.62 358.852 L2072.3 358.852 L2072.3 389.477 L2079.94 389.477 L2079.94 393.412 L2060.03 393.412 L2060.03 389.477 Z" fill="#000000" fill-rule="nonzero" fill-opacity="1"></path><path clip-path="url(#clip130)" d="M2089.38 387.532 L2094.26 387.532 L2094.26 393.412 L2089.38 393.412 L2089.38 387.532 Z" fill="#000000" fill-rule="nonzero" fill-opacity="1"></path><path clip-path="url(#clip130)" d="M2114.45 361.931 Q2110.84 361.931 2109.01 365.495 Q2107.2 369.037 2107.2 376.167 Q2107.2 383.273 2109.01 386.838 Q2110.84 390.379 2114.45 390.379 Q2118.08 390.379 2119.89 386.838 Q2121.72 383.273 2121.72 376.167 Q2121.72 369.037 2119.89 365.495 Q2118.08 361.931 2114.45 361.931 M2114.45 358.227 Q2120.26 358.227 2123.32 362.833 Q2126.39 367.417 2126.39 376.167 Q2126.39 384.893 2123.32 389.5 Q2120.26 394.083 2114.45 394.083 Q2108.64 394.083 2105.56 389.5 Q2102.51 384.893 2102.51 376.167 Q2102.51 367.417 2105.56 362.833 Q2108.64 358.227 2114.45 358.227 Z" fill="#000000" fill-rule="nonzero" fill-opacity="1"></path><path clip-path="url(#clip130)" d="M2144.61 361.931 Q2141 361.931 2139.17 365.495 Q2137.37 369.037 2137.37 376.167 Q2137.37 383.273 2139.17 386.838 Q2141 390.379 2144.61 390.379 Q2148.25 390.379 2150.05 386.838 Q2151.88 383.273 2151.88 376.167 Q2151.88 369.037 2150.05 365.495 Q2148.25 361.931 2144.61 361.931 M2144.61 358.227 Q2150.42 358.227 2153.48 362.833 Q2156.56 367.417 2156.56 376.167 Q2156.56 384.893 2153.48 389.5 Q2150.42 394.083 2144.61 394.083 Q2138.8 394.083 2135.72 389.5 Q2132.67 384.893 2132.67 376.167 Q2132.67 367.417 2135.72 362.833 Q2138.8 358.227 2144.61 358.227 Z" fill="#000000" fill-rule="nonzero" fill-opacity="1"></path><path clip-path="url(#clip130)" d="M2816.28 12.096 L2827.3 12.096 L2854.12 62.6918 L2854.12 12.096 L2862.06 12.096 L2862.06 72.576 L2851.04 72.576 L2824.22 21.9802 L2824.22 72.576 L2816.28 72.576 L2816.28 12.096 Z" fill="#000000" fill-rule="nonzero" fill-opacity="1"></path><path clip-path="url(#clip130)" d="M2895.6 32.4315 Q2889.61 32.4315 2886.12 37.1306 Q2882.64 41.7891 2882.64 49.9314 Q2882.64 58.0738 2886.08 62.7728 Q2889.56 67.4314 2895.6 67.4314 Q2901.56 67.4314 2905.04 62.7323 Q2908.52 58.0333 2908.52 49.9314 Q2908.52 41.8701 2905.04 37.1711 Q2901.56 32.4315 2895.6 32.4315 M2895.6 26.1121 Q2905.32 26.1121 2910.87 32.4315 Q2916.42 38.7509 2916.42 49.9314 Q2916.42 61.0714 2910.87 67.4314 Q2905.32 73.7508 2895.6 73.7508 Q2885.84 73.7508 2880.29 67.4314 Q2874.78 61.0714 2874.78 49.9314 Q2874.78 38.7509 2880.29 32.4315 Q2885.84 26.1121 2895.6 26.1121 Z" fill="#000000" fill-rule="nonzero" fill-opacity="1"></path><path clip-path="url(#clip130)" d="M2964.1 35.9153 Q2966.9 30.8922 2970.79 28.5022 Q2974.67 26.1121 2979.94 26.1121 Q2987.03 26.1121 2990.88 31.0947 Q2994.73 36.0368 2994.73 45.1919 L2994.73 72.576 L2987.23 72.576 L2987.23 45.4349 Q2987.23 38.913 2984.92 35.7533 Q2982.61 32.5936 2977.87 32.5936 Q2972.08 32.5936 2968.72 36.4419 Q2965.36 40.2903 2965.36 46.9338 L2965.36 72.576 L2957.86 72.576 L2957.86 45.4349 Q2957.86 38.8725 2955.55 35.7533 Q2953.24 32.5936 2948.42 32.5936 Q2942.71 32.5936 2939.35 36.4824 Q2935.99 40.3308 2935.99 46.9338 L2935.99 72.576 L2928.49 72.576 L2928.49 27.2059 L2935.99 27.2059 L2935.99 34.2544 Q2938.54 30.082 2942.1 28.0971 Q2945.67 26.1121 2950.57 26.1121 Q2955.51 26.1121 2958.96 28.6237 Q2962.44 31.1352 2964.1 35.9153 Z" fill="#000000" fill-rule="nonzero" fill-opacity="1"></path><path clip-path="url(#clip130)" d="M3009.59 27.2059 L3017.05 27.2059 L3017.05 72.576 L3009.59 72.576 L3009.59 27.2059 M3009.59 9.54393 L3017.05 9.54393 L3017.05 18.9825 L3009.59 18.9825 L3009.59 9.54393 Z" fill="#000000" fill-rule="nonzero" fill-opacity="1"></path><path clip-path="url(#clip130)" d="M3070.36 45.1919 L3070.36 72.576 L3062.9 72.576 L3062.9 45.4349 Q3062.9 38.994 3060.39 35.7938 Q3057.88 32.5936 3052.86 32.5936 Q3046.82 32.5936 3043.34 36.4419 Q3039.85 40.2903 3039.85 46.9338 L3039.85 72.576 L3032.36 72.576 L3032.36 27.2059 L3039.85 27.2059 L3039.85 34.2544 Q3042.53 30.163 3046.13 28.1376 Q3049.78 26.1121 3054.52 26.1121 Q3062.34 26.1121 3066.35 30.9732 Q3070.36 35.7938 3070.36 45.1919 Z" fill="#000000" fill-rule="nonzero" fill-opacity="1"></path><path clip-path="url(#clip130)" d="M3105.84 49.7694 Q3096.81 49.7694 3093.33 51.8354 Q3089.84 53.9013 3089.84 58.8839 Q3089.84 62.8538 3092.43 65.2034 Q3095.07 67.5124 3099.56 67.5124 Q3105.76 67.5124 3109.49 63.1374 Q3113.26 58.7219 3113.26 51.4303 L3113.26 49.7694 L3105.84 49.7694 M3120.71 46.6907 L3120.71 72.576 L3113.26 72.576 L3113.26 65.6895 Q3110.7 69.8214 3106.9 71.8063 Q3103.09 73.7508 3097.58 73.7508 Q3090.61 73.7508 3086.48 69.8619 Q3082.39 65.9325 3082.39 59.3701 Q3082.39 51.7138 3087.49 47.825 Q3092.64 43.9361 3102.8 43.9361 L3113.26 43.9361 L3113.26 43.2069 Q3113.26 38.0623 3109.85 35.2672 Q3106.49 32.4315 3100.37 32.4315 Q3096.48 32.4315 3092.8 33.3632 Q3089.11 34.295 3085.71 36.1584 L3085.71 29.2718 Q3089.8 27.692 3093.65 26.9223 Q3097.5 26.1121 3101.14 26.1121 Q3110.99 26.1121 3115.85 31.2163 Q3120.71 36.3204 3120.71 46.6907 Z" fill="#000000" fill-rule="nonzero" fill-opacity="1"></path><path clip-path="url(#clip130)" d="M3136.06 9.54393 L3143.52 9.54393 L3143.52 72.576 L3136.06 72.576 L3136.06 9.54393 Z" fill="#000000" fill-rule="nonzero" fill-opacity="1"></path><path clip-path="url(#clip130)" d="M3227.05 63.9476 L3227.05 47.7034 L3213.68 47.7034 L3213.68 40.9789 L3235.15 40.9789 L3235.15 66.9452 Q3230.41 70.3075 3224.7 72.0494 Q3218.98 73.7508 3212.5 73.7508 Q3198.32 73.7508 3190.3 65.4869 Q3182.32 57.1826 3182.32 42.3968 Q3182.32 27.5705 3190.3 19.3066 Q3198.32 11.0023 3212.5 11.0023 Q3218.42 11.0023 3223.72 12.4606 Q3229.07 13.9189 3233.57 16.7545 L3233.57 25.464 Q3229.03 21.6156 3223.93 19.6712 Q3218.82 17.7268 3213.19 17.7268 Q3202.09 17.7268 3196.5 23.9246 Q3190.95 30.1225 3190.95 42.3968 Q3190.95 54.6305 3196.5 60.8284 Q3202.09 67.0263 3213.19 67.0263 Q3217.53 67.0263 3220.93 66.2971 Q3224.33 65.5274 3227.05 63.9476 Z" fill="#000000" fill-rule="nonzero" fill-opacity="1"></path><path clip-path="url(#clip130)" d="M3258.28 18.8205 L3258.28 65.8515 L3268.16 65.8515 Q3280.68 65.8515 3286.47 60.1802 Q3292.31 54.509 3292.31 42.2752 Q3292.31 30.1225 3286.47 24.4918 Q3280.68 18.8205 3268.16 18.8205 L3258.28 18.8205 M3250.1 12.096 L3266.91 12.096 Q3284.49 12.096 3292.71 19.4281 Q3300.93 26.7198 3300.93 42.2752 Q3300.93 57.9117 3292.67 65.2439 Q3284.41 72.576 3266.91 72.576 L3250.1 72.576 L3250.1 12.096 Z" fill="#000000" fill-rule="nonzero" fill-opacity="1"></path><path clip-path="url(#clip130)" d="M3322.16 18.8205 L3322.16 41.5461 L3332.45 41.5461 Q3338.16 41.5461 3341.28 38.5889 Q3344.4 35.6318 3344.4 30.163 Q3344.4 24.7348 3341.28 21.7777 Q3338.16 18.8205 3332.45 18.8205 L3322.16 18.8205 M3313.98 12.096 L3332.45 12.096 Q3342.62 12.096 3347.8 16.714 Q3353.03 21.2916 3353.03 30.163 Q3353.03 39.1155 3347.8 43.6931 Q3342.62 48.2706 3332.45 48.2706 L3322.16 48.2706 L3322.16 72.576 L3313.98 72.576 L3313.98 12.096 Z" fill="#000000" fill-rule="nonzero" fill-opacity="1"></path><polyline clip-path="url(#clip133)" style="stroke:#009af9; stroke-linecap:round; stroke-linejoin:round; stroke-width:4; stroke-opacity:1; fill:none" points="3903.62,2201.02 3887.07,2201.07 3870.53,2201.12 3853.98,2201.17 3837.44,2201.23 3820.89,2201.28 3804.35,2201.33 3787.81,2201.38 3771.26,2201.44 3754.72,2201.49 3738.17,2201.54 3721.63,2201.6 3705.08,2201.65 3688.54,2201.71 3671.99,2201.76 3655.45,2201.82 3638.9,2201.87 3622.36,2201.93 3605.81,2201.99 3589.27,2202.04 3572.72,2202.1 3556.18,2202.16 3539.64,2202.22 3523.09,2202.27 3506.55,2202.33 3490,2202.39 3473.46,2202.45 3456.91,2202.51 3440.37,2202.57 3423.82,2202.63 3407.28,2202.69 3390.73,2202.75 3374.19,2202.81 3357.64,2202.87 3341.1,2202.93 3324.55,2202.99 3308.01,2203.06 3291.46,2203.12 3274.92,2203.18 3258.38,2203.25 3241.83,2203.31 3225.29,2203.38 3208.74,2203.44 3192.2,2203.51 3175.65,2203.57 3159.11,2203.64 3142.56,2203.7 3126.02,2203.77 3109.47,2203.84 3092.93,2203.9 3076.38,2203.97 3059.84,2204.04 3043.29,2204.11 3026.75,2204.18 3010.21,2204.25 2993.66,2204.32 2977.12,2204.39 2960.57,2204.46 2944.03,2204.53 2927.48,2204.61 2910.94,2204.68 2894.39,2204.75 2877.85,2204.83 2861.3,2204.9 2844.76,2204.97 2828.21,2205.05 2811.67,2205.13 2795.12,2205.2 2778.58,2205.28 2762.03,2205.36 2745.49,2205.43 2728.95,2205.51 2712.4,2205.59 2695.86,2205.67 2679.31,2205.75 2662.77,2205.83 2646.22,2205.92 2629.68,2206 2613.13,2206.08 2596.59,2206.17 2580.04,2206.25 2563.5,2206.34 2546.95,2206.42 2530.41,2206.51 2513.86,2206.6 2497.32,2206.68 2480.78,2206.77 2464.23,2206.86 2447.69,2206.96 2431.14,2207.05 2414.6,2207.14 2398.05,2207.23 2381.51,2207.33 2364.96,2207.43 2348.42,2207.52 2331.87,2207.62 2315.33,2207.72 2298.78,2207.82 2282.24,2207.92 2265.69,2208.03 "></polyline>
<polyline clip-path="url(#clip133)" style="stroke:#e26f46; stroke-linecap:round; stroke-linejoin:round; stroke-width:4; stroke-opacity:1; fill:none" points="3903.62,2197.6 3887.07,2197.69 3870.53,2197.78 3853.98,2197.88 3837.44,2197.97 3820.89,2198.07 3804.35,2198.17 3787.81,2198.27 3771.26,2198.37 3754.72,2198.47 3738.17,2198.57 3721.63,2198.67 3705.08,2198.78 3688.54,2198.88 3671.99,2198.99 3655.45,2199.1 3638.9,2199.21 3622.36,2199.32 3605.81,2199.44 3589.27,2199.55 3572.72,2199.67 3556.18,2199.78 3539.64,2199.9 3523.09,2200.02 3506.55,2200.14 3490,2200.27 3473.46,2200.39 3456.91,2200.52 3440.37,2200.65 3423.82,2200.78 3407.28,2200.91 3390.73,2201.05 3374.19,2201.18 3357.64,2201.32 3341.1,2201.46 3324.55,2201.6 3308.01,2201.75 3291.46,2201.89 3274.92,2202.04 3258.38,2202.19 3241.83,2202.35 3225.29,2202.5 3208.74,2202.66 3192.2,2202.82 3175.65,2202.99 3159.11,2203.15 3142.56,2203.32 3126.02,2203.5 3109.47,2203.67 3092.93,2203.85 3076.38,2204.03 3059.84,2204.21 3043.29,2204.4 3026.75,2204.59 3010.21,2204.79 2993.66,2204.99 2977.12,2205.19 2960.57,2205.39 2944.03,2205.6 2927.48,2205.82 2910.94,2206.03 2894.39,2206.26 2877.85,2206.48 2861.3,2206.72 2844.76,2206.95 2828.21,2207.19 2811.67,2207.44 2795.12,2207.69 2778.58,2207.95 2762.03,2208.21 2745.49,2208.48 2728.95,2208.76 2712.4,2209.04 2695.86,2209.33 2679.31,2209.63 2662.77,2209.93 2646.22,2210.24 2629.68,2210.56 2613.13,2210.89 2596.59,2211.23 2580.04,2211.57 2563.5,2211.93 2546.95,2212.29 2530.41,2212.67 2513.86,2213.06 2497.32,2213.46 2480.78,2213.87 2464.23,2214.29 2447.69,2214.73 2431.14,2215.18 2414.6,2215.64 2398.05,2216.13 2381.51,2216.62 2364.96,2217.14 2348.42,2217.67 2331.87,2218.22 2315.33,2218.8 2298.78,2219.39 2282.24,2220.01 2265.69,2220.65 "></polyline>
<polyline clip-path="url(#clip133)" style="stroke:#3da44d; stroke-linecap:round; stroke-linejoin:round; stroke-width:4; stroke-opacity:1; fill:none" points="3903.62,2203.94 3887.07,2037.86 3870.53,1894.16 3853.98,1768.6 3837.44,1657.95 3820.89,1559.71 3804.35,1471.91 3787.81,1392.96 3771.26,1321.59 3754.72,1256.76 3738.17,1197.62 3721.63,1143.44 3705.08,1093.63 3688.54,1047.68 3671.99,1005.16 3655.45,965.704 3638.9,928.988 3622.36,894.737 3605.81,862.714 3589.27,832.707 3572.72,804.534 3556.18,778.03 3539.64,753.053 3523.09,729.476 3506.55,707.183 3490,686.073 3473.46,666.055 3456.91,647.047 3440.37,628.975 3423.82,611.771 3407.28,595.375 3390.73,579.732 3374.19,564.791 3357.64,550.506 3341.1,536.836 3324.55,523.742 3308.01,511.189 3291.46,499.143 3274.92,487.576 3258.38,476.46 3241.83,465.769 3225.29,455.479 3208.74,445.569 3192.2,436.018 3175.65,426.807 3159.11,417.919 3142.56,409.338 3126.02,401.047 3109.47,393.034 3092.93,385.284 3076.38,377.784 3059.84,370.524 3043.29,363.492 3026.75,356.678 3010.21,350.072 2993.66,343.665 2977.12,337.448 2960.57,331.414 2944.03,325.555 2927.48,319.862 2910.94,314.331 2894.39,308.953 2877.85,303.724 2861.3,298.636 2844.76,293.686 2828.21,288.867 2811.67,284.175 2795.12,279.605 2778.58,275.152 2762.03,270.813 2745.49,266.583 2728.95,262.459 2712.4,258.436 2695.86,254.512 2679.31,250.682 2662.77,246.945 2646.22,243.297 2629.68,239.735 2613.13,236.256 2596.59,232.857 2580.04,229.537 2563.5,226.293 2546.95,223.122 2530.41,220.023 2513.86,216.993 2497.32,214.03 2480.78,211.133 2464.23,208.299 2447.69,205.527 2431.14,202.815 2414.6,200.161 2398.05,197.565 2381.51,195.024 2364.96,192.537 2348.42,190.103 2331.87,187.721 2315.33,185.389 2298.78,183.106 2282.24,180.871 2265.69,178.683 "></polyline>
</svg>